<?xml version="1.0" standalone="no"?>
<!DOCTYPE svg PUBLIC "-//W3C//DTD SVG 1.1//EN" "http://www.w3.org/Graphics/SVG/1.1/DTD/svg11.dtd" >
<svg xmlns="http://www.w3.org/2000/svg" xmlns:xlink="http://www.w3.org/1999/xlink" version="1.1">
<metadata>
Created by FontForge 20190801 at Tue Jun 25 09:59:49 2024
 By www-data
(c) 2010-2020, Copyright by Lineto GmbH. All rights reserved.
</metadata>
<defs>
<font id="BrownLLWebMedium" horiz-adv-x="590" >
  <font-face 
    font-family="BrownLLWebMedium"
    font-weight="500"
    font-stretch="normal"
    units-per-em="1000"
    panose-1="2 11 6 4 1 1 1 1 1 4"
    ascent="800"
    descent="-200"
    x-height="480"
    cap-height="700"
    bbox="-550 -250 1462 1120"
    underline-thickness="80"
    underline-position="-100"
    unicode-range="U+000D-FEFF"
  />
<missing-glyph horiz-adv-x="656" 
d="M88 700h480v-700h-480v700zM488 75v550h-320v-550h320z" />
    <glyph glyph-name="f_f" unicode="ff" horiz-adv-x="836" 
d="M253 480h145v-95h-145v-385h-115v385h-115v95h115v54q0 55 15 90.5t42 58.5q21 18 48 27.5t56 9.5q73 0 119 -40l-47 -81q-26 18 -57 18q-28 0 -45 -19q-8 -8 -12 -21.5t-4 -40.5v-56zM671 480h145v-95h-145v-385h-115v385h-115v95h115v54q0 55 15 90.5t42 58.5
q21 18 48 27.5t56 9.5q73 0 119 -40l-47 -81q-26 18 -57 18q-28 0 -45 -19q-8 -8 -12 -21.5t-4 -40.5v-56z" />
    <glyph glyph-name="f_f_i" unicode="ffi" horiz-adv-x="1109" 
d="M253 480h145v-95h-145v-385h-115v385h-115v95h115v54q0 55 15 90.5t42 58.5q21 18 48 27.5t56 9.5q73 0 119 -40l-47 -81q-26 18 -57 18q-28 0 -45 -19q-8 -8 -12 -21.5t-4 -40.5v-56zM671 480h145v-95h-145v-385h-115v385h-115v95h115v54q0 55 15 90.5t42 58.5
q21 18 48 27.5t56 9.5q73 0 119 -40l-47 -81q-26 18 -57 18q-28 0 -45 -19q-8 -8 -12 -21.5t-4 -40.5v-56zM915 0v480h115v-480h-115zM900 650q0 30 21 51.5t51 21.5t51.5 -21.5t21.5 -51.5t-21.5 -51t-51.5 -21t-51 21t-21 51z" />
    <glyph glyph-name="f_f_j" unicode="ffj" horiz-adv-x="1117" 
d="M253 480h145v-95h-145v-385h-115v385h-115v95h115v54q0 55 15 90.5t42 58.5q21 18 48 27.5t56 9.5q73 0 119 -40l-47 -81q-26 18 -57 18q-28 0 -45 -19q-8 -8 -12 -21.5t-4 -40.5v-56zM671 480h145v-95h-145v-385h-115v385h-115v95h115v54q0 55 15 90.5t42 58.5
q21 18 48 27.5t56 9.5q73 0 119 -40l-47 -81q-26 18 -57 18q-28 0 -45 -19q-8 -8 -12 -21.5t-4 -40.5v-56zM923 480h115v-534q0 -55 -15 -90.5t-42 -58.5q-21 -18 -48 -27.5t-56 -9.5q-73 0 -119 40l47 81q26 -18 57 -18q28 0 45 19q8 8 12 21.5t4 40.5v536zM908 650
q0 30 21 51.5t51 21.5t51.5 -21.5t21.5 -51.5t-21.5 -51t-51.5 -21t-51 21t-21 51z" />
    <glyph glyph-name="f_f_l" unicode="ffl" horiz-adv-x="1109" 
d="M253 480h145v-95h-145v-385h-115v385h-115v95h115v54q0 55 15 90.5t42 58.5q21 18 48 27.5t56 9.5q73 0 119 -40l-47 -81q-26 18 -57 18q-28 0 -45 -19q-8 -8 -12 -21.5t-4 -40.5v-56zM671 480h145v-95h-145v-385h-115v385h-115v95h115v54q0 55 15 90.5t42 58.5
q21 18 48 27.5t56 9.5q73 0 119 -40l-47 -81q-26 18 -57 18q-28 0 -45 -19q-8 -8 -12 -21.5t-4 -40.5v-56zM915 710h115v-710h-115v710z" />
    <glyph glyph-name="f_f_t" unicode="fft" horiz-adv-x="1273" 
d="M253 480h145v-95h-145v-385h-115v385h-115v95h115v54q0 55 15 90.5t42 58.5q21 18 48 27.5t56 9.5q73 0 119 -40l-47 -81q-26 18 -57 18q-28 0 -45 -19q-8 -8 -12 -21.5t-4 -40.5v-56zM671 480h145v-95h-145v-385h-115v385h-115v95h115v54q0 55 15 90.5t42 58.5
q21 18 48 27.5t56 9.5q73 0 119 -40l-47 -81q-26 18 -57 18q-28 0 -45 -19q-8 -8 -12 -21.5t-4 -40.5v-56zM1133 -10q-35 0 -68.5 12t-57.5 40q-17 21 -26 50t-9 74v219h-115v95h115v160h115v-160h145v-95h-145v-220q0 -23 3 -35.5t11 -20.5q16 -18 47 -18q17 0 31.5 4.5
t27.5 12.5l40 -84q-25 -17 -53 -25.5t-61 -8.5z" />
    <glyph glyph-name="f_i" unicode="fi" horiz-adv-x="691" 
d="M253 480h145v-95h-145v-385h-115v385h-115v95h115v54q0 55 15 90.5t42 58.5q21 18 48 27.5t56 9.5q73 0 119 -40l-47 -81q-26 18 -57 18q-28 0 -45 -19q-8 -8 -12 -21.5t-4 -40.5v-56zM497 0v480h115v-480h-115zM482 650q0 30 21 51.5t51 21.5t51.5 -21.5t21.5 -51.5
t-21.5 -51t-51.5 -21t-51 21t-21 51z" />
    <glyph glyph-name="f_j" unicode="fj" horiz-adv-x="699" 
d="M253 480h145v-95h-145v-385h-115v385h-115v95h115v54q0 55 15 90.5t42 58.5q21 18 48 27.5t56 9.5q73 0 119 -40l-47 -81q-26 18 -57 18q-28 0 -45 -19q-8 -8 -12 -21.5t-4 -40.5v-56zM505 480h115v-534q0 -55 -15 -90.5t-42 -58.5q-21 -18 -48 -27.5t-56 -9.5
q-73 0 -119 40l47 81q26 -18 57 -18q28 0 45 19q8 8 12 21.5t4 40.5v536zM490 650q0 30 21 51.5t51 21.5t51.5 -21.5t21.5 -51.5t-21.5 -51t-51.5 -21t-51 21t-21 51z" />
    <glyph glyph-name="f_l" unicode="fl" horiz-adv-x="691" 
d="M253 480h145v-95h-145v-385h-115v385h-115v95h115v54q0 55 15 90.5t42 58.5q21 18 48 27.5t56 9.5q73 0 119 -40l-47 -81q-26 18 -57 18q-28 0 -45 -19q-8 -8 -12 -21.5t-4 -40.5v-56zM497 710h115v-710h-115v710z" />
    <glyph glyph-name="f_t" unicode="ft" horiz-adv-x="855" 
d="M253 480h145v-95h-145v-385h-115v385h-115v95h115v54q0 55 15 90.5t42 58.5q21 18 48 27.5t56 9.5q73 0 119 -40l-47 -81q-26 18 -57 18q-28 0 -45 -19q-8 -8 -12 -21.5t-4 -40.5v-56zM715 -10q-35 0 -68.5 12t-57.5 40q-17 21 -26 50t-9 74v219h-115v95h115v160h115
v-160h145v-95h-145v-220q0 -23 3 -35.5t11 -20.5q16 -18 47 -18q17 0 31.5 4.5t27.5 12.5l40 -84q-25 -17 -53 -25.5t-61 -8.5z" />
    <glyph glyph-name=".notdef" horiz-adv-x="656" 
d="M88 700h480v-700h-480v700zM488 75v550h-320v-550h320z" />
    <glyph glyph-name=".null" horiz-adv-x="0" 
 />
    <glyph glyph-name=".null" horiz-adv-x="0" 
 />
    <glyph glyph-name="nonmarkingreturn" unicode="&#xd;" horiz-adv-x="246" 
 />
    <glyph glyph-name="space" unicode=" " horiz-adv-x="246" 
 />
    <glyph glyph-name="exclam" unicode="!" horiz-adv-x="339" 
d="M112 480v220h115v-220l-20 -255h-75zM92 67q0 32 22.5 55t54.5 23t55 -23t23 -55t-23 -54.5t-55 -22.5t-54.5 22.5t-22.5 54.5z" />
    <glyph glyph-name="quotedbl" unicode="&#x22;" horiz-adv-x="436" 
d="M58 700h110l-20 -275h-70zM268 700h110l-20 -275h-70z" />
    <glyph glyph-name="numbersign" unicode="#" horiz-adv-x="683" 
d="M649 510v-100h-128l-32 -120h101v-100h-128l-51 -190h-103l51 190h-121l-51 -190h-103l51 190h-101v100h128l32 120h-101v100h128l51 190h103l-51 -190h121l51 190h103l-51 -190h101zM297 410l-32 -120h121l32 120h-121z" />
    <glyph glyph-name="dollar" unicode="$" horiz-adv-x="554" 
d="M234 24q-55 8 -108.5 34.5t-95.5 71.5l74 78q35 -35 81 -56.5t101 -21.5q51 0 80 21t29 55q0 21 -12.5 35t-33 25t-47.5 20t-56 18q-33 11 -65.5 25t-59 35t-42.5 51.5t-16 75.5q0 73 47.5 121t125.5 62v106h110v-105q39 -5 79 -22t75 -47l-65 -86q-27 22 -61.5 36
t-79.5 14q-21 0 -40.5 -4.5t-35.5 -13.5t-25.5 -23.5t-9.5 -34.5q0 -18 10 -30.5t26.5 -22.5t38.5 -17.5t47 -15.5q36 -11 73 -24.5t67.5 -35.5t50 -54.5t19.5 -81.5q0 -33 -12 -64t-34 -56t-53.5 -42.5t-71.5 -24.5v-105h-110v104z" />
    <glyph glyph-name="percent" unicode="%" horiz-adv-x="885" 
d="M854 178q0 -40 -14.5 -74t-39.5 -59.5t-59 -40t-74 -14.5t-74 14.5t-59 40t-39.5 59.5t-14.5 74t14.5 74t39.5 59t59 39.5t74 14.5t74 -14.5t59 -39.5t39.5 -59t14.5 -74zM585 178q0 -38 22.5 -65.5t59.5 -27.5t59.5 27.5t22.5 65.5t-22.5 65t-59.5 27t-59.5 -27
t-22.5 -65zM286 0h-96l409 700h96zM31 522q0 40 14.5 74t39.5 59.5t59 40t74 14.5t74 -14.5t59 -40t39.5 -59.5t14.5 -74t-14.5 -74t-39.5 -59t-59 -39.5t-74 -14.5t-74 14.5t-59 39.5t-39.5 59t-14.5 74zM300 524q0 38 -22.5 64.5t-59.5 26.5t-59.5 -26.5t-22.5 -64.5
t22.5 -66t59.5 -28t59.5 28t22.5 66z" />
    <glyph glyph-name="ampersand" unicode="&#x26;" horiz-adv-x="694" 
d="M298 -10q-51 0 -97.5 15.5t-81 45t-55 70.5t-20.5 92q0 36 10 65.5t27.5 54.5t40 46t46.5 38q-29 34 -47 67.5t-18 71.5q0 32 13 60t35 49t52 33t65 12q34 0 63.5 -12t52 -33.5t35.5 -51t13 -64.5q0 -54 -28.5 -92t-66.5 -67l153 -165q6 21 10 40.5t4 40.5q0 38 -5 67.5
t-10 48.5l103 25q5 -16 13.5 -55t8.5 -87q0 -47 -11 -90t-31 -78l127 -137h-147l-52 54q-42 -32 -90.5 -48t-111.5 -16zM303 95q73 0 123 39l-186 203q-34 -22 -57.5 -52.5t-23.5 -73.5q0 -51 39 -83.5t105 -32.5zM262 468q25 20 40 40t15 43t-13.5 38.5t-35.5 15.5
q-23 0 -36.5 -16t-13.5 -38q0 -21 13.5 -42.5t30.5 -40.5z" />
    <glyph glyph-name="quotesingle" unicode="'" horiz-adv-x="226" 
d="M58 700h110l-20 -275h-70z" />
    <glyph glyph-name="parenleft" unicode="(" horiz-adv-x="323" 
d="M292 648q-59 -84 -97 -188.5t-38 -229.5t38 -229.5t97 -188.5l-87 -62q-72 99 -115 218.5t-43 261.5t43 261.5t115 218.5z" />
    <glyph glyph-name="parenright" unicode=")" horiz-adv-x="323" 
d="M118 710q72 -99 115 -218.5t43 -261.5t-43 -261.5t-115 -218.5l-87 62q59 84 97 188.5t38 229.5t-38 229.5t-97 188.5z" />
    <glyph glyph-name="asterisk" unicode="*" horiz-adv-x="503" 
d="M85 335l89 125l-140 47l29 90l141 -46v149h95v-149l141 46l29 -90l-141 -47l90 -125l-76 -55l-91 125l-90 -125z" />
    <glyph glyph-name="plus" unicode="+" horiz-adv-x="572" 
d="M236 210h-175v100h175v175h100v-175h175v-100h-175v-175h-100v175z" />
    <glyph glyph-name="comma" unicode="," horiz-adv-x="317" 
d="M111 135h125l-120 -275h-80z" />
    <glyph glyph-name="hyphen" unicode="-" horiz-adv-x="437" 
d="M66 305h305v-95h-305v95z" />
    <glyph glyph-name="period" unicode="." horiz-adv-x="311" 
d="M78 67q0 32 22.5 55t54.5 23t55 -23t23 -55t-23 -54.5t-55 -22.5t-54.5 22.5t-22.5 54.5z" />
    <glyph glyph-name="slash" unicode="/" horiz-adv-x="482" 
d="M458 700l-325 -700h-110l325 700h110z" />
    <glyph glyph-name="zero" unicode="0" horiz-adv-x="628" 
d="M314 710q60 0 108 -24.5t81.5 -71t52 -113.5t18.5 -151t-18.5 -151t-52 -113.5t-81.5 -71t-108 -24.5t-108 24.5t-81.5 71t-52 113.5t-18.5 151t18.5 151t52 113.5t81.5 71t108 24.5zM314 100q34 0 60 18t44 51t27 79t9 102t-9 102t-27 79t-44 51t-60 18t-60 -18t-44 -51
t-27 -79t-9 -102t9 -102t27 -79t44 -51t60 -18z" />
    <glyph glyph-name="one" unicode="1" horiz-adv-x="379" 
d="M167 558l-135 -72v117l170 97h85v-700h-120v558z" />
    <glyph glyph-name="two" unicode="2" horiz-adv-x="579" 
d="M521 0h-465v75l244 231q31 29 50 53.5t29 46t13.5 40t3.5 36.5q0 25 -8.5 47t-23.5 37.5t-35.5 24.5t-43.5 9q-56 0 -90.5 -35.5t-47.5 -101.5l-106 26q7 45 26 85t49.5 70t73 48t96.5 18q48 0 89.5 -17t73 -47.5t49.5 -72.5t18 -91q0 -30 -6 -60t-21 -61t-41 -64.5
t-66 -70.5l-125 -116h264v-110z" />
    <glyph glyph-name="three" unicode="3" horiz-adv-x="578" 
d="M271 100q26 0 50 10t42.5 28t29.5 42.5t11 53.5q0 28 -10 52.5t-28 43t-43 29t-56 10.5q-29 0 -50.5 -5.5t-37.5 -13.5v75l150 165h-260v110h435v-75l-150 -164q37 -9 68 -29.5t53.5 -50t35.5 -66t13 -77.5q0 -51 -19 -96t-52.5 -79t-79.5 -53.5t-101 -19.5
q-78 0 -140.5 36.5t-97.5 102.5l96 52q11 -17 24 -31.5t29.5 -25.5t38 -17.5t49.5 -6.5z" />
    <glyph glyph-name="four" unicode="4" horiz-adv-x="622" 
d="M470 275h115v-110h-115v-165h-118v165h-327v75l360 460h85v-425zM191 275h161v208z" />
    <glyph glyph-name="five" unicode="5" horiz-adv-x="561" 
d="M265 -10q-70 0 -129 28.5t-97 85.5l87 65q55 -69 137 -69q28 0 52 10t41.5 27.5t27.5 41.5t10 52q0 29 -10 53.5t-28 42t-42 27.5t-52 10q-32 0 -60.5 -11t-54.5 -31l-78 11l45 367h365v-110h-268l-16 -138q20 8 43 13t42 5q49 0 91.5 -17.5t74 -49t50 -75.5t18.5 -98
q0 -50 -18.5 -94t-52 -76.5t-79 -51t-99.5 -18.5z" />
    <glyph glyph-name="six" unicode="6" horiz-adv-x="588" 
d="M298 -10q-53 0 -99 17t-79.5 48.5t-53 75t-19.5 96.5q0 57 27.5 115.5t68.5 122.5l151 235h133l-145 -230q7 1 14.5 1.5t15.5 0.5q48 0 91.5 -16.5t76.5 -47t52.5 -74t19.5 -98.5q0 -54 -20 -99t-54.5 -78t-81 -51t-98.5 -18zM298 100q28 0 52.5 9.5t42.5 27.5t28.5 43
t10.5 55q0 28 -10 52.5t-28.5 42.5t-44 28.5t-55.5 10.5q-23 0 -45.5 -5.5t-42.5 -14.5q-17 -25 -28 -54.5t-11 -62.5q0 -29 10 -53.5t27 -42t41 -27t53 -9.5z" />
    <glyph glyph-name="seven" unicode="7" horiz-adv-x="534" 
d="M31 700h475v-75l-295 -625h-128l279 590h-331v110z" />
    <glyph glyph-name="eight" unicode="8" horiz-adv-x="588" 
d="M434 394q47 -29 76 -75.5t29 -106.5q0 -46 -19 -86.5t-52 -70.5t-77.5 -47.5t-96.5 -17.5t-96.5 17.5t-77.5 47.5t-52 70.5t-19 86.5q0 60 29 106.5t76 75.5q-28 25 -44 58.5t-16 73.5q0 38 15.5 71.5t42.5 58.5t63.5 39.5t78.5 14.5t78.5 -14.5t63.5 -39.5t42.5 -58.5
t15.5 -71.5q0 -40 -16 -73.5t-44 -58.5zM294 600q-35 0 -57.5 -22.5t-22.5 -57.5t22.5 -57.5t57.5 -22.5t57.5 22.5t22.5 57.5t-22.5 57.5t-57.5 22.5zM294 100q27 0 49.5 9t39.5 24.5t26.5 37t9.5 46.5t-9.5 46.5t-26.5 37.5t-39.5 25t-49.5 9t-49.5 -9t-39.5 -25
t-26.5 -37.5t-9.5 -46.5t9.5 -46.5t26.5 -37t39.5 -24.5t49.5 -9z" />
    <glyph glyph-name="nine" unicode="9" horiz-adv-x="588" 
d="M290 710q53 0 99 -17t79.5 -48.5t53 -75t19.5 -96.5q0 -57 -27.5 -115.5t-68.5 -122.5l-151 -235h-133l145 230q-7 -1 -14.5 -1.5t-15.5 -0.5q-48 0 -91.5 16.5t-76.5 47t-52.5 74t-19.5 98.5q0 54 20 99t54.5 78t80.5 51t99 18zM290 600q-28 0 -52.5 -9.5t-42.5 -27.5
t-28.5 -43t-10.5 -55q0 -29 10 -53.5t28.5 -42.5t44 -28t55.5 -10q23 0 45.5 5.5t42.5 14.5q17 25 28 54.5t11 62.5q0 29 -10 53.5t-27 42t-41.5 27t-52.5 9.5z" />
    <glyph glyph-name="colon" unicode=":" horiz-adv-x="339" 
d="M92 67q0 32 22.5 55t54.5 23t55 -23t23 -55t-23 -54.5t-55 -22.5t-54.5 22.5t-22.5 54.5zM92 412q0 32 22.5 55t54.5 23t55 -23t23 -55t-23 -54.5t-55 -22.5t-54.5 22.5t-22.5 54.5z" />
    <glyph glyph-name="semicolon" unicode=";" horiz-adv-x="347" 
d="M120 135h125l-120 -275h-80zM105 412q0 32 22.5 55t54.5 23t55 -23t23 -55t-23 -54.5t-55 -22.5t-54.5 22.5t-22.5 54.5z" />
    <glyph glyph-name="less" unicode="&#x3c;" horiz-adv-x="572" 
d="M224 260l279 -118v-107l-450 192v66l450 192v-107z" />
    <glyph glyph-name="equal" unicode="=" horiz-adv-x="572" 
d="M61 407h450v-100h-450v100zM61 213h450v-100h-450v100z" />
    <glyph glyph-name="greater" unicode="&#x3e;" horiz-adv-x="572" 
d="M69 378v107l450 -192v-66l-450 -192v107l275 118z" />
    <glyph glyph-name="question" unicode="?" horiz-adv-x="524" 
d="M174 67q0 32 22.5 55t54.5 23t55 -23t23 -55t-23 -54.5t-55 -22.5t-54.5 22.5t-22.5 54.5zM235 190q-20 17 -38.5 41.5t-18.5 60.5q0 25 9 45.5t23.5 37.5t32.5 31.5t35 28.5q25 20 43 42t18 51q0 32 -22.5 54.5t-67.5 22.5q-34 0 -60.5 -21t-37.5 -54l-97 37
q20 63 70.5 103t129.5 40q43 0 79.5 -13.5t63.5 -37.5t42 -57t15 -73q0 -38 -12.5 -66t-31 -50t-40 -38.5t-39.5 -30.5q-19 -14 -31 -27t-12 -27q0 -18 23 -41z" />
    <glyph glyph-name="at" unicode="@" horiz-adv-x="953" 
d="M466 130q34 0 59.5 11.5t39.5 28.5q-1 9 -1.5 19t-0.5 21v122q-15 16 -39 27t-58 11q-24 0 -45.5 -8.5t-37.5 -24t-25.5 -37.5t-9.5 -50t9.5 -50t25.5 -37.5t37.5 -24t45.5 -8.5zM715 35q-36 0 -67 13.5t-51 39.5q-23 -20 -57 -36.5t-89 -16.5q-35 0 -71 14.5t-65.5 42
t-48 67.5t-18.5 91t18.5 91t48 67.5t65.5 42t71 14.5q32 0 61 -8.5t56 -28.5v27h95v-242q0 -20 2 -34t8 -24q13 -25 47 -25q20 0 35.5 12.5t26 34t16 50t5.5 61.5q0 65 -23 121t-64.5 96.5t-99.5 63.5t-127 23q-83 0 -145 -27t-107 -75q-44 -47 -69 -108t-25 -132
t26.5 -133.5t71.5 -109t105.5 -73t129.5 -26.5q57 0 110 17t95 45l52 -76q-52 -40 -116.5 -62t-136.5 -22q-91 0 -170.5 34.5t-139 94.5t-93.5 140t-34 171q0 87 30.5 162.5t84.5 134.5q58 64 140 103.5t193 39.5q84 0 159 -28t131.5 -80t89 -126t32.5 -166q0 -51 -11.5 -97
t-35 -81.5t-59 -56t-82.5 -20.5z" />
    <glyph glyph-name="A" unicode="A" horiz-adv-x="689" 
d="M387 700l295 -700h-125l-70 165h-288l-70 -165h-122l295 700h85zM245 275h196l-98 233z" />
    <glyph glyph-name="B" unicode="B" horiz-adv-x="636" 
d="M87 700h236q57 0 92 -13t60 -36q28 -26 45 -61t17 -77q0 -35 -14.5 -67.5t-35.5 -52.5q24 -12 44 -31t35 -42.5t23 -51t8 -56.5q0 -47 -19 -87t-51 -69q-29 -26 -68.5 -41t-101.5 -15h-270v700zM315 428q32 0 48.5 5.5t27.5 15.5q26 24 26 61t-26 61q-11 10 -27.5 15.5
t-48.5 5.5h-108v-164h108zM350 108q38 0 60.5 8.5t36.5 23.5q30 30 30 75t-30 75q-14 15 -36.5 23.5t-60.5 8.5h-143v-214h143z" />
    <glyph glyph-name="C" unicode="C" horiz-adv-x="702" 
d="M410 100q65 0 112.5 26.5t86.5 68.5l79 -70q-48 -60 -120.5 -97.5t-157.5 -37.5q-81 0 -148.5 27.5t-116 75.5t-75.5 114t-27 143t27.5 143t75.5 114t113.5 75.5t142.5 27.5q80 0 147 -31t114 -82l-75 -75q-35 35 -81 56.5t-105 21.5q-52 0 -96 -19.5t-75.5 -53
t-49.5 -79.5t-18 -98q0 -53 18 -98.5t50.5 -79t78 -53t100.5 -19.5z" />
    <glyph glyph-name="D" unicode="D" horiz-adv-x="746" 
d="M87 700h245q88 0 153 -25.5t112 -70.5q49 -48 77 -113t28 -141t-28 -141t-77 -113q-47 -45 -112 -70.5t-153 -25.5h-245v700zM322 110q69 0 117 19t80 54q30 32 46.5 74t16.5 93t-16.5 93t-46.5 74q-32 35 -80 54t-117 19h-115v-480h115z" />
    <glyph glyph-name="E" unicode="E" horiz-adv-x="553" 
d="M87 700h410v-110h-290v-160h225v-110h-225v-210h300v-110h-420v700z" />
    <glyph glyph-name="F" unicode="F" horiz-adv-x="528" 
d="M87 700h410v-110h-290v-160h225v-110h-225v-320h-120v700z" />
    <glyph glyph-name="G" unicode="G" horiz-adv-x="741" 
d="M688 125q-48 -60 -120.5 -97.5t-157.5 -37.5q-81 0 -148.5 27.5t-116 75.5t-75.5 114t-27 143t27.5 143t75.5 114t113.5 75.5t142.5 27.5q80 0 147 -31t114 -82l-75 -75q-35 35 -81 56.5t-105 21.5q-52 0 -96 -19.5t-75.5 -53t-49.5 -79.5t-18 -98q0 -53 18 -98.5
t50.5 -79t78 -53t100.5 -19.5q51 0 90.5 14.5t72.5 41.5v164h-194v105h309v-300z" />
    <glyph glyph-name="H" unicode="H" horiz-adv-x="774" 
d="M87 700h120v-270h360v270h120v-700h-120v320h-360v-320h-120v700z" />
    <glyph glyph-name="I" unicode="I" horiz-adv-x="294" 
d="M87 0v700h120v-700h-120z" />
    <glyph glyph-name="J" unicode="J" horiz-adv-x="489" 
d="M203 -10q-61 0 -112.5 30.5t-78.5 89.5l96 47q14 -23 37.5 -40t56.5 -17q20 0 38 8.5t29 23.5q8 11 13 27t5 45v496h120v-484q0 -42 -6 -71t-17 -51q-26 -48 -75 -76t-106 -28z" />
    <glyph glyph-name="K" unicode="K" horiz-adv-x="650" 
d="M326 382l331 -382h-152l-298 345v-345h-120v700h120v-290l279 290h151z" />
    <glyph glyph-name="L" unicode="L" horiz-adv-x="532" 
d="M87 700h120v-590h300v-110h-420v700z" />
    <glyph glyph-name="M" unicode="M" horiz-adv-x="854" 
d="M87 700h85l257 -375l253 375h85v-700h-117v454l-211 -310h-24l-211 309v-453h-117v700z" />
    <glyph glyph-name="N" unicode="N" horiz-adv-x="774" 
d="M87 700h85l395 -478v478h120v-700h-85l-395 478v-478h-120v700z" />
    <glyph glyph-name="O" unicode="O" horiz-adv-x="796" 
d="M398 710q75 0 140 -27.5t112.5 -75.5t75 -114t27.5 -143t-27.5 -143t-75 -114t-112.5 -75.5t-140 -27.5t-140 27.5t-112.5 75.5t-75 114t-27.5 143t27.5 143t75 114t112.5 75.5t140 27.5zM398 100q51 0 94 19.5t74.5 53t49 79t17.5 98.5q0 52 -17.5 98t-49 79.5t-74.5 53
t-94 19.5t-94 -19.5t-74.5 -53t-49 -79.5t-17.5 -98q0 -53 17.5 -98.5t49 -79t74.5 -53t94 -19.5z" />
    <glyph glyph-name="P" unicode="P" horiz-adv-x="604" 
d="M207 403h135q33 0 51 5.5t30 16.5q16 13 25 31t9 41t-9 41.5t-25 31.5q-12 11 -30 16.5t-51 5.5h-135v-189zM207 295v-295h-120v700h267q50 0 83 -10.5t59 -29.5q37 -28 59 -70t22 -93t-22 -92.5t-59 -69.5q-26 -19 -59 -29.5t-83 -10.5h-147z" />
    <glyph glyph-name="Q" unicode="Q" horiz-adv-x="801" 
d="M398 710q75 0 140 -27.5t112.5 -75.5t75 -114t27.5 -143q0 -68 -22 -126.5t-60 -104.5l107 -119h-141l-44 49q-42 -28 -91 -43.5t-104 -15.5q-75 0 -140 27.5t-112.5 75.5t-75 114t-27.5 143t27.5 143t75 114t112.5 75.5t140 27.5zM398 100q66 0 122 31l-164 184l79 68
l159 -178q19 31 29 68t10 77q0 52 -17.5 98t-49 79.5t-74.5 53t-94 19.5t-94 -19.5t-74.5 -53t-49 -79.5t-17.5 -98q0 -53 17.5 -98.5t49 -79t74.5 -53t94 -19.5z" />
    <glyph glyph-name="R" unicode="R" horiz-adv-x="642" 
d="M207 0h-120v700h252q58 0 97 -16t65 -44q24 -26 37.5 -60t13.5 -73t-13.5 -72.5t-37.5 -59.5q-17 -19 -40 -32t-53 -20l244 -323h-144l-236 315h-65v-315zM207 420h119q33 0 51.5 6.5t29.5 17.5q12 11 18.5 27.5t6.5 33.5q0 40 -25 63q-11 11 -29.5 17.5t-51.5 6.5h-119
v-172z" />
    <glyph glyph-name="S" unicode="S" horiz-adv-x="551" 
d="M110 179q32 -35 72.5 -57t94.5 -22q21 0 41 6t36 18t26 30t10 42t-12 41t-31.5 30.5t-44.5 24.5t-52 22l-48 20t-46 23q-39 24 -66 63t-27 96q0 43 18 79t48.5 61.5t71 39.5t86.5 14q60 0 110.5 -20t87.5 -50l-65 -86q-29 22 -61 34t-68 12q-48 0 -78 -23t-30 -59
q0 -19 10 -33.5t27.5 -26.5t40 -22.5t47.5 -20.5q26 -11 53 -22.5t51 -25.5q39 -24 68.5 -64.5t29.5 -104.5q0 -47 -17.5 -85t-48.5 -65.5t-73.5 -42.5t-91.5 -15q-75 0 -138 29.5t-111 87.5z" />
    <glyph glyph-name="T" unicode="T" horiz-adv-x="546" 
d="M213 590h-190v110h500v-110h-190v-590h-120v590z" />
    <glyph glyph-name="U" unicode="U" horiz-adv-x="748" 
d="M549 700h120v-408q0 -70 -18.5 -119t-50.5 -86q-41 -46 -99.5 -71.5t-126.5 -25.5t-126.5 26t-99.5 72q-33 36 -51 85t-18 119v408h120v-415q0 -48 10.5 -77.5t30.5 -50.5q24 -26 58.5 -41.5t75.5 -15.5t75.5 15.5t58.5 41.5q20 21 30.5 50.5t10.5 77.5v415z" />
    <glyph glyph-name="V" unicode="V" horiz-adv-x="667" 
d="M11 700h125l199 -499l199 499h122l-280 -700h-85z" />
    <glyph glyph-name="W" unicode="W" horiz-adv-x="972" 
d="M11 700h121l151 -472l161 472h85l163 -471l151 471h118l-225 -700h-85l-167 479l-163 -479h-85z" />
    <glyph glyph-name="X" unicode="X" horiz-adv-x="632" 
d="M601 700l-217 -323l252 -377h-139l-183 273l-183 -273h-135l251 374l-216 326h139l148 -223l148 223h135z" />
    <glyph glyph-name="Y" unicode="Y" horiz-adv-x="642" 
d="M261 318l-240 382h136l165 -265l165 265h134l-240 -382v-318h-120v318z" />
    <glyph glyph-name="Z" unicode="Z" horiz-adv-x="589" 
d="M190 110h368v-110h-530v75l349 515h-319v110h480v-75z" />
    <glyph glyph-name="bracketleft" unicode="[" horiz-adv-x="378" 
d="M89 700h260v-100h-150v-740h150v-100h-260v940z" />
    <glyph glyph-name="backslash" unicode="\" horiz-adv-x="482" 
d="M134 700l325 -700h-110l-325 700h110z" />
    <glyph glyph-name="bracketright" unicode="]" horiz-adv-x="378" 
d="M289 -240h-260v100h150v740h-150v100h260v-940z" />
    <glyph glyph-name="asciicircum" unicode="^" horiz-adv-x="572" 
d="M506 350h-113l-107 209l-107 -209h-113l180 350h80z" />
    <glyph glyph-name="underscore" unicode="_" horiz-adv-x="576" 
d="M58 -95v95h460v-95h-460z" />
    <glyph glyph-name="grave" unicode="`" horiz-adv-x="290" 
d="M165 550l-115 155h125l65 -155h-75z" />
    <glyph glyph-name="a" unicode="a" horiz-adv-x="614" 
d="M295 95q39 0 70.5 15.5t54.5 44.5v170q-23 27 -54 43.5t-66 16.5q-31 0 -56.5 -11t-44 -30.5t-29 -46t-10.5 -57.5t10.5 -57.5t28.5 -46t42.5 -30.5t53.5 -11zM427 0v45q-25 -22 -62 -38.5t-85 -16.5q-40 0 -77 13.5t-67 38.5q-42 35 -66.5 86.5t-24.5 111.5t24.5 111.5
t66.5 86.5q30 25 67.5 38.5t81.5 13.5t80.5 -16.5t61.5 -38.5v45h108v-480h-108z" />
    <glyph glyph-name="b" unicode="b" horiz-adv-x="614" 
d="M319 95q29 0 53.5 11t42.5 30.5t28.5 46t10.5 57.5t-10.5 57.5t-29 46t-44 30.5t-56.5 11q-35 0 -66 -16.5t-54 -43.5v-170q23 -29 54.5 -44.5t70.5 -15.5zM79 710h115v-269q31 26 66 37.5t69 11.5q44 0 81.5 -13.5t67.5 -38.5q42 -35 66.5 -86.5t24.5 -111.5
t-24.5 -111.5t-66.5 -86.5q-30 -25 -67 -38.5t-77 -13.5q-48 0 -85 16.5t-62 38.5v-45h-108v710z" />
    <glyph glyph-name="c" unicode="c" horiz-adv-x="541" 
d="M297 385q-31 0 -56.5 -11.5t-43.5 -31.5t-28 -46t-10 -56q0 -29 10 -55.5t28.5 -46.5t45 -31.5t59.5 -11.5q50 0 81.5 20.5t52.5 45.5l78 -62q-35 -51 -90.5 -80t-121.5 -29q-57 0 -104 19.5t-81.5 53t-53.5 79t-19 98.5q0 52 19 98t52.5 79.5t80 53t101.5 19.5
q61 0 112.5 -25.5t89.5 -72.5l-75 -66q-24 25 -53 42t-74 17z" />
    <glyph glyph-name="d" unicode="d" horiz-adv-x="614" 
d="M295 95q39 0 70.5 15.5t54.5 44.5v170q-23 27 -54 43.5t-66 16.5q-31 0 -56.5 -11t-44 -30.5t-29 -46t-10.5 -57.5t10.5 -57.5t28.5 -46t42.5 -30.5t53.5 -11zM535 0h-108v45q-25 -22 -62 -38.5t-85 -16.5q-40 0 -77 13.5t-67 38.5q-42 35 -66.5 86.5t-24.5 111.5
t24.5 111.5t66.5 86.5q30 25 67.5 38.5t81.5 13.5q34 0 69 -11.5t66 -37.5v269h115v-710z" />
    <glyph glyph-name="e" unicode="e" horiz-adv-x="547" 
d="M505 242q0 -7 -0.5 -15t-1.5 -15h-348q2 -27 14 -49.5t31 -38.5t44 -25t54 -9q44 0 77 18t54 38l66 -64q-36 -45 -90 -68.5t-108 -23.5q-56 0 -102.5 18.5t-79.5 51.5t-51.5 79t-18.5 101q0 52 16.5 97.5t46.5 79.5t73.5 53.5t97.5 19.5q51 0 92.5 -19.5t71.5 -53t46 -79
t16 -96.5zM389 297q-7 42 -37.5 69t-74.5 27q-45 0 -76.5 -28t-38.5 -68h227z" />
    <glyph glyph-name="f" unicode="f" horiz-adv-x="418" 
d="M253 480h145v-95h-145v-385h-115v385h-115v95h115v54q0 55 15 90.5t42 58.5q21 18 48 27.5t56 9.5q73 0 119 -40l-47 -81q-26 18 -57 18q-28 0 -45 -19q-8 -8 -12 -21.5t-4 -40.5v-56z" />
    <glyph glyph-name="g" unicode="g" horiz-adv-x="614" 
d="M420 39q-31 -26 -66.5 -37.5t-73.5 -11.5q-40 0 -77 13.5t-67 38.5q-42 35 -66.5 86.5t-24.5 111.5t24.5 111.5t66.5 86.5q30 25 67.5 38.5t81.5 13.5t80.5 -16.5t61.5 -38.5v45h108v-446q0 -60 -9 -100t-28 -69q-32 -51 -87 -78t-124 -27q-40 0 -75 8.5t-63.5 22.5
t-51 32.5t-37.5 38.5l74 70q11 -11 25.5 -23.5t33 -22.5t41.5 -16.5t53 -6.5q35 0 61.5 11t43.5 34q14 18 21 45t7 72v14zM295 95q39 0 70.5 15.5t54.5 44.5v170q-23 27 -54 43.5t-66 16.5q-31 0 -56.5 -11t-44 -30.5t-29 -46t-10.5 -57.5t10.5 -57.5t28.5 -46t42.5 -30.5
t53.5 -11z" />
    <glyph glyph-name="h" unicode="h" horiz-adv-x="614" 
d="M497 412q23 -29 35 -69t12 -102v-241h-115v251q0 40 -7.5 62t-20.5 36q-14 17 -36 26.5t-47 9.5q-43 0 -75 -19.5t-49 -40.5v-325h-115v710h115v-268q25 20 59 34t76 14q51 0 94.5 -20.5t73.5 -57.5z" />
    <glyph glyph-name="i" unicode="i" horiz-adv-x="273" 
d="M79 0v480h115v-480h-115zM64 650q0 30 21 51.5t51 21.5t51.5 -21.5t21.5 -51.5t-21.5 -51t-51.5 -21t-51 21t-21 51z" />
    <glyph glyph-name="j" unicode="j" horiz-adv-x="281" 
d="M87 480h115v-534q0 -55 -15 -90.5t-42 -58.5q-21 -18 -48 -27.5t-56 -9.5q-73 0 -119 40l47 81q26 -18 57 -18q28 0 45 19q8 8 12 21.5t4 40.5v536zM72 650q0 30 21 51.5t51 21.5t51.5 -21.5t21.5 -51.5t-21.5 -51t-51.5 -21t-51 21t-21 51z" />
    <glyph glyph-name="k" unicode="k" horiz-adv-x="555" 
d="M79 710h115v-415l188 185h152l-228 -220l248 -260h-151l-209 225v-225h-115v710z" />
    <glyph glyph-name="l" unicode="l" horiz-adv-x="273" 
d="M79 710h115v-710h-115v710z" />
    <glyph glyph-name="m" unicode="m" horiz-adv-x="944" 
d="M759 260q0 38 -8 60t-23 36q-14 14 -33 21.5t-41 7.5q-23 0 -42 -6.5t-34.5 -16t-27.5 -21t-21 -21.5q2 -15 3.5 -31.5t1.5 -35.5v-253h-115v260q0 38 -8 60t-23 36q-14 14 -33 21.5t-41 7.5q-40 0 -71.5 -19.5t-48.5 -40.5v-325h-115v480h108v-45q25 22 61 38.5t77 16.5
q48 0 90.5 -21t70.5 -56q31 32 73 54.5t100 22.5q51 0 96.5 -20.5t74.5 -57.5q23 -28 33.5 -66t10.5 -95v-251h-115v260z" />
    <glyph glyph-name="n" unicode="n" horiz-adv-x="614" 
d="M497 411q23 -29 35 -68.5t12 -101.5v-241h-115v251q0 40 -7.5 62t-20.5 36q-14 17 -36 26.5t-47 9.5q-43 0 -75 -19.5t-49 -40.5v-325h-115v480h108v-45q25 22 61.5 38.5t80.5 16.5q51 0 94.5 -21t73.5 -58z" />
    <glyph glyph-name="o" unicode="o" horiz-adv-x="588" 
d="M294 490q54 0 99.5 -19.5t79 -53t52.5 -79.5t19 -98q0 -53 -19 -98.5t-52.5 -79t-79 -53t-99.5 -19.5t-99.5 19.5t-79 53t-52.5 79t-19 98.5q0 52 19 98t52.5 79.5t79 53t99.5 19.5zM294 95q30 0 55 11.5t42.5 31.5t27.5 46.5t10 55.5t-10 55.5t-27.5 46.5t-42.5 31.5
t-55 11.5t-55 -11.5t-42.5 -31.5t-27.5 -46t-10 -56q0 -29 10 -55.5t27.5 -46.5t42.5 -31.5t55 -11.5z" />
    <glyph glyph-name="p" unicode="p" horiz-adv-x="614" 
d="M319 95q29 0 53.5 11t42.5 30.5t28.5 46t10.5 57.5t-10.5 57.5t-29 46t-44 30.5t-56.5 11q-35 0 -66 -16.5t-54 -43.5v-170q23 -29 54.5 -44.5t70.5 -15.5zM569 240q0 -60 -24.5 -111.5t-66.5 -86.5q-30 -25 -67 -38.5t-77 -13.5q-38 0 -73.5 11.5t-66.5 37.5v-269h-115
v710h108v-45q25 22 61.5 38.5t80.5 16.5t81.5 -13.5t67.5 -38.5q42 -35 66.5 -86.5t24.5 -111.5z" />
    <glyph glyph-name="q" unicode="q" horiz-adv-x="614" 
d="M295 95q39 0 70.5 15.5t54.5 44.5v170q-23 27 -54 43.5t-66 16.5q-31 0 -56.5 -11t-44 -30.5t-29 -46t-10.5 -57.5t10.5 -57.5t28.5 -46t42.5 -30.5t53.5 -11zM45 240q0 60 24.5 111.5t66.5 86.5q30 25 67.5 38.5t81.5 13.5t80.5 -16.5t61.5 -38.5v45h108v-710h-115v269
q-31 -26 -66.5 -37.5t-73.5 -11.5q-40 0 -77 13.5t-67 38.5q-42 35 -66.5 86.5t-24.5 111.5z" />
    <glyph glyph-name="r" unicode="r" horiz-adv-x="393" 
d="M79 480h111v-55q20 25 57.5 42.5t85.5 17.5q15 0 36 -3v-105q-9 2 -18 2.5t-22 0.5q-39 0 -75.5 -18.5t-59.5 -56.5v-305h-115v480z" />
    <glyph glyph-name="s" unicode="s" horiz-adv-x="453" 
d="M228 -10q-54 0 -103 16.5t-91 51.5l57 76q28 -21 63 -33.5t72 -12.5q29 0 51 13.5t22 36.5q0 22 -20.5 34t-51.5 22q-23 8 -47 15t-47 18q-32 16 -55.5 42.5t-23.5 72.5q0 36 15.5 63.5t41 46.5t58 28.5t66.5 9.5q49 0 90.5 -15.5t68.5 -37.5l-52 -77q-22 14 -46.5 23
t-52.5 9q-30 0 -52 -12t-22 -35q0 -12 9.5 -20t24.5 -14.5t35 -12.5t41 -13q24 -8 48.5 -19t43.5 -28t31 -41.5t12 -58.5q0 -35 -16 -62.5t-42 -46.5t-59.5 -29t-68.5 -10z" />
    <glyph glyph-name="t" unicode="t" horiz-adv-x="437" 
d="M297 -10q-35 0 -68.5 12t-57.5 40q-17 21 -26 50t-9 74v219h-115v95h115v160h115v-160h145v-95h-145v-220q0 -23 3 -35.5t11 -20.5q16 -18 47 -18q17 0 31.5 4.5t27.5 12.5l40 -84q-25 -17 -53 -25.5t-61 -8.5z" />
    <glyph glyph-name="u" unicode="u" horiz-adv-x="605" 
d="M186 220q0 -38 8 -60t23 -36q14 -14 33 -21.5t41 -7.5q40 0 71.5 19.5t48.5 40.5v325h115v-480h-108v45q-25 -22 -61 -38.5t-76 -16.5q-48 0 -88.5 19t-69.5 51q-25 28 -38.5 66t-13.5 94v260h115v-260z" />
    <glyph glyph-name="v" unicode="v" horiz-adv-x="535" 
d="M15 480h121l134 -305l133 305h117l-212 -480h-81z" />
    <glyph glyph-name="w" unicode="w" horiz-adv-x="804" 
d="M17 480h119l110 -296l116 296h80l119 -297l111 297h115l-180 -480h-81l-124 309l-124 -309h-81z" />
    <glyph glyph-name="x" unicode="x" horiz-adv-x="534" 
d="M335 251l187 -251h-137l-119 160l-120 -160h-134l187 249l-172 231h137l104 -140l105 140h134z" />
    <glyph glyph-name="y" unicode="y" horiz-adv-x="563" 
d="M432 480h118l-327 -710h-118l127 273l-217 437h123l153 -308z" />
    <glyph glyph-name="z" unicode="z" horiz-adv-x="499" 
d="M203 100h258v-100h-420v70l239 310h-224v100h385v-70z" />
    <glyph glyph-name="braceleft" unicode="{" horiz-adv-x="365" 
d="M238 585q-22 -18 -22 -60q0 -20 1.5 -43t3.5 -47t3.5 -48.5t1.5 -45.5q0 -29 -5.5 -48t-15 -31.5t-21 -19.5t-23.5 -12q12 -5 23.5 -12t21 -19.5t15 -31.5t5.5 -48q0 -21 -1.5 -45.5t-3.5 -48.5t-3.5 -47.5t-1.5 -42.5q0 -21 5 -36.5t17 -23.5t27 -11.5t47 -3.5h19v-97
q-20 -3 -41 -3q-44 0 -76 10.5t-56 30.5q-25 21 -38.5 54t-13.5 79q0 23 1.5 48.5t3.5 51.5t3.5 50t1.5 44q0 36 -20 53q-11 9 -27.5 12.5t-37.5 3.5v66q21 0 37.5 3.5t27.5 12.5q20 17 20 53q0 20 -1.5 44t-3.5 50t-3.5 51.5t-1.5 48.5q0 46 13.5 79t38.5 54q45 41 132 41
q21 0 41 -3v-97h-19q-32 0 -47 -3.5t-27 -11.5z" />
    <glyph glyph-name="bar" unicode="|" horiz-adv-x="288" 
d="M89 -240v940h110v-940h-110z" />
    <glyph glyph-name="braceright" unicode="}" horiz-adv-x="365" 
d="M127 585q-12 8 -27 11.5t-47 3.5h-19v97q19 3 41 3q87 0 132 -41q25 -21 38.5 -54t13.5 -79q0 -23 -1.5 -48.5t-3.5 -51.5t-3.5 -50t-1.5 -44q0 -36 20 -53q11 -9 27.5 -12.5t37.5 -3.5v-66q-21 0 -37.5 -3.5t-27.5 -12.5q-20 -17 -20 -53q0 -20 1.5 -44t3.5 -50
t3.5 -51.5t1.5 -48.5q0 -46 -13.5 -79t-38.5 -54q-24 -20 -56 -30.5t-76 -10.5q-22 0 -41 3v97h19q32 0 47 3.5t27 11.5t17 23.5t5 36.5q0 19 -1.5 42.5t-3.5 47.5t-3.5 48.5t-1.5 45.5q0 29 5.5 48t15 31.5t21 19.5t23.5 12q-12 5 -23.5 12t-21 19.5t-15 31.5t-5.5 48
q0 21 1.5 45.5t3.5 48.5t3.5 47t1.5 43q0 42 -22 60z" />
    <glyph glyph-name="asciitilde" unicode="~" horiz-adv-x="572" 
d="M547 314q-8 -29 -21 -55.5t-32.5 -47.5t-46 -33.5t-60.5 -12.5q-36 0 -64 14t-51.5 31t-43.5 31t-40 14q-29 0 -45.5 -24.5t-25.5 -55.5l-90 31q7 28 20.5 55t33 48t46 33.5t60.5 12.5q36 0 64 -14t51.5 -31t43.5 -31t40 -14q29 0 45.5 24.5t25.5 55.5z" />
    <glyph glyph-name="uni00A0" unicode="&#xa0;" horiz-adv-x="246" 
 />
    <glyph glyph-name="exclamdown" unicode="&#xa1;" horiz-adv-x="273" 
d="M99 245h75l20 -255v-220h-115v220zM59 413q0 32 22.5 54.5t54.5 22.5t55 -22.5t23 -54.5t-23 -55t-55 -23t-54.5 23t-22.5 55z" />
    <glyph glyph-name="cent" unicode="&#xa2;" horiz-adv-x="547" 
d="M298 575q-31 0 -56.5 -11.5t-43.5 -31.5t-28 -46t-10 -56q0 -29 10 -55.5t28.5 -46.5t45 -31.5t59.5 -11.5q50 0 81.5 20.5t52.5 45.5l78 -62q-29 -42 -71.5 -69t-93.5 -36v-104h-110v106q-44 10 -80 32.5t-61.5 54.5t-39.5 72t-14 85t14 85t40 72.5t61.5 55t79.5 31.5
v106h110v-105q45 -9 82.5 -33t67.5 -60l-75 -66q-24 25 -53 42t-74 17z" />
    <glyph glyph-name="sterling" unicode="&#xa3;" horiz-adv-x="583" 
d="M322 600q-27 0 -50 -9.5t-39.5 -26.5t-26 -39.5t-9.5 -49.5q0 -35 12.5 -69t29.5 -66h182v-95h-152q3 -12 5.5 -24t2.5 -25q0 -49 -30 -86h285v-110h-475v75q20 8 40 18.5t35.5 25t25 33.5t9.5 44q0 12 -2 25t-7 24h-101v95h62q-16 31 -29 65.5t-13 76.5q0 49 18.5 90.5
t51 72t76 48t94.5 17.5q46 0 83 -12.5t65.5 -33.5t49 -49t32.5 -60l-98 -47q-17 38 -48 65t-79 27z" />
    <glyph glyph-name="currency" unicode="&#xa4;" horiz-adv-x="624" 
d="M102 350q0 29 8 56t22 50l-80 79l73 74l81 -81q48 28 106 28t106 -28l81 81l73 -74l-80 -79q14 -23 22 -50t8 -56t-8 -56t-22 -50l80 -79l-73 -74l-81 81q-48 -28 -106 -28t-106 28l-81 -81l-73 74l80 79q-14 23 -22 50t-8 56zM212 350q0 -21 7.5 -39.5t21 -32t32 -21
t39.5 -7.5t39 7.5t31.5 21t21.5 32t8 39.5t-8 39t-21.5 31.5t-31.5 21.5t-39 8t-39.5 -8t-32 -21.5t-21 -31.5t-7.5 -39z" />
    <glyph glyph-name="yen" unicode="&#xa5;" horiz-adv-x="664" 
d="M424 370l-32 -50v-20h195v-95h-195v-205h-120v205h-195v95h195v20l-33 50h-162v95h103l-148 235h136l165 -265l165 265h134l-148 -235h103v-95h-163z" />
    <glyph glyph-name="brokenbar" unicode="&#xa6;" horiz-adv-x="288" 
d="M89 310v390h110v-390h-110zM89 -240v390h110v-390h-110z" />
    <glyph glyph-name="section" unicode="&#xa7;" horiz-adv-x="577" 
d="M541 215q0 -51 -24.5 -92.5t-59.5 -67.5q17 -18 27 -43.5t10 -57.5q0 -44 -18 -79.5t-48 -61t-69.5 -39.5t-82.5 -14q-66 0 -116.5 20t-87.5 50l65 86q29 -22 61.5 -34t72.5 -12q43 0 73 23t30 59q0 19 -11 33t-30 25.5t-43.5 21t-51.5 19.5t-54 21.5t-52 25.5
q-42 24 -69 62t-27 95q0 51 24.5 92t59.5 67q-17 19 -27 44.5t-10 57.5q0 43 18 79t48.5 61.5t71 39.5t86.5 14q60 0 110.5 -20t87.5 -50l-65 -86q-29 22 -61 34t-68 12q-48 0 -78 -23t-30 -59q0 -20 11 -34t30 -25.5t43.5 -20.5t51.5 -19t54 -21.5t52 -25.5q42 -24 69 -62
t27 -95zM293 149q20 -7 39.5 -14t36.5 -15q24 14 38 37t14 49q0 25 -12.5 43t-32.5 31.5t-44 23t-48 17.5l-40 14t-37 15q-23 -14 -37 -37t-14 -49q0 -25 12.5 -43t32.5 -31.5t44 -23t48 -17.5z" />
    <glyph glyph-name="dieresis" unicode="&#xa8;" horiz-adv-x="480" 
d="M269 629q0 29 20.5 50t49.5 21t50 -21t21 -50t-21 -49.5t-50 -20.5t-49.5 20.5t-20.5 49.5zM70 629q0 29 20.5 50t49.5 21t50 -21t21 -50t-21 -49.5t-50 -20.5t-49.5 20.5t-20.5 49.5z" />
    <glyph glyph-name="copyright" unicode="&#xa9;" horiz-adv-x="842" 
d="M421 725q78 0 146.5 -29.5t119.5 -80t80 -119t29 -146.5t-29 -146.5t-80 -119t-119.5 -80t-146.5 -29.5t-146.5 29.5t-119.5 80t-80 119t-29 146.5t29 146.5t80 119t119.5 80t146.5 29.5zM421 50q62 0 117 23.5t95.5 64t64 95.5t23.5 117t-23.5 117t-64 95.5t-95.5 64
t-117 23.5t-117 -23.5t-95.5 -64t-64 -95.5t-23.5 -117t23.5 -117t64 -95.5t95.5 -64t117 -23.5zM591 227q-27 -34 -68.5 -55.5t-92.5 -21.5q-46 0 -84.5 15t-66 42t-43 63.5t-15.5 79.5t15.5 80t43 64t64.5 42t80 15q49 0 89.5 -18t67.5 -50l-50 -53q-19 19 -45 32.5
t-61 13.5q-26 0 -48.5 -9.5t-39 -26.5t-26 -40t-9.5 -50t9.5 -49.5t26.5 -39.5t39.5 -26.5t49.5 -9.5q36 0 63.5 14t48.5 39z" />
    <glyph glyph-name="ordfeminine" unicode="&#xaa;" horiz-adv-x="436" 
d="M284 422q-18 -16 -39.5 -24t-48.5 -8q-31 0 -58.5 12.5t-48.5 34t-33 50.5t-12 63t12 63t33 50.5t48.5 34t58.5 12.5q27 0 48.5 -8t39.5 -24v26h82v-308h-82v26zM210 465q24 0 42 10t30 27v98q-13 16 -31 25.5t-41 9.5q-35 0 -58.5 -25t-23.5 -60t23.5 -60t58.5 -25z" />
    <glyph glyph-name="guillemotleft" unicode="&#xab;" horiz-adv-x="607" 
d="M318 55h-131l-154 190l154 190h131l-157 -190zM563 55h-131l-154 190l154 190h131l-157 -190z" />
    <glyph glyph-name="logicalnot" unicode="&#xac;" horiz-adv-x="572" 
d="M406 113v194h-350v100h450v-294h-100z" />
    <glyph glyph-name="uni00AD" unicode="&#xad;" horiz-adv-x="437" 
d="M66 305h305v-95h-305v95z" />
    <glyph glyph-name="registered" unicode="&#xae;" horiz-adv-x="842" 
d="M421 725q78 0 146.5 -29.5t119.5 -80t80 -119t29 -146.5t-29 -146.5t-80 -119t-119.5 -80t-146.5 -29.5t-146.5 29.5t-119.5 80t-80 119t-29 146.5t29 146.5t80 119t119.5 80t146.5 29.5zM421 50q62 0 117 23.5t95.5 64t64 95.5t23.5 117t-23.5 117t-64 95.5t-95.5 64
t-117 23.5t-117 -23.5t-95.5 -64t-64 -95.5t-23.5 -117t23.5 -117t64 -95.5t95.5 -64t117 -23.5zM557 433q0 -38 -22 -64t-57 -35l124 -175h-92l-116 166h-26v-166h-81v383h141q40 0 64 -10.5t39 -28.5q12 -14 19 -32t7 -38zM428 393q16 0 24 2.5t13 7.5q11 11 11 28t-11 28
q-5 5 -13 7.5t-24 2.5h-60v-76h60z" />
    <glyph glyph-name="macron" unicode="&#xaf;" horiz-adv-x="400" 
d="M50 578v85h300v-85h-300z" />
    <glyph glyph-name="degree" unicode="&#xb0;" horiz-adv-x="416" 
d="M208 710q34 0 64.5 -13t52.5 -35t35 -52.5t13 -64.5q0 -35 -13 -65t-35 -52t-52.5 -35t-64.5 -13q-35 0 -65 13t-52 35t-35 52t-13 65q0 34 13 64.5t35 52.5t52 35t65 13zM208 470q32 0 53.5 21.5t21.5 53.5t-21.5 53.5t-53.5 21.5t-53.5 -21.5t-21.5 -53.5t21.5 -53.5
t53.5 -21.5z" />
    <glyph glyph-name="plusminus" unicode="&#xb1;" horiz-adv-x="572" 
d="M236 145v130h-175v100h175v130h100v-130h175v-100h-175v-130h-100zM61 15v100h450v-100h-450z" />
    <glyph glyph-name="twosuperior" unicode="&#xb2;" horiz-adv-x="327" 
d="M203 584q0 18 -12 32t-33 14q-18 0 -34 -12.5t-24 -41.5l-72 22q9 47 42.5 79.5t87.5 32.5q28 0 51.5 -10t41 -27t27.5 -39.5t10 -48.5q0 -36 -18.5 -65.5t-49.5 -58.5l-42 -41h110v-80h-255v45l106 104q18 18 30 31t19.5 23.5t11 20t3.5 20.5z" />
    <glyph glyph-name="threesuperior" unicode="&#xb3;" horiz-adv-x="323" 
d="M212 568q32 -12 53.5 -42t21.5 -69q0 -27 -10.5 -50t-29 -40.5t-43.5 -27t-53 -9.5q-86 0 -129 63l60 49q25 -34 65 -34q21 0 38 13.5t17 37.5q0 22 -15 37t-41 15q-21 0 -42 -8v45l60 74h-122v78h240v-45z" />
    <glyph glyph-name="acute" unicode="&#xb4;" horiz-adv-x="290" 
d="M50 550l65 155h125l-115 -155h-75z" />
    <glyph glyph-name="mu" unicode="&#xb5;" horiz-adv-x="656" 
d="M78 480h115v-325q15 -24 45 -41t65 -17q36 0 65.5 16t52.5 43v324h115v-338q0 -23 11 -36t31 -13q13 0 23.5 2.5t15.5 5.5l29 -90q-40 -20 -92 -20q-39 0 -69 17t-43 48q-23 -26 -58.5 -45.5t-80.5 -19.5q-38 0 -67 15t-43 31v-269h-115v712z" />
    <glyph glyph-name="paragraph" unicode="&#xb6;" horiz-adv-x="705" 
d="M243 -240v510q-45 0 -84 17t-68 46t-46 68t-17 84q0 57 27.5 104.5t72.5 76.5q26 17 58.5 25.5t84.5 8.5h392v-100h-100v-840h-110v840h-100v-840h-110zM138 485q0 -23 8 -43.5t22 -36t33 -25t42 -10.5v229q-23 -1 -42 -10.5t-33 -25t-22 -36t-8 -42.5z" />
    <glyph glyph-name="periodcentered" unicode="&#xb7;" horiz-adv-x="276" 
d="M216 239q0 -32 -23 -55t-55 -23t-55 23t-23 55t23 55t55 23t55 -23t23 -55z" />
    <glyph glyph-name="cedilla" unicode="&#xb8;" horiz-adv-x="250" 
d="M50 -145l70 155h80l-30 -155h-120z" />
    <glyph glyph-name="onesuperior" unicode="&#xb9;" horiz-adv-x="259" 
d="M133 700h55v-360h-85v256l-82 -44v88z" />
    <glyph glyph-name="ordmasculine" unicode="&#xba;" horiz-adv-x="408" 
d="M128 550q0 -37 21.5 -61t54.5 -24t54.5 24t21.5 61t-21.5 61t-54.5 24t-54.5 -24t-21.5 -61zM364 550q0 -34 -12.5 -63.5t-34 -51t-50.5 -33.5t-63 -12t-63 12t-50.5 33.5t-34 51t-12.5 63.5t12.5 63.5t34 51t50.5 33.5t63 12t63 -12t50.5 -33.5t34 -51t12.5 -63.5z" />
    <glyph glyph-name="guillemotright" unicode="&#xbb;" horiz-adv-x="607" 
d="M289 435h131l154 -190l-154 -190h-131l157 190zM44 435h131l154 -190l-154 -190h-131l157 190z" />
    <glyph glyph-name="onequarter" unicode="&#xbc;" horiz-adv-x="669" 
d="M148 700h55v-360h-85v256l-82 -44v88zM167 0h-96l409 700h96zM496 0v73h-165v45l190 242h55v-217h60v-70h-60v-73h-80zM439 143h57v73z" />
    <glyph glyph-name="onehalf" unicode="&#xbd;" horiz-adv-x="695" 
d="M147 700h55v-360h-85v256l-82 -44v88zM166 0h-96l409 700h96zM570 244q0 18 -12 32t-33 14q-18 0 -34 -12.5t-24 -41.5l-72 22q9 47 42.5 79.5t87.5 32.5q28 0 51.5 -10t41 -27t27.5 -39.5t10 -48.5q0 -36 -18.5 -65.5t-49.5 -58.5l-42 -41h110v-80h-255v45l106 104
q18 18 30 31t19.5 23.5t11 20t3.5 20.5z" />
    <glyph glyph-name="threequarters" unicode="&#xbe;" horiz-adv-x="716" 
d="M222 568q32 -12 53.5 -42t21.5 -69q0 -27 -10.5 -50t-29 -40.5t-43.5 -27t-53 -9.5q-86 0 -129 63l60 49q25 -34 65 -34q21 0 38 13.5t17 37.5q0 22 -15 37t-41 15q-21 0 -42 -8v45l60 74h-122v78h240v-45zM213 0h-96l409 700h96zM542 0v73h-165v45l190 242h55v-217h60
v-70h-60v-73h-80zM485 143h57v73z" />
    <glyph glyph-name="questiondown" unicode="&#xbf;" horiz-adv-x="461" 
d="M256 280q20 -17 38.5 -41.5t18.5 -60.5q0 -26 -10 -46.5t-25.5 -38t-34 -32t-35.5 -29.5q-23 -20 -39.5 -41t-16.5 -49q0 -32 22.5 -54.5t67.5 -22.5q34 0 60.5 21t37.5 54l97 -37q-20 -63 -70.5 -103t-129.5 -40q-43 0 -79.5 13.5t-63.5 37.5t-42 57t-15 73
q0 36 11.5 63.5t29 49.5t38.5 38.5t39 30.5q20 16 34 29t14 28q0 18 -23 41zM317 413q0 -32 -22.5 -55t-54.5 -23t-55 23t-23 55t23 54.5t55 22.5t54.5 -22.5t22.5 -54.5z" />
    <glyph glyph-name="Agrave" unicode="&#xc0;" horiz-adv-x="689" 
d="M387 700l295 -700h-125l-70 165h-288l-70 -165h-122l295 700h85zM245 275h196l-98 233zM307 765l-115 155h125l65 -155h-75z" />
    <glyph glyph-name="Aacute" unicode="&#xc1;" horiz-adv-x="689" 
d="M387 700l295 -700h-125l-70 165h-288l-70 -165h-122l295 700h85zM245 275h196l-98 233zM307 765l65 155h125l-115 -155h-75z" />
    <glyph glyph-name="Acircumflex" unicode="&#xc2;" horiz-adv-x="689" 
d="M387 700l295 -700h-125l-70 165h-288l-70 -165h-122l295 700h85zM245 275h196l-98 233zM182 765l98 155h129l98 -155h-75l-88 90l-87 -90h-75z" />
    <glyph glyph-name="Atilde" unicode="&#xc3;" horiz-adv-x="689" 
d="M387 700l295 -700h-125l-70 165h-288l-70 -165h-122l295 700h85zM245 275h196l-98 233zM172 791q1 51 26.5 87.5t78.5 36.5q21 0 38.5 -8t34 -17t31 -17t29.5 -8q17 0 26 14.5t11 35.5l70 -16q-1 -26 -7.5 -48.5t-19 -39t-32 -26.5t-46.5 -10q-21 0 -38.5 8t-34 17
t-31 17t-29.5 8q-17 0 -26 -14.5t-11 -35.5z" />
    <glyph glyph-name="Adieresis" unicode="&#xc4;" horiz-adv-x="689" 
d="M387 700l295 -700h-125l-70 165h-288l-70 -165h-122l295 700h85zM245 275h196l-98 233zM373 845q0 29 20.5 50t49.5 21t50 -21t21 -50t-21 -49.5t-50 -20.5t-49.5 20.5t-20.5 49.5zM174 845q0 29 20.5 50t49.5 21t50 -21t21 -50t-21 -49.5t-50 -20.5t-49.5 20.5
t-20.5 49.5z" />
    <glyph glyph-name="Aring" unicode="&#xc5;" horiz-adv-x="689" 
d="M387 700l295 -700h-125l-70 165h-288l-70 -165h-122l295 700h85zM245 275h196l-98 233zM307 865q0 -17 11.5 -27t26.5 -10q16 0 26.5 10t10.5 27t-10.5 27.5t-26.5 10.5t-27 -10.5t-11 -27.5zM237 865q0 22 8.5 41.5t23.5 33.5t34.5 22t41.5 8t41.5 -8t34 -22t23 -33.5
t8.5 -41.5q0 -23 -8.5 -42t-23 -32.5t-34 -21.5t-41.5 -8t-41.5 8t-34.5 21.5t-23.5 32.5t-8.5 42z" />
    <glyph glyph-name="AE" unicode="&#xc6;" horiz-adv-x="947" 
d="M601 110h300v-110h-420v165h-257l-99 -165h-134l420 700h480v-110h-290v-160h225v-110h-225v-210zM481 596l-192 -321h192v321z" />
    <glyph glyph-name="Ccedilla" unicode="&#xc7;" horiz-adv-x="702" 
d="M298 -145l62 138q-71 8 -129.5 38t-100 77.5t-64.5 109t-23 132.5q0 77 27.5 143t75.5 114t113.5 75.5t142.5 27.5q80 0 147 -31t114 -82l-75 -75q-35 35 -81 56.5t-105 21.5q-52 0 -96 -19.5t-75.5 -53t-49.5 -79.5t-18 -98q0 -53 18 -98.5t50.5 -79t78 -53t100.5 -19.5
q65 0 112.5 26.5t86.5 68.5l79 -70q-43 -54 -106 -90t-138 -43l-26 -137h-120z" />
    <glyph glyph-name="Egrave" unicode="&#xc8;" horiz-adv-x="553" 
d="M87 700h410v-110h-290v-160h225v-110h-225v-210h300v-110h-420v700zM272 765l-115 155h125l65 -155h-75z" />
    <glyph glyph-name="Eacute" unicode="&#xc9;" horiz-adv-x="553" 
d="M87 700h410v-110h-290v-160h225v-110h-225v-210h300v-110h-420v700zM232 765l65 155h125l-115 -155h-75z" />
    <glyph glyph-name="Ecircumflex" unicode="&#xca;" horiz-adv-x="553" 
d="M87 700h410v-110h-290v-160h225v-110h-225v-210h300v-110h-420v700zM132 765l98 155h129l98 -155h-75l-88 90l-87 -90h-75z" />
    <glyph glyph-name="Edieresis" unicode="&#xcb;" horiz-adv-x="553" 
d="M87 700h410v-110h-290v-160h225v-110h-225v-210h300v-110h-420v700zM323 845q0 29 20.5 50t49.5 21t50 -21t21 -50t-21 -49.5t-50 -20.5t-49.5 20.5t-20.5 49.5zM124 845q0 29 20.5 50t49.5 21t50 -21t21 -50t-21 -49.5t-50 -20.5t-49.5 20.5t-20.5 49.5z" />
    <glyph glyph-name="Igrave" unicode="&#xcc;" horiz-adv-x="294" 
d="M87 0v700h120v-700h-120zM122 765l-115 155h125l65 -155h-75z" />
    <glyph glyph-name="Iacute" unicode="&#xcd;" horiz-adv-x="294" 
d="M87 0v700h120v-700h-120zM97 765l65 155h125l-115 -155h-75z" />
    <glyph glyph-name="Icircumflex" unicode="&#xce;" horiz-adv-x="294" 
d="M87 0v700h120v-700h-120zM-15 765l98 155h129l98 -155h-75l-88 90l-87 -90h-75z" />
    <glyph glyph-name="Idieresis" unicode="&#xcf;" horiz-adv-x="294" 
d="M87 0v700h120v-700h-120zM176 845q0 29 20.5 50t49.5 21t50 -21t21 -50t-21 -49.5t-50 -20.5t-49.5 20.5t-20.5 49.5zM-23 845q0 29 20.5 50t49.5 21t50 -21t21 -50t-21 -49.5t-50 -20.5t-49.5 20.5t-20.5 49.5z" />
    <glyph glyph-name="Eth" unicode="&#xd0;" horiz-adv-x="773" 
d="M114 425v275h245q88 0 153 -25.5t112 -70.5q49 -48 77 -113t28 -141t-28 -141t-77 -113q-47 -45 -112 -70.5t-153 -25.5h-245v325h-95v100h95zM349 110q69 0 117 19t80 54q30 32 46.5 74t16.5 93t-16.5 93t-46.5 74q-32 35 -80 54t-117 19h-115v-165h200v-100h-200v-215
h115z" />
    <glyph glyph-name="Ntilde" unicode="&#xd1;" horiz-adv-x="774" 
d="M87 700h85l395 -478v478h120v-700h-85l-395 478v-478h-120v700zM212 791q1 51 26.5 87.5t78.5 36.5q21 0 38.5 -8t34 -17t31 -17t29.5 -8q17 0 26 14.5t11 35.5l70 -16q-1 -26 -7.5 -48.5t-19 -39t-32 -26.5t-46.5 -10q-21 0 -38.5 8t-34 17t-31 17t-29.5 8
q-17 0 -26 -14.5t-11 -35.5z" />
    <glyph glyph-name="Ograve" unicode="&#xd2;" horiz-adv-x="796" 
d="M398 710q75 0 140 -27.5t112.5 -75.5t75 -114t27.5 -143t-27.5 -143t-75 -114t-112.5 -75.5t-140 -27.5t-140 27.5t-112.5 75.5t-75 114t-27.5 143t27.5 143t75 114t112.5 75.5t140 27.5zM398 100q51 0 94 19.5t74.5 53t49 79t17.5 98.5q0 52 -17.5 98t-49 79.5t-74.5 53
t-94 19.5t-94 -19.5t-74.5 -53t-49 -79.5t-17.5 -98q0 -53 17.5 -98.5t49 -79t74.5 -53t94 -19.5zM378 765l-115 155h125l65 -155h-75z" />
    <glyph glyph-name="Oacute" unicode="&#xd3;" horiz-adv-x="796" 
d="M398 710q75 0 140 -27.5t112.5 -75.5t75 -114t27.5 -143t-27.5 -143t-75 -114t-112.5 -75.5t-140 -27.5t-140 27.5t-112.5 75.5t-75 114t-27.5 143t27.5 143t75 114t112.5 75.5t140 27.5zM398 100q51 0 94 19.5t74.5 53t49 79t17.5 98.5q0 52 -17.5 98t-49 79.5t-74.5 53
t-94 19.5t-94 -19.5t-74.5 -53t-49 -79.5t-17.5 -98q0 -53 17.5 -98.5t49 -79t74.5 -53t94 -19.5zM343 765l65 155h125l-115 -155h-75z" />
    <glyph glyph-name="Ocircumflex" unicode="&#xd4;" horiz-adv-x="796" 
d="M398 710q75 0 140 -27.5t112.5 -75.5t75 -114t27.5 -143t-27.5 -143t-75 -114t-112.5 -75.5t-140 -27.5t-140 27.5t-112.5 75.5t-75 114t-27.5 143t27.5 143t75 114t112.5 75.5t140 27.5zM398 100q51 0 94 19.5t74.5 53t49 79t17.5 98.5q0 52 -17.5 98t-49 79.5t-74.5 53
t-94 19.5t-94 -19.5t-74.5 -53t-49 -79.5t-17.5 -98q0 -53 17.5 -98.5t49 -79t74.5 -53t94 -19.5zM235 765l98 155h129l98 -155h-75l-88 90l-87 -90h-75z" />
    <glyph glyph-name="Otilde" unicode="&#xd5;" horiz-adv-x="796" 
d="M398 710q75 0 140 -27.5t112.5 -75.5t75 -114t27.5 -143t-27.5 -143t-75 -114t-112.5 -75.5t-140 -27.5t-140 27.5t-112.5 75.5t-75 114t-27.5 143t27.5 143t75 114t112.5 75.5t140 27.5zM398 100q51 0 94 19.5t74.5 53t49 79t17.5 98.5q0 52 -17.5 98t-49 79.5t-74.5 53
t-94 19.5t-94 -19.5t-74.5 -53t-49 -79.5t-17.5 -98q0 -53 17.5 -98.5t49 -79t74.5 -53t94 -19.5zM227 791q1 51 26.5 87.5t78.5 36.5q21 0 38.5 -8t34 -17t31 -17t29.5 -8q17 0 26 14.5t11 35.5l70 -16q-1 -26 -7.5 -48.5t-19 -39t-32 -26.5t-46.5 -10q-21 0 -38.5 8
t-34 17t-31 17t-29.5 8q-17 0 -26 -14.5t-11 -35.5z" />
    <glyph glyph-name="Odieresis" unicode="&#xd6;" horiz-adv-x="796" 
d="M398 710q75 0 140 -27.5t112.5 -75.5t75 -114t27.5 -143t-27.5 -143t-75 -114t-112.5 -75.5t-140 -27.5t-140 27.5t-112.5 75.5t-75 114t-27.5 143t27.5 143t75 114t112.5 75.5t140 27.5zM398 100q51 0 94 19.5t74.5 53t49 79t17.5 98.5q0 52 -17.5 98t-49 79.5t-74.5 53
t-94 19.5t-94 -19.5t-74.5 -53t-49 -79.5t-17.5 -98q0 -53 17.5 -98.5t49 -79t74.5 -53t94 -19.5zM427 845q0 29 20.5 50t49.5 21t50 -21t21 -50t-21 -49.5t-50 -20.5t-49.5 20.5t-20.5 49.5zM228 845q0 29 20.5 50t49.5 21t50 -21t21 -50t-21 -49.5t-50 -20.5t-49.5 20.5
t-20.5 49.5z" />
    <glyph glyph-name="multiply" unicode="&#xd7;" horiz-adv-x="572" 
d="M215 260l-144 144l71 71l144 -144l144 144l71 -71l-144 -144l144 -144l-71 -71l-144 144l-144 -144l-71 71z" />
    <glyph glyph-name="Oslash" unicode="&#xd8;" horiz-adv-x="805" 
d="M403 100q51 0 94 19.5t74.5 53t49 79t17.5 98.5q0 42 -11.5 78.5t-31.5 67.5l-309 -365q53 -31 117 -31zM758 350q0 -77 -27.5 -143t-75 -114t-112.5 -75.5t-140 -27.5q-54 0 -101.5 13.5t-89.5 39.5l-36 -43h-138l95 112q-41 47 -63 107.5t-22 130.5q0 77 27.5 143
t75 114t112.5 75.5t140 27.5q54 0 101.5 -13.5t89.5 -39.5l36 43h138l-95 -112q41 -47 63 -107.5t22 -130.5zM403 600q-51 0 -94 -19.5t-74.5 -53t-49 -79.5t-17.5 -98q0 -42 11.5 -78.5t31.5 -67.5l309 365q-53 31 -117 31z" />
    <glyph glyph-name="Ugrave" unicode="&#xd9;" horiz-adv-x="748" 
d="M549 700h120v-408q0 -70 -18.5 -119t-50.5 -86q-41 -46 -99.5 -71.5t-126.5 -25.5t-126.5 26t-99.5 72q-33 36 -51 85t-18 119v408h120v-415q0 -48 10.5 -77.5t30.5 -50.5q24 -26 58.5 -41.5t75.5 -15.5t75.5 15.5t58.5 41.5q20 21 30.5 50.5t10.5 77.5v415zM354 765
l-115 155h125l65 -155h-75z" />
    <glyph glyph-name="Uacute" unicode="&#xda;" horiz-adv-x="748" 
d="M549 700h120v-408q0 -70 -18.5 -119t-50.5 -86q-41 -46 -99.5 -71.5t-126.5 -25.5t-126.5 26t-99.5 72q-33 36 -51 85t-18 119v408h120v-415q0 -48 10.5 -77.5t30.5 -50.5q24 -26 58.5 -41.5t75.5 -15.5t75.5 15.5t58.5 41.5q20 21 30.5 50.5t10.5 77.5v415zM319 765
l65 155h125l-115 -155h-75z" />
    <glyph glyph-name="Ucircumflex" unicode="&#xdb;" horiz-adv-x="748" 
d="M549 700h120v-408q0 -70 -18.5 -119t-50.5 -86q-41 -46 -99.5 -71.5t-126.5 -25.5t-126.5 26t-99.5 72q-33 36 -51 85t-18 119v408h120v-415q0 -48 10.5 -77.5t30.5 -50.5q24 -26 58.5 -41.5t75.5 -15.5t75.5 15.5t58.5 41.5q20 21 30.5 50.5t10.5 77.5v415zM212 765
l98 155h129l98 -155h-75l-88 90l-87 -90h-75z" />
    <glyph glyph-name="Udieresis" unicode="&#xdc;" horiz-adv-x="748" 
d="M549 700h120v-408q0 -70 -18.5 -119t-50.5 -86q-41 -46 -99.5 -71.5t-126.5 -25.5t-126.5 26t-99.5 72q-33 36 -51 85t-18 119v408h120v-415q0 -48 10.5 -77.5t30.5 -50.5q24 -26 58.5 -41.5t75.5 -15.5t75.5 15.5t58.5 41.5q20 21 30.5 50.5t10.5 77.5v415zM402 845
q0 29 20.5 50t49.5 21t50 -21t21 -50t-21 -49.5t-50 -20.5t-49.5 20.5t-20.5 49.5zM203 845q0 29 20.5 50t49.5 21t50 -21t21 -50t-21 -49.5t-50 -20.5t-49.5 20.5t-20.5 49.5z" />
    <glyph glyph-name="Yacute" unicode="&#xdd;" horiz-adv-x="642" 
d="M261 318l-240 382h136l165 -265l165 265h134l-240 -382v-318h-120v318zM276 765l65 155h125l-115 -155h-75z" />
    <glyph glyph-name="Thorn" unicode="&#xde;" horiz-adv-x="614" 
d="M87 0v700h120v-125h147q50 0 83 -10.5t59 -29.5q37 -28 59 -70t22 -93t-22 -92.5t-59 -69.5q-26 -19 -59 -29.5t-83 -10.5h-147v-170h-120zM207 278h135q33 0 51 5.5t30 16.5q16 13 25 31t9 41t-9 41.5t-25 31.5q-12 11 -30 16.5t-51 5.5h-135v-189z" />
    <glyph glyph-name="germandbls" unicode="&#xdf;" horiz-adv-x="603" 
d="M336 -10q-60 0 -110 25l44 91q11 -5 27 -8.5t32 -3.5q53 0 84 34.5t31 84.5q0 26 -9.5 50t-26.5 39q-16 15 -39 23.5t-61 8.5h-49v100h14q27 0 45.5 5t31.5 16q14 11 21.5 29.5t7.5 38.5q0 19 -7 36t-19.5 29.5t-29 19.5t-35.5 7q-44 0 -71 -32q-11 -12 -17 -29.5
t-6 -49.5v-504h-115v501q0 26 3 47q5 32 15.5 55.5t26.5 42.5q28 34 70 54t92 20q43 0 81 -14.5t66.5 -40.5t44.5 -61.5t16 -76.5q0 -34 -13 -65.5t-36 -54.5q52 -28 83 -79.5t31 -113.5q0 -47 -16.5 -87.5t-46.5 -71t-71 -48t-89 -17.5z" />
    <glyph glyph-name="agrave" unicode="&#xe0;" horiz-adv-x="614" 
d="M295 95q39 0 70.5 15.5t54.5 44.5v170q-23 27 -54 43.5t-66 16.5q-31 0 -56.5 -11t-44 -30.5t-29 -46t-10.5 -57.5t10.5 -57.5t28.5 -46t42.5 -30.5t53.5 -11zM427 0v45q-25 -22 -62 -38.5t-85 -16.5q-40 0 -77 13.5t-67 38.5q-42 35 -66.5 86.5t-24.5 111.5t24.5 111.5
t66.5 86.5q30 25 67.5 38.5t81.5 13.5t80.5 -16.5t61.5 -38.5v45h108v-480h-108zM305 550l-115 155h125l65 -155h-75z" />
    <glyph glyph-name="aacute" unicode="&#xe1;" horiz-adv-x="614" 
d="M295 95q39 0 70.5 15.5t54.5 44.5v170q-23 27 -54 43.5t-66 16.5q-31 0 -56.5 -11t-44 -30.5t-29 -46t-10.5 -57.5t10.5 -57.5t28.5 -46t42.5 -30.5t53.5 -11zM427 0v45q-25 -22 -62 -38.5t-85 -16.5q-40 0 -77 13.5t-67 38.5q-42 35 -66.5 86.5t-24.5 111.5t24.5 111.5
t66.5 86.5q30 25 67.5 38.5t81.5 13.5t80.5 -16.5t61.5 -38.5v45h108v-480h-108zM255 550l65 155h125l-115 -155h-75z" />
    <glyph glyph-name="acircumflex" unicode="&#xe2;" horiz-adv-x="614" 
d="M295 95q39 0 70.5 15.5t54.5 44.5v170q-23 27 -54 43.5t-66 16.5q-31 0 -56.5 -11t-44 -30.5t-29 -46t-10.5 -57.5t10.5 -57.5t28.5 -46t42.5 -30.5t53.5 -11zM427 0v45q-25 -22 -62 -38.5t-85 -16.5q-40 0 -77 13.5t-67 38.5q-42 35 -66.5 86.5t-24.5 111.5t24.5 111.5
t66.5 86.5q30 25 67.5 38.5t81.5 13.5t80.5 -16.5t61.5 -38.5v45h108v-480h-108zM151 550l98 155h129l98 -155h-75l-88 90l-87 -90h-75z" />
    <glyph glyph-name="atilde" unicode="&#xe3;" horiz-adv-x="614" 
d="M295 95q39 0 70.5 15.5t54.5 44.5v170q-23 27 -54 43.5t-66 16.5q-31 0 -56.5 -11t-44 -30.5t-29 -46t-10.5 -57.5t10.5 -57.5t28.5 -46t42.5 -30.5t53.5 -11zM427 0v45q-25 -22 -62 -38.5t-85 -16.5q-40 0 -77 13.5t-67 38.5q-42 35 -66.5 86.5t-24.5 111.5t24.5 111.5
t66.5 86.5q30 25 67.5 38.5t81.5 13.5t80.5 -16.5t61.5 -38.5v45h108v-480h-108zM135 576q1 51 26.5 87.5t78.5 36.5q21 0 38.5 -8t34 -17t31 -17t29.5 -8q17 0 26 14.5t11 35.5l70 -16q-1 -26 -7.5 -48.5t-19 -39t-32 -26.5t-46.5 -10q-21 0 -38.5 8t-34 17t-31 17t-29.5 8
q-17 0 -26 -14.5t-11 -35.5z" />
    <glyph glyph-name="adieresis" unicode="&#xe4;" horiz-adv-x="614" 
d="M295 95q39 0 70.5 15.5t54.5 44.5v170q-23 27 -54 43.5t-66 16.5q-31 0 -56.5 -11t-44 -30.5t-29 -46t-10.5 -57.5t10.5 -57.5t28.5 -46t42.5 -30.5t53.5 -11zM427 0v45q-25 -22 -62 -38.5t-85 -16.5q-40 0 -77 13.5t-67 38.5q-42 35 -66.5 86.5t-24.5 111.5t24.5 111.5
t66.5 86.5q30 25 67.5 38.5t81.5 13.5t80.5 -16.5t61.5 -38.5v45h108v-480h-108zM346 629q0 29 20.5 50t49.5 21t50 -21t21 -50t-21 -49.5t-50 -20.5t-49.5 20.5t-20.5 49.5zM147 629q0 29 20.5 50t49.5 21t50 -21t21 -50t-21 -49.5t-50 -20.5t-49.5 20.5t-20.5 49.5z" />
    <glyph glyph-name="aring" unicode="&#xe5;" horiz-adv-x="614" 
d="M295 95q39 0 70.5 15.5t54.5 44.5v170q-23 27 -54 43.5t-66 16.5q-31 0 -56.5 -11t-44 -30.5t-29 -46t-10.5 -57.5t10.5 -57.5t28.5 -46t42.5 -30.5t53.5 -11zM427 0v45q-25 -22 -62 -38.5t-85 -16.5q-40 0 -77 13.5t-67 38.5q-42 35 -66.5 86.5t-24.5 111.5t24.5 111.5
t66.5 86.5q30 25 67.5 38.5t81.5 13.5t80.5 -16.5t61.5 -38.5v45h108v-480h-108zM283 649q0 -17 11.5 -27t26.5 -10q16 0 26.5 10t10.5 27t-10.5 27.5t-26.5 10.5t-27 -10.5t-11 -27.5zM213 649q0 22 8.5 41.5t23.5 33.5t34.5 22t41.5 8t41.5 -8t34 -22t23 -33.5t8.5 -41.5
q0 -23 -8.5 -42t-23 -32.5t-34 -21.5t-41.5 -8t-41.5 8t-34.5 21.5t-23.5 32.5t-8.5 42z" />
    <glyph glyph-name="ae" unicode="&#xe6;" horiz-adv-x="816" 
d="M578 -10q-55 0 -101 21.5t-80 63.5q-28 -35 -72 -60t-108 -25q-37 0 -69 12t-55.5 33.5t-37 50.5t-13.5 63q0 39 16 70t43.5 52.5t64 32.5t76.5 11q23 0 49 -3.5t56 -13.5q-1 24 -6.5 38t-14.5 25q-13 16 -33.5 22.5t-45.5 6.5q-36 0 -70.5 -13t-61.5 -31l-53 77
q36 31 87 49t105 18q44 0 85.5 -15.5t71.5 -48.5q27 30 64.5 47t85.5 17t86.5 -19.5t66.5 -53t43 -79t15 -96.5q0 -7 -0.5 -15t-1.5 -15h-318q5 -54 39.5 -88t87.5 -34q42 0 70.5 17.5t48.5 37.5l64 -65q-34 -45 -82 -67.5t-102 -22.5zM233 90q38 0 71 17.5t54 46.5
q-6 22 -9 48q-36 18 -82 18q-17 0 -36.5 -3.5t-36 -12t-27 -22t-10.5 -34.5q0 -26 22 -42t54 -16zM659 297q-4 42 -31.5 69t-68.5 27q-42 0 -70 -28t-32 -68h202z" />
    <glyph glyph-name="ccedilla" unicode="&#xe7;" horiz-adv-x="541" 
d="M189 -145l63 139q-47 8 -85 30t-65.5 54.5t-42.5 73.5t-15 88q0 52 19 98t52.5 79.5t80 53t101.5 19.5q61 0 112.5 -25.5t89.5 -72.5l-75 -66q-24 25 -53 42t-74 17q-31 0 -56.5 -11.5t-43.5 -31.5t-28 -46t-10 -56q0 -29 10 -55.5t28.5 -46.5t45 -31.5t59.5 -11.5
q50 0 81.5 20.5t52.5 45.5l78 -62q-31 -45 -77 -72.5t-102 -34.5l-26 -137h-120z" />
    <glyph glyph-name="egrave" unicode="&#xe8;" horiz-adv-x="547" 
d="M505 242q0 -7 -0.5 -15t-1.5 -15h-348q2 -27 14 -49.5t31 -38.5t44 -25t54 -9q44 0 77 18t54 38l66 -64q-36 -45 -90 -68.5t-108 -23.5q-56 0 -102.5 18.5t-79.5 51.5t-51.5 79t-18.5 101q0 52 16.5 97.5t46.5 79.5t73.5 53.5t97.5 19.5q51 0 92.5 -19.5t71.5 -53t46 -79
t16 -96.5zM389 297q-7 42 -37.5 69t-74.5 27q-45 0 -76.5 -28t-38.5 -68h227zM270 550l-115 155h125l65 -155h-75z" />
    <glyph glyph-name="eacute" unicode="&#xe9;" horiz-adv-x="547" 
d="M505 242q0 -7 -0.5 -15t-1.5 -15h-348q2 -27 14 -49.5t31 -38.5t44 -25t54 -9q44 0 77 18t54 38l66 -64q-36 -45 -90 -68.5t-108 -23.5q-56 0 -102.5 18.5t-79.5 51.5t-51.5 79t-18.5 101q0 52 16.5 97.5t46.5 79.5t73.5 53.5t97.5 19.5q51 0 92.5 -19.5t71.5 -53t46 -79
t16 -96.5zM389 297q-7 42 -37.5 69t-74.5 27q-45 0 -76.5 -28t-38.5 -68h227zM225 550l65 155h125l-115 -155h-75z" />
    <glyph glyph-name="ecircumflex" unicode="&#xea;" horiz-adv-x="547" 
d="M505 242q0 -7 -0.5 -15t-1.5 -15h-348q2 -27 14 -49.5t31 -38.5t44 -25t54 -9q44 0 77 18t54 38l66 -64q-36 -45 -90 -68.5t-108 -23.5q-56 0 -102.5 18.5t-79.5 51.5t-51.5 79t-18.5 101q0 52 16.5 97.5t46.5 79.5t73.5 53.5t97.5 19.5q51 0 92.5 -19.5t71.5 -53t46 -79
t16 -96.5zM389 297q-7 42 -37.5 69t-74.5 27q-45 0 -76.5 -28t-38.5 -68h227zM126 550l98 155h129l98 -155h-75l-88 90l-87 -90h-75z" />
    <glyph glyph-name="edieresis" unicode="&#xeb;" horiz-adv-x="547" 
d="M505 242q0 -7 -0.5 -15t-1.5 -15h-348q2 -27 14 -49.5t31 -38.5t44 -25t54 -9q44 0 77 18t54 38l66 -64q-36 -45 -90 -68.5t-108 -23.5q-56 0 -102.5 18.5t-79.5 51.5t-51.5 79t-18.5 101q0 52 16.5 97.5t46.5 79.5t73.5 53.5t97.5 19.5q51 0 92.5 -19.5t71.5 -53t46 -79
t16 -96.5zM389 297q-7 42 -37.5 69t-74.5 27q-45 0 -76.5 -28t-38.5 -68h227zM316 629q0 29 20.5 50t49.5 21t50 -21t21 -50t-21 -49.5t-50 -20.5t-49.5 20.5t-20.5 49.5zM117 629q0 29 20.5 50t49.5 21t50 -21t21 -50t-21 -49.5t-50 -20.5t-49.5 20.5t-20.5 49.5z" />
    <glyph glyph-name="igrave" unicode="&#xec;" horiz-adv-x="273" 
d="M79 0v480h115v-480h-115zM110 550l-115 155h125l65 -155h-75z" />
    <glyph glyph-name="iacute" unicode="&#xed;" horiz-adv-x="273" 
d="M79 0v480h115v-480h-115zM90 550l65 155h125l-115 -155h-75z" />
    <glyph glyph-name="icircumflex" unicode="&#xee;" horiz-adv-x="273" 
d="M79 0v480h115v-480h-115zM-26 550l98 155h129l98 -155h-75l-88 90l-87 -90h-75z" />
    <glyph glyph-name="idieresis" unicode="&#xef;" horiz-adv-x="273" 
d="M79 0v480h115v-480h-115zM165 629q0 29 20.5 50t49.5 21t50 -21t21 -50t-21 -49.5t-50 -20.5t-49.5 20.5t-20.5 49.5zM-34 629q0 29 20.5 50t49.5 21t50 -21t21 -50t-21 -49.5t-50 -20.5t-49.5 20.5t-20.5 49.5z" />
    <glyph glyph-name="eth" unicode="&#xf0;" horiz-adv-x="589" 
d="M201 625l-58 85h134l20 -30l106 60v-100l-56 -32l117 -169q32 -46 56.5 -99t24.5 -105q0 -51 -19 -95.5t-52 -77.5t-79 -52.5t-100 -19.5t-100 19.5t-79.5 52.5t-52 77.5t-18.5 95.5q0 53 18.5 98t50.5 77.5t75 51t93 18.5q5 0 10 -0.5t11 -1.5l-52 75l-128 -73v100z
M295 95q30 0 55 11.5t43 31t27.5 44.5t9.5 53q0 32 -14 67t-41 69q-36 12 -72 12q-34 0 -60.5 -12t-45 -32.5t-28 -47t-9.5 -56.5q0 -28 9.5 -53t27.5 -44.5t43 -31t55 -11.5z" />
    <glyph glyph-name="ntilde" unicode="&#xf1;" horiz-adv-x="614" 
d="M497 411q23 -29 35 -68.5t12 -101.5v-241h-115v251q0 40 -7.5 62t-20.5 36q-14 17 -36 26.5t-47 9.5q-43 0 -75 -19.5t-49 -40.5v-325h-115v480h108v-45q25 22 61.5 38.5t80.5 16.5q51 0 94.5 -21t73.5 -58zM144 576q1 51 26.5 87.5t78.5 36.5q21 0 38.5 -8t34 -17
t31 -17t29.5 -8q17 0 26 14.5t11 35.5l70 -16q-1 -26 -7.5 -48.5t-19 -39t-32 -26.5t-46.5 -10q-21 0 -38.5 8t-34 17t-31 17t-29.5 8q-17 0 -26 -14.5t-11 -35.5z" />
    <glyph glyph-name="ograve" unicode="&#xf2;" horiz-adv-x="588" 
d="M294 490q54 0 99.5 -19.5t79 -53t52.5 -79.5t19 -98q0 -53 -19 -98.5t-52.5 -79t-79 -53t-99.5 -19.5t-99.5 19.5t-79 53t-52.5 79t-19 98.5q0 52 19 98t52.5 79.5t79 53t99.5 19.5zM294 95q30 0 55 11.5t42.5 31.5t27.5 46.5t10 55.5t-10 55.5t-27.5 46.5t-42.5 31.5
t-55 11.5t-55 -11.5t-42.5 -31.5t-27.5 -46t-10 -56q0 -29 10 -55.5t27.5 -46.5t42.5 -31.5t55 -11.5zM284 550l-115 155h125l65 -155h-75z" />
    <glyph glyph-name="oacute" unicode="&#xf3;" horiz-adv-x="588" 
d="M294 490q54 0 99.5 -19.5t79 -53t52.5 -79.5t19 -98q0 -53 -19 -98.5t-52.5 -79t-79 -53t-99.5 -19.5t-99.5 19.5t-79 53t-52.5 79t-19 98.5q0 52 19 98t52.5 79.5t79 53t99.5 19.5zM294 95q30 0 55 11.5t42.5 31.5t27.5 46.5t10 55.5t-10 55.5t-27.5 46.5t-42.5 31.5
t-55 11.5t-55 -11.5t-42.5 -31.5t-27.5 -46t-10 -56q0 -29 10 -55.5t27.5 -46.5t42.5 -31.5t55 -11.5zM229 550l65 155h125l-115 -155h-75z" />
    <glyph glyph-name="ocircumflex" unicode="&#xf4;" horiz-adv-x="588" 
d="M294 490q54 0 99.5 -19.5t79 -53t52.5 -79.5t19 -98q0 -53 -19 -98.5t-52.5 -79t-79 -53t-99.5 -19.5t-99.5 19.5t-79 53t-52.5 79t-19 98.5q0 52 19 98t52.5 79.5t79 53t99.5 19.5zM294 95q30 0 55 11.5t42.5 31.5t27.5 46.5t10 55.5t-10 55.5t-27.5 46.5t-42.5 31.5
t-55 11.5t-55 -11.5t-42.5 -31.5t-27.5 -46t-10 -56q0 -29 10 -55.5t27.5 -46.5t42.5 -31.5t55 -11.5zM132 550l98 155h129l98 -155h-75l-88 90l-87 -90h-75z" />
    <glyph glyph-name="otilde" unicode="&#xf5;" horiz-adv-x="588" 
d="M294 490q54 0 99.5 -19.5t79 -53t52.5 -79.5t19 -98q0 -53 -19 -98.5t-52.5 -79t-79 -53t-99.5 -19.5t-99.5 19.5t-79 53t-52.5 79t-19 98.5q0 52 19 98t52.5 79.5t79 53t99.5 19.5zM294 95q30 0 55 11.5t42.5 31.5t27.5 46.5t10 55.5t-10 55.5t-27.5 46.5t-42.5 31.5
t-55 11.5t-55 -11.5t-42.5 -31.5t-27.5 -46t-10 -56q0 -29 10 -55.5t27.5 -46.5t42.5 -31.5t55 -11.5zM121 576q1 51 26.5 87.5t78.5 36.5q21 0 38.5 -8t34 -17t31 -17t29.5 -8q17 0 26 14.5t11 35.5l70 -16q-1 -26 -7.5 -48.5t-19 -39t-32 -26.5t-46.5 -10q-21 0 -38.5 8
t-34 17t-31 17t-29.5 8q-17 0 -26 -14.5t-11 -35.5z" />
    <glyph glyph-name="odieresis" unicode="&#xf6;" horiz-adv-x="588" 
d="M294 490q54 0 99.5 -19.5t79 -53t52.5 -79.5t19 -98q0 -53 -19 -98.5t-52.5 -79t-79 -53t-99.5 -19.5t-99.5 19.5t-79 53t-52.5 79t-19 98.5q0 52 19 98t52.5 79.5t79 53t99.5 19.5zM294 95q30 0 55 11.5t42.5 31.5t27.5 46.5t10 55.5t-10 55.5t-27.5 46.5t-42.5 31.5
t-55 11.5t-55 -11.5t-42.5 -31.5t-27.5 -46t-10 -56q0 -29 10 -55.5t27.5 -46.5t42.5 -31.5t55 -11.5zM323 629q0 29 20.5 50t49.5 21t50 -21t21 -50t-21 -49.5t-50 -20.5t-49.5 20.5t-20.5 49.5zM124 629q0 29 20.5 50t49.5 21t50 -21t21 -50t-21 -49.5t-50 -20.5
t-49.5 20.5t-20.5 49.5z" />
    <glyph glyph-name="divide" unicode="&#xf7;" horiz-adv-x="572" 
d="M511 310v-100h-450v100h450zM214 428q0 30 21 51t51 21t51.5 -21t21.5 -51t-21.5 -51.5t-51.5 -21.5t-51 21.5t-21 51.5zM214 93q0 30 21 51t51 21t51.5 -21t21.5 -51t-21.5 -51.5t-51.5 -21.5t-51 21.5t-21 51.5z" />
    <glyph glyph-name="oslash" unicode="&#xf8;" horiz-adv-x="601" 
d="M551 240q0 -53 -19 -98.5t-52.5 -79t-79 -53t-99.5 -19.5q-35 0 -67 8.5t-59 24.5l-20 -23h-119l70 82q-26 32 -40.5 72.5t-14.5 85.5q0 52 19 98t52.5 79.5t79 53t99.5 19.5q35 0 67 -8.5t59 -24.5l20 23h119l-70 -82q26 -32 40.5 -72.5t14.5 -85.5zM301 90q31 0 57 12
t44.5 32.5t28.5 48t10 57.5q0 20 -5 38t-13 35l-180 -211q25 -12 58 -12zM301 390q-31 0 -57 -12t-44.5 -32.5t-28.5 -48t-10 -57.5q0 -20 5 -38t13 -35l180 211q-26 12 -58 12z" />
    <glyph glyph-name="ugrave" unicode="&#xf9;" horiz-adv-x="605" 
d="M186 220q0 -38 8 -60t23 -36q14 -14 33 -21.5t41 -7.5q40 0 71.5 19.5t48.5 40.5v325h115v-480h-108v45q-25 -22 -61 -38.5t-76 -16.5q-48 0 -88.5 19t-69.5 51q-25 28 -38.5 66t-13.5 94v260h115v-260zM271 550l-115 155h125l65 -155h-75z" />
    <glyph glyph-name="uacute" unicode="&#xfa;" horiz-adv-x="605" 
d="M186 220q0 -38 8 -60t23 -36q14 -14 33 -21.5t41 -7.5q40 0 71.5 19.5t48.5 40.5v325h115v-480h-108v45q-25 -22 -61 -38.5t-76 -16.5q-48 0 -88.5 19t-69.5 51q-25 28 -38.5 66t-13.5 94v260h115v-260zM251 550l65 155h125l-115 -155h-75z" />
    <glyph glyph-name="ucircumflex" unicode="&#xfb;" horiz-adv-x="605" 
d="M186 220q0 -38 8 -60t23 -36q14 -14 33 -21.5t41 -7.5q40 0 71.5 19.5t48.5 40.5v325h115v-480h-108v45q-25 -22 -61 -38.5t-76 -16.5q-48 0 -88.5 19t-69.5 51q-25 28 -38.5 66t-13.5 94v260h115v-260zM142 550l98 155h129l98 -155h-75l-88 90l-87 -90h-75z" />
    <glyph glyph-name="udieresis" unicode="&#xfc;" horiz-adv-x="605" 
d="M186 220q0 -38 8 -60t23 -36q14 -14 33 -21.5t41 -7.5q40 0 71.5 19.5t48.5 40.5v325h115v-480h-108v45q-25 -22 -61 -38.5t-76 -16.5q-48 0 -88.5 19t-69.5 51q-25 28 -38.5 66t-13.5 94v260h115v-260zM332 629q0 29 20.5 50t49.5 21t50 -21t21 -50t-21 -49.5t-50 -20.5
t-49.5 20.5t-20.5 49.5zM133 629q0 29 20.5 50t49.5 21t50 -21t21 -50t-21 -49.5t-50 -20.5t-49.5 20.5t-20.5 49.5z" />
    <glyph glyph-name="yacute" unicode="&#xfd;" horiz-adv-x="563" 
d="M432 480h118l-327 -710h-118l127 273l-217 437h123l153 -308zM245 550l65 155h125l-115 -155h-75z" />
    <glyph glyph-name="thorn" unicode="&#xfe;" horiz-adv-x="614" 
d="M319 95q29 0 53.5 11t42.5 30.5t28.5 46t10.5 57.5t-10.5 57.5t-29 46t-44 30.5t-56.5 11q-35 0 -66 -16.5t-54 -43.5v-170q23 -29 54.5 -44.5t70.5 -15.5zM194 710v-269q31 26 66 37.5t69 11.5q44 0 81.5 -13.5t67.5 -38.5q42 -35 66.5 -86.5t24.5 -111.5t-24.5 -111.5
t-66.5 -86.5q-30 -25 -67 -38.5t-77 -13.5q-38 0 -73.5 11.5t-66.5 37.5v-269h-115v940h115z" />
    <glyph glyph-name="ydieresis" unicode="&#xff;" horiz-adv-x="563" 
d="M432 480h118l-327 -710h-118l127 273l-217 437h123l153 -308zM316 629q0 29 20.5 50t49.5 21t50 -21t21 -50t-21 -49.5t-50 -20.5t-49.5 20.5t-20.5 49.5zM117 629q0 29 20.5 50t49.5 21t50 -21t21 -50t-21 -49.5t-50 -20.5t-49.5 20.5t-20.5 49.5z" />
    <glyph glyph-name="Amacron" unicode="&#x100;" horiz-adv-x="689" 
d="M387 700l295 -700h-125l-70 165h-288l-70 -165h-122l295 700h85zM245 275h196l-98 233zM191 788v85h300v-85h-300z" />
    <glyph glyph-name="amacron" unicode="&#x101;" horiz-adv-x="614" 
d="M295 95q39 0 70.5 15.5t54.5 44.5v170q-23 27 -54 43.5t-66 16.5q-31 0 -56.5 -11t-44 -30.5t-29 -46t-10.5 -57.5t10.5 -57.5t28.5 -46t42.5 -30.5t53.5 -11zM427 0v45q-25 -22 -62 -38.5t-85 -16.5q-40 0 -77 13.5t-67 38.5q-42 35 -66.5 86.5t-24.5 111.5t24.5 111.5
t66.5 86.5q30 25 67.5 38.5t81.5 13.5t80.5 -16.5t61.5 -38.5v45h108v-480h-108zM164 578v85h300v-85h-300z" />
    <glyph glyph-name="Abreve" unicode="&#x102;" horiz-adv-x="689" 
d="M387 700l295 -700h-125l-70 165h-288l-70 -165h-122l295 700h85zM245 275h196l-98 233zM344 765q-29 0 -53.5 10.5t-42.5 29.5t-28.5 44.5t-10.5 55.5h80q0 -23 16 -39t39 -16t39 16t16 39h80q0 -30 -10.5 -55.5t-28.5 -44.5t-42.5 -29.5t-53.5 -10.5z" />
    <glyph glyph-name="abreve" unicode="&#x103;" horiz-adv-x="614" 
d="M295 95q39 0 70.5 15.5t54.5 44.5v170q-23 27 -54 43.5t-66 16.5q-31 0 -56.5 -11t-44 -30.5t-29 -46t-10.5 -57.5t10.5 -57.5t28.5 -46t42.5 -30.5t53.5 -11zM427 0v45q-25 -22 -62 -38.5t-85 -16.5q-40 0 -77 13.5t-67 38.5q-42 35 -66.5 86.5t-24.5 111.5t24.5 111.5
t66.5 86.5q30 25 67.5 38.5t81.5 13.5t80.5 -16.5t61.5 -38.5v45h108v-480h-108zM311 550q-29 0 -53.5 10.5t-42.5 29.5t-28.5 44.5t-10.5 55.5h80q0 -23 16 -39t39 -16t39 16t16 39h80q0 -30 -10.5 -55.5t-28.5 -44.5t-42.5 -29.5t-53.5 -10.5z" />
    <glyph glyph-name="Aogonek" unicode="&#x104;" horiz-adv-x="689" 
d="M642 -215q-25 0 -47.5 8t-40 22.5t-27.5 35.5t-10 48q0 30 13 53t30 40l-73 173h-288l-70 -165h-122l295 700h85l295 -700q-21 -11 -41.5 -30t-20.5 -46q0 -18 12.5 -30.5t32.5 -12.5q5 0 11 0.5t11 1.5l15 -88q-9 -5 -23.5 -7.5t-36.5 -2.5zM245 275h196l-98 233z" />
    <glyph glyph-name="aogonek" unicode="&#x105;" horiz-adv-x="614" 
d="M495 -215q-25 0 -47.5 8t-40 22.5t-27.5 35.5t-10 48q0 36 18 62t39 44v40q-25 -22 -62 -38.5t-85 -16.5q-40 0 -77 13.5t-67 38.5q-42 35 -66.5 86.5t-24.5 111.5t24.5 111.5t66.5 86.5q30 25 67.5 38.5t81.5 13.5t80.5 -16.5t61.5 -38.5v45h108v-480q-21 -11 -41.5 -30
t-20.5 -46q0 -18 12.5 -30.5t32.5 -12.5q5 0 11 0.5t11 1.5l15 -88q-9 -5 -23.5 -7.5t-36.5 -2.5zM295 95q39 0 70.5 15.5t54.5 44.5v170q-23 27 -54 43.5t-66 16.5q-31 0 -56.5 -11t-44 -30.5t-29 -46t-10.5 -57.5t10.5 -57.5t28.5 -46t42.5 -30.5t53.5 -11z" />
    <glyph glyph-name="Cacute" unicode="&#x106;" horiz-adv-x="702" 
d="M410 100q65 0 112.5 26.5t86.5 68.5l79 -70q-48 -60 -120.5 -97.5t-157.5 -37.5q-81 0 -148.5 27.5t-116 75.5t-75.5 114t-27 143t27.5 143t75.5 114t113.5 75.5t142.5 27.5q80 0 147 -31t114 -82l-75 -75q-35 35 -81 56.5t-105 21.5q-52 0 -96 -19.5t-75.5 -53
t-49.5 -79.5t-18 -98q0 -53 18 -98.5t50.5 -79t78 -53t100.5 -19.5zM348 765l65 155h125l-115 -155h-75z" />
    <glyph glyph-name="cacute" unicode="&#x107;" horiz-adv-x="541" 
d="M297 385q-31 0 -56.5 -11.5t-43.5 -31.5t-28 -46t-10 -56q0 -29 10 -55.5t28.5 -46.5t45 -31.5t59.5 -11.5q50 0 81.5 20.5t52.5 45.5l78 -62q-35 -51 -90.5 -80t-121.5 -29q-57 0 -104 19.5t-81.5 53t-53.5 79t-19 98.5q0 52 19 98t52.5 79.5t80 53t101.5 19.5
q61 0 112.5 -25.5t89.5 -72.5l-75 -66q-24 25 -53 42t-74 17zM234 550l65 155h125l-115 -155h-75z" />
    <glyph glyph-name="Ccircumflex" unicode="&#x108;" horiz-adv-x="702" 
d="M410 100q65 0 112.5 26.5t86.5 68.5l79 -70q-48 -60 -120.5 -97.5t-157.5 -37.5q-81 0 -148.5 27.5t-116 75.5t-75.5 114t-27 143t27.5 143t75.5 114t113.5 75.5t142.5 27.5q80 0 147 -31t114 -82l-75 -75q-35 35 -81 56.5t-105 21.5q-52 0 -96 -19.5t-75.5 -53
t-49.5 -79.5t-18 -98q0 -53 18 -98.5t50.5 -79t78 -53t100.5 -19.5zM233 765l98 155h129l98 -155h-75l-88 90l-87 -90h-75z" />
    <glyph glyph-name="ccircumflex" unicode="&#x109;" horiz-adv-x="541" 
d="M297 385q-31 0 -56.5 -11.5t-43.5 -31.5t-28 -46t-10 -56q0 -29 10 -55.5t28.5 -46.5t45 -31.5t59.5 -11.5q50 0 81.5 20.5t52.5 45.5l78 -62q-35 -51 -90.5 -80t-121.5 -29q-57 0 -104 19.5t-81.5 53t-53.5 79t-19 98.5q0 52 19 98t52.5 79.5t80 53t101.5 19.5
q61 0 112.5 -25.5t89.5 -72.5l-75 -66q-24 25 -53 42t-74 17zM130 550l98 155h129l98 -155h-75l-88 90l-87 -90h-75z" />
    <glyph glyph-name="Cdotaccent" unicode="&#x10a;" horiz-adv-x="702" 
d="M410 100q65 0 112.5 26.5t86.5 68.5l79 -70q-48 -60 -120.5 -97.5t-157.5 -37.5q-81 0 -148.5 27.5t-116 75.5t-75.5 114t-27 143t27.5 143t75.5 114t113.5 75.5t142.5 27.5q80 0 147 -31t114 -82l-75 -75q-35 35 -81 56.5t-105 21.5q-52 0 -96 -19.5t-75.5 -53
t-49.5 -79.5t-18 -98q0 -53 18 -98.5t50.5 -79t78 -53t100.5 -19.5zM330 845q0 30 21 51.5t51 21.5t51.5 -21.5t21.5 -51.5t-21.5 -51t-51.5 -21t-51 21t-21 51z" />
    <glyph glyph-name="cdotaccent" unicode="&#x10b;" horiz-adv-x="541" 
d="M297 385q-31 0 -56.5 -11.5t-43.5 -31.5t-28 -46t-10 -56q0 -29 10 -55.5t28.5 -46.5t45 -31.5t59.5 -11.5q50 0 81.5 20.5t52.5 45.5l78 -62q-35 -51 -90.5 -80t-121.5 -29q-57 0 -104 19.5t-81.5 53t-53.5 79t-19 98.5q0 52 19 98t52.5 79.5t80 53t101.5 19.5
q61 0 112.5 -25.5t89.5 -72.5l-75 -66q-24 25 -53 42t-74 17zM231 627q0 30 21 51.5t51 21.5t51.5 -21.5t21.5 -51.5t-21.5 -51t-51.5 -21t-51 21t-21 51z" />
    <glyph glyph-name="Ccaron" unicode="&#x10c;" horiz-adv-x="702" 
d="M410 100q65 0 112.5 26.5t86.5 68.5l79 -70q-48 -60 -120.5 -97.5t-157.5 -37.5q-81 0 -148.5 27.5t-116 75.5t-75.5 114t-27 143t27.5 143t75.5 114t113.5 75.5t142.5 27.5q80 0 147 -31t114 -82l-75 -75q-35 35 -81 56.5t-105 21.5q-52 0 -96 -19.5t-75.5 -53
t-49.5 -79.5t-18 -98q0 -53 18 -98.5t50.5 -79t78 -53t100.5 -19.5zM558 920l-98 -155h-129l-98 155h75l88 -90l87 90h75z" />
    <glyph glyph-name="ccaron" unicode="&#x10d;" horiz-adv-x="541" 
d="M297 385q-31 0 -56.5 -11.5t-43.5 -31.5t-28 -46t-10 -56q0 -29 10 -55.5t28.5 -46.5t45 -31.5t59.5 -11.5q50 0 81.5 20.5t52.5 45.5l78 -62q-35 -51 -90.5 -80t-121.5 -29q-57 0 -104 19.5t-81.5 53t-53.5 79t-19 98.5q0 52 19 98t52.5 79.5t80 53t101.5 19.5
q61 0 112.5 -25.5t89.5 -72.5l-75 -66q-24 25 -53 42t-74 17zM460 705l-98 -155h-129l-98 155h75l88 -90l87 90h75z" />
    <glyph glyph-name="Dcaron" unicode="&#x10e;" horiz-adv-x="746" 
d="M87 700h245q88 0 153 -25.5t112 -70.5q49 -48 77 -113t28 -141t-28 -141t-77 -113q-47 -45 -112 -70.5t-153 -25.5h-245v700zM322 110q69 0 117 19t80 54q30 32 46.5 74t16.5 93t-16.5 93t-46.5 74q-32 35 -80 54t-117 19h-115v-480h115zM487 920l-98 -155h-129l-98 155
h75l88 -90l87 90h75z" />
    <glyph glyph-name="dcaron" unicode="&#x10f;" horiz-adv-x="632" 
d="M295 95q39 0 70.5 15.5t54.5 44.5v170q-23 27 -54 43.5t-66 16.5q-31 0 -56.5 -11t-44 -30.5t-29 -46t-10.5 -57.5t10.5 -57.5t28.5 -46t42.5 -30.5t53.5 -11zM535 0h-108v45q-25 -22 -62 -38.5t-85 -16.5q-40 0 -77 13.5t-67 38.5q-42 35 -66.5 86.5t-24.5 111.5
t24.5 111.5t66.5 86.5q30 25 67.5 38.5t81.5 13.5q34 0 69 -11.5t66 -37.5v269h115v-710zM570 545l65 155h125l-115 -155h-75z" />
    <glyph glyph-name="Dcroat" unicode="&#x110;" horiz-adv-x="773" 
d="M114 425v275h245q88 0 153 -25.5t112 -70.5q49 -48 77 -113t28 -141t-28 -141t-77 -113q-47 -45 -112 -70.5t-153 -25.5h-245v325h-95v100h95zM349 110q69 0 117 19t80 54q30 32 46.5 74t16.5 93t-16.5 93t-46.5 74q-32 35 -80 54t-117 19h-115v-165h200v-100h-200v-215
h115z" />
    <glyph glyph-name="dcroat" unicode="&#x111;" horiz-adv-x="614" 
d="M535 545v-545h-108v45q-25 -22 -62 -38.5t-85 -16.5q-40 0 -77 13.5t-67 38.5q-42 35 -66.5 86.5t-24.5 111.5t24.5 111.5t66.5 86.5q30 25 67.5 38.5t81.5 13.5q34 0 69 -11.5t66 -37.5v104h-120v90h120v75h115v-75h80v-90h-80zM295 95q39 0 70.5 15.5t54.5 44.5v170
q-23 27 -54 43.5t-66 16.5q-31 0 -56.5 -11t-44 -30.5t-29 -46t-10.5 -57.5t10.5 -57.5t28.5 -46t42.5 -30.5t53.5 -11z" />
    <glyph glyph-name="Emacron" unicode="&#x112;" horiz-adv-x="553" 
d="M87 700h410v-110h-290v-160h225v-110h-225v-210h300v-110h-420v700zM146 788v85h300v-85h-300z" />
    <glyph glyph-name="emacron" unicode="&#x113;" horiz-adv-x="547" 
d="M505 242q0 -7 -0.5 -15t-1.5 -15h-348q2 -27 14 -49.5t31 -38.5t44 -25t54 -9q44 0 77 18t54 38l66 -64q-36 -45 -90 -68.5t-108 -23.5q-56 0 -102.5 18.5t-79.5 51.5t-51.5 79t-18.5 101q0 52 16.5 97.5t46.5 79.5t73.5 53.5t97.5 19.5q51 0 92.5 -19.5t71.5 -53t46 -79
t16 -96.5zM389 297q-7 42 -37.5 69t-74.5 27q-45 0 -76.5 -28t-38.5 -68h227zM134 578v85h300v-85h-300z" />
    <glyph glyph-name="Ebreve" unicode="&#x114;" horiz-adv-x="553" 
d="M87 700h410v-110h-290v-160h225v-110h-225v-210h300v-110h-420v700zM293 765q-29 0 -53.5 10.5t-42.5 29.5t-28.5 44.5t-10.5 55.5h80q0 -23 16 -39t39 -16t39 16t16 39h80q0 -30 -10.5 -55.5t-28.5 -44.5t-42.5 -29.5t-53.5 -10.5z" />
    <glyph glyph-name="ebreve" unicode="&#x115;" horiz-adv-x="547" 
d="M505 242q0 -7 -0.5 -15t-1.5 -15h-348q2 -27 14 -49.5t31 -38.5t44 -25t54 -9q44 0 77 18t54 38l66 -64q-36 -45 -90 -68.5t-108 -23.5q-56 0 -102.5 18.5t-79.5 51.5t-51.5 79t-18.5 101q0 52 16.5 97.5t46.5 79.5t73.5 53.5t97.5 19.5q51 0 92.5 -19.5t71.5 -53t46 -79
t16 -96.5zM389 297q-7 42 -37.5 69t-74.5 27q-45 0 -76.5 -28t-38.5 -68h227zM286 550q-29 0 -53.5 10.5t-42.5 29.5t-28.5 44.5t-10.5 55.5h80q0 -23 16 -39t39 -16t39 16t16 39h80q0 -30 -10.5 -55.5t-28.5 -44.5t-42.5 -29.5t-53.5 -10.5z" />
    <glyph glyph-name="Edotaccent" unicode="&#x116;" horiz-adv-x="553" 
d="M87 700h410v-110h-290v-160h225v-110h-225v-210h300v-110h-420v700zM224 845q0 30 21 51.5t51 21.5t51.5 -21.5t21.5 -51.5t-21.5 -51t-51.5 -21t-51 21t-21 51z" />
    <glyph glyph-name="edotaccent" unicode="&#x117;" horiz-adv-x="547" 
d="M505 242q0 -7 -0.5 -15t-1.5 -15h-348q2 -27 14 -49.5t31 -38.5t44 -25t54 -9q44 0 77 18t54 38l66 -64q-36 -45 -90 -68.5t-108 -23.5q-56 0 -102.5 18.5t-79.5 51.5t-51.5 79t-18.5 101q0 52 16.5 97.5t46.5 79.5t73.5 53.5t97.5 19.5q51 0 92.5 -19.5t71.5 -53t46 -79
t16 -96.5zM389 297q-7 42 -37.5 69t-74.5 27q-45 0 -76.5 -28t-38.5 -68h227zM217 627q0 30 21 51.5t51 21.5t51.5 -21.5t21.5 -51.5t-21.5 -51t-51.5 -21t-51 21t-21 51z" />
    <glyph glyph-name="Eogonek" unicode="&#x118;" horiz-adv-x="553" 
d="M87 700h410v-110h-290v-160h225v-110h-225v-210h300v-110h-65q-21 -11 -41.5 -30t-20.5 -46q0 -18 12.5 -30.5t32.5 -12.5q5 0 11 0.5t11 1.5l15 -88q-9 -5 -23.5 -7.5t-36.5 -2.5q-25 0 -47.5 8t-40 22.5t-27.5 35.5t-10 48q0 34 15.5 59t35.5 42h-241v700z" />
    <glyph glyph-name="eogonek" unicode="&#x119;" horiz-adv-x="552" 
d="M380 -215q-25 0 -47.5 8t-40 22.5t-27.5 35.5t-10 48q0 28 10.5 51t25.5 40q-53 1 -98 19.5t-78 51t-51.5 78t-18.5 100.5q0 52 17 97.5t48 79.5t75 54t98 20q51 0 93 -19.5t71.5 -53t46 -79t16.5 -96.5q0 -7 -0.5 -15t-1.5 -15h-353q2 -27 14.5 -49.5t32 -38.5t45 -25
t54.5 -9q44 0 78 18t55 38l66 -64q-31 -39 -78 -62q-21 -11 -42.5 -36t-21.5 -60q0 -18 12.5 -30.5t32.5 -12.5q5 0 11 0.5t11 1.5l15 -88q-9 -5 -23.5 -7.5t-36.5 -2.5zM283 393q-46 0 -80 -27.5t-41 -68.5h232q-6 40 -36.5 68t-74.5 28z" />
    <glyph glyph-name="Ecaron" unicode="&#x11a;" horiz-adv-x="553" 
d="M87 700h410v-110h-290v-160h225v-110h-225v-210h300v-110h-420v700zM457 920l-98 -155h-129l-98 155h75l88 -90l87 90h75z" />
    <glyph glyph-name="ecaron" unicode="&#x11b;" horiz-adv-x="547" 
d="M505 242q0 -7 -0.5 -15t-1.5 -15h-348q2 -27 14 -49.5t31 -38.5t44 -25t54 -9q44 0 77 18t54 38l66 -64q-36 -45 -90 -68.5t-108 -23.5q-56 0 -102.5 18.5t-79.5 51.5t-51.5 79t-18.5 101q0 52 16.5 97.5t46.5 79.5t73.5 53.5t97.5 19.5q51 0 92.5 -19.5t71.5 -53t46 -79
t16 -96.5zM389 297q-7 42 -37.5 69t-74.5 27q-45 0 -76.5 -28t-38.5 -68h227zM451 705l-98 -155h-129l-98 155h75l88 -90l87 90h75z" />
    <glyph glyph-name="Gcircumflex" unicode="&#x11c;" horiz-adv-x="741" 
d="M688 125q-48 -60 -120.5 -97.5t-157.5 -37.5q-81 0 -148.5 27.5t-116 75.5t-75.5 114t-27 143t27.5 143t75.5 114t113.5 75.5t142.5 27.5q80 0 147 -31t114 -82l-75 -75q-35 35 -81 56.5t-105 21.5q-52 0 -96 -19.5t-75.5 -53t-49.5 -79.5t-18 -98q0 -53 18 -98.5
t50.5 -79t78 -53t100.5 -19.5q51 0 90.5 14.5t72.5 41.5v164h-194v105h309v-300zM233 765l98 155h129l98 -155h-75l-88 90l-87 -90h-75z" />
    <glyph glyph-name="gcircumflex" unicode="&#x11d;" horiz-adv-x="614" 
d="M420 39q-31 -26 -66.5 -37.5t-73.5 -11.5q-40 0 -77 13.5t-67 38.5q-42 35 -66.5 86.5t-24.5 111.5t24.5 111.5t66.5 86.5q30 25 67.5 38.5t81.5 13.5t80.5 -16.5t61.5 -38.5v45h108v-446q0 -60 -9 -100t-28 -69q-32 -51 -87 -78t-124 -27q-40 0 -75 8.5t-63.5 22.5
t-51 32.5t-37.5 38.5l74 70q11 -11 25.5 -23.5t33 -22.5t41.5 -16.5t53 -6.5q35 0 61.5 11t43.5 34q14 18 21 45t7 72v14zM295 95q39 0 70.5 15.5t54.5 44.5v170q-23 27 -54 43.5t-66 16.5q-31 0 -56.5 -11t-44 -30.5t-29 -46t-10.5 -57.5t10.5 -57.5t28.5 -46t42.5 -30.5
t53.5 -11zM151 550l98 155h129l98 -155h-75l-88 90l-87 -90h-75z" />
    <glyph glyph-name="Gbreve" unicode="&#x11e;" horiz-adv-x="741" 
d="M688 125q-48 -60 -120.5 -97.5t-157.5 -37.5q-81 0 -148.5 27.5t-116 75.5t-75.5 114t-27 143t27.5 143t75.5 114t113.5 75.5t142.5 27.5q80 0 147 -31t114 -82l-75 -75q-35 35 -81 56.5t-105 21.5q-52 0 -96 -19.5t-75.5 -53t-49.5 -79.5t-18 -98q0 -53 18 -98.5
t50.5 -79t78 -53t100.5 -19.5q51 0 90.5 14.5t72.5 41.5v164h-194v105h309v-300zM394 765q-29 0 -53.5 10.5t-42.5 29.5t-28.5 44.5t-10.5 55.5h80q0 -23 16 -39t39 -16t39 16t16 39h80q0 -30 -10.5 -55.5t-28.5 -44.5t-42.5 -29.5t-53.5 -10.5z" />
    <glyph glyph-name="gbreve" unicode="&#x11f;" horiz-adv-x="614" 
d="M420 39q-31 -26 -66.5 -37.5t-73.5 -11.5q-40 0 -77 13.5t-67 38.5q-42 35 -66.5 86.5t-24.5 111.5t24.5 111.5t66.5 86.5q30 25 67.5 38.5t81.5 13.5t80.5 -16.5t61.5 -38.5v45h108v-446q0 -60 -9 -100t-28 -69q-32 -51 -87 -78t-124 -27q-40 0 -75 8.5t-63.5 22.5
t-51 32.5t-37.5 38.5l74 70q11 -11 25.5 -23.5t33 -22.5t41.5 -16.5t53 -6.5q35 0 61.5 11t43.5 34q14 18 21 45t7 72v14zM295 95q39 0 70.5 15.5t54.5 44.5v170q-23 27 -54 43.5t-66 16.5q-31 0 -56.5 -11t-44 -30.5t-29 -46t-10.5 -57.5t10.5 -57.5t28.5 -46t42.5 -30.5
t53.5 -11zM311 550q-29 0 -53.5 10.5t-42.5 29.5t-28.5 44.5t-10.5 55.5h80q0 -23 16 -39t39 -16t39 16t16 39h80q0 -30 -10.5 -55.5t-28.5 -44.5t-42.5 -29.5t-53.5 -10.5z" />
    <glyph glyph-name="Gdotaccent" unicode="&#x120;" horiz-adv-x="741" 
d="M688 125q-48 -60 -120.5 -97.5t-157.5 -37.5q-81 0 -148.5 27.5t-116 75.5t-75.5 114t-27 143t27.5 143t75.5 114t113.5 75.5t142.5 27.5q80 0 147 -31t114 -82l-75 -75q-35 35 -81 56.5t-105 21.5q-52 0 -96 -19.5t-75.5 -53t-49.5 -79.5t-18 -98q0 -53 18 -98.5
t50.5 -79t78 -53t100.5 -19.5q51 0 90.5 14.5t72.5 41.5v164h-194v105h309v-300zM330 845q0 30 21 51.5t51 21.5t51.5 -21.5t21.5 -51.5t-21.5 -51t-51.5 -21t-51 21t-21 51z" />
    <glyph glyph-name="gdotaccent" unicode="&#x121;" horiz-adv-x="614" 
d="M420 39q-31 -26 -66.5 -37.5t-73.5 -11.5q-40 0 -77 13.5t-67 38.5q-42 35 -66.5 86.5t-24.5 111.5t24.5 111.5t66.5 86.5q30 25 67.5 38.5t81.5 13.5t80.5 -16.5t61.5 -38.5v45h108v-446q0 -60 -9 -100t-28 -69q-32 -51 -87 -78t-124 -27q-40 0 -75 8.5t-63.5 22.5
t-51 32.5t-37.5 38.5l74 70q11 -11 25.5 -23.5t33 -22.5t41.5 -16.5t53 -6.5q35 0 61.5 11t43.5 34q14 18 21 45t7 72v14zM295 95q39 0 70.5 15.5t54.5 44.5v170q-23 27 -54 43.5t-66 16.5q-31 0 -56.5 -11t-44 -30.5t-29 -46t-10.5 -57.5t10.5 -57.5t28.5 -46t42.5 -30.5
t53.5 -11zM232 627q0 30 21 51.5t51 21.5t51.5 -21.5t21.5 -51.5t-21.5 -51t-51.5 -21t-51 21t-21 51z" />
    <glyph glyph-name="uni0122" unicode="&#x122;" horiz-adv-x="741" 
d="M688 125q-48 -60 -120.5 -97.5t-157.5 -37.5q-81 0 -148.5 27.5t-116 75.5t-75.5 114t-27 143t27.5 143t75.5 114t113.5 75.5t142.5 27.5q80 0 147 -31t114 -82l-75 -75q-35 35 -81 56.5t-105 21.5q-52 0 -96 -19.5t-75.5 -53t-49.5 -79.5t-18 -98q0 -53 18 -98.5
t50.5 -79t78 -53t100.5 -19.5q51 0 90.5 14.5t72.5 41.5v164h-194v105h309v-300zM288 -205l65 155h125l-115 -155h-75z" />
    <glyph glyph-name="uni0123" unicode="&#x123;" horiz-adv-x="614" 
d="M420 39q-31 -26 -66.5 -37.5t-73.5 -11.5q-40 0 -77 13.5t-67 38.5q-42 35 -66.5 86.5t-24.5 111.5t24.5 111.5t66.5 86.5q30 25 67.5 38.5t81.5 13.5t80.5 -16.5t61.5 -38.5v45h108v-446q0 -60 -9 -100t-28 -69q-32 -51 -87 -78t-124 -27q-40 0 -75 8.5t-63.5 22.5
t-51 32.5t-37.5 38.5l74 70q11 -11 25.5 -23.5t33 -22.5t41.5 -16.5t53 -6.5q35 0 61.5 11t43.5 34q14 18 21 45t7 72v14zM295 95q39 0 70.5 15.5t54.5 44.5v170q-23 27 -54 43.5t-66 16.5q-31 0 -56.5 -11t-44 -30.5t-29 -46t-10.5 -57.5t10.5 -57.5t28.5 -46t42.5 -30.5
t53.5 -11zM428 705l-65 -155h-125l115 155h75z" />
    <glyph glyph-name="Hcircumflex" unicode="&#x124;" horiz-adv-x="774" 
d="M87 700h120v-270h360v270h120v-700h-120v320h-360v-320h-120v700zM224 765l98 155h129l98 -155h-75l-88 90l-87 -90h-75z" />
    <glyph glyph-name="hcircumflex" unicode="&#x125;" horiz-adv-x="614" 
d="M497 412q23 -29 35 -69t12 -102v-241h-115v251q0 40 -7.5 62t-20.5 36q-14 17 -36 26.5t-47 9.5q-43 0 -75 -19.5t-49 -40.5v-325h-115v710h115v-268q25 20 59 34t76 14q51 0 94.5 -20.5t73.5 -57.5zM-23 755l98 155h129l98 -155h-75l-88 90l-87 -90h-75z" />
    <glyph glyph-name="Hbar" unicode="&#x126;" horiz-adv-x="828" 
d="M114 620v80h120v-80h360v80h120v-80h90v-95h-90v-525h-120v320h-360v-320h-120v525h-90v95h90zM594 430v95h-360v-95h360z" />
    <glyph glyph-name="hbar" unicode="&#x127;" horiz-adv-x="614" 
d="M194 545v-103q25 20 59 34t76 14q51 0 94.5 -20.5t73.5 -57.5q23 -29 35 -69t12 -102v-241h-115v251q0 40 -7.5 62t-20.5 36q-14 17 -36 26.5t-47 9.5q-43 0 -75 -19.5t-49 -40.5v-325h-115v545h-80v90h80v75h115v-75h125v-90h-125z" />
    <glyph glyph-name="Itilde" unicode="&#x128;" horiz-adv-x="294" 
d="M87 0v700h120v-700h-120zM-25 791q1 51 26.5 87.5t78.5 36.5q21 0 38.5 -8t34 -17t31 -17t29.5 -8q17 0 26 14.5t11 35.5l70 -16q-1 -26 -7.5 -48.5t-19 -39t-32 -26.5t-46.5 -10q-21 0 -38.5 8t-34 17t-31 17t-29.5 8q-17 0 -26 -14.5t-11 -35.5z" />
    <glyph glyph-name="itilde" unicode="&#x129;" horiz-adv-x="273" 
d="M79 0v480h115v-480h-115zM-36 576q1 51 26.5 87.5t78.5 36.5q21 0 38.5 -8t34 -17t31 -17t29.5 -8q17 0 26 14.5t11 35.5l70 -16q-1 -26 -7.5 -48.5t-19 -39t-32 -26.5t-46.5 -10q-21 0 -38.5 8t-34 17t-31 17t-29.5 8q-17 0 -26 -14.5t-11 -35.5z" />
    <glyph glyph-name="Imacron" unicode="&#x12a;" horiz-adv-x="294" 
d="M87 0v700h120v-700h-120zM-3 788v85h300v-85h-300z" />
    <glyph glyph-name="imacron" unicode="&#x12b;" horiz-adv-x="273" 
d="M79 0v480h115v-480h-115zM-14 578v85h300v-85h-300z" />
    <glyph glyph-name="Ibreve" unicode="&#x12c;" horiz-adv-x="294" 
d="M87 0v700h120v-700h-120zM147 765q-29 0 -53.5 10.5t-42.5 29.5t-28.5 44.5t-10.5 55.5h80q0 -23 16 -39t39 -16t39 16t16 39h80q0 -30 -10.5 -55.5t-28.5 -44.5t-42.5 -29.5t-53.5 -10.5z" />
    <glyph glyph-name="ibreve" unicode="&#x12d;" horiz-adv-x="273" 
d="M79 0v480h115v-480h-115zM136 550q-29 0 -53.5 10.5t-42.5 29.5t-28.5 44.5t-10.5 55.5h80q0 -23 16 -39t39 -16t39 16t16 39h80q0 -30 -10.5 -55.5t-28.5 -44.5t-42.5 -29.5t-53.5 -10.5z" />
    <glyph glyph-name="Iogonek" unicode="&#x12e;" horiz-adv-x="294" 
d="M167 -215q-25 0 -47.5 8t-40 22.5t-27.5 35.5t-10 48q0 31 13.5 54.5t31.5 40.5v706h120v-700q-21 -11 -41.5 -30t-20.5 -46q0 -18 12.5 -30.5t32.5 -12.5q5 0 11 0.5t11 1.5l15 -88q-9 -5 -23.5 -7.5t-36.5 -2.5z" />
    <glyph glyph-name="iogonek" unicode="&#x12f;" horiz-adv-x="273" 
d="M154 -215q-25 0 -47.5 8t-40 22.5t-27.5 35.5t-10 48q0 33 15 57.5t35 42.5v481h115v-480q-21 -11 -41.5 -30t-20.5 -46q0 -18 12.5 -30.5t32.5 -12.5q5 0 11 0.5t11 1.5l15 -88q-9 -5 -23.5 -7.5t-36.5 -2.5zM64 650q0 30 21 51.5t51 21.5t51.5 -21.5t21.5 -51.5
t-21.5 -51t-51.5 -21t-51 21t-21 51z" />
    <glyph glyph-name="Idotaccent" unicode="&#x130;" horiz-adv-x="294" 
d="M87 0v700h120v-700h-120zM75 845q0 30 21 51.5t51 21.5t51.5 -21.5t21.5 -51.5t-21.5 -51t-51.5 -21t-51 21t-21 51z" />
    <glyph glyph-name="dotlessi" unicode="&#x131;" horiz-adv-x="273" 
d="M79 0v480h115v-480h-115z" />
    <glyph glyph-name="IJ" unicode="&#x132;" horiz-adv-x="783" 
d="M87 0v700h120v-700h-120zM497 -10q-61 0 -112.5 30.5t-78.5 89.5l96 47q14 -23 37.5 -40t56.5 -17q20 0 38 8.5t29 23.5q8 11 13 27t5 45v496h120v-484q0 -42 -6 -71t-17 -51q-26 -48 -75 -76t-106 -28z" />
    <glyph glyph-name="ij" unicode="&#x133;" horiz-adv-x="554" 
d="M79 0v480h115v-480h-115zM64 650q0 30 21 51.5t51 21.5t51.5 -21.5t21.5 -51.5t-21.5 -51t-51.5 -21t-51 21t-21 51zM360 480h115v-534q0 -55 -15 -90.5t-42 -58.5q-21 -18 -48 -27.5t-56 -9.5q-73 0 -119 40l47 81q26 -18 57 -18q28 0 45 19q8 8 12 21.5t4 40.5v536z
M345 650q0 30 21 51.5t51 21.5t51.5 -21.5t21.5 -51.5t-21.5 -51t-51.5 -21t-51 21t-21 51z" />
    <glyph glyph-name="Jcircumflex" unicode="&#x134;" horiz-adv-x="489" 
d="M203 -10q-61 0 -112.5 30.5t-78.5 89.5l96 47q14 -23 37.5 -40t56.5 -17q20 0 38 8.5t29 23.5q8 11 13 27t5 45v496h120v-484q0 -42 -6 -71t-17 -51q-26 -48 -75 -76t-106 -28zM180 765l98 155h129l98 -155h-75l-88 90l-87 -90h-75z" />
    <glyph glyph-name="jcircumflex" unicode="&#x135;" horiz-adv-x="281" 
d="M87 480h115v-534q0 -55 -15 -90.5t-42 -58.5q-21 -18 -48 -27.5t-56 -9.5q-73 0 -119 40l47 81q26 -18 57 -18q28 0 45 19q8 8 12 21.5t4 40.5v536zM-22 550l98 155h129l98 -155h-75l-88 90l-87 -90h-75z" />
    <glyph glyph-name="uni0136" unicode="&#x136;" horiz-adv-x="650" 
d="M326 382l331 -382h-152l-298 345v-345h-120v700h120v-290l279 290h151zM218 -205l65 155h125l-115 -155h-75z" />
    <glyph glyph-name="uni0137" unicode="&#x137;" horiz-adv-x="555" 
d="M79 710h115v-415l188 185h152l-228 -220l248 -260h-151l-209 225v-225h-115v710zM169 -205l65 155h125l-115 -155h-75z" />
    <glyph glyph-name="kgreenlandic" unicode="&#x138;" horiz-adv-x="555" 
d="M79 480h115v-185l188 185h152l-228 -220l248 -260h-151l-209 225v-225h-115v480z" />
    <glyph glyph-name="Lacute" unicode="&#x139;" horiz-adv-x="532" 
d="M87 700h120v-590h300v-110h-420v700zM97 765l65 155h125l-115 -155h-75z" />
    <glyph glyph-name="lacute" unicode="&#x13a;" horiz-adv-x="273" 
d="M79 710h115v-710h-115v710zM89 755l65 155h125l-115 -155h-75z" />
    <glyph glyph-name="uni013B" unicode="&#x13b;" horiz-adv-x="532" 
d="M87 700h120v-590h300v-110h-420v700zM183 -205l65 155h125l-115 -155h-75z" />
    <glyph glyph-name="uni013C" unicode="&#x13c;" horiz-adv-x="273" 
d="M79 710h115v-710h-115v710zM15 -205l65 155h125l-115 -155h-75z" />
    <glyph glyph-name="Lcaron" unicode="&#x13d;" horiz-adv-x="534" 
d="M87 700h120v-590h300v-110h-420v700zM242 545l65 155h125l-115 -155h-75z" />
    <glyph glyph-name="lcaron" unicode="&#x13e;" horiz-adv-x="291" 
d="M79 710h115v-710h-115v710zM229 545l65 155h125l-115 -155h-75z" />
    <glyph glyph-name="Ldot" unicode="&#x13f;" horiz-adv-x="539" 
d="M87 700h120v-590h300v-110h-420v700zM340 374q0 30 21 51.5t51 21.5t51.5 -21.5t21.5 -51.5t-21.5 -51t-51.5 -21t-51 21t-21 51z" />
    <glyph glyph-name="ldot" unicode="&#x140;" horiz-adv-x="354" 
d="M79 710h115v-710h-115v710zM241 334q0 30 21 51.5t51 21.5t51.5 -21.5t21.5 -51.5t-21.5 -51t-51.5 -21t-51 21t-21 51z" />
    <glyph glyph-name="Lslash" unicode="&#x141;" horiz-adv-x="585" 
d="M260 346v-236h300v-110h-420v277l-105 -60v122l105 60v301h120v-232l145 84v-122z" />
    <glyph glyph-name="lslash" unicode="&#x142;" horiz-adv-x="387" 
d="M257 352v-352h-115v285l-105 -60v117l105 60v308h115v-241l105 61v-117z" />
    <glyph glyph-name="Nacute" unicode="&#x143;" horiz-adv-x="774" 
d="M87 700h85l395 -478v478h120v-700h-85l-395 478v-478h-120v700zM342 765l65 155h125l-115 -155h-75z" />
    <glyph glyph-name="nacute" unicode="&#x144;" horiz-adv-x="614" 
d="M497 411q23 -29 35 -68.5t12 -101.5v-241h-115v251q0 40 -7.5 62t-20.5 36q-14 17 -36 26.5t-47 9.5q-43 0 -75 -19.5t-49 -40.5v-325h-115v480h108v-45q25 22 61.5 38.5t80.5 16.5q51 0 94.5 -21t73.5 -58zM264 550l65 155h125l-115 -155h-75z" />
    <glyph glyph-name="uni0145" unicode="&#x145;" horiz-adv-x="774" 
d="M87 700h85l395 -478v478h120v-700h-85l-395 478v-478h-120v700zM272 -205l65 155h125l-115 -155h-75z" />
    <glyph glyph-name="uni0146" unicode="&#x146;" horiz-adv-x="614" 
d="M497 411q23 -29 35 -68.5t12 -101.5v-241h-115v251q0 40 -7.5 62t-20.5 36q-14 17 -36 26.5t-47 9.5q-43 0 -75 -19.5t-49 -40.5v-325h-115v480h108v-45q25 22 61.5 38.5t80.5 16.5q51 0 94.5 -21t73.5 -58zM184 -205l65 155h125l-115 -155h-75z" />
    <glyph glyph-name="Ncaron" unicode="&#x147;" horiz-adv-x="774" 
d="M87 700h85l395 -478v478h120v-700h-85l-395 478v-478h-120v700zM547 920l-98 -155h-129l-98 155h75l88 -90l87 90h75z" />
    <glyph glyph-name="ncaron" unicode="&#x148;" horiz-adv-x="614" 
d="M497 411q23 -29 35 -68.5t12 -101.5v-241h-115v251q0 40 -7.5 62t-20.5 36q-14 17 -36 26.5t-47 9.5q-43 0 -75 -19.5t-49 -40.5v-325h-115v480h108v-45q25 22 61.5 38.5t80.5 16.5q51 0 94.5 -21t73.5 -58zM475 705l-98 -155h-129l-98 155h75l88 -90l87 90h75z" />
    <glyph glyph-name="napostrophe" unicode="&#x149;" horiz-adv-x="614" 
d="M497 411q23 -29 35 -68.5t12 -101.5v-241h-115v251q0 40 -7.5 62t-20.5 36q-14 17 -36 26.5t-47 9.5q-43 0 -75 -19.5t-49 -40.5v-325h-115v480h108v-45q25 22 61.5 38.5t80.5 16.5q51 0 94.5 -21t73.5 -58zM79 545l65 155h125l-115 -155h-75z" />
    <glyph glyph-name="Eng" unicode="&#x14a;" horiz-adv-x="774" 
d="M483 -240q-61 0 -112.5 30.5t-78.5 89.5l96 47q14 -23 37.5 -40t56.5 -17q20 0 38 8.5t29 23.5q8 11 13 27t5 45v68l-360 436v-478h-120v700h85l395 -478v478h120v-714q0 -42 -6 -71t-17 -51q-26 -48 -75 -76t-106 -28z" />
    <glyph glyph-name="eng" unicode="&#x14b;" horiz-adv-x="614" 
d="M429 251q0 40 -7.5 62t-20.5 36q-14 17 -36 26.5t-47 9.5q-43 0 -75 -19.5t-49 -40.5v-325h-115v480h108v-45q25 22 61.5 38.5t80.5 16.5q51 0 94.5 -21t73.5 -58q23 -29 35 -68.5t12 -101.5v-295q0 -55 -15 -90.5t-42 -58.5q-21 -18 -48 -27.5t-56 -9.5q-73 0 -119 40
l47 81q26 -18 57 -18q28 0 45 19q8 8 12 21.5t4 40.5v307z" />
    <glyph glyph-name="Omacron" unicode="&#x14c;" horiz-adv-x="796" 
d="M398 710q75 0 140 -27.5t112.5 -75.5t75 -114t27.5 -143t-27.5 -143t-75 -114t-112.5 -75.5t-140 -27.5t-140 27.5t-112.5 75.5t-75 114t-27.5 143t27.5 143t75 114t112.5 75.5t140 27.5zM398 100q51 0 94 19.5t74.5 53t49 79t17.5 98.5q0 52 -17.5 98t-49 79.5t-74.5 53
t-94 19.5t-94 -19.5t-74.5 -53t-49 -79.5t-17.5 -98q0 -53 17.5 -98.5t49 -79t74.5 -53t94 -19.5zM248 788v85h300v-85h-300z" />
    <glyph glyph-name="omacron" unicode="&#x14d;" horiz-adv-x="588" 
d="M294 490q54 0 99.5 -19.5t79 -53t52.5 -79.5t19 -98q0 -53 -19 -98.5t-52.5 -79t-79 -53t-99.5 -19.5t-99.5 19.5t-79 53t-52.5 79t-19 98.5q0 52 19 98t52.5 79.5t79 53t99.5 19.5zM294 95q30 0 55 11.5t42.5 31.5t27.5 46.5t10 55.5t-10 55.5t-27.5 46.5t-42.5 31.5
t-55 11.5t-55 -11.5t-42.5 -31.5t-27.5 -46t-10 -56q0 -29 10 -55.5t27.5 -46.5t42.5 -31.5t55 -11.5zM144 578v85h300v-85h-300z" />
    <glyph glyph-name="Obreve" unicode="&#x14e;" horiz-adv-x="796" 
d="M398 710q75 0 140 -27.5t112.5 -75.5t75 -114t27.5 -143t-27.5 -143t-75 -114t-112.5 -75.5t-140 -27.5t-140 27.5t-112.5 75.5t-75 114t-27.5 143t27.5 143t75 114t112.5 75.5t140 27.5zM398 100q51 0 94 19.5t74.5 53t49 79t17.5 98.5q0 52 -17.5 98t-49 79.5t-74.5 53
t-94 19.5t-94 -19.5t-74.5 -53t-49 -79.5t-17.5 -98q0 -53 17.5 -98.5t49 -79t74.5 -53t94 -19.5zM398 765q-29 0 -53.5 10.5t-42.5 29.5t-28.5 44.5t-10.5 55.5h80q0 -23 16 -39t39 -16t39 16t16 39h80q0 -30 -10.5 -55.5t-28.5 -44.5t-42.5 -29.5t-53.5 -10.5z" />
    <glyph glyph-name="obreve" unicode="&#x14f;" horiz-adv-x="588" 
d="M294 490q54 0 99.5 -19.5t79 -53t52.5 -79.5t19 -98q0 -53 -19 -98.5t-52.5 -79t-79 -53t-99.5 -19.5t-99.5 19.5t-79 53t-52.5 79t-19 98.5q0 52 19 98t52.5 79.5t79 53t99.5 19.5zM294 95q30 0 55 11.5t42.5 31.5t27.5 46.5t10 55.5t-10 55.5t-27.5 46.5t-42.5 31.5
t-55 11.5t-55 -11.5t-42.5 -31.5t-27.5 -46t-10 -56q0 -29 10 -55.5t27.5 -46.5t42.5 -31.5t55 -11.5zM294 550q-29 0 -53.5 10.5t-42.5 29.5t-28.5 44.5t-10.5 55.5h80q0 -23 16 -39t39 -16t39 16t16 39h80q0 -30 -10.5 -55.5t-28.5 -44.5t-42.5 -29.5t-53.5 -10.5z" />
    <glyph glyph-name="Ohungarumlaut" unicode="&#x150;" horiz-adv-x="796" 
d="M398 710q75 0 140 -27.5t112.5 -75.5t75 -114t27.5 -143t-27.5 -143t-75 -114t-112.5 -75.5t-140 -27.5t-140 27.5t-112.5 75.5t-75 114t-27.5 143t27.5 143t75 114t112.5 75.5t140 27.5zM398 100q51 0 94 19.5t74.5 53t49 79t17.5 98.5q0 52 -17.5 98t-49 79.5t-74.5 53
t-94 19.5t-94 -19.5t-74.5 -53t-49 -79.5t-17.5 -98q0 -53 17.5 -98.5t49 -79t74.5 -53t94 -19.5zM453 765l65 155h120l-115 -155h-70zM268 765l65 155h120l-115 -155h-70z" />
    <glyph glyph-name="ohungarumlaut" unicode="&#x151;" horiz-adv-x="588" 
d="M294 490q54 0 99.5 -19.5t79 -53t52.5 -79.5t19 -98q0 -53 -19 -98.5t-52.5 -79t-79 -53t-99.5 -19.5t-99.5 19.5t-79 53t-52.5 79t-19 98.5q0 52 19 98t52.5 79.5t79 53t99.5 19.5zM294 95q30 0 55 11.5t42.5 31.5t27.5 46.5t10 55.5t-10 55.5t-27.5 46.5t-42.5 31.5
t-55 11.5t-55 -11.5t-42.5 -31.5t-27.5 -46t-10 -56q0 -29 10 -55.5t27.5 -46.5t42.5 -31.5t55 -11.5zM354 550l65 155h120l-115 -155h-70zM169 550l65 155h120l-115 -155h-70z" />
    <glyph glyph-name="OE" unicode="&#x152;" horiz-adv-x="1099" 
d="M633 85q-45 -45 -105 -70t-130 -25q-75 0 -140 27.5t-112.5 75.5t-75 114t-27.5 143t27.5 143t75 114t112.5 75.5t140 27.5q70 0 130 -25t105 -70v85h410v-110h-290v-160h225v-110h-225v-210h300v-110h-420v85zM398 100q51 0 94 19.5t74.5 53t49 79t17.5 98.5
q0 52 -17.5 98t-49 79.5t-74.5 53t-94 19.5t-94 -19.5t-74.5 -53t-49 -79.5t-17.5 -98q0 -53 17.5 -98.5t49 -79t74.5 -53t94 -19.5z" />
    <glyph glyph-name="oe" unicode="&#x153;" horiz-adv-x="931" 
d="M663 490q51 0 92.5 -19.5t71.5 -53t46 -79t16 -96.5q0 -7 -0.5 -15t-1.5 -15h-348q2 -27 14 -49.5t31 -38.5t44 -25t54 -9q44 0 77 18t54 38l66 -64q-36 -45 -90 -68.5t-108 -23.5q-64 0 -112.5 24t-81.5 66q-34 -42 -82.5 -66t-110.5 -24q-54 0 -99.5 19.5t-79 53
t-52.5 79t-19 98.5q0 52 19 98t52.5 79.5t79 53t99.5 19.5q61 0 109.5 -25t82.5 -65q30 39 74.5 64.5t102.5 25.5zM294 95q30 0 55 11.5t42.5 31.5t27.5 46.5t10 55.5t-10 55.5t-27.5 46.5t-42.5 31.5t-55 11.5t-55 -11.5t-42.5 -31.5t-27.5 -46t-10 -56q0 -29 10 -55.5
t27.5 -46.5t42.5 -31.5t55 -11.5zM773 297q-7 42 -37.5 69t-74.5 27q-45 0 -76.5 -28t-38.5 -68h227z" />
    <glyph glyph-name="Racute" unicode="&#x154;" horiz-adv-x="642" 
d="M207 0h-120v700h252q58 0 97 -16t65 -44q24 -26 37.5 -60t13.5 -73t-13.5 -72.5t-37.5 -59.5q-17 -19 -40 -32t-53 -20l244 -323h-144l-236 315h-65v-315zM207 420h119q33 0 51.5 6.5t29.5 17.5q12 11 18.5 27.5t6.5 33.5q0 40 -25 63q-11 11 -29.5 17.5t-51.5 6.5h-119
v-172zM247 765l65 155h125l-115 -155h-75z" />
    <glyph glyph-name="racute" unicode="&#x155;" horiz-adv-x="393" 
d="M79 480h111v-55q20 25 57.5 42.5t85.5 17.5q15 0 36 -3v-105q-9 2 -18 2.5t-22 0.5q-39 0 -75.5 -18.5t-59.5 -56.5v-305h-115v480zM159 550l65 155h125l-115 -155h-75z" />
    <glyph glyph-name="uni0156" unicode="&#x156;" horiz-adv-x="642" 
d="M207 0h-120v700h252q58 0 97 -16t65 -44q24 -26 37.5 -60t13.5 -73t-13.5 -72.5t-37.5 -59.5q-17 -19 -40 -32t-53 -20l244 -323h-144l-236 315h-65v-315zM207 420h119q33 0 51.5 6.5t29.5 17.5q12 11 18.5 27.5t6.5 33.5q0 40 -25 63q-11 11 -29.5 17.5t-51.5 6.5h-119
v-172zM222 -205l65 155h125l-115 -155h-75z" />
    <glyph glyph-name="uni0157" unicode="&#x157;" horiz-adv-x="393" 
d="M79 480h111v-55q20 25 57.5 42.5t85.5 17.5q15 0 36 -3v-105q-9 2 -18 2.5t-22 0.5q-39 0 -75.5 -18.5t-59.5 -56.5v-305h-115v480zM15 -205l65 155h125l-115 -155h-75z" />
    <glyph glyph-name="Rcaron" unicode="&#x158;" horiz-adv-x="642" 
d="M207 0h-120v700h252q58 0 97 -16t65 -44q24 -26 37.5 -60t13.5 -73t-13.5 -72.5t-37.5 -59.5q-17 -19 -40 -32t-53 -20l244 -323h-144l-236 315h-65v-315zM207 420h119q33 0 51.5 6.5t29.5 17.5q12 11 18.5 27.5t6.5 33.5q0 40 -25 63q-11 11 -29.5 17.5t-51.5 6.5h-119
v-172zM467 920l-98 -155h-129l-98 155h75l88 -90l87 90h75z" />
    <glyph glyph-name="rcaron" unicode="&#x159;" horiz-adv-x="393" 
d="M79 480h111v-55q20 25 57.5 42.5t85.5 17.5q15 0 36 -3v-105q-9 2 -18 2.5t-22 0.5q-39 0 -75.5 -18.5t-59.5 -56.5v-305h-115v480zM390 705l-98 -155h-129l-98 155h75l88 -90l87 90h75z" />
    <glyph glyph-name="Sacute" unicode="&#x15a;" horiz-adv-x="551" 
d="M110 179q32 -35 72.5 -57t94.5 -22q21 0 41 6t36 18t26 30t10 42t-12 41t-31.5 30.5t-44.5 24.5t-52 22l-48 20t-46 23q-39 24 -66 63t-27 96q0 43 18 79t48.5 61.5t71 39.5t86.5 14q60 0 110.5 -20t87.5 -50l-65 -86q-29 22 -61 34t-68 12q-48 0 -78 -23t-30 -59
q0 -19 10 -33.5t27.5 -26.5t40 -22.5t47.5 -20.5q26 -11 53 -22.5t51 -25.5q39 -24 68.5 -64.5t29.5 -104.5q0 -47 -17.5 -85t-48.5 -65.5t-73.5 -42.5t-91.5 -15q-75 0 -138 29.5t-111 87.5zM240 765l65 155h125l-115 -155h-75z" />
    <glyph glyph-name="sacute" unicode="&#x15b;" horiz-adv-x="453" 
d="M228 -10q-54 0 -103 16.5t-91 51.5l57 76q28 -21 63 -33.5t72 -12.5q29 0 51 13.5t22 36.5q0 22 -20.5 34t-51.5 22q-23 8 -47 15t-47 18q-32 16 -55.5 42.5t-23.5 72.5q0 36 15.5 63.5t41 46.5t58 28.5t66.5 9.5q49 0 90.5 -15.5t68.5 -37.5l-52 -77q-22 14 -46.5 23
t-52.5 9q-30 0 -52 -12t-22 -35q0 -12 9.5 -20t24.5 -14.5t35 -12.5t41 -13q24 -8 48.5 -19t43.5 -28t31 -41.5t12 -58.5q0 -35 -16 -62.5t-42 -46.5t-59.5 -29t-68.5 -10zM169 550l65 155h125l-115 -155h-75z" />
    <glyph glyph-name="Scircumflex" unicode="&#x15c;" horiz-adv-x="551" 
d="M110 179q32 -35 72.5 -57t94.5 -22q21 0 41 6t36 18t26 30t10 42t-12 41t-31.5 30.5t-44.5 24.5t-52 22l-48 20t-46 23q-39 24 -66 63t-27 96q0 43 18 79t48.5 61.5t71 39.5t86.5 14q60 0 110.5 -20t87.5 -50l-65 -86q-29 22 -61 34t-68 12q-48 0 -78 -23t-30 -59
q0 -19 10 -33.5t27.5 -26.5t40 -22.5t47.5 -20.5q26 -11 53 -22.5t51 -25.5q39 -24 68.5 -64.5t29.5 -104.5q0 -47 -17.5 -85t-48.5 -65.5t-73.5 -42.5t-91.5 -15q-75 0 -138 29.5t-111 87.5zM120 765l98 155h129l98 -155h-75l-88 90l-87 -90h-75z" />
    <glyph glyph-name="scircumflex" unicode="&#x15d;" horiz-adv-x="453" 
d="M228 -10q-54 0 -103 16.5t-91 51.5l57 76q28 -21 63 -33.5t72 -12.5q29 0 51 13.5t22 36.5q0 22 -20.5 34t-51.5 22q-23 8 -47 15t-47 18q-32 16 -55.5 42.5t-23.5 72.5q0 36 15.5 63.5t41 46.5t58 28.5t66.5 9.5q49 0 90.5 -15.5t68.5 -37.5l-52 -77q-22 14 -46.5 23
t-52.5 9q-30 0 -52 -12t-22 -35q0 -12 9.5 -20t24.5 -14.5t35 -12.5t41 -13q24 -8 48.5 -19t43.5 -28t31 -41.5t12 -58.5q0 -35 -16 -62.5t-42 -46.5t-59.5 -29t-68.5 -10zM70 550l98 155h129l98 -155h-75l-88 90l-87 -90h-75z" />
    <glyph glyph-name="uni015E" unicode="&#x15e;" horiz-adv-x="551" 
d="M175 -145l62 138q-63 7 -115 35t-92 79l80 72q32 -35 72.5 -57t94.5 -22q21 0 41 6t36 18t26 30t10 42q0 23 -11.5 40.5t-30.5 31t-43.5 24t-51.5 21.5l-50 20t-47 24q-39 24 -66 63t-27 96q0 43 18 79t48.5 61.5t71 39.5t86.5 14q60 0 110.5 -20t87.5 -50l-65 -86
q-29 22 -61 34t-68 12q-48 0 -78 -23t-30 -59q0 -19 10.5 -33.5t27.5 -26.5t40 -22.5t48 -20.5q26 -11 52.5 -22.5t50.5 -25.5q39 -24 68.5 -64.5t29.5 -104.5q0 -41 -14 -76t-39 -61.5t-60 -44t-76 -23.5l-26 -138h-120z" />
    <glyph glyph-name="uni015F" unicode="&#x15f;" horiz-adv-x="453" 
d="M124 -145l62 138q-42 5 -80.5 21t-71.5 44l57 76q28 -21 63 -33.5t72 -12.5q29 0 51 13.5t22 36.5q0 22 -21 34t-52 22q-22 8 -46 15t-47 18q-32 16 -55.5 42.5t-23.5 72.5q0 36 15.5 63.5t41 46.5t58 28.5t66.5 9.5q49 0 90.5 -15.5t68.5 -37.5l-52 -77q-22 14 -46.5 23
t-52.5 9q-30 0 -52 -12t-22 -35q0 -12 9.5 -20t24.5 -14.5t35 -12.5t41 -13q24 -8 48.5 -19t43.5 -28t31 -41.5t12 -58.5q0 -30 -11.5 -54.5t-31 -42.5t-45.5 -30t-55 -17l-27 -139h-120z" />
    <glyph glyph-name="Scaron" unicode="&#x160;" horiz-adv-x="551" 
d="M110 179q32 -35 72.5 -57t94.5 -22q21 0 41 6t36 18t26 30t10 42t-12 41t-31.5 30.5t-44.5 24.5t-52 22l-48 20t-46 23q-39 24 -66 63t-27 96q0 43 18 79t48.5 61.5t71 39.5t86.5 14q60 0 110.5 -20t87.5 -50l-65 -86q-29 22 -61 34t-68 12q-48 0 -78 -23t-30 -59
q0 -19 10 -33.5t27.5 -26.5t40 -22.5t47.5 -20.5q26 -11 53 -22.5t51 -25.5q39 -24 68.5 -64.5t29.5 -104.5q0 -47 -17.5 -85t-48.5 -65.5t-73.5 -42.5t-91.5 -15q-75 0 -138 29.5t-111 87.5zM445 920l-98 -155h-129l-98 155h75l88 -90l87 90h75z" />
    <glyph glyph-name="scaron" unicode="&#x161;" horiz-adv-x="453" 
d="M228 -10q-54 0 -103 16.5t-91 51.5l57 76q28 -21 63 -33.5t72 -12.5q29 0 51 13.5t22 36.5q0 22 -20.5 34t-51.5 22q-23 8 -47 15t-47 18q-32 16 -55.5 42.5t-23.5 72.5q0 36 15.5 63.5t41 46.5t58 28.5t66.5 9.5q49 0 90.5 -15.5t68.5 -37.5l-52 -77q-22 14 -46.5 23
t-52.5 9q-30 0 -52 -12t-22 -35q0 -12 9.5 -20t24.5 -14.5t35 -12.5t41 -13q24 -8 48.5 -19t43.5 -28t31 -41.5t12 -58.5q0 -35 -16 -62.5t-42 -46.5t-59.5 -29t-68.5 -10zM395 705l-98 -155h-129l-98 155h75l88 -90l87 90h75z" />
    <glyph glyph-name="uni0162" unicode="&#x162;" horiz-adv-x="546" 
d="M213 590h-190v110h500v-110h-190v-590h-17l-28 -145h-120l65 145h-20v590z" />
    <glyph glyph-name="uni0163" unicode="&#x163;" horiz-adv-x="437" 
d="M166 -145l66 146q-37 13 -61 41q-17 21 -26 50t-9 74v219h-115v95h115v160h115v-160h145v-95h-145v-220q0 -23 3 -35.5t11 -20.5q16 -18 47 -18q17 0 31.5 4.5t27.5 12.5l40 -84q-44 -30 -99 -33l-26 -136h-120z" />
    <glyph glyph-name="Tcaron" unicode="&#x164;" horiz-adv-x="546" 
d="M213 590h-190v110h500v-110h-190v-590h-120v590zM436 920l-98 -155h-129l-98 155h75l88 -90l87 90h75z" />
    <glyph glyph-name="tcaron" unicode="&#x165;" horiz-adv-x="437" 
d="M297 -10q-35 0 -68.5 12t-57.5 40q-17 21 -26 50t-9 74v219h-115v95h115v160h115v-160h145v-95h-145v-220q0 -23 3 -35.5t11 -20.5q16 -18 47 -18q17 0 31.5 4.5t27.5 12.5l40 -84q-25 -17 -53 -25.5t-61 -8.5zM286 545l65 155h125l-115 -155h-75z" />
    <glyph glyph-name="Tbar" unicode="&#x166;" horiz-adv-x="574" 
d="M227 425v165h-190v110h500v-110h-190v-165h150v-100h-150v-325h-120v325h-150v100h150z" />
    <glyph glyph-name="tbar" unicode="&#x167;" horiz-adv-x="453" 
d="M308 -10q-35 0 -68.5 12t-57.5 40q-17 21 -26 50t-9 74v44h-115v95h115v80h-115v95h115v160h115v-160h145v-95h-145v-80h145v-95h-145v-45q0 -23 3 -35.5t11 -20.5q16 -18 47 -18q17 0 31.5 4.5t27.5 12.5l40 -84q-25 -17 -53 -25.5t-61 -8.5z" />
    <glyph glyph-name="Utilde" unicode="&#x168;" horiz-adv-x="748" 
d="M549 700h120v-408q0 -70 -18.5 -119t-50.5 -86q-41 -46 -99.5 -71.5t-126.5 -25.5t-126.5 26t-99.5 72q-33 36 -51 85t-18 119v408h120v-415q0 -48 10.5 -77.5t30.5 -50.5q24 -26 58.5 -41.5t75.5 -15.5t75.5 15.5t58.5 41.5q20 21 30.5 50.5t10.5 77.5v415zM201 791
q1 51 26.5 87.5t78.5 36.5q21 0 38.5 -8t34 -17t31 -17t29.5 -8q17 0 26 14.5t11 35.5l70 -16q-1 -26 -7.5 -48.5t-19 -39t-32 -26.5t-46.5 -10q-21 0 -38.5 8t-34 17t-31 17t-29.5 8q-17 0 -26 -14.5t-11 -35.5z" />
    <glyph glyph-name="utilde" unicode="&#x169;" horiz-adv-x="605" 
d="M186 220q0 -38 8 -60t23 -36q14 -14 33 -21.5t41 -7.5q40 0 71.5 19.5t48.5 40.5v325h115v-480h-108v45q-25 -22 -61 -38.5t-76 -16.5q-48 0 -88.5 19t-69.5 51q-25 28 -38.5 66t-13.5 94v260h115v-260zM126 576q1 51 26.5 87.5t78.5 36.5q21 0 38.5 -8t34 -17t31 -17
t29.5 -8q17 0 26 14.5t11 35.5l70 -16q-1 -26 -7.5 -48.5t-19 -39t-32 -26.5t-46.5 -10q-21 0 -38.5 8t-34 17t-31 17t-29.5 8q-17 0 -26 -14.5t-11 -35.5z" />
    <glyph glyph-name="Umacron" unicode="&#x16a;" horiz-adv-x="748" 
d="M549 700h120v-408q0 -70 -18.5 -119t-50.5 -86q-41 -46 -99.5 -71.5t-126.5 -25.5t-126.5 26t-99.5 72q-33 36 -51 85t-18 119v408h120v-415q0 -48 10.5 -77.5t30.5 -50.5q24 -26 58.5 -41.5t75.5 -15.5t75.5 15.5t58.5 41.5q20 21 30.5 50.5t10.5 77.5v415zM224 788v85
h300v-85h-300z" />
    <glyph glyph-name="umacron" unicode="&#x16b;" horiz-adv-x="605" 
d="M186 220q0 -38 8 -60t23 -36q14 -14 33 -21.5t41 -7.5q40 0 71.5 19.5t48.5 40.5v325h115v-480h-108v45q-25 -22 -61 -38.5t-76 -16.5q-48 0 -88.5 19t-69.5 51q-25 28 -38.5 66t-13.5 94v260h115v-260zM155 578v85h300v-85h-300z" />
    <glyph glyph-name="Ubreve" unicode="&#x16c;" horiz-adv-x="748" 
d="M549 700h120v-408q0 -70 -18.5 -119t-50.5 -86q-41 -46 -99.5 -71.5t-126.5 -25.5t-126.5 26t-99.5 72q-33 36 -51 85t-18 119v408h120v-415q0 -48 10.5 -77.5t30.5 -50.5q24 -26 58.5 -41.5t75.5 -15.5t75.5 15.5t58.5 41.5q20 21 30.5 50.5t10.5 77.5v415zM374 765
q-29 0 -53.5 10.5t-42.5 29.5t-28.5 44.5t-10.5 55.5h80q0 -23 16 -39t39 -16t39 16t16 39h80q0 -30 -10.5 -55.5t-28.5 -44.5t-42.5 -29.5t-53.5 -10.5z" />
    <glyph glyph-name="ubreve" unicode="&#x16d;" horiz-adv-x="605" 
d="M186 220q0 -38 8 -60t23 -36q14 -14 33 -21.5t41 -7.5q40 0 71.5 19.5t48.5 40.5v325h115v-480h-108v45q-25 -22 -61 -38.5t-76 -16.5q-48 0 -88.5 19t-69.5 51q-25 28 -38.5 66t-13.5 94v260h115v-260zM302 550q-29 0 -53.5 10.5t-42.5 29.5t-28.5 44.5t-10.5 55.5h80
q0 -23 16 -39t39 -16t39 16t16 39h80q0 -30 -10.5 -55.5t-28.5 -44.5t-42.5 -29.5t-53.5 -10.5z" />
    <glyph glyph-name="Uring" unicode="&#x16e;" horiz-adv-x="748" 
d="M549 700h120v-408q0 -70 -18.5 -119t-50.5 -86q-41 -46 -99.5 -71.5t-126.5 -25.5t-126.5 26t-99.5 72q-33 36 -51 85t-18 119v408h120v-415q0 -48 10.5 -77.5t30.5 -50.5q24 -26 58.5 -41.5t75.5 -15.5t75.5 15.5t58.5 41.5q20 21 30.5 50.5t10.5 77.5v415zM337 865
q0 -17 11.5 -27t26.5 -10q16 0 26.5 10t10.5 27t-10.5 27.5t-26.5 10.5t-27 -10.5t-11 -27.5zM267 865q0 22 8.5 41.5t23.5 33.5t34.5 22t41.5 8t41.5 -8t34 -22t23 -33.5t8.5 -41.5q0 -23 -8.5 -42t-23 -32.5t-34 -21.5t-41.5 -8t-41.5 8t-34.5 21.5t-23.5 32.5t-8.5 42z
" />
    <glyph glyph-name="uring" unicode="&#x16f;" horiz-adv-x="605" 
d="M186 220q0 -38 8 -60t23 -36q14 -14 33 -21.5t41 -7.5q40 0 71.5 19.5t48.5 40.5v325h115v-480h-108v45q-25 -22 -61 -38.5t-76 -16.5q-48 0 -88.5 19t-69.5 51q-25 28 -38.5 66t-13.5 94v260h115v-260zM264 649q0 -17 11.5 -27t26.5 -10q16 0 26.5 10t10.5 27
t-10.5 27.5t-26.5 10.5t-27 -10.5t-11 -27.5zM194 649q0 22 8.5 41.5t23.5 33.5t34.5 22t41.5 8t41.5 -8t34 -22t23 -33.5t8.5 -41.5q0 -23 -8.5 -42t-23 -32.5t-34 -21.5t-41.5 -8t-41.5 8t-34.5 21.5t-23.5 32.5t-8.5 42z" />
    <glyph glyph-name="Uhungarumlaut" unicode="&#x170;" horiz-adv-x="748" 
d="M549 700h120v-408q0 -70 -18.5 -119t-50.5 -86q-41 -46 -99.5 -71.5t-126.5 -25.5t-126.5 26t-99.5 72q-33 36 -51 85t-18 119v408h120v-415q0 -48 10.5 -77.5t30.5 -50.5q24 -26 58.5 -41.5t75.5 -15.5t75.5 15.5t58.5 41.5q20 21 30.5 50.5t10.5 77.5v415zM432 765
l65 155h120l-115 -155h-70zM247 765l65 155h120l-115 -155h-70z" />
    <glyph glyph-name="uhungarumlaut" unicode="&#x171;" horiz-adv-x="605" 
d="M186 220q0 -38 8 -60t23 -36q14 -14 33 -21.5t41 -7.5q40 0 71.5 19.5t48.5 40.5v325h115v-480h-108v45q-25 -22 -61 -38.5t-76 -16.5q-48 0 -88.5 19t-69.5 51q-25 28 -38.5 66t-13.5 94v260h115v-260zM356 550l65 155h120l-115 -155h-70zM171 550l65 155h120l-115 -155
h-70z" />
    <glyph glyph-name="Uogonek" unicode="&#x172;" horiz-adv-x="748" 
d="M454 -215q-25 0 -47.5 8t-40 22.5t-27.5 35.5t-10 48q0 28 10.5 51t24.5 40q-65 2 -121 27.5t-95 70.5q-33 36 -51 85t-18 119v408h120v-415q0 -48 10.5 -77.5t30.5 -50.5q24 -26 58.5 -41.5t75.5 -15.5t75.5 15.5t58.5 41.5q20 21 30.5 50.5t10.5 77.5v415h120v-408
q0 -70 -18.5 -119t-50.5 -86q-48 -54 -116 -78q-20 -11 -36 -32t-16 -51q0 -18 12.5 -31.5t32.5 -13.5q5 0 11 0.5t11 1.5l15 -88q-9 -5 -23.5 -7.5t-36.5 -2.5z" />
    <glyph glyph-name="uogonek" unicode="&#x173;" horiz-adv-x="605" 
d="M486 -215q-25 0 -47.5 8t-40 22.5t-27.5 35.5t-10 48q0 36 18 62t39 44v40q-25 -22 -61 -38.5t-76 -16.5q-48 0 -88.5 19t-69.5 51q-25 28 -38.5 66t-13.5 94v260h115v-260q0 -38 8 -60t23 -36q14 -14 33 -21.5t41 -7.5q40 0 71.5 19.5t48.5 40.5v325h115v-480
q-21 -11 -41.5 -30t-20.5 -46q0 -18 12.5 -30.5t32.5 -12.5q5 0 11 0.5t11 1.5l15 -88q-9 -5 -23.5 -7.5t-36.5 -2.5z" />
    <glyph glyph-name="Wcircumflex" unicode="&#x174;" horiz-adv-x="972" 
d="M11 700h121l151 -472l161 472h85l163 -471l151 471h118l-225 -700h-85l-167 479l-163 -479h-85zM322 765l98 155h129l98 -155h-75l-88 90l-87 -90h-75z" />
    <glyph glyph-name="wcircumflex" unicode="&#x175;" horiz-adv-x="804" 
d="M17 480h119l110 -296l116 296h80l119 -297l111 297h115l-180 -480h-81l-124 309l-124 -309h-81zM240 550l98 155h129l98 -155h-75l-88 90l-87 -90h-75z" />
    <glyph glyph-name="Ycircumflex" unicode="&#x176;" horiz-adv-x="642" 
d="M261 318l-240 382h136l165 -265l165 265h134l-240 -382v-318h-120v318zM159 765l98 155h129l98 -155h-75l-88 90l-87 -90h-75z" />
    <glyph glyph-name="ycircumflex" unicode="&#x177;" horiz-adv-x="563" 
d="M432 480h118l-327 -710h-118l127 273l-217 437h123l153 -308zM121 550l98 155h129l98 -155h-75l-88 90l-87 -90h-75z" />
    <glyph glyph-name="Ydieresis" unicode="&#x178;" horiz-adv-x="642" 
d="M261 318l-240 382h136l165 -265l165 265h134l-240 -382v-318h-120v318zM350 845q0 29 20.5 50t49.5 21t50 -21t21 -50t-21 -49.5t-50 -20.5t-49.5 20.5t-20.5 49.5zM151 845q0 29 20.5 50t49.5 21t50 -21t21 -50t-21 -49.5t-50 -20.5t-49.5 20.5t-20.5 49.5z" />
    <glyph glyph-name="Zacute" unicode="&#x179;" horiz-adv-x="589" 
d="M190 110h368v-110h-530v75l349 515h-319v110h480v-75zM243 765l65 155h125l-115 -155h-75z" />
    <glyph glyph-name="zacute" unicode="&#x17a;" horiz-adv-x="499" 
d="M203 100h258v-100h-420v70l239 310h-224v100h385v-70zM196 550l65 155h125l-115 -155h-75z" />
    <glyph glyph-name="Zdotaccent" unicode="&#x17b;" horiz-adv-x="589" 
d="M190 110h368v-110h-530v75l349 515h-319v110h480v-75zM225 845q0 30 21 51.5t51 21.5t51.5 -21.5t21.5 -51.5t-21.5 -51t-51.5 -21t-51 21t-21 51z" />
    <glyph glyph-name="zdotaccent" unicode="&#x17c;" horiz-adv-x="499" 
d="M203 100h258v-100h-420v70l239 310h-224v100h385v-70zM178 627q0 30 21 51.5t51 21.5t51.5 -21.5t21.5 -51.5t-21.5 -51t-51.5 -21t-51 21t-21 51z" />
    <glyph glyph-name="Zcaron" unicode="&#x17d;" horiz-adv-x="589" 
d="M190 110h368v-110h-530v75l349 515h-319v110h480v-75zM463 920l-98 -155h-129l-98 155h75l88 -90l87 90h75z" />
    <glyph glyph-name="zcaron" unicode="&#x17e;" horiz-adv-x="499" 
d="M203 100h258v-100h-420v70l239 310h-224v100h385v-70zM412 705l-98 -155h-129l-98 155h75l88 -90l87 90h75z" />
    <glyph glyph-name="longs" unicode="&#x17f;" horiz-adv-x="293" 
d="M194 0h-115v534q0 55 15 90.5t42 58.5q21 18 48 27.5t56 9.5q73 0 119 -40l-47 -81q-26 18 -57 18q-28 0 -45 -19q-8 -8 -12 -21.5t-4 -40.5v-536z" />
    <glyph glyph-name="uni018F" unicode="&#x18f;" horiz-adv-x="743" 
d="M363 -10q-71 0 -131 27t-103 74.5t-67 110.5t-24 135q0 9 1 23t3 25h534q-5 53 -24 92t-48 65q-63 58 -155 58q-63 0 -118 -25.5t-100 -66.5l-73 75q25 26 57 49t69 40.5t78.5 27.5t85.5 10q80 0 144.5 -27t110.5 -75t70.5 -113.5t24.5 -143.5q0 -73 -24 -138.5
t-67.5 -115t-105.5 -78.5t-138 -29zM363 101q42 0 77 14t62 38t44.5 56.5t22.5 70.5h-410q4 -38 22 -70.5t45 -56.5t62 -38t75 -14z" />
    <glyph glyph-name="uni0190" unicode="&#x190;" horiz-adv-x="561" 
d="M374 320h-76q-61 0 -96 -26q-17 -14 -26.5 -34t-9.5 -46q0 -53 37.5 -83.5t92.5 -30.5q58 0 98 21t72 60l80 -65q-46 -64 -110.5 -95t-139.5 -31q-53 0 -98.5 15t-79.5 43.5t-53 69.5t-19 92q0 59 27 101.5t65 65.5q-27 23 -46.5 57t-19.5 78q0 48 18 84.5t48.5 62
t72.5 38.5t90 13q31 0 60 -7.5t55.5 -20.5t49 -30.5t40.5 -36.5l-71 -75q-29 26 -63.5 43t-70.5 17q-48 0 -79 -23.5t-31 -65.5q0 -21 7.5 -37t19.5 -27q13 -11 30.5 -16.5t49.5 -5.5h76v-105z" />
    <glyph glyph-name="uni0192" unicode="&#x192;" horiz-adv-x="530" 
d="M317 425h149v-100h-161l-47 -382q-7 -54 -24.5 -89.5t-47.5 -58.5q-21 -16 -48.5 -25.5t-61.5 -9.5q-42 0 -72 15.5t-48 32.5l62 73q22 -18 51 -18q31 0 49 18q19 18 25 68l46 376h-138v100h150l13 102q7 54 24.5 89.5t47.5 58.5q21 16 48.5 25.5t61.5 9.5q42 0 72 -15.5
t48 -32.5l-62 -73q-23 18 -51 18q-31 0 -49 -18q-19 -18 -25 -68z" />
    <glyph glyph-name="uni0194" unicode="&#x194;" horiz-adv-x="583" 
d="M294 -240q-36 0 -62.5 13t-44.5 33t-27 45.5t-9 51.5q0 19 7 47.5t24 69.5l49 113l-242 567h126l178 -431l180 431h121l-241 -562l51 -118q17 -41 22 -69.5t5 -47.5q0 -26 -8 -51.5t-25 -45.5t-43 -33t-61 -13zM291 -133q14 0 22.5 10.5t8.5 26.5q0 14 -5.5 33t-11.5 34
l-14 37l-14 -37q-6 -15 -11.5 -34t-5.5 -33q0 -16 8.5 -26.5t22.5 -10.5z" />
    <glyph glyph-name="uni0197" unicode="&#x197;" horiz-adv-x="348" 
d="M114 0v325h-95v100h95v275h120v-275h95v-100h-95v-325h-120z" />
    <glyph glyph-name="uni019D" unicode="&#x19d;" horiz-adv-x="774" 
d="M87 700h85l395 -478v478h120v-700h-85l-395 478v-532q0 -55 -15 -90.5t-42 -58.5q-21 -18 -49.5 -27.5t-59.5 -9.5q-78 0 -124 40l55 88q26 -18 54 -18t45 19q8 8 12 21.5t4 40.5v749z" />
    <glyph glyph-name="uni01B5" unicode="&#x1b5;" horiz-adv-x="599" 
d="M407 425h115v-100h-183l-145 -215h368v-110h-530v75l170 250h-110v100h177l112 165h-319v110h480v-75z" />
    <glyph glyph-name="uni01B6" unicode="&#x1b6;" horiz-adv-x="503" 
d="M349 290h79v-90h-150l-82 -105h267v-95h-420v70l102 130h-67v90h138l75 95h-233v95h385v-70z" />
    <glyph glyph-name="uni01CD" unicode="&#x1cd;" horiz-adv-x="689" 
d="M387 700l295 -700h-125l-70 165h-288l-70 -165h-122l295 700h85zM245 275h196l-98 233zM507 920l-98 -155h-129l-98 155h75l88 -90l87 90h75z" />
    <glyph glyph-name="uni01CE" unicode="&#x1ce;" horiz-adv-x="614" 
d="M295 95q39 0 70.5 15.5t54.5 44.5v170q-23 27 -54 43.5t-66 16.5q-31 0 -56.5 -11t-44 -30.5t-29 -46t-10.5 -57.5t10.5 -57.5t28.5 -46t42.5 -30.5t53.5 -11zM427 0v45q-25 -22 -62 -38.5t-85 -16.5q-40 0 -77 13.5t-67 38.5q-42 35 -66.5 86.5t-24.5 111.5t24.5 111.5
t66.5 86.5q30 25 67.5 38.5t81.5 13.5t80.5 -16.5t61.5 -38.5v45h108v-480h-108zM476 705l-98 -155h-129l-98 155h75l88 -90l87 90h75z" />
    <glyph glyph-name="uni01CF" unicode="&#x1cf;" horiz-adv-x="294" 
d="M87 0v700h120v-700h-120zM310 920l-98 -155h-129l-98 155h75l88 -90l87 90h75z" />
    <glyph glyph-name="uni01D0" unicode="&#x1d0;" horiz-adv-x="273" 
d="M79 0v480h115v-480h-115zM300 705l-98 -155h-129l-98 155h75l88 -90l87 90h75z" />
    <glyph glyph-name="uni01D1" unicode="&#x1d1;" horiz-adv-x="796" 
d="M398 710q75 0 140 -27.5t112.5 -75.5t75 -114t27.5 -143t-27.5 -143t-75 -114t-112.5 -75.5t-140 -27.5t-140 27.5t-112.5 75.5t-75 114t-27.5 143t27.5 143t75 114t112.5 75.5t140 27.5zM398 100q51 0 94 19.5t74.5 53t49 79t17.5 98.5q0 52 -17.5 98t-49 79.5t-74.5 53
t-94 19.5t-94 -19.5t-74.5 -53t-49 -79.5t-17.5 -98q0 -53 17.5 -98.5t49 -79t74.5 -53t94 -19.5zM560 920l-98 -155h-129l-98 155h75l88 -90l87 90h75z" />
    <glyph glyph-name="uni01D2" unicode="&#x1d2;" horiz-adv-x="588" 
d="M294 490q54 0 99.5 -19.5t79 -53t52.5 -79.5t19 -98q0 -53 -19 -98.5t-52.5 -79t-79 -53t-99.5 -19.5t-99.5 19.5t-79 53t-52.5 79t-19 98.5q0 52 19 98t52.5 79.5t79 53t99.5 19.5zM294 95q30 0 55 11.5t42.5 31.5t27.5 46.5t10 55.5t-10 55.5t-27.5 46.5t-42.5 31.5
t-55 11.5t-55 -11.5t-42.5 -31.5t-27.5 -46t-10 -56q0 -29 10 -55.5t27.5 -46.5t42.5 -31.5t55 -11.5zM456 705l-98 -155h-129l-98 155h75l88 -90l87 90h75z" />
    <glyph glyph-name="uni01D3" unicode="&#x1d3;" horiz-adv-x="748" 
d="M549 700h120v-408q0 -70 -18.5 -119t-50.5 -86q-41 -46 -99.5 -71.5t-126.5 -25.5t-126.5 26t-99.5 72q-33 36 -51 85t-18 119v408h120v-415q0 -48 10.5 -77.5t30.5 -50.5q24 -26 58.5 -41.5t75.5 -15.5t75.5 15.5t58.5 41.5q20 21 30.5 50.5t10.5 77.5v415zM536 920
l-98 -155h-129l-98 155h75l88 -90l87 90h75z" />
    <glyph glyph-name="uni01D4" unicode="&#x1d4;" horiz-adv-x="605" 
d="M186 220q0 -38 8 -60t23 -36q14 -14 33 -21.5t41 -7.5q40 0 71.5 19.5t48.5 40.5v325h115v-480h-108v45q-25 -22 -61 -38.5t-76 -16.5q-48 0 -88.5 19t-69.5 51q-25 28 -38.5 66t-13.5 94v260h115v-260zM467 705l-98 -155h-129l-98 155h75l88 -90l87 90h75z" />
    <glyph glyph-name="Gcaron" unicode="&#x1e6;" horiz-adv-x="741" 
d="M688 125q-48 -60 -120.5 -97.5t-157.5 -37.5q-81 0 -148.5 27.5t-116 75.5t-75.5 114t-27 143t27.5 143t75.5 114t113.5 75.5t142.5 27.5q80 0 147 -31t114 -82l-75 -75q-35 35 -81 56.5t-105 21.5q-52 0 -96 -19.5t-75.5 -53t-49.5 -79.5t-18 -98q0 -53 18 -98.5
t50.5 -79t78 -53t100.5 -19.5q51 0 90.5 14.5t72.5 41.5v164h-194v105h309v-300zM558 920l-98 -155h-129l-98 155h75l88 -90l87 90h75z" />
    <glyph glyph-name="gcaron" unicode="&#x1e7;" horiz-adv-x="614" 
d="M420 39q-31 -26 -66.5 -37.5t-73.5 -11.5q-40 0 -77 13.5t-67 38.5q-42 35 -66.5 86.5t-24.5 111.5t24.5 111.5t66.5 86.5q30 25 67.5 38.5t81.5 13.5t80.5 -16.5t61.5 -38.5v45h108v-446q0 -60 -9 -100t-28 -69q-32 -51 -87 -78t-124 -27q-40 0 -75 8.5t-63.5 22.5
t-51 32.5t-37.5 38.5l74 70q11 -11 25.5 -23.5t33 -22.5t41.5 -16.5t53 -6.5q35 0 61.5 11t43.5 34q14 18 21 45t7 72v14zM295 95q39 0 70.5 15.5t54.5 44.5v170q-23 27 -54 43.5t-66 16.5q-31 0 -56.5 -11t-44 -30.5t-29 -46t-10.5 -57.5t10.5 -57.5t28.5 -46t42.5 -30.5
t53.5 -11zM476 705l-98 -155h-129l-98 155h75l88 -90l87 90h75z" />
    <glyph glyph-name="uni01E8" unicode="&#x1e8;" horiz-adv-x="650" 
d="M326 382l331 -382h-152l-298 345v-345h-120v700h120v-290l279 290h151zM497 920l-98 -155h-129l-98 155h75l88 -90l87 90h75z" />
    <glyph glyph-name="uni01E9" unicode="&#x1e9;" horiz-adv-x="555" 
d="M79 710h115v-415l188 185h152l-228 -220l248 -260h-151l-209 225v-225h-115v710zM302 910l-98 -155h-129l-98 155h75l88 -90l87 90h75z" />
    <glyph glyph-name="uni01EA" unicode="&#x1ea;" horiz-adv-x="796" 
d="M443 -215q-25 0 -47.5 8t-40 22.5t-27.5 35.5t-10 48q0 30 13 53t30 40q-68 7 -126.5 36.5t-101 77t-66.5 110t-24 134.5q0 77 27.5 143t75 114t112.5 75.5t140 27.5t140 -27.5t112.5 -75.5t75 -114t27.5 -143q0 -66 -20.5 -124t-56.5 -103.5t-85.5 -77.5t-108.5 -45
q-21 -11 -41 -30t-20 -46q0 -18 12.5 -30.5t32.5 -12.5q5 0 11 0.5t11 1.5l15 -88q-9 -5 -23.5 -7.5t-36.5 -2.5zM398 100q51 0 94 19.5t74.5 53t49 79t17.5 98.5q0 52 -17.5 98t-49 79.5t-74.5 53t-94 19.5t-94 -19.5t-74.5 -53t-49 -79.5t-17.5 -98q0 -53 17.5 -98.5
t49 -79t74.5 -53t94 -19.5z" />
    <glyph glyph-name="uni01EB" unicode="&#x1eb;" horiz-adv-x="588" 
d="M339 -215q-25 0 -47.5 8t-40 22.5t-27.5 35.5t-10 48q0 31 13 54t30 40q-47 6 -86 27.5t-67 54t-44 75t-16 90.5q0 52 19 98t52.5 79.5t79 53t99.5 19.5t99.5 -19.5t79 -53t52.5 -79.5t19 -98q0 -42 -12.5 -80t-35 -69t-54 -54t-69.5 -35q-20 -11 -38 -31t-18 -47
q0 -18 12.5 -30.5t32.5 -12.5q5 0 11 0.5t11 1.5l15 -88q-9 -5 -23.5 -7.5t-36.5 -2.5zM294 95q30 0 55 11.5t42.5 31.5t27.5 46.5t10 55.5t-10 55.5t-27.5 46.5t-42.5 31.5t-55 11.5t-55 -11.5t-42.5 -31.5t-27.5 -46t-10 -56q0 -29 10 -55.5t27.5 -46.5t42.5 -31.5
t55 -11.5z" />
    <glyph glyph-name="uni01F8" unicode="&#x1f8;" horiz-adv-x="774" 
d="M87 700h85l395 -478v478h120v-700h-85l-395 478v-478h-120v700zM367 765l-115 155h125l65 -155h-75z" />
    <glyph glyph-name="uni01F9" unicode="&#x1f9;" horiz-adv-x="614" 
d="M497 411q23 -29 35 -68.5t12 -101.5v-241h-115v251q0 40 -7.5 62t-20.5 36q-14 17 -36 26.5t-47 9.5q-43 0 -75 -19.5t-49 -40.5v-325h-115v480h108v-45q25 22 61.5 38.5t80.5 16.5q51 0 94.5 -21t73.5 -58zM319 550l-115 155h125l65 -155h-75z" />
    <glyph glyph-name="Aringacute" unicode="&#x1fa;" horiz-adv-x="689" 
d="M387 700l295 -700h-125l-70 165h-288l-70 -165h-122l295 700h85zM245 275h196l-98 233zM307 835q0 -17 11.5 -27t26.5 -10q16 0 26.5 10t10.5 27t-10.5 27.5t-26.5 10.5t-27 -10.5t-11 -27.5zM237 835q0 22 8.5 41.5t23.5 33.5t34.5 22t41.5 8t41.5 -8t34 -22t23 -33.5
t8.5 -41.5q0 -23 -8.5 -42t-23 -32.5t-34 -21.5t-41.5 -8t-41.5 8t-34.5 21.5t-23.5 32.5t-8.5 42zM307 965l65 155h125l-115 -155h-75z" />
    <glyph glyph-name="aringacute" unicode="&#x1fb;" horiz-adv-x="614" 
d="M295 95q39 0 70.5 15.5t54.5 44.5v170q-23 27 -54 43.5t-66 16.5q-31 0 -56.5 -11t-44 -30.5t-29 -46t-10.5 -57.5t10.5 -57.5t28.5 -46t42.5 -30.5t53.5 -11zM427 0v45q-25 -22 -62 -38.5t-85 -16.5q-40 0 -77 13.5t-67 38.5q-42 35 -66.5 86.5t-24.5 111.5t24.5 111.5
t66.5 86.5q30 25 67.5 38.5t81.5 13.5t80.5 -16.5t61.5 -38.5v45h108v-480h-108zM283 634q0 -17 11.5 -27t26.5 -10q16 0 26.5 10t10.5 27t-10.5 27.5t-26.5 10.5t-27 -10.5t-11 -27.5zM213 634q0 22 8.5 41.5t23.5 33.5t34.5 22t41.5 8t41.5 -8t34 -22t23 -33.5t8.5 -41.5
q0 -23 -8.5 -42t-23 -32.5t-34 -21.5t-41.5 -8t-41.5 8t-34.5 21.5t-23.5 32.5t-8.5 42zM255 785l65 155h125l-115 -155h-75z" />
    <glyph glyph-name="AEacute" unicode="&#x1fc;" horiz-adv-x="947" 
d="M601 110h300v-110h-420v165h-257l-99 -165h-134l420 700h480v-110h-290v-160h225v-110h-225v-210zM481 596l-192 -321h192v321zM506 765l65 155h125l-115 -155h-75z" />
    <glyph glyph-name="aeacute" unicode="&#x1fd;" horiz-adv-x="816" 
d="M578 -10q-55 0 -101 21.5t-80 63.5q-28 -35 -72 -60t-108 -25q-37 0 -69 12t-55.5 33.5t-37 50.5t-13.5 63q0 39 16 70t43.5 52.5t64 32.5t76.5 11q23 0 49 -3.5t56 -13.5q-1 24 -6.5 38t-14.5 25q-13 16 -33.5 22.5t-45.5 6.5q-36 0 -70.5 -13t-61.5 -31l-53 77
q36 31 87 49t105 18q44 0 85.5 -15.5t71.5 -48.5q27 30 64.5 47t85.5 17t86.5 -19.5t66.5 -53t43 -79t15 -96.5q0 -7 -0.5 -15t-1.5 -15h-318q5 -54 39.5 -88t87.5 -34q42 0 70.5 17.5t48.5 37.5l64 -65q-34 -45 -82 -67.5t-102 -22.5zM233 90q38 0 71 17.5t54 46.5
q-6 22 -9 48q-36 18 -82 18q-17 0 -36.5 -3.5t-36 -12t-27 -22t-10.5 -34.5q0 -26 22 -42t54 -16zM659 297q-4 42 -31.5 69t-68.5 27q-42 0 -70 -28t-32 -68h202zM362 550l65 155h125l-115 -155h-75z" />
    <glyph glyph-name="Oslashacute" unicode="&#x1fe;" horiz-adv-x="805" 
d="M403 100q51 0 94 19.5t74.5 53t49 79t17.5 98.5q0 42 -11.5 78.5t-31.5 67.5l-309 -365q53 -31 117 -31zM758 350q0 -77 -27.5 -143t-75 -114t-112.5 -75.5t-140 -27.5q-54 0 -101.5 13.5t-89.5 39.5l-36 -43h-138l95 112q-41 47 -63 107.5t-22 130.5q0 77 27.5 143
t75 114t112.5 75.5t140 27.5q54 0 101.5 -13.5t89.5 -39.5l36 43h138l-95 -112q41 -47 63 -107.5t22 -130.5zM403 600q-51 0 -94 -19.5t-74.5 -53t-49 -79.5t-17.5 -98q0 -42 11.5 -78.5t31.5 -67.5l309 365q-53 31 -117 31zM348 765l65 155h125l-115 -155h-75z" />
    <glyph glyph-name="oslashacute" unicode="&#x1ff;" horiz-adv-x="601" 
d="M551 240q0 -53 -19 -98.5t-52.5 -79t-79 -53t-99.5 -19.5q-35 0 -67 8.5t-59 24.5l-20 -23h-119l70 82q-26 32 -40.5 72.5t-14.5 85.5q0 52 19 98t52.5 79.5t79 53t99.5 19.5q35 0 67 -8.5t59 -24.5l20 23h119l-70 -82q26 -32 40.5 -72.5t14.5 -85.5zM301 90q31 0 57 12
t44.5 32.5t28.5 48t10 57.5q0 20 -5 38t-13 35l-180 -211q25 -12 58 -12zM301 390q-31 0 -57 -12t-44.5 -32.5t-28.5 -48t-10 -57.5q0 -20 5 -38t13 -35l180 211q-26 12 -58 12zM236 550l65 155h125l-115 -155h-75z" />
    <glyph glyph-name="uni0218" unicode="&#x218;" horiz-adv-x="551" 
d="M110 179q32 -35 72.5 -57t94.5 -22q21 0 41 6t36 18t26 30t10 42t-12 41t-31.5 30.5t-44.5 24.5t-52 22l-48 20t-46 23q-39 24 -66 63t-27 96q0 43 18 79t48.5 61.5t71 39.5t86.5 14q60 0 110.5 -20t87.5 -50l-65 -86q-29 22 -61 34t-68 12q-48 0 -78 -23t-30 -59
q0 -19 10 -33.5t27.5 -26.5t40 -22.5t47.5 -20.5q26 -11 53 -22.5t51 -25.5q39 -24 68.5 -64.5t29.5 -104.5q0 -47 -17.5 -85t-48.5 -65.5t-73.5 -42.5t-91.5 -15q-75 0 -138 29.5t-111 87.5zM166 -205l65 155h125l-115 -155h-75z" />
    <glyph glyph-name="uni0219" unicode="&#x219;" horiz-adv-x="453" 
d="M228 -10q-54 0 -103 16.5t-91 51.5l57 76q28 -21 63 -33.5t72 -12.5q29 0 51 13.5t22 36.5q0 22 -20.5 34t-51.5 22q-23 8 -47 15t-47 18q-32 16 -55.5 42.5t-23.5 72.5q0 36 15.5 63.5t41 46.5t58 28.5t66.5 9.5q49 0 90.5 -15.5t68.5 -37.5l-52 -77q-22 14 -46.5 23
t-52.5 9q-30 0 -52 -12t-22 -35q0 -12 9.5 -20t24.5 -14.5t35 -12.5t41 -13q24 -8 48.5 -19t43.5 -28t31 -41.5t12 -58.5q0 -35 -16 -62.5t-42 -46.5t-59.5 -29t-68.5 -10zM114 -205l65 155h125l-115 -155h-75z" />
    <glyph glyph-name="uni021A" unicode="&#x21a;" horiz-adv-x="546" 
d="M213 590h-190v110h500v-110h-190v-590h-120v590zM180 -205l65 155h125l-115 -155h-75z" />
    <glyph glyph-name="uni021B" unicode="&#x21b;" horiz-adv-x="437" 
d="M297 -10q-35 0 -68.5 12t-57.5 40q-17 21 -26 50t-9 74v219h-115v95h115v160h115v-160h145v-95h-145v-220q0 -23 3 -35.5t11 -20.5q16 -18 47 -18q17 0 31.5 4.5t27.5 12.5l40 -84q-25 -17 -53 -25.5t-61 -8.5zM191 -205l65 155h125l-115 -155h-75z" />
    <glyph glyph-name="uni021E" unicode="&#x21e;" horiz-adv-x="774" 
d="M87 700h120v-270h360v270h120v-700h-120v320h-360v-320h-120v700zM550 920l-98 -155h-129l-98 155h75l88 -90l87 90h75z" />
    <glyph glyph-name="uni021F" unicode="&#x21f;" horiz-adv-x="614" 
d="M497 412q23 -29 35 -69t12 -102v-241h-115v251q0 40 -7.5 62t-20.5 36q-14 17 -36 26.5t-47 9.5q-43 0 -75 -19.5t-49 -40.5v-325h-115v710h115v-268q25 20 59 34t76 14q51 0 94.5 -20.5t73.5 -57.5zM302 910l-98 -155h-129l-98 155h75l88 -90l87 90h75z" />
    <glyph glyph-name="uni022E" unicode="&#x22e;" horiz-adv-x="796" 
d="M398 710q75 0 140 -27.5t112.5 -75.5t75 -114t27.5 -143t-27.5 -143t-75 -114t-112.5 -75.5t-140 -27.5t-140 27.5t-112.5 75.5t-75 114t-27.5 143t27.5 143t75 114t112.5 75.5t140 27.5zM398 100q51 0 94 19.5t74.5 53t49 79t17.5 98.5q0 52 -17.5 98t-49 79.5t-74.5 53
t-94 19.5t-94 -19.5t-74.5 -53t-49 -79.5t-17.5 -98q0 -53 17.5 -98.5t49 -79t74.5 -53t94 -19.5zM326 845q0 30 21 51.5t51 21.5t51.5 -21.5t21.5 -51.5t-21.5 -51t-51.5 -21t-51 21t-21 51z" />
    <glyph glyph-name="uni022F" unicode="&#x22f;" horiz-adv-x="588" 
d="M294 490q54 0 99.5 -19.5t79 -53t52.5 -79.5t19 -98q0 -53 -19 -98.5t-52.5 -79t-79 -53t-99.5 -19.5t-99.5 19.5t-79 53t-52.5 79t-19 98.5q0 52 19 98t52.5 79.5t79 53t99.5 19.5zM294 95q30 0 55 11.5t42.5 31.5t27.5 46.5t10 55.5t-10 55.5t-27.5 46.5t-42.5 31.5
t-55 11.5t-55 -11.5t-42.5 -31.5t-27.5 -46t-10 -56q0 -29 10 -55.5t27.5 -46.5t42.5 -31.5t55 -11.5zM222 627q0 30 21 51.5t51 21.5t51.5 -21.5t21.5 -51.5t-21.5 -51t-51.5 -21t-51 21t-21 51z" />
    <glyph glyph-name="uni0232" unicode="&#x232;" horiz-adv-x="642" 
d="M261 318l-240 382h136l165 -265l165 265h134l-240 -382v-318h-120v318zM171 788v85h300v-85h-300z" />
    <glyph glyph-name="uni0233" unicode="&#x233;" horiz-adv-x="563" 
d="M432 480h118l-327 -710h-118l127 273l-217 437h123l153 -308zM134 578v85h300v-85h-300z" />
    <glyph glyph-name="uni0237" unicode="&#x237;" horiz-adv-x="281" 
d="M87 480h115v-534q0 -55 -15 -90.5t-42 -58.5q-21 -18 -48 -27.5t-56 -9.5q-73 0 -119 40l47 81q26 -18 57 -18q28 0 45 19q8 8 12 21.5t4 40.5v536z" />
    <glyph glyph-name="uni0244" unicode="&#x244;" horiz-adv-x="804" 
d="M107 425v275h120v-275h350v275h120v-275h95v-100h-95v-33q0 -70 -18.5 -119t-50.5 -86q-41 -46 -99.5 -71.5t-126.5 -25.5t-126.5 26t-99.5 72q-33 36 -51 85t-18 119v33h-95v100h95zM577 325h-350v-40q0 -48 10.5 -77.5t30.5 -50.5q24 -26 58.5 -41.5t75.5 -15.5
t75.5 15.5t58.5 41.5q20 21 30.5 50.5t10.5 77.5v40z" />
    <glyph glyph-name="uni0259" unicode="&#x259;" horiz-adv-x="547" 
d="M42 238q0 7 0.5 15t1.5 15h348q-2 27 -14 49.5t-31 38.5t-44.5 25t-53.5 9q-44 0 -77 -18t-54 -38l-66 64q36 45 90 68.5t108 23.5q56 0 102.5 -18.5t79.5 -51.5t51.5 -79t18.5 -101q0 -52 -16.5 -97.5t-46.5 -79.5t-73.5 -53.5t-97.5 -19.5q-51 0 -92.5 19.5t-71.5 53
t-46 79t-16 96.5zM158 183q7 -42 37.5 -69t74.5 -27q45 0 76.5 28t38.5 68h-227z" />
    <glyph glyph-name="uni025B" unicode="&#x25b;" horiz-adv-x="490" 
d="M256 -10q-50 0 -89 12t-66 33.5t-41 50t-14 61.5q0 32 17 62t46 47q-25 17 -36.5 40.5t-11.5 52.5q0 35 15 61.5t41 44t60.5 26.5t73.5 9q63 0 105.5 -19.5t69.5 -40.5l-54 -78q-26 17 -55 27.5t-61 10.5q-34 0 -57 -13t-23 -39t19 -38q8 -5 20 -7.5t35 -2.5h70v-90h-78
q-45 0 -63 -14q-18 -15 -18 -37q0 -27 24.5 -43t70.5 -16q44 0 81 17t63 44l71 -62q-35 -44 -91.5 -71.5t-123.5 -27.5z" />
    <glyph glyph-name="uni0263" unicode="&#x263;" horiz-adv-x="521" 
d="M268 -240q-30 0 -53 10.5t-39 27.5t-24 39t-8 46q0 47 26 103l37 81l-190 413h122l130 -293l129 293h119l-191 -408l38 -82q28 -60 28 -107q0 -24 -8.5 -46t-24 -39t-38.5 -27.5t-53 -10.5zM268 -149q12 0 19.5 9t7.5 22q0 11 -4.5 27t-9.5 30l-13 34l-13 -34
q-5 -14 -9.5 -30t-4.5 -27q0 -13 7.5 -22t19.5 -9z" />
    <glyph glyph-name="uni0268" unicode="&#x268;" horiz-adv-x="345" 
d="M115 0v240h-90v90h90v150h115v-150h90v-90h-90v-240h-115zM100 650q0 30 21 51.5t51 21.5t51.5 -21.5t21.5 -51.5t-21.5 -51t-51.5 -21t-51 21t-21 51z" />
    <glyph glyph-name="uni0272" unicode="&#x272;" horiz-adv-x="614" 
d="M33 -240q-33 0 -61 8.5t-53 25.5l40 86q13 -8 27.5 -12.5t31.5 -4.5q30 0 47 18q8 8 11 20.5t3 35.5v543h108v-45q25 22 61.5 38.5t80.5 16.5q51 0 94.5 -21t73.5 -58q23 -29 35 -68.5t12 -101.5v-241h-115v251q0 40 -7.5 62t-20.5 36q-14 17 -36 26.5t-47 9.5
q-43 0 -75 -19.5t-49 -40.5v-389q0 -45 -9 -74t-26 -50q-24 -28 -57.5 -40t-68.5 -12z" />
    <glyph glyph-name="uni0289" unicode="&#x289;" horiz-adv-x="686" 
d="M571 240v-240h-108v45q-25 -22 -61 -38.5t-76 -16.5q-48 0 -88.5 19t-69.5 51q-25 28 -38.5 66t-13.5 94v20h-90v90h90v150h115v-150h225v150h115v-150h90v-90h-90zM336 95q40 0 71.5 19.5t48.5 40.5v85h-225v-20q0 -38 8 -60t23 -36q14 -14 33 -21.5t41 -7.5z" />
    <glyph glyph-name="uni02BB" unicode="&#x2bb;" horiz-adv-x="273" 
d="M164 425h-125l120 275h80z" />
    <glyph glyph-name="uni02BC" unicode="&#x2bc;" horiz-adv-x="267" 
d="M122 700h125l-120 -275h-80z" />
    <glyph glyph-name="circumflex" unicode="&#x2c6;" horiz-adv-x="425" 
d="M50 550l98 155h129l98 -155h-75l-88 90l-87 -90h-75z" />
    <glyph glyph-name="caron" unicode="&#x2c7;" horiz-adv-x="425" 
d="M375 705l-98 -155h-129l-98 155h75l88 -90l87 90h75z" />
    <glyph glyph-name="uni02C9" unicode="&#x2c9;" horiz-adv-x="400" 
d="M50 578v85h300v-85h-300z" />
    <glyph glyph-name="breve" unicode="&#x2d8;" horiz-adv-x="370" 
d="M185 550q-29 0 -53.5 10.5t-42.5 29.5t-28.5 44.5t-10.5 55.5h80q0 -23 16 -39t39 -16t39 16t16 39h80q0 -30 -10.5 -55.5t-28.5 -44.5t-42.5 -29.5t-53.5 -10.5z" />
    <glyph glyph-name="dotaccent" unicode="&#x2d9;" horiz-adv-x="245" 
d="M50 627q0 30 21 51.5t51 21.5t51.5 -21.5t21.5 -51.5t-21.5 -51t-51.5 -21t-51 21t-21 51z" />
    <glyph glyph-name="ring" unicode="&#x2da;" horiz-adv-x="315" 
d="M120 649q0 -17 11.5 -27t26.5 -10q16 0 26.5 10t10.5 27t-10.5 27.5t-26.5 10.5t-27 -10.5t-11 -27.5zM50 649q0 22 8.5 41.5t23.5 33.5t34.5 22t41.5 8t41.5 -8t34 -22t23 -33.5t8.5 -41.5q0 -23 -8.5 -42t-23 -32.5t-34 -21.5t-41.5 -8t-41.5 8t-34.5 21.5t-23.5 32.5
t-8.5 42z" />
    <glyph glyph-name="ogonek" unicode="&#x2db;" horiz-adv-x="285" 
d="M170 -215q-25 0 -47.5 8t-40 22.5t-27.5 35.5t-10 48q0 38 20 65t42 45l103 -9q-21 -11 -41.5 -30t-20.5 -46q0 -18 12.5 -30.5t32.5 -12.5q5 0 11 0.5t11 1.5l15 -88q-9 -5 -23.5 -7.5t-36.5 -2.5z" />
    <glyph glyph-name="tilde" unicode="&#x2dc;" horiz-adv-x="445" 
d="M50 576q1 51 26.5 87.5t78.5 36.5q21 0 38.5 -8t34 -17t31 -17t29.5 -8q17 0 26 14.5t11 35.5l70 -16q-1 -26 -7.5 -48.5t-19 -39t-32 -26.5t-46.5 -10q-21 0 -38.5 8t-34 17t-31 17t-29.5 8q-17 0 -26 -14.5t-11 -35.5z" />
    <glyph glyph-name="hungarumlaut" unicode="&#x2dd;" horiz-adv-x="470" 
d="M235 550l65 155h120l-115 -155h-70zM50 550l65 155h120l-115 -155h-70z" />
    <glyph glyph-name="uni0300" unicode="&#x300;" horiz-adv-x="1" 
d="M-325 550l-115 155h125l65 -155h-75z" />
    <glyph glyph-name="uni0301" unicode="&#x301;" horiz-adv-x="1" 
d="M-440 550l65 155h125l-115 -155h-75z" />
    <glyph glyph-name="uni0302" unicode="&#x302;" horiz-adv-x="1" 
d="M-454 550l98 155h129l98 -155h-75l-88 90l-87 -90h-75z" />
    <glyph glyph-name="uni0303" unicode="&#x303;" horiz-adv-x="1" 
d="M-450 576q1 51 26.5 87.5t78.5 36.5q21 0 38.5 -8t34 -17t31 -17t29.5 -8q17 0 26 14.5t11 35.5l70 -16q-1 -26 -7.5 -48.5t-19 -39t-32 -26.5t-46.5 -10q-21 0 -38.5 8t-34 17t-31 17t-29.5 8q-17 0 -26 -14.5t-11 -35.5z" />
    <glyph glyph-name="uni0304" unicode="&#x304;" horiz-adv-x="1" 
d="M-371 578v85h300v-85h-300z" />
    <glyph glyph-name="uni0306" unicode="&#x306;" horiz-adv-x="1" 
d="M-209 550q-29 0 -53.5 10.5t-42.5 29.5t-28.5 44.5t-10.5 55.5h80q0 -23 16 -39t39 -16t39 16t16 39h80q0 -30 -10.5 -55.5t-28.5 -44.5t-42.5 -29.5t-53.5 -10.5z" />
    <glyph glyph-name="uni0307" unicode="&#x307;" horiz-adv-x="1" 
d="M-208 627q0 30 21 51.5t51 21.5t51.5 -21.5t21.5 -51.5t-21.5 -51t-51.5 -21t-51 21t-21 51z" />
    <glyph glyph-name="uni0308" unicode="&#x308;" horiz-adv-x="1" 
d="M-179 629q0 29 20.5 50t49.5 21t50 -21t21 -50t-21 -49.5t-50 -20.5t-49.5 20.5t-20.5 49.5zM-378 629q0 29 20.5 50t49.5 21t50 -21t21 -50t-21 -49.5t-50 -20.5t-49.5 20.5t-20.5 49.5z" />
    <glyph glyph-name="uni030A" unicode="&#x30a;" horiz-adv-x="1" 
d="M-207 649q0 -17 11.5 -27t26.5 -10q16 0 26.5 10t10.5 27t-10.5 27.5t-26.5 10.5t-27 -10.5t-11 -27.5zM-277 649q0 22 8.5 41.5t23.5 33.5t34.5 22t41.5 8t41.5 -8t34 -22t23 -33.5t8.5 -41.5q0 -23 -8.5 -42t-23 -32.5t-34 -21.5t-41.5 -8t-41.5 8t-34.5 21.5
t-23.5 32.5t-8.5 42z" />
    <glyph glyph-name="uni030B" unicode="&#x30b;" horiz-adv-x="1" 
d="M-270 550l65 155h120l-115 -155h-70zM-455 550l65 155h120l-115 -155h-70z" />
    <glyph glyph-name="uni030C" unicode="&#x30c;" horiz-adv-x="1" 
d="M-129 705l-98 -155h-129l-98 155h75l88 -90l87 90h75z" />
    <glyph glyph-name="uni0312" unicode="&#x312;" horiz-adv-x="1" 
d="M-167 705l-65 -155h-125l115 155h75z" />
    <glyph glyph-name="uni0313" unicode="&#x313;" horiz-adv-x="1" 
d="M-180 545l65 155h125l-115 -155h-75z" />
    <glyph glyph-name="uni0323" unicode="&#x323;" horiz-adv-x="1" 
d="M-207 -133q0 30 21 51.5t51 21.5t51.5 -21.5t21.5 -51.5t-21.5 -51t-51.5 -21t-51 21t-21 51z" />
    <glyph glyph-name="uni0326" unicode="&#x326;" horiz-adv-x="1" 
d="M15 -205l65 155h125l-115 -155h-75z" />
    <glyph glyph-name="uni0327" unicode="&#x327;" horiz-adv-x="1" 
d="M70 -145l70 155h80l-30 -155h-120z" />
    <glyph glyph-name="uni0328" unicode="&#x328;" horiz-adv-x="1" 
d="M195 -215q-25 0 -47.5 8t-40 22.5t-27.5 35.5t-10 48q0 38 20 65t42 45l103 -9q-21 -11 -41.5 -30t-20.5 -46q0 -18 12.5 -30.5t32.5 -12.5q5 0 11 0.5t11 1.5l15 -88q-9 -5 -23.5 -7.5t-36.5 -2.5z" />
    <glyph glyph-name="uni032E" unicode="&#x32e;" horiz-adv-x="1" 
d="M-210 -200q-29 0 -53.5 10.5t-42.5 29.5t-28.5 44.5t-10.5 55.5h80q0 -23 16 -39t39 -16t39 16t16 39h80q0 -30 -10.5 -55.5t-28.5 -44.5t-42.5 -29.5t-53.5 -10.5z" />
    <glyph glyph-name="uni0331" unicode="&#x331;" horiz-adv-x="1" 
d="M-371 -172v85h300v-85h-300z" />
    <glyph glyph-name="uni0335" unicode="&#x335;" horiz-adv-x="1" 
d="M-371 193v85h300v-85h-300z" />
    <glyph glyph-name="uni037E" unicode="&#x37e;" horiz-adv-x="347" 
d="M120 135h125l-120 -275h-80zM105 412q0 32 22.5 55t54.5 23t55 -23t23 -55t-23 -54.5t-55 -22.5t-54.5 22.5t-22.5 54.5z" />
    <glyph glyph-name="dieresistonos" unicode="&#x385;" horiz-adv-x="769" 
d="M254 545q-25 0 -42 17t-17 41q0 25 17 42.5t42 17.5q24 0 41.5 -17.5t17.5 -42.5q0 -24 -17.5 -41t-41.5 -17zM516 545q-25 0 -42 17t-17 41q0 25 17 42.5t42 17.5q24 0 41.5 -17.5t17.5 -42.5q0 -24 -17.5 -41t-41.5 -17zM332 550l23 153h111l-68 -153h-66z" />
    <glyph glyph-name="anoteleia" unicode="&#x387;" horiz-adv-x="276" 
d="M216 239q0 -32 -23 -55t-55 -23t-55 23t-23 55t23 55t55 23t55 -23t23 -55z" />
    <glyph glyph-name="uni0394" unicode="&#x394;" horiz-adv-x="689" 
d="M34 75l267 625h86l268 -625v-75h-621v75zM169 110h347l-173 408z" />
    <glyph glyph-name="Sigma" unicode="&#x3a3;" horiz-adv-x="600" 
d="M204 116h351v-116h-522v75l218 295l-213 255v75h507v-111h-322l169 -203v-16z" />
    <glyph glyph-name="uni03A9" unicode="&#x3a9;" horiz-adv-x="803" 
d="M169 340q0 -49 13 -90.5t35.5 -75.5t53 -59t66.5 -40v-75h-283v111h107q-54 39 -83 101.5t-29 143.5q0 76 26.5 141t74 112.5t112 74t139.5 26.5q76 0 140.5 -26.5t111.5 -74t74 -112.5t27 -141q0 -81 -29.5 -143.5t-82.5 -101.5h107v-111h-284v75q36 15 67 40t53.5 59
t35.5 75.5t13 90.5q0 54 -15.5 101t-45.5 81.5t-73.5 54.5t-98.5 20t-98 -20t-73 -54.5t-45.5 -81.5t-15.5 -101z" />
    <glyph glyph-name="uni03BC" unicode="&#x3bc;" horiz-adv-x="656" 
d="M78 480h115v-325q15 -24 45 -41t65 -17q36 0 65.5 16t52.5 43v324h115v-338q0 -23 11 -36t31 -13q13 0 23.5 2.5t15.5 5.5l29 -90q-40 -20 -92 -20q-39 0 -69 17t-43 48q-23 -26 -58.5 -45.5t-80.5 -19.5q-38 0 -67 15t-43 31v-269h-115v712z" />
    <glyph glyph-name="pi" unicode="&#x3c0;" horiz-adv-x="634" 
d="M613 12q-19 -9 -45 -13.5t-51 -4.5q-50 0 -83 30.5t-33 86.5v272h-188v-383h-115v383h-78v97h575v-97h-79v-249q0 -41 36 -41q11 0 19 2t15 4z" />
    <glyph glyph-name="uni1E02" unicode="&#x1e02;" horiz-adv-x="636" 
d="M87 700h236q57 0 92 -13t60 -36q28 -26 45 -61t17 -77q0 -35 -14.5 -67.5t-35.5 -52.5q24 -12 44 -31t35 -42.5t23 -51t8 -56.5q0 -47 -19 -87t-51 -69q-29 -26 -68.5 -41t-101.5 -15h-270v700zM315 428q32 0 48.5 5.5t27.5 15.5q26 24 26 61t-26 61q-11 10 -27.5 15.5
t-48.5 5.5h-108v-164h108zM350 108q38 0 60.5 8.5t36.5 23.5q30 30 30 75t-30 75q-14 15 -36.5 23.5t-60.5 8.5h-143v-214h143zM219 845q0 30 21 51.5t51 21.5t51.5 -21.5t21.5 -51.5t-21.5 -51t-51.5 -21t-51 21t-21 51z" />
    <glyph glyph-name="uni1E03" unicode="&#x1e03;" horiz-adv-x="614" 
d="M319 95q29 0 53.5 11t42.5 30.5t28.5 46t10.5 57.5t-10.5 57.5t-29 46t-44 30.5t-56.5 11q-35 0 -66 -16.5t-54 -43.5v-170q23 -29 54.5 -44.5t70.5 -15.5zM79 710h115v-269q31 26 66 37.5t69 11.5q44 0 81.5 -13.5t67.5 -38.5q42 -35 66.5 -86.5t24.5 -111.5
t-24.5 -111.5t-66.5 -86.5q-30 -25 -67 -38.5t-77 -13.5q-48 0 -85 16.5t-62 38.5v-45h-108v710zM276 627q0 30 21 51.5t51 21.5t51.5 -21.5t21.5 -51.5t-21.5 -51t-51.5 -21t-51 21t-21 51z" />
    <glyph glyph-name="uni1E0A" unicode="&#x1e0a;" horiz-adv-x="746" 
d="M87 700h245q88 0 153 -25.5t112 -70.5q49 -48 77 -113t28 -141t-28 -141t-77 -113q-47 -45 -112 -70.5t-153 -25.5h-245v700zM322 110q69 0 117 19t80 54q30 32 46.5 74t16.5 93t-16.5 93t-46.5 74q-32 35 -80 54t-117 19h-115v-480h115zM254 845q0 30 21 51.5t51 21.5
t51.5 -21.5t21.5 -51.5t-21.5 -51t-51.5 -21t-51 21t-21 51z" />
    <glyph glyph-name="uni1E0B" unicode="&#x1e0b;" horiz-adv-x="614" 
d="M295 95q39 0 70.5 15.5t54.5 44.5v170q-23 27 -54 43.5t-66 16.5q-31 0 -56.5 -11t-44 -30.5t-29 -46t-10.5 -57.5t10.5 -57.5t28.5 -46t42.5 -30.5t53.5 -11zM535 0h-108v45q-25 -22 -62 -38.5t-85 -16.5q-40 0 -77 13.5t-67 38.5q-42 35 -66.5 86.5t-24.5 111.5
t24.5 111.5t66.5 86.5q30 25 67.5 38.5t81.5 13.5q34 0 69 -11.5t66 -37.5v269h115v-710zM193 627q0 30 21 51.5t51 21.5t51.5 -21.5t21.5 -51.5t-21.5 -51t-51.5 -21t-51 21t-21 51z" />
    <glyph glyph-name="uni1E0C" unicode="&#x1e0c;" horiz-adv-x="746" 
d="M87 700h245q88 0 153 -25.5t112 -70.5q49 -48 77 -113t28 -141t-28 -141t-77 -113q-47 -45 -112 -70.5t-153 -25.5h-245v700zM322 110q69 0 117 19t80 54q30 32 46.5 74t16.5 93t-16.5 93t-46.5 74q-32 35 -80 54t-117 19h-115v-480h115zM254 -133q0 30 21 51.5t51 21.5
t51.5 -21.5t21.5 -51.5t-21.5 -51t-51.5 -21t-51 21t-21 51z" />
    <glyph glyph-name="uni1E0D" unicode="&#x1e0d;" horiz-adv-x="614" 
d="M295 95q39 0 70.5 15.5t54.5 44.5v170q-23 27 -54 43.5t-66 16.5q-31 0 -56.5 -11t-44 -30.5t-29 -46t-10.5 -57.5t10.5 -57.5t28.5 -46t42.5 -30.5t53.5 -11zM535 0h-108v45q-25 -22 -62 -38.5t-85 -16.5q-40 0 -77 13.5t-67 38.5q-42 35 -66.5 86.5t-24.5 111.5
t24.5 111.5t66.5 86.5q30 25 67.5 38.5t81.5 13.5q34 0 69 -11.5t66 -37.5v269h115v-710zM247 -133q0 30 21 51.5t51 21.5t51.5 -21.5t21.5 -51.5t-21.5 -51t-51.5 -21t-51 21t-21 51z" />
    <glyph glyph-name="uni1E0E" unicode="&#x1e0e;" horiz-adv-x="746" 
d="M87 700h245q88 0 153 -25.5t112 -70.5q49 -48 77 -113t28 -141t-28 -141t-77 -113q-47 -45 -112 -70.5t-153 -25.5h-245v700zM322 110q69 0 117 19t80 54q30 32 46.5 74t16.5 93t-16.5 93t-46.5 74q-32 35 -80 54t-117 19h-115v-480h115zM196 -172v85h300v-85h-300z" />
    <glyph glyph-name="uni1E0F" unicode="&#x1e0f;" horiz-adv-x="614" 
d="M295 95q39 0 70.5 15.5t54.5 44.5v170q-23 27 -54 43.5t-66 16.5q-31 0 -56.5 -11t-44 -30.5t-29 -46t-10.5 -57.5t10.5 -57.5t28.5 -46t42.5 -30.5t53.5 -11zM535 0h-108v45q-25 -22 -62 -38.5t-85 -16.5q-40 0 -77 13.5t-67 38.5q-42 35 -66.5 86.5t-24.5 111.5
t24.5 111.5t66.5 86.5q30 25 67.5 38.5t81.5 13.5q34 0 69 -11.5t66 -37.5v269h115v-710zM169 -172v85h300v-85h-300z" />
    <glyph glyph-name="uni1E10" unicode="&#x1e10;" horiz-adv-x="746" 
d="M87 700h245q88 0 153 -25.5t112 -70.5q49 -48 77 -113t28 -141t-28 -141t-77 -113q-47 -45 -112 -70.5t-153 -25.5h-245v700zM322 110q69 0 117 19t80 54q30 32 46.5 74t16.5 93t-16.5 93t-46.5 74q-32 35 -80 54t-117 19h-115v-480h115zM213 -205l65 155h125l-115 -155
h-75z" />
    <glyph glyph-name="uni1E11" unicode="&#x1e11;" horiz-adv-x="614" 
d="M295 95q39 0 70.5 15.5t54.5 44.5v170q-23 27 -54 43.5t-66 16.5q-31 0 -56.5 -11t-44 -30.5t-29 -46t-10.5 -57.5t10.5 -57.5t28.5 -46t42.5 -30.5t53.5 -11zM535 0h-108v45q-25 -22 -62 -38.5t-85 -16.5q-40 0 -77 13.5t-67 38.5q-42 35 -66.5 86.5t-24.5 111.5
t24.5 111.5t66.5 86.5q30 25 67.5 38.5t81.5 13.5q34 0 69 -11.5t66 -37.5v269h115v-710zM190 -205l65 155h125l-115 -155h-75z" />
    <glyph glyph-name="uni1E1E" unicode="&#x1e1e;" horiz-adv-x="528" 
d="M87 700h410v-110h-290v-160h225v-110h-225v-320h-120v700zM234 845q0 30 21 51.5t51 21.5t51.5 -21.5t21.5 -51.5t-21.5 -51t-51.5 -21t-51 21t-21 51z" />
    <glyph glyph-name="uni1E1F" unicode="&#x1e1f;" horiz-adv-x="418" 
d="M253 480h145v-95h-145v-385h-115v385h-115v95h115v54q0 55 15 90.5t42 58.5q21 18 48 27.5t56 9.5q73 0 119 -40l-47 -81q-26 18 -57 18q-28 0 -45 -19q-8 -8 -12 -21.5t-4 -40.5v-56zM220 832q0 30 21 51.5t51 21.5t51.5 -21.5t21.5 -51.5t-21.5 -51t-51.5 -21t-51 21
t-21 51z" />
    <glyph glyph-name="uni1E20" unicode="&#x1e20;" horiz-adv-x="741" 
d="M688 125q-48 -60 -120.5 -97.5t-157.5 -37.5q-81 0 -148.5 27.5t-116 75.5t-75.5 114t-27 143t27.5 143t75.5 114t113.5 75.5t142.5 27.5q80 0 147 -31t114 -82l-75 -75q-35 35 -81 56.5t-105 21.5q-52 0 -96 -19.5t-75.5 -53t-49.5 -79.5t-18 -98q0 -53 18 -98.5
t50.5 -79t78 -53t100.5 -19.5q51 0 90.5 14.5t72.5 41.5v164h-194v105h309v-300zM252 788v85h300v-85h-300z" />
    <glyph glyph-name="uni1E21" unicode="&#x1e21;" horiz-adv-x="614" 
d="M420 39q-31 -26 -66.5 -37.5t-73.5 -11.5q-40 0 -77 13.5t-67 38.5q-42 35 -66.5 86.5t-24.5 111.5t24.5 111.5t66.5 86.5q30 25 67.5 38.5t81.5 13.5t80.5 -16.5t61.5 -38.5v45h108v-446q0 -60 -9 -100t-28 -69q-32 -51 -87 -78t-124 -27q-40 0 -75 8.5t-63.5 22.5
t-51 32.5t-37.5 38.5l74 70q11 -11 25.5 -23.5t33 -22.5t41.5 -16.5t53 -6.5q35 0 61.5 11t43.5 34q14 18 21 45t7 72v14zM295 95q39 0 70.5 15.5t54.5 44.5v170q-23 27 -54 43.5t-66 16.5q-31 0 -56.5 -11t-44 -30.5t-29 -46t-10.5 -57.5t10.5 -57.5t28.5 -46t42.5 -30.5
t53.5 -11zM164 578v85h300v-85h-300z" />
    <glyph glyph-name="uni1E22" unicode="&#x1e22;" horiz-adv-x="774" 
d="M87 700h120v-270h360v270h120v-700h-120v320h-360v-320h-120v700zM316 845q0 30 21 51.5t51 21.5t51.5 -21.5t21.5 -51.5t-21.5 -51t-51.5 -21t-51 21t-21 51z" />
    <glyph glyph-name="uni1E23" unicode="&#x1e23;" horiz-adv-x="614" 
d="M497 412q23 -29 35 -69t12 -102v-241h-115v251q0 40 -7.5 62t-20.5 36q-14 17 -36 26.5t-47 9.5q-43 0 -75 -19.5t-49 -40.5v-325h-115v710h115v-268q25 20 59 34t76 14q51 0 94.5 -20.5t73.5 -57.5zM62 832q0 30 21 51.5t51 21.5t51.5 -21.5t21.5 -51.5t-21.5 -51
t-51.5 -21t-51 21t-21 51z" />
    <glyph glyph-name="uni1E24" unicode="&#x1e24;" horiz-adv-x="774" 
d="M87 700h120v-270h360v270h120v-700h-120v320h-360v-320h-120v700zM316 -133q0 30 21 51.5t51 21.5t51.5 -21.5t21.5 -51.5t-21.5 -51t-51.5 -21t-51 21t-21 51z" />
    <glyph glyph-name="uni1E25" unicode="&#x1e25;" horiz-adv-x="614" 
d="M497 412q23 -29 35 -69t12 -102v-241h-115v251q0 40 -7.5 62t-20.5 36q-14 17 -36 26.5t-47 9.5q-43 0 -75 -19.5t-49 -40.5v-325h-115v710h115v-268q25 20 59 34t76 14q51 0 94.5 -20.5t73.5 -57.5zM236 -133q0 30 21 51.5t51 21.5t51.5 -21.5t21.5 -51.5t-21.5 -51
t-51.5 -21t-51 21t-21 51z" />
    <glyph glyph-name="uni1E2A" unicode="&#x1e2a;" horiz-adv-x="774" 
d="M87 700h120v-270h360v270h120v-700h-120v320h-360v-320h-120v700zM387 -200q-29 0 -53.5 10.5t-42.5 29.5t-28.5 44.5t-10.5 55.5h80q0 -23 16 -39t39 -16t39 16t16 39h80q0 -30 -10.5 -55.5t-28.5 -44.5t-42.5 -29.5t-53.5 -10.5z" />
    <glyph glyph-name="uni1E2B" unicode="&#x1e2b;" horiz-adv-x="614" 
d="M497 412q23 -29 35 -69t12 -102v-241h-115v251q0 40 -7.5 62t-20.5 36q-14 17 -36 26.5t-47 9.5q-43 0 -75 -19.5t-49 -40.5v-325h-115v710h115v-268q25 20 59 34t76 14q51 0 94.5 -20.5t73.5 -57.5zM314 -200q-29 0 -53.5 10.5t-42.5 29.5t-28.5 44.5t-10.5 55.5h80
q0 -23 16 -39t39 -16t39 16t16 39h80q0 -30 -10.5 -55.5t-28.5 -44.5t-42.5 -29.5t-53.5 -10.5z" />
    <glyph glyph-name="uni1E36" unicode="&#x1e36;" horiz-adv-x="532" 
d="M87 700h120v-590h300v-110h-420v700zM224 -133q0 30 21 51.5t51 21.5t51.5 -21.5t21.5 -51.5t-21.5 -51t-51.5 -21t-51 21t-21 51z" />
    <glyph glyph-name="uni1E37" unicode="&#x1e37;" horiz-adv-x="273" 
d="M79 710h115v-710h-115v710zM64 -133q0 30 21 51.5t51 21.5t51.5 -21.5t21.5 -51.5t-21.5 -51t-51.5 -21t-51 21t-21 51z" />
    <glyph glyph-name="uni1E38" unicode="&#x1e38;" horiz-adv-x="532" 
d="M87 700h120v-590h300v-110h-420v700zM224 -133q0 30 21 51.5t51 21.5t51.5 -21.5t21.5 -51.5t-21.5 -51t-51.5 -21t-51 21t-21 51zM2 788v85h300v-85h-300z" />
    <glyph glyph-name="uni1E39" unicode="&#x1e39;" horiz-adv-x="273" 
d="M79 710h115v-710h-115v710zM64 -133q0 30 21 51.5t51 21.5t51.5 -21.5t21.5 -51.5t-21.5 -51t-51.5 -21t-51 21t-21 51zM-14 783v85h300v-85h-300z" />
    <glyph glyph-name="uni1E3A" unicode="&#x1e3a;" horiz-adv-x="532" 
d="M87 700h120v-590h300v-110h-420v700zM151 -172v85h300v-85h-300z" />
    <glyph glyph-name="uni1E3B" unicode="&#x1e3b;" horiz-adv-x="273" 
d="M79 710h115v-710h-115v710zM-14 -172v85h300v-85h-300z" />
    <glyph glyph-name="uni1E3E" unicode="&#x1e3e;" horiz-adv-x="854" 
d="M87 700h85l257 -375l253 375h85v-700h-117v454l-211 -310h-24l-211 309v-453h-117v700zM392 765l65 155h125l-115 -155h-75z" />
    <glyph glyph-name="uni1E3F" unicode="&#x1e3f;" horiz-adv-x="944" 
d="M759 260q0 38 -8 60t-23 36q-14 14 -33 21.5t-41 7.5q-23 0 -42 -6.5t-34.5 -16t-27.5 -21t-21 -21.5q2 -15 3.5 -31.5t1.5 -35.5v-253h-115v260q0 38 -8 60t-23 36q-14 14 -33 21.5t-41 7.5q-40 0 -71.5 -19.5t-48.5 -40.5v-325h-115v480h108v-45q25 22 61 38.5t77 16.5
q48 0 90.5 -21t70.5 -56q31 32 73 54.5t100 22.5q51 0 96.5 -20.5t74.5 -57.5q23 -28 33.5 -66t10.5 -95v-251h-115v260zM439 550l65 155h125l-115 -155h-75z" />
    <glyph glyph-name="uni1E40" unicode="&#x1e40;" horiz-adv-x="854" 
d="M87 700h85l257 -375l253 375h85v-700h-117v454l-211 -310h-24l-211 309v-453h-117v700zM355 845q0 30 21 51.5t51 21.5t51.5 -21.5t21.5 -51.5t-21.5 -51t-51.5 -21t-51 21t-21 51z" />
    <glyph glyph-name="uni1E41" unicode="&#x1e41;" horiz-adv-x="944" 
d="M759 260q0 38 -8 60t-23 36q-14 14 -33 21.5t-41 7.5q-23 0 -42 -6.5t-34.5 -16t-27.5 -21t-21 -21.5q2 -15 3.5 -31.5t1.5 -35.5v-253h-115v260q0 38 -8 60t-23 36q-14 14 -33 21.5t-41 7.5q-40 0 -71.5 -19.5t-48.5 -40.5v-325h-115v480h108v-45q25 22 61 38.5t77 16.5
q48 0 90.5 -21t70.5 -56q31 32 73 54.5t100 22.5q51 0 96.5 -20.5t74.5 -57.5q23 -28 33.5 -66t10.5 -95v-251h-115v260zM406 627q0 30 21 51.5t51 21.5t51.5 -21.5t21.5 -51.5t-21.5 -51t-51.5 -21t-51 21t-21 51z" />
    <glyph glyph-name="uni1E42" unicode="&#x1e42;" horiz-adv-x="854" 
d="M87 700h85l257 -375l253 375h85v-700h-117v454l-211 -310h-24l-211 309v-453h-117v700zM356 -133q0 30 21 51.5t51 21.5t51.5 -21.5t21.5 -51.5t-21.5 -51t-51.5 -21t-51 21t-21 51z" />
    <glyph glyph-name="uni1E43" unicode="&#x1e43;" horiz-adv-x="944" 
d="M759 260q0 38 -8 60t-23 36q-14 14 -33 21.5t-41 7.5q-23 0 -42 -6.5t-34.5 -16t-27.5 -21t-21 -21.5q2 -15 3.5 -31.5t1.5 -35.5v-253h-115v260q0 38 -8 60t-23 36q-14 14 -33 21.5t-41 7.5q-40 0 -71.5 -19.5t-48.5 -40.5v-325h-115v480h108v-45q25 22 61 38.5t77 16.5
q48 0 90.5 -21t70.5 -56q31 32 73 54.5t100 22.5q51 0 96.5 -20.5t74.5 -57.5q23 -28 33.5 -66t10.5 -95v-251h-115v260zM404 -133q0 30 21 51.5t51 21.5t51.5 -21.5t21.5 -51.5t-21.5 -51t-51.5 -21t-51 21t-21 51z" />
    <glyph glyph-name="uni1E44" unicode="&#x1e44;" horiz-adv-x="774" 
d="M87 700h85l395 -478v478h120v-700h-85l-395 478v-478h-120v700zM314 845q0 30 21 51.5t51 21.5t51.5 -21.5t21.5 -51.5t-21.5 -51t-51.5 -21t-51 21t-21 51z" />
    <glyph glyph-name="uni1E45" unicode="&#x1e45;" horiz-adv-x="614" 
d="M497 411q23 -29 35 -68.5t12 -101.5v-241h-115v251q0 40 -7.5 62t-20.5 36q-14 17 -36 26.5t-47 9.5q-43 0 -75 -19.5t-49 -40.5v-325h-115v480h108v-45q25 22 61.5 38.5t80.5 16.5q51 0 94.5 -21t73.5 -58zM256 627q0 30 21 51.5t51 21.5t51.5 -21.5t21.5 -51.5
t-21.5 -51t-51.5 -21t-51 21t-21 51z" />
    <glyph glyph-name="uni1E46" unicode="&#x1e46;" horiz-adv-x="774" 
d="M87 700h85l395 -478v478h120v-700h-85l-395 478v-478h-120v700zM309 -133q0 30 21 51.5t51 21.5t51.5 -21.5t21.5 -51.5t-21.5 -51t-51.5 -21t-51 21t-21 51z" />
    <glyph glyph-name="uni1E47" unicode="&#x1e47;" horiz-adv-x="614" 
d="M497 411q23 -29 35 -68.5t12 -101.5v-241h-115v251q0 40 -7.5 62t-20.5 36q-14 17 -36 26.5t-47 9.5q-43 0 -75 -19.5t-49 -40.5v-325h-115v480h108v-45q25 22 61.5 38.5t80.5 16.5q51 0 94.5 -21t73.5 -58zM241 -133q0 30 21 51.5t51 21.5t51.5 -21.5t21.5 -51.5
t-21.5 -51t-51.5 -21t-51 21t-21 51z" />
    <glyph glyph-name="uni1E48" unicode="&#x1e48;" horiz-adv-x="774" 
d="M87 700h85l395 -478v478h120v-700h-85l-395 478v-478h-120v700zM251 -172v85h300v-85h-300z" />
    <glyph glyph-name="uni1E49" unicode="&#x1e49;" horiz-adv-x="614" 
d="M497 411q23 -29 35 -68.5t12 -101.5v-241h-115v251q0 40 -7.5 62t-20.5 36q-14 17 -36 26.5t-47 9.5q-43 0 -75 -19.5t-49 -40.5v-325h-115v480h108v-45q25 22 61.5 38.5t80.5 16.5q51 0 94.5 -21t73.5 -58zM163 -172v85h300v-85h-300z" />
    <glyph glyph-name="uni1E56" unicode="&#x1e56;" horiz-adv-x="604" 
d="M207 403h135q33 0 51 5.5t30 16.5q16 13 25 31t9 41t-9 41.5t-25 31.5q-12 11 -30 16.5t-51 5.5h-135v-189zM207 295v-295h-120v700h267q50 0 83 -10.5t59 -29.5q37 -28 59 -70t22 -93t-22 -92.5t-59 -69.5q-26 -19 -59 -29.5t-83 -10.5h-147zM234 845q0 30 21 51.5
t51 21.5t51.5 -21.5t21.5 -51.5t-21.5 -51t-51.5 -21t-51 21t-21 51z" />
    <glyph glyph-name="uni1E57" unicode="&#x1e57;" horiz-adv-x="614" 
d="M319 95q29 0 53.5 11t42.5 30.5t28.5 46t10.5 57.5t-10.5 57.5t-29 46t-44 30.5t-56.5 11q-35 0 -66 -16.5t-54 -43.5v-170q23 -29 54.5 -44.5t70.5 -15.5zM569 240q0 -60 -24.5 -111.5t-66.5 -86.5q-30 -25 -67 -38.5t-77 -13.5q-38 0 -73.5 11.5t-66.5 37.5v-269h-115
v710h108v-45q25 22 61.5 38.5t80.5 16.5t81.5 -13.5t67.5 -38.5q42 -35 66.5 -86.5t24.5 -111.5zM261 627q0 30 21 51.5t51 21.5t51.5 -21.5t21.5 -51.5t-21.5 -51t-51.5 -21t-51 21t-21 51z" />
    <glyph glyph-name="uni1E5A" unicode="&#x1e5a;" horiz-adv-x="642" 
d="M207 0h-120v700h252q58 0 97 -16t65 -44q24 -26 37.5 -60t13.5 -73t-13.5 -72.5t-37.5 -59.5q-17 -19 -40 -32t-53 -20l244 -323h-144l-236 315h-65v-315zM207 420h119q33 0 51.5 6.5t29.5 17.5q12 11 18.5 27.5t6.5 33.5q0 40 -25 63q-11 11 -29.5 17.5t-51.5 6.5h-119
v-172zM264 -133q0 30 21 51.5t51 21.5t51.5 -21.5t21.5 -51.5t-21.5 -51t-51.5 -21t-51 21t-21 51z" />
    <glyph glyph-name="uni1E5B" unicode="&#x1e5b;" horiz-adv-x="393" 
d="M79 480h111v-55q20 25 57.5 42.5t85.5 17.5q15 0 36 -3v-105q-9 2 -18 2.5t-22 0.5q-39 0 -75.5 -18.5t-59.5 -56.5v-305h-115v480zM65 -133q0 30 21 51.5t51 21.5t51.5 -21.5t21.5 -51.5t-21.5 -51t-51.5 -21t-51 21t-21 51z" />
    <glyph glyph-name="uni1E5C" unicode="&#x1e5c;" horiz-adv-x="642" 
d="M207 0h-120v700h252q58 0 97 -16t65 -44q24 -26 37.5 -60t13.5 -73t-13.5 -72.5t-37.5 -59.5q-17 -19 -40 -32t-53 -20l244 -323h-144l-236 315h-65v-315zM207 420h119q33 0 51.5 6.5t29.5 17.5q12 11 18.5 27.5t6.5 33.5q0 40 -25 63q-11 11 -29.5 17.5t-51.5 6.5h-119
v-172zM264 -133q0 30 21 51.5t51 21.5t51.5 -21.5t21.5 -51.5t-21.5 -51t-51.5 -21t-51 21t-21 51zM141 788v85h300v-85h-300z" />
    <glyph glyph-name="uni1E5D" unicode="&#x1e5d;" horiz-adv-x="393" 
d="M79 480h111v-55q20 25 57.5 42.5t85.5 17.5q15 0 36 -3v-105q-9 2 -18 2.5t-22 0.5q-39 0 -75.5 -18.5t-59.5 -56.5v-305h-115v480zM65 -133q0 30 21 51.5t51 21.5t51.5 -21.5t21.5 -51.5t-21.5 -51t-51.5 -21t-51 21t-21 51zM73 578v85h300v-85h-300z" />
    <glyph glyph-name="uni1E5E" unicode="&#x1e5e;" horiz-adv-x="642" 
d="M207 0h-120v700h252q58 0 97 -16t65 -44q24 -26 37.5 -60t13.5 -73t-13.5 -72.5t-37.5 -59.5q-17 -19 -40 -32t-53 -20l244 -323h-144l-236 315h-65v-315zM207 420h119q33 0 51.5 6.5t29.5 17.5q12 11 18.5 27.5t6.5 33.5q0 40 -25 63q-11 11 -29.5 17.5t-51.5 6.5h-119
v-172zM211 -172v85h300v-85h-300z" />
    <glyph glyph-name="uni1E5F" unicode="&#x1e5f;" horiz-adv-x="393" 
d="M79 480h111v-55q20 25 57.5 42.5t85.5 17.5q15 0 36 -3v-105q-9 2 -18 2.5t-22 0.5q-39 0 -75.5 -18.5t-59.5 -56.5v-305h-115v480zM-12 -172v85h300v-85h-300z" />
    <glyph glyph-name="uni1E60" unicode="&#x1e60;" horiz-adv-x="551" 
d="M110 179q32 -35 72.5 -57t94.5 -22q21 0 41 6t36 18t26 30t10 42t-12 41t-31.5 30.5t-44.5 24.5t-52 22l-48 20t-46 23q-39 24 -66 63t-27 96q0 43 18 79t48.5 61.5t71 39.5t86.5 14q60 0 110.5 -20t87.5 -50l-65 -86q-29 22 -61 34t-68 12q-48 0 -78 -23t-30 -59
q0 -19 10 -33.5t27.5 -26.5t40 -22.5t47.5 -20.5q26 -11 53 -22.5t51 -25.5q39 -24 68.5 -64.5t29.5 -104.5q0 -47 -17.5 -85t-48.5 -65.5t-73.5 -42.5t-91.5 -15q-75 0 -138 29.5t-111 87.5zM212 845q0 30 21 51.5t51 21.5t51.5 -21.5t21.5 -51.5t-21.5 -51t-51.5 -21
t-51 21t-21 51z" />
    <glyph glyph-name="uni1E61" unicode="&#x1e61;" horiz-adv-x="453" 
d="M228 -10q-54 0 -103 16.5t-91 51.5l57 76q28 -21 63 -33.5t72 -12.5q29 0 51 13.5t22 36.5q0 22 -20.5 34t-51.5 22q-23 8 -47 15t-47 18q-32 16 -55.5 42.5t-23.5 72.5q0 36 15.5 63.5t41 46.5t58 28.5t66.5 9.5q49 0 90.5 -15.5t68.5 -37.5l-52 -77q-22 14 -46.5 23
t-52.5 9q-30 0 -52 -12t-22 -35q0 -12 9.5 -20t24.5 -14.5t35 -12.5t41 -13q24 -8 48.5 -19t43.5 -28t31 -41.5t12 -58.5q0 -35 -16 -62.5t-42 -46.5t-59.5 -29t-68.5 -10zM161 627q0 30 21 51.5t51 21.5t51.5 -21.5t21.5 -51.5t-21.5 -51t-51.5 -21t-51 21t-21 51z" />
    <glyph glyph-name="uni1E62" unicode="&#x1e62;" horiz-adv-x="551" 
d="M110 179q32 -35 72.5 -57t94.5 -22q21 0 41 6t36 18t26 30t10 42t-12 41t-31.5 30.5t-44.5 24.5t-52 22l-48 20t-46 23q-39 24 -66 63t-27 96q0 43 18 79t48.5 61.5t71 39.5t86.5 14q60 0 110.5 -20t87.5 -50l-65 -86q-29 22 -61 34t-68 12q-48 0 -78 -23t-30 -59
q0 -19 10 -33.5t27.5 -26.5t40 -22.5t47.5 -20.5q26 -11 53 -22.5t51 -25.5q39 -24 68.5 -64.5t29.5 -104.5q0 -47 -17.5 -85t-48.5 -65.5t-73.5 -42.5t-91.5 -15q-75 0 -138 29.5t-111 87.5zM207 -133q0 30 21 51.5t51 21.5t51.5 -21.5t21.5 -51.5t-21.5 -51t-51.5 -21
t-51 21t-21 51z" />
    <glyph glyph-name="uni1E63" unicode="&#x1e63;" horiz-adv-x="453" 
d="M228 -10q-54 0 -103 16.5t-91 51.5l57 76q28 -21 63 -33.5t72 -12.5q29 0 51 13.5t22 36.5q0 22 -20.5 34t-51.5 22q-23 8 -47 15t-47 18q-32 16 -55.5 42.5t-23.5 72.5q0 36 15.5 63.5t41 46.5t58 28.5t66.5 9.5q49 0 90.5 -15.5t68.5 -37.5l-52 -77q-22 14 -46.5 23
t-52.5 9q-30 0 -52 -12t-22 -35q0 -12 9.5 -20t24.5 -14.5t35 -12.5t41 -13q24 -8 48.5 -19t43.5 -28t31 -41.5t12 -58.5q0 -35 -16 -62.5t-42 -46.5t-59.5 -29t-68.5 -10zM161 -133q0 30 21 51.5t51 21.5t51.5 -21.5t21.5 -51.5t-21.5 -51t-51.5 -21t-51 21t-21 51z" />
    <glyph glyph-name="uni1E6A" unicode="&#x1e6a;" horiz-adv-x="546" 
d="M213 590h-190v110h500v-110h-190v-590h-120v590zM201 845q0 30 21 51.5t51 21.5t51.5 -21.5t21.5 -51.5t-21.5 -51t-51.5 -21t-51 21t-21 51z" />
    <glyph glyph-name="uni1E6B" unicode="&#x1e6b;" horiz-adv-x="437" 
d="M297 -10q-35 0 -68.5 12t-57.5 40q-17 21 -26 50t-9 74v219h-115v95h115v160h115v-160h145v-95h-145v-220q0 -23 3 -35.5t11 -20.5q16 -18 47 -18q17 0 31.5 4.5t27.5 12.5l40 -84q-25 -17 -53 -25.5t-61 -8.5zM121 772q0 30 21 51.5t51 21.5t51.5 -21.5t21.5 -51.5
t-21.5 -51t-51.5 -21t-51 21t-21 51z" />
    <glyph glyph-name="uni1E6C" unicode="&#x1e6c;" horiz-adv-x="546" 
d="M213 590h-190v110h500v-110h-190v-590h-120v590zM200 -133q0 30 21 51.5t51 21.5t51.5 -21.5t21.5 -51.5t-21.5 -51t-51.5 -21t-51 21t-21 51z" />
    <glyph glyph-name="uni1E6D" unicode="&#x1e6d;" horiz-adv-x="437" 
d="M297 -10q-35 0 -68.5 12t-57.5 40q-17 21 -26 50t-9 74v219h-115v95h115v160h115v-160h145v-95h-145v-220q0 -23 3 -35.5t11 -20.5q16 -18 47 -18q17 0 31.5 4.5t27.5 12.5l40 -84q-25 -17 -53 -25.5t-61 -8.5zM203 -133q0 30 21 51.5t51 21.5t51.5 -21.5t21.5 -51.5
t-21.5 -51t-51.5 -21t-51 21t-21 51z" />
    <glyph glyph-name="uni1E6E" unicode="&#x1e6e;" horiz-adv-x="546" 
d="M213 590h-190v110h500v-110h-190v-590h-120v590zM123 -172v85h300v-85h-300z" />
    <glyph glyph-name="uni1E6F" unicode="&#x1e6f;" horiz-adv-x="437" 
d="M297 -10q-35 0 -68.5 12t-57.5 40q-17 21 -26 50t-9 74v219h-115v95h115v160h115v-160h145v-95h-145v-220q0 -23 3 -35.5t11 -20.5q16 -18 47 -18q17 0 31.5 4.5t27.5 12.5l40 -84q-25 -17 -53 -25.5t-61 -8.5zM130 -172v85h300v-85h-300z" />
    <glyph glyph-name="uni1E7C" unicode="&#x1e7c;" horiz-adv-x="667" 
d="M11 700h125l199 -499l199 499h122l-280 -700h-85zM161 791q1 51 26.5 87.5t78.5 36.5q21 0 38.5 -8t34 -17t31 -17t29.5 -8q17 0 26 14.5t11 35.5l70 -16q-1 -26 -7.5 -48.5t-19 -39t-32 -26.5t-46.5 -10q-21 0 -38.5 8t-34 17t-31 17t-29.5 8q-17 0 -26 -14.5t-11 -35.5
z" />
    <glyph glyph-name="uni1E7D" unicode="&#x1e7d;" horiz-adv-x="535" 
d="M15 480h121l134 -305l133 305h117l-212 -480h-81zM95 576q1 51 26.5 87.5t78.5 36.5q21 0 38.5 -8t34 -17t31 -17t29.5 -8q17 0 26 14.5t11 35.5l70 -16q-1 -26 -7.5 -48.5t-19 -39t-32 -26.5t-46.5 -10q-21 0 -38.5 8t-34 17t-31 17t-29.5 8q-17 0 -26 -14.5t-11 -35.5z
" />
    <glyph glyph-name="Wgrave" unicode="&#x1e80;" horiz-adv-x="972" 
d="M11 700h121l151 -472l161 472h85l163 -471l151 471h118l-225 -700h-85l-167 479l-163 -479h-85zM449 765l-115 155h125l65 -155h-75z" />
    <glyph glyph-name="wgrave" unicode="&#x1e81;" horiz-adv-x="804" 
d="M17 480h119l110 -296l116 296h80l119 -297l111 297h115l-180 -480h-81l-124 309l-124 -309h-81zM362 550l-115 155h125l65 -155h-75z" />
    <glyph glyph-name="Wacute" unicode="&#x1e82;" horiz-adv-x="972" 
d="M11 700h121l151 -472l161 472h85l163 -471l151 471h118l-225 -700h-85l-167 479l-163 -479h-85zM449 765l65 155h125l-115 -155h-75z" />
    <glyph glyph-name="wacute" unicode="&#x1e83;" horiz-adv-x="804" 
d="M17 480h119l110 -296l116 296h80l119 -297l111 297h115l-180 -480h-81l-124 309l-124 -309h-81zM367 550l65 155h125l-115 -155h-75z" />
    <glyph glyph-name="Wdieresis" unicode="&#x1e84;" horiz-adv-x="972" 
d="M11 700h121l151 -472l161 472h85l163 -471l151 471h118l-225 -700h-85l-167 479l-163 -479h-85zM515 845q0 29 20.5 50t49.5 21t50 -21t21 -50t-21 -49.5t-50 -20.5t-49.5 20.5t-20.5 49.5zM316 845q0 29 20.5 50t49.5 21t50 -21t21 -50t-21 -49.5t-50 -20.5t-49.5 20.5
t-20.5 49.5z" />
    <glyph glyph-name="wdieresis" unicode="&#x1e85;" horiz-adv-x="804" 
d="M17 480h119l110 -296l116 296h80l119 -297l111 297h115l-180 -480h-81l-124 309l-124 -309h-81zM431 629q0 29 20.5 50t49.5 21t50 -21t21 -50t-21 -49.5t-50 -20.5t-49.5 20.5t-20.5 49.5zM232 629q0 29 20.5 50t49.5 21t50 -21t21 -50t-21 -49.5t-50 -20.5t-49.5 20.5
t-20.5 49.5z" />
    <glyph glyph-name="uni1E8A" unicode="&#x1e8a;" horiz-adv-x="632" 
d="M601 700l-217 -323l252 -377h-139l-183 273l-183 -273h-135l251 374l-216 326h139l148 -223l148 223h135zM243 845q0 30 21 51.5t51 21.5t51.5 -21.5t21.5 -51.5t-21.5 -51t-51.5 -21t-51 21t-21 51z" />
    <glyph glyph-name="uni1E8B" unicode="&#x1e8b;" horiz-adv-x="534" 
d="M335 251l187 -251h-137l-119 160l-120 -160h-134l187 249l-172 231h137l104 -140l105 140h134zM194 627q0 30 21 51.5t51 21.5t51.5 -21.5t21.5 -51.5t-21.5 -51t-51.5 -21t-51 21t-21 51z" />
    <glyph glyph-name="uni1E92" unicode="&#x1e92;" horiz-adv-x="589" 
d="M190 110h368v-110h-530v75l349 515h-319v110h480v-75zM225 -133q0 30 21 51.5t51 21.5t51.5 -21.5t21.5 -51.5t-21.5 -51t-51.5 -21t-51 21t-21 51z" />
    <glyph glyph-name="uni1E93" unicode="&#x1e93;" horiz-adv-x="499" 
d="M203 100h258v-100h-420v70l239 310h-224v100h385v-70zM188 -133q0 30 21 51.5t51 21.5t51.5 -21.5t21.5 -51.5t-21.5 -51t-51.5 -21t-51 21t-21 51z" />
    <glyph glyph-name="uni1E97" unicode="&#x1e97;" horiz-adv-x="437" 
d="M297 -10q-35 0 -68.5 12t-57.5 40q-17 21 -26 50t-9 74v219h-115v95h115v160h115v-160h145v-95h-145v-220q0 -23 3 -35.5t11 -20.5q16 -18 47 -18q17 0 31.5 4.5t27.5 12.5l40 -84q-25 -17 -53 -25.5t-61 -8.5zM222 774q0 29 20.5 50t49.5 21t50 -21t21 -50t-21 -49.5
t-50 -20.5t-49.5 20.5t-20.5 49.5zM23 774q0 29 20.5 50t49.5 21t50 -21t21 -50t-21 -49.5t-50 -20.5t-49.5 20.5t-20.5 49.5z" />
    <glyph glyph-name="uni1E9E" unicode="&#x1e9e;" horiz-adv-x="678" 
d="M465 477q39 -11 71.5 -33t56 -52.5t37 -68t13.5 -79.5q0 -53 -17 -99t-50 -80.5t-80 -54.5t-107 -20q-32 0 -64.5 7t-61.5 23l43 98q23 -11 45 -14.5t33 -3.5q31 0 57 11.5t44 31t28 45.5t10 56q0 28 -9 52.5t-26 44.5q-19 22 -48.5 34.5t-80.5 12.5h-66l128 201h-213
v-589h-120v700h470v-75z" />
    <glyph glyph-name="uni1EA0" unicode="&#x1ea0;" horiz-adv-x="689" 
d="M387 700l295 -700h-125l-70 165h-288l-70 -165h-122l295 700h85zM245 275h196l-98 233zM272 -133q0 30 21 51.5t51 21.5t51.5 -21.5t21.5 -51.5t-21.5 -51t-51.5 -21t-51 21t-21 51z" />
    <glyph glyph-name="uni1EA1" unicode="&#x1ea1;" horiz-adv-x="614" 
d="M295 95q39 0 70.5 15.5t54.5 44.5v170q-23 27 -54 43.5t-66 16.5q-31 0 -56.5 -11t-44 -30.5t-29 -46t-10.5 -57.5t10.5 -57.5t28.5 -46t42.5 -30.5t53.5 -11zM427 0v45q-25 -22 -62 -38.5t-85 -16.5q-40 0 -77 13.5t-67 38.5q-42 35 -66.5 86.5t-24.5 111.5t24.5 111.5
t66.5 86.5q30 25 67.5 38.5t81.5 13.5t80.5 -16.5t61.5 -38.5v45h108v-480h-108zM247 -133q0 30 21 51.5t51 21.5t51.5 -21.5t21.5 -51.5t-21.5 -51t-51.5 -21t-51 21t-21 51z" />
    <glyph glyph-name="uni1EB8" unicode="&#x1eb8;" horiz-adv-x="553" 
d="M87 700h410v-110h-290v-160h225v-110h-225v-210h300v-110h-420v700zM229 -133q0 30 21 51.5t51 21.5t51.5 -21.5t21.5 -51.5t-21.5 -51t-51.5 -21t-51 21t-21 51z" />
    <glyph glyph-name="uni1EB9" unicode="&#x1eb9;" horiz-adv-x="547" 
d="M505 242q0 -7 -0.5 -15t-1.5 -15h-348q2 -27 14 -49.5t31 -38.5t44 -25t54 -9q44 0 77 18t54 38l66 -64q-36 -45 -90 -68.5t-108 -23.5q-56 0 -102.5 18.5t-79.5 51.5t-51.5 79t-18.5 101q0 52 16.5 97.5t46.5 79.5t73.5 53.5t97.5 19.5q51 0 92.5 -19.5t71.5 -53t46 -79
t16 -96.5zM389 297q-7 42 -37.5 69t-74.5 27q-45 0 -76.5 -28t-38.5 -68h227zM222 -133q0 30 21 51.5t51 21.5t51.5 -21.5t21.5 -51.5t-21.5 -51t-51.5 -21t-51 21t-21 51z" />
    <glyph glyph-name="uni1EBC" unicode="&#x1ebc;" horiz-adv-x="553" 
d="M87 700h410v-110h-290v-160h225v-110h-225v-210h300v-110h-420v700zM122 791q1 51 26.5 87.5t78.5 36.5q21 0 38.5 -8t34 -17t31 -17t29.5 -8q17 0 26 14.5t11 35.5l70 -16q-1 -26 -7.5 -48.5t-19 -39t-32 -26.5t-46.5 -10q-21 0 -38.5 8t-34 17t-31 17t-29.5 8
q-17 0 -26 -14.5t-11 -35.5z" />
    <glyph glyph-name="uni1EBD" unicode="&#x1ebd;" horiz-adv-x="547" 
d="M505 242q0 -7 -0.5 -15t-1.5 -15h-348q2 -27 14 -49.5t31 -38.5t44 -25t54 -9q44 0 77 18t54 38l66 -64q-36 -45 -90 -68.5t-108 -23.5q-56 0 -102.5 18.5t-79.5 51.5t-51.5 79t-18.5 101q0 52 16.5 97.5t46.5 79.5t73.5 53.5t97.5 19.5q51 0 92.5 -19.5t71.5 -53t46 -79
t16 -96.5zM389 297q-7 42 -37.5 69t-74.5 27q-45 0 -76.5 -28t-38.5 -68h227zM110 576q1 51 26.5 87.5t78.5 36.5q21 0 38.5 -8t34 -17t31 -17t29.5 -8q17 0 26 14.5t11 35.5l70 -16q-1 -26 -7.5 -48.5t-19 -39t-32 -26.5t-46.5 -10q-21 0 -38.5 8t-34 17t-31 17t-29.5 8
q-17 0 -26 -14.5t-11 -35.5z" />
    <glyph glyph-name="uni1ECA" unicode="&#x1eca;" horiz-adv-x="294" 
d="M87 0v700h120v-700h-120zM74 -133q0 30 21 51.5t51 21.5t51.5 -21.5t21.5 -51.5t-21.5 -51t-51.5 -21t-51 21t-21 51z" />
    <glyph glyph-name="uni1ECB" unicode="&#x1ecb;" horiz-adv-x="273" 
d="M79 0v480h115v-480h-115zM64 650q0 30 21 51.5t51 21.5t51.5 -21.5t21.5 -51.5t-21.5 -51t-51.5 -21t-51 21t-21 51zM64 -133q0 30 21 51.5t51 21.5t51.5 -21.5t21.5 -51.5t-21.5 -51t-51.5 -21t-51 21t-21 51z" />
    <glyph glyph-name="uni1ECC" unicode="&#x1ecc;" horiz-adv-x="796" 
d="M398 710q75 0 140 -27.5t112.5 -75.5t75 -114t27.5 -143t-27.5 -143t-75 -114t-112.5 -75.5t-140 -27.5t-140 27.5t-112.5 75.5t-75 114t-27.5 143t27.5 143t75 114t112.5 75.5t140 27.5zM398 100q51 0 94 19.5t74.5 53t49 79t17.5 98.5q0 52 -17.5 98t-49 79.5t-74.5 53
t-94 19.5t-94 -19.5t-74.5 -53t-49 -79.5t-17.5 -98q0 -53 17.5 -98.5t49 -79t74.5 -53t94 -19.5zM327 -133q0 30 21 51.5t51 21.5t51.5 -21.5t21.5 -51.5t-21.5 -51t-51.5 -21t-51 21t-21 51z" />
    <glyph glyph-name="uni1ECD" unicode="&#x1ecd;" horiz-adv-x="588" 
d="M294 490q54 0 99.5 -19.5t79 -53t52.5 -79.5t19 -98q0 -53 -19 -98.5t-52.5 -79t-79 -53t-99.5 -19.5t-99.5 19.5t-79 53t-52.5 79t-19 98.5q0 52 19 98t52.5 79.5t79 53t99.5 19.5zM294 95q30 0 55 11.5t42.5 31.5t27.5 46.5t10 55.5t-10 55.5t-27.5 46.5t-42.5 31.5
t-55 11.5t-55 -11.5t-42.5 -31.5t-27.5 -46t-10 -56q0 -29 10 -55.5t27.5 -46.5t42.5 -31.5t55 -11.5zM221 -133q0 30 21 51.5t51 21.5t51.5 -21.5t21.5 -51.5t-21.5 -51t-51.5 -21t-51 21t-21 51z" />
    <glyph glyph-name="uni1EE4" unicode="&#x1ee4;" horiz-adv-x="748" 
d="M549 700h120v-408q0 -70 -18.5 -119t-50.5 -86q-41 -46 -99.5 -71.5t-126.5 -25.5t-126.5 26t-99.5 72q-33 36 -51 85t-18 119v408h120v-415q0 -48 10.5 -77.5t30.5 -50.5q24 -26 58.5 -41.5t75.5 -15.5t75.5 15.5t58.5 41.5q20 21 30.5 50.5t10.5 77.5v415zM303 -133
q0 30 21 51.5t51 21.5t51.5 -21.5t21.5 -51.5t-21.5 -51t-51.5 -21t-51 21t-21 51z" />
    <glyph glyph-name="uni1EE5" unicode="&#x1ee5;" horiz-adv-x="605" 
d="M186 220q0 -38 8 -60t23 -36q14 -14 33 -21.5t41 -7.5q40 0 71.5 19.5t48.5 40.5v325h115v-480h-108v45q-25 -22 -61 -38.5t-76 -16.5q-48 0 -88.5 19t-69.5 51q-25 28 -38.5 66t-13.5 94v260h115v-260zM233 -133q0 30 21 51.5t51 21.5t51.5 -21.5t21.5 -51.5t-21.5 -51
t-51.5 -21t-51 21t-21 51z" />
    <glyph glyph-name="Ygrave" unicode="&#x1ef2;" horiz-adv-x="642" 
d="M261 318l-240 382h136l165 -265l165 265h134l-240 -382v-318h-120v318zM291 765l-115 155h125l65 -155h-75z" />
    <glyph glyph-name="ygrave" unicode="&#x1ef3;" horiz-adv-x="563" 
d="M432 480h118l-327 -710h-118l127 273l-217 437h123l153 -308zM255 550l-115 155h125l65 -155h-75z" />
    <glyph glyph-name="uni1EF8" unicode="&#x1ef8;" horiz-adv-x="642" 
d="M261 318l-240 382h136l165 -265l165 265h134l-240 -382v-318h-120v318zM149 791q1 51 26.5 87.5t78.5 36.5q21 0 38.5 -8t34 -17t31 -17t29.5 -8q17 0 26 14.5t11 35.5l70 -16q-1 -26 -7.5 -48.5t-19 -39t-32 -26.5t-46.5 -10q-21 0 -38.5 8t-34 17t-31 17t-29.5 8
q-17 0 -26 -14.5t-11 -35.5z" />
    <glyph glyph-name="uni1EF9" unicode="&#x1ef9;" horiz-adv-x="563" 
d="M432 480h118l-327 -710h-118l127 273l-217 437h123l153 -308zM110 576q1 51 26.5 87.5t78.5 36.5q21 0 38.5 -8t34 -17t31 -17t29.5 -8q17 0 26 14.5t11 35.5l70 -16q-1 -26 -7.5 -48.5t-19 -39t-32 -26.5t-46.5 -10q-21 0 -38.5 8t-34 17t-31 17t-29.5 8
q-17 0 -26 -14.5t-11 -35.5z" />
    <glyph glyph-name="uni2000" unicode="&#x2000;" horiz-adv-x="540" 
 />
    <glyph glyph-name="uni2001" unicode="&#x2001;" horiz-adv-x="1080" 
 />
    <glyph glyph-name="uni2002" unicode="&#x2002;" horiz-adv-x="540" 
 />
    <glyph glyph-name="uni2003" unicode="&#x2003;" horiz-adv-x="1080" 
 />
    <glyph glyph-name="uni2004" unicode="&#x2004;" horiz-adv-x="360" 
 />
    <glyph glyph-name="uni2005" unicode="&#x2005;" horiz-adv-x="270" 
 />
    <glyph glyph-name="uni2006" unicode="&#x2006;" horiz-adv-x="180" 
 />
    <glyph glyph-name="uni2007" unicode="&#x2007;" horiz-adv-x="628" 
 />
    <glyph glyph-name="uni2008" unicode="&#x2008;" horiz-adv-x="311" 
 />
    <glyph glyph-name="uni2009" unicode="&#x2009;" horiz-adv-x="135" 
 />
    <glyph glyph-name="uni200A" unicode="&#x200a;" horiz-adv-x="45" 
 />
    <glyph glyph-name="uni200B" unicode="&#x200b;" horiz-adv-x="0" 
 />
    <glyph glyph-name="figuredash" unicode="&#x2012;" 
d="M65 270v95h460v-95h-460z" />
    <glyph glyph-name="endash" unicode="&#x2013;" horiz-adv-x="592" 
d="M66 210v95h460v-95h-460z" />
    <glyph glyph-name="emdash" unicode="&#x2014;" horiz-adv-x="897" 
d="M66 210v95h765v-95h-765z" />
    <glyph glyph-name="uni2015" unicode="&#x2015;" horiz-adv-x="943" 
d="M874 303v-93h-805v93h805z" />
    <glyph glyph-name="quoteleft" unicode="&#x2018;" horiz-adv-x="273" 
d="M164 425h-125l120 275h80z" />
    <glyph glyph-name="quoteright" unicode="&#x2019;" horiz-adv-x="267" 
d="M122 700h125l-120 -275h-80z" />
    <glyph glyph-name="quotesinglbase" unicode="&#x201a;" horiz-adv-x="317" 
d="M111 135h125l-120 -275h-80z" />
    <glyph glyph-name="quotereversed" unicode="&#x201b;" horiz-adv-x="267" 
d="M220 425h-80l-120 275h125z" />
    <glyph glyph-name="quotedblleft" unicode="&#x201c;" horiz-adv-x="493" 
d="M384 425h-125l120 275h80zM164 425h-125l120 275h80z" />
    <glyph glyph-name="quotedblright" unicode="&#x201d;" horiz-adv-x="487" 
d="M122 700h125l-120 -275h-80zM342 700h125l-120 -275h-80z" />
    <glyph glyph-name="quotedblbase" unicode="&#x201e;" horiz-adv-x="537" 
d="M111 135h125l-120 -275h-80zM331 135h125l-120 -275h-80z" />
    <glyph glyph-name="uni201F" unicode="&#x201f;" horiz-adv-x="487" 
d="M440 425h-80l-120 275h125zM220 425h-80l-120 275h125z" />
    <glyph glyph-name="dagger" unicode="&#x2020;" horiz-adv-x="524" 
d="M207 -240v620h-170v100h170v220h110v-220h170v-100h-170v-620h-110z" />
    <glyph glyph-name="daggerdbl" unicode="&#x2021;" horiz-adv-x="524" 
d="M487 380h-170v-165h170v-100h-170v-355h-110v355h-170v100h170v165h-170v100h170v220h110v-220h170v-100z" />
    <glyph glyph-name="bullet" unicode="&#x2022;" horiz-adv-x="634" 
d="M317 -10q-52 0 -97.5 19.5t-79.5 53.5t-53.5 79.5t-19.5 97.5t19.5 97.5t53.5 79.5t79.5 53.5t97.5 19.5t97.5 -19.5t79.5 -53.5t53.5 -79.5t19.5 -97.5t-19.5 -97.5t-53.5 -79.5t-79.5 -53.5t-97.5 -19.5z" />
    <glyph glyph-name="ellipsis" unicode="&#x2026;" horiz-adv-x="911" 
d="M78 67q0 32 22.5 55t54.5 23t55 -23t23 -55t-23 -54.5t-55 -22.5t-54.5 22.5t-22.5 54.5zM378 67q0 32 22.5 55t54.5 23t55 -23t23 -55t-23 -54.5t-55 -22.5t-54.5 22.5t-22.5 54.5zM678 67q0 32 22.5 55t54.5 23t55 -23t23 -55t-23 -54.5t-55 -22.5t-54.5 22.5
t-22.5 54.5z" />
    <glyph glyph-name="perthousand" unicode="&#x2030;" horiz-adv-x="1154" 
d="M31 522q0 40 14.5 74t39.5 59.5t59 40t74 14.5t74 -14.5t59 -40t39.5 -59.5t14.5 -74t-14.5 -74t-39.5 -59t-59 -39.5t-74 -14.5t-74 14.5t-59 39.5t-39.5 59t-14.5 74zM286 0h-96l409 700h96zM854 178q0 -38 22.5 -65.5t59.5 -27.5t59.5 27.5t22.5 65.5t-22.5 65
t-59.5 27t-59.5 -27t-22.5 -65zM300 524q0 38 -22.5 64.5t-59.5 26.5t-59.5 -26.5t-22.5 -64.5t22.5 -66t59.5 -28t59.5 28t22.5 66zM585 178q0 -38 22.5 -65.5t59.5 -27.5t59.5 27.5t22.5 65.5t-22.5 65t-59.5 27t-59.5 -27t-22.5 -65zM1123 178q0 -40 -14.5 -74
t-39.5 -59.5t-59 -40t-74 -14.5q-43 0 -77.5 17.5t-57.5 47.5q-23 -30 -57.5 -47.5t-76.5 -17.5q-40 0 -74 14.5t-59 40t-39.5 59.5t-14.5 74t14.5 74t39.5 59.5t59 40t74 14.5q43 0 77.5 -17.5t57.5 -47.5q23 30 57.5 47.5t76.5 17.5q40 0 74 -14.5t59 -40t39.5 -59.5
t14.5 -74z" />
    <glyph glyph-name="uni2032" unicode="&#x2032;" horiz-adv-x="226" 
d="M58 700h110l-20 -275h-70z" />
    <glyph glyph-name="uni2033" unicode="&#x2033;" horiz-adv-x="436" 
d="M58 700h110l-20 -275h-70zM268 700h110l-20 -275h-70z" />
    <glyph glyph-name="guilsinglleft" unicode="&#x2039;" horiz-adv-x="362" 
d="M318 55h-131l-154 190l154 190h131l-157 -190z" />
    <glyph glyph-name="guilsinglright" unicode="&#x203a;" horiz-adv-x="362" 
d="M44 435h131l154 -190l-154 -190h-131l157 190z" />
    <glyph glyph-name="fraction" unicode="&#x2044;" horiz-adv-x="185" 
d="M-65 0h-96l409 700h96z" />
    <glyph glyph-name="uni2070" unicode="&#x2070;" horiz-adv-x="350" 
d="M175 710q36 0 62.5 -14.5t43.5 -40t25.5 -60.5t8.5 -75q0 -41 -8.5 -75.5t-25.5 -60t-43.5 -40t-62.5 -14.5t-62.5 14.5t-43.5 40t-25.5 60t-8.5 75.5q0 40 8.5 75t25.5 60.5t43.5 40t62.5 14.5zM175 410q29 0 42 32.5t13 77.5t-13 77.5t-42 32.5t-42 -32.5t-13 -77.5
t13 -77.5t42 -32.5z" />
    <glyph glyph-name="uni2074" unicode="&#x2074;" horiz-adv-x="350" 
d="M185 340v73h-165v45l190 242h55v-217h60v-70h-60v-73h-80zM128 483h57v73z" />
    <glyph glyph-name="uni2075" unicode="&#x2075;" horiz-adv-x="309" 
d="M157 580q30 0 52.5 -10.5t38 -27.5t23 -38.5t7.5 -43.5q0 -29 -10 -52.5t-27.5 -41t-42 -27t-54.5 -9.5q-38 0 -68 14t-53 44l61 48q21 -27 55 -27q23 0 38.5 14t15.5 37q0 20 -13.5 35t-38.5 15q-11 0 -23.5 -3.5t-23.5 -12.5l-51 8l28 198h187v-75h-117l-6 -47
q7 2 13 2h9z" />
    <glyph glyph-name="uni2076" unicode="&#x2076;" horiz-adv-x="330" 
d="M168 330q-28 0 -53 9t-44 25.5t-30 40t-11 51.5q0 27 10 50.5t22 43.5l95 150h96l-74 -118q54 0 90 -33.5t36 -88.5q0 -29 -10.5 -52.5t-29 -41t-43.5 -27t-54 -9.5zM169 408q21 0 36 15t15 36q0 22 -14.5 37t-37.5 15q-22 0 -37 -12q-6 -8 -11 -17.5t-5 -22.5
q0 -22 15.5 -36.5t38.5 -14.5z" />
    <glyph glyph-name="uni2077" unicode="&#x2077;" horiz-adv-x="296" 
d="M26 700h250v-45l-141 -315h-91l126 282h-144v78z" />
    <glyph glyph-name="uni2078" unicode="&#x2078;" horiz-adv-x="344" 
d="M263 538q22 -15 35.5 -39t13.5 -51q0 -24 -10.5 -45.5t-29 -37.5t-44 -25.5t-56.5 -9.5t-56.5 9.5t-44 25.5t-29 37.5t-10.5 45.5q0 27 13.5 51t35.5 39q-13 13 -21 30.5t-8 37.5q0 22 9 41t25 33t38 22t48 8t48 -8t38 -22t25 -33t9 -41q0 -20 -8 -37.5t-21 -30.5z
M172 633q-15 0 -25.5 -8.5t-10.5 -23.5t10.5 -24t25.5 -9t25.5 9t10.5 24t-10.5 23.5t-25.5 8.5zM172 407q26 0 41 13.5t15 33.5t-15 34t-41 14t-41 -14t-15 -34t15 -33.5t41 -13.5z" />
    <glyph glyph-name="uni2079" unicode="&#x2079;" horiz-adv-x="330" 
d="M162 710q28 0 53 -9t44 -25.5t30 -40t11 -51.5q0 -27 -10 -50.5t-22 -43.5l-95 -150h-96l74 118q-54 0 -90 33.5t-36 88.5q0 28 10.5 52t29 41.5t43.5 27t54 9.5zM161 632q-21 0 -36 -15t-15 -36q0 -22 14.5 -37t37.5 -15q22 0 37 12q6 8 11 17.5t5 22.5q0 22 -15.5 36.5
t-38.5 14.5z" />
    <glyph glyph-name="uni2080" unicode="&#x2080;" horiz-adv-x="350" 
d="M175 370q36 0 62.5 -14.5t43.5 -40t25.5 -60.5t8.5 -75q0 -41 -8.5 -75.5t-25.5 -60t-43.5 -40t-62.5 -14.5t-62.5 14.5t-43.5 40t-25.5 60t-8.5 75.5q0 40 8.5 75t25.5 60.5t43.5 40t62.5 14.5zM175 70q29 0 42 32.5t13 77.5t-13 77.5t-42 32.5t-42 -32.5t-13 -77.5
t13 -77.5t42 -32.5z" />
    <glyph glyph-name="uni2081" unicode="&#x2081;" horiz-adv-x="259" 
d="M138 358h55v-360h-85v256l-82 -44v88z" />
    <glyph glyph-name="uni2082" unicode="&#x2082;" horiz-adv-x="327" 
d="M203 244q0 18 -12 32t-33 14q-18 0 -34 -12.5t-24 -41.5l-72 22q9 47 42.5 79.5t87.5 32.5q28 0 51.5 -10t41 -27t27.5 -39.5t10 -48.5q0 -36 -18.5 -65.5t-49.5 -58.5l-42 -41h110v-80h-255v45l106 104q18 18 30 31t19.5 23.5t11 20t3.5 20.5z" />
    <glyph glyph-name="uni2083" unicode="&#x2083;" horiz-adv-x="323" 
d="M212 228q32 -12 53.5 -42t21.5 -69q0 -27 -10.5 -50t-29 -40.5t-43.5 -27t-53 -9.5q-86 0 -129 63l60 49q25 -34 65 -34q21 0 38 13.5t17 37.5q0 22 -15 37t-41 15q-21 0 -42 -8v45l60 74h-122v78h240v-45z" />
    <glyph glyph-name="uni2084" unicode="&#x2084;" horiz-adv-x="350" 
d="M185 0v73h-165v45l190 242h55v-217h60v-70h-60v-73h-80zM128 143h57v73z" />
    <glyph glyph-name="uni2085" unicode="&#x2085;" horiz-adv-x="309" 
d="M157 240q30 0 52.5 -10.5t38 -27.5t23 -38.5t7.5 -43.5q0 -29 -10 -52.5t-27.5 -41t-42 -27t-54.5 -9.5q-38 0 -68 14t-53 44l61 48q21 -27 55 -27q23 0 38.5 14t15.5 37q0 20 -13.5 35t-38.5 15q-11 0 -23.5 -3.5t-23.5 -12.5l-51 8l28 198h187v-75h-117l-6 -47
q7 2 13 2h9z" />
    <glyph glyph-name="uni2086" unicode="&#x2086;" horiz-adv-x="330" 
d="M168 -10q-28 0 -53 9t-44 25.5t-30 40t-11 51.5q0 27 10 50.5t22 43.5l95 150h96l-74 -118q54 0 90 -33.5t36 -88.5q0 -29 -10.5 -52.5t-29 -41t-43.5 -27t-54 -9.5zM169 68q21 0 36 15t15 36q0 22 -14.5 37t-37.5 15q-22 0 -37 -12q-6 -8 -11 -17.5t-5 -22.5
q0 -22 15.5 -36.5t38.5 -14.5z" />
    <glyph glyph-name="uni2087" unicode="&#x2087;" horiz-adv-x="296" 
d="M26 360h250v-45l-141 -315h-91l126 282h-144v78z" />
    <glyph glyph-name="uni2088" unicode="&#x2088;" horiz-adv-x="344" 
d="M263 198q22 -15 35.5 -39t13.5 -51q0 -24 -10.5 -45.5t-29 -37.5t-44 -25.5t-56.5 -9.5t-56.5 9.5t-44 25.5t-29 37.5t-10.5 45.5q0 27 13.5 51t35.5 39q-13 13 -21 30.5t-8 37.5q0 22 9 41t25 33t38 22t48 8t48 -8t38 -22t25 -33t9 -41q0 -20 -8 -37.5t-21 -30.5z
M172 293q-15 0 -25.5 -8.5t-10.5 -23.5t10.5 -24t25.5 -9t25.5 9t10.5 24t-10.5 23.5t-25.5 8.5zM172 67q26 0 41 13.5t15 33.5t-15 34t-41 14t-41 -14t-15 -34t15 -33.5t41 -13.5z" />
    <glyph glyph-name="uni2089" unicode="&#x2089;" horiz-adv-x="330" 
d="M162 370q28 0 53 -9t44 -25.5t30 -40t11 -51.5q0 -27 -10 -50.5t-22 -43.5l-95 -150h-96l74 118q-54 0 -90 33.5t-36 88.5q0 28 10.5 52t29 41.5t43.5 27t54 9.5zM161 292q-21 0 -36 -15t-15 -36q0 -22 14.5 -37t37.5 -15q22 0 37 12q6 8 11 17.5t5 22.5q0 22 -15.5 36.5
t-38.5 14.5z" />
    <glyph glyph-name="colonmonetary" unicode="&#x20a1;" horiz-adv-x="669" 
d="M385 680q17 -1 33 -2.5t32 -5.5l19 108h71l-23 -132q57 -27 99 -72l-68 -70q-11 11 -23.5 19.5t-25.5 16.5l-72 -412q43 8 77.5 28t62.5 51l72 -65q-41 -51 -100.5 -84.5t-130.5 -38.5l-17 -101h-71l18 103q-34 3 -64 12l-20 -115h-71l25 144q-75 42 -117.5 116.5
t-42.5 169.5q0 63 19.5 117.5t55 97t84 70.5t106.5 39l19 106h71zM293 146q28 -14 63 -18l76 439q-26 6 -54 6h-11zM165 350q0 -49 16.5 -90.5t47.5 -71.5l64 367q-59 -25 -93.5 -79.5t-34.5 -125.5z" />
    <glyph glyph-name="uni20A6" unicode="&#x20a6;" horiz-adv-x="816" 
d="M168 220h-120v95h120v70h-120v95h120v220h85l278 -443v443h117v-220h120v-95h-120v-70h120v-95h-120v-220h-85l-278 443v-443h-117v220z" />
    <glyph glyph-name="Euro" unicode="&#x20ac;" horiz-adv-x="682" 
d="M247 220q23 -61 68 -90.5t100 -29.5q32 0 56.5 7t44 17t33.5 22t25 23l74 -69q-14 -20 -36 -39.5t-51 -35t-65 -25.5t-77 -10q-51 0 -98 14.5t-86 43t-67.5 71.5t-43.5 101h-81v95h67q-1 8 -1 17v18v17t1 18h-67v95h81q15 57 43.5 100.5t66 72t82.5 43t93 14.5
q45 0 82 -10t66 -26t50.5 -35.5t35.5 -38.5l-74 -69q-11 10 -25 22.5t-33.5 22.5t-44 17t-56.5 7q-51 0 -95.5 -29.5t-67.5 -90.5h247l-35 -95h-231q-1 -8 -1.5 -17t-0.5 -18v-18t1 -17h206l-35 -95h-151z" />
    <glyph glyph-name="uni20AF" unicode="&#x20af;" horiz-adv-x="1096" 
d="M86 644q32 26 84.5 46t117.5 20q71 0 125 -22t90.5 -62.5t55 -97.5t18.5 -126q0 -70 -23 -141.5t-67 -129.5t-109 -94.5t-149 -36.5h-164l92 525h103l-75 -424h44q57 0 101 27.5t73.5 71t44.5 97.5t15 106q0 45 -11 82.5t-34.5 65t-59 43t-83.5 15.5q-45 0 -82.5 -16.5
t-62.5 -33.5zM819 -10q-32 0 -63.5 12t-54.5 35l-47 -269h-103l85 486q9 53 27 96t45.5 73.5t65.5 47t87 16.5q41 0 75.5 -16t59.5 -45.5t39 -70.5t14 -92q0 -46 -16 -94.5t-45.5 -88t-72 -65t-96.5 -25.5zM719 133q17 -22 40.5 -35.5t54.5 -13.5t55.5 16t41 41.5t25.5 57.5
t9 63q0 60 -24 94t-65 34q-46 0 -75.5 -37t-40.5 -99z" />
    <glyph glyph-name="uni20B2" unicode="&#x20b2;" horiz-adv-x="676" 
d="M378 128q44 0 79 13.5t64 36.5v142h-149v100h259v-276q-38 -48 -92.5 -80.5t-118.5 -40.5v-103h-110v105q-61 10 -110.5 39t-85 71.5t-54.5 97t-19 117.5t20 118t55.5 97.5t85 71t108.5 38.5v105h110v-104q57 -9 106.5 -36t84.5 -66l-74 -71q-31 29 -72.5 48t-93.5 19
q-46 0 -84.5 -17t-66.5 -47t-43.5 -70t-15.5 -86q0 -47 16 -87.5t44.5 -70.5t68.5 -47t88 -17z" />
    <glyph glyph-name="uni20B4" unicode="&#x20b4;" horiz-adv-x="644" 
d="M216 219q-3 -12 -3 -24q0 -24 10 -42.5t26.5 -31t37 -18.5t41.5 -6q54 0 96 21.5t75 59.5l77 -71q-46 -60 -110 -88.5t-139 -28.5q-50 0 -92 15t-73 42t-48.5 64.5t-17.5 82.5q0 6 0.5 13t1.5 12h-47v95h535v-95h-370zM419 480q3 10 5 20t2 19q0 37 -31 60.5t-79 23.5
q-37 0 -70 -12t-62 -35l-63 84q37 30 87.5 50t110.5 20q46 0 86.5 -14t71 -39t48.5 -60t18 -77q0 -22 -5 -40h48v-95h-535v95h368z" />
    <glyph glyph-name="uni20B5" unicode="&#x20b5;" horiz-adv-x="668" 
d="M637 144q-38 -48 -92.5 -80.5t-118.5 -40.5v-103h-110v105q-61 10 -110.5 39t-85 71.5t-54.5 97t-19 117.5t20 118t55.5 97.5t85 71t108.5 38.5v105h110v-104q57 -9 106.5 -36t84.5 -66l-74 -71q-31 29 -72.5 48t-93.5 19q-46 0 -84.5 -17t-66.5 -47t-43.5 -70t-15.5 -86
t16 -86t44.5 -70t68.5 -47t88 -17q57 0 100 23t77 59z" />
    <glyph glyph-name="uni20B8" unicode="&#x20b8;" horiz-adv-x="572" 
d="M226 0v445h-190v95h500v-95h-190v-445h-120zM36 605v95h500v-95h-500z" />
    <glyph glyph-name="uni20B9" unicode="&#x20b9;" horiz-adv-x="589" 
d="M181 370q35 0 55.5 6t34.5 17q25 19 37 47h-235v95h235q-12 27 -37 47q-14 11 -34.5 17t-55.5 6h-108v95h475l-34 -95h-113q12 -16 19 -33.5t12 -36.5h116l-34 -95h-82q-11 -48 -39.5 -84.5t-70.5 -57.5l226 -298h-144l-207 275h-124v95h108z" />
    <glyph glyph-name="uni20BA" unicode="&#x20ba;" horiz-adv-x="602" 
d="M161 509v191h120v-147l170 62v-78l-170 -62v-44l170 62v-78l-170 -62v-238q39 12 70.5 34t53.5 52.5t34 68t12 80.5h120q0 -74 -27 -138t-74 -111t-111 -74t-138 -27h-60v309l-110 -40v78l110 40v44l-110 -40v78z" />
    <glyph glyph-name="uni20BC" unicode="&#x20bc;" horiz-adv-x="672" 
d="M278 462q-37 -15 -63 -44q-20 -22 -29.5 -52t-9.5 -77v-289h-118v282q0 75 21.5 128t59.5 91q28 27 63 46t76 27v126h115v-126q41 -8 76 -27t63 -46q38 -38 59.5 -91t21.5 -128v-282h-118v289q0 47 -9.5 77t-29.5 52q-14 14 -29 25t-34 18v-461h-115v462z" />
    <glyph glyph-name="uni20BD" unicode="&#x20bd;" horiz-adv-x="680" 
d="M279 295v-70h210v-95h-210v-130h-120v130h-105v95h105v70h-105v95h105v310h267q50 0 83 -10.5t59 -29.5q37 -28 59 -70t22 -93t-22 -92.5t-59 -69.5q-26 -19 -59 -29.5t-83 -10.5h-147zM279 403h135q33 0 51 5.5t30 16.5q16 13 25 31t9 41t-9 41.5t-25 31.5
q-12 11 -30 16.5t-51 5.5h-135v-189z" />
    <glyph glyph-name="uni20BF" unicode="&#x20bf;" horiz-adv-x="594" 
d="M196 780v-110h75v110h105v-118q22 -5 38 -14.5t30 -22.5q26 -23 41.5 -55.5t15.5 -70.5q0 -32 -13 -62t-33 -48q45 -22 73 -66.5t28 -98.5q0 -43 -17.5 -79.5t-46.5 -63.5q-22 -20 -49.5 -32.5t-66.5 -16.5v-112h-105v110h-75v-110h-105v860h105zM327 136q33 0 52.5 7
t32.5 21q26 24 26 66q0 40 -26 66q-13 14 -32.5 21t-52.5 7h-118v-188h118zM296 426q28 0 42 4.5t23 13.5q22 20 22 51q0 32 -22 51q-9 9 -23 13.5t-42 4.5h-87v-138h87z" />
    <glyph glyph-name="uni2113" unicode="&#x2113;" horiz-adv-x="374" 
d="M261 -10q-57 0 -87.5 20.5t-47.5 55.5q-16 33 -22.5 78t-8.5 96q-26 -17 -51 -30v65q12 8 24.5 16t25.5 17v37q0 77 1.5 137.5t7.5 105.5q3 23 12.5 45t25 39t37.5 27.5t50 10.5q29 0 50 -10.5t34.5 -28t20 -41t6.5 -49.5q0 -78 -40 -144.5t-105 -123.5q0 -78 2.5 -126
t11.5 -79q8 -29 27 -41.5t42 -12.5q11 0 22.5 2t25.5 9l19 -50q-14 -11 -37.5 -18t-45.5 -7zM194 395q35 38 57.5 83t22.5 99q0 7 -1.5 18t-5.5 21t-11 17t-18 7t-18.5 -6.5t-11.5 -16.5t-6 -21.5t-3 -20.5q-3 -29 -4 -73t-1 -107z" />
    <glyph glyph-name="uni2116" unicode="&#x2116;" horiz-adv-x="1132" 
d="M771 225v100h300v-100h-300zM921 710q36 0 67 -13t54 -35.5t36 -52.5t13 -64t-13 -64t-36 -52.5t-54 -35.5t-67 -13t-67 13t-54 35.5t-36 52.5t-13 64t13 64t36 52.5t54 35.5t67 13zM921 465q35 0 57.5 23.5t22.5 56.5t-22.5 56.5t-57.5 23.5t-57.5 -23.5t-22.5 -56.5
t22.5 -56.5t57.5 -23.5zM91 700h85l395 -478v478h120v-700h-85l-395 478v-478h-120v700z" />
    <glyph glyph-name="uni2117" unicode="&#x2117;" horiz-adv-x="842" 
d="M387 388h69q15 0 23.5 2.5t13.5 7.5q14 11 14 31q0 19 -14 30q-5 5 -13.5 7.5t-23.5 2.5h-69v-81zM421 725q78 0 146.5 -29.5t119.5 -80t80 -119t29 -146.5t-29 -146.5t-80 -119t-119.5 -80t-146.5 -29.5t-146.5 29.5t-119.5 80t-80 119t-29 146.5t29 146.5t80 119
t119.5 80t146.5 29.5zM421 50q62 0 117 23.5t95.5 64t64 95.5t23.5 117t-23.5 117t-64 95.5t-95.5 64t-117 23.5t-117 -23.5t-95.5 -64t-64 -95.5t-23.5 -117t23.5 -117t64 -95.5t95.5 -64t117 -23.5zM387 315v-156h-80v383h146q38 0 60.5 -8.5t37.5 -22.5q17 -16 26.5 -37
t9.5 -46t-9.5 -45.5t-26.5 -36.5q-15 -14 -37.5 -22.5t-60.5 -8.5h-66z" />
    <glyph glyph-name="trademark" unicode="&#x2122;" horiz-adv-x="835" 
d="M368 317v383h55l141 -209l139 209h55v-383h-78v223l-111 -165h-12l-111 165v-223h-78zM133 317v308h-100v75h280v-75h-100v-308h-80z" />
    <glyph glyph-name="Omega" unicode="&#x2126;" horiz-adv-x="803" 
d="M169 340q0 -49 13 -90.5t35.5 -75.5t53 -59t66.5 -40v-75h-283v111h107q-54 39 -83 101.5t-29 143.5q0 76 26.5 141t74 112.5t112 74t139.5 26.5q76 0 140.5 -26.5t111.5 -74t74 -112.5t27 -141q0 -81 -29.5 -143.5t-82.5 -101.5h107v-111h-284v75q36 15 67 40t53.5 59
t35.5 75.5t13 90.5q0 54 -15.5 101t-45.5 81.5t-73.5 54.5t-98.5 20t-98 -20t-73 -54.5t-45.5 -81.5t-15.5 -101z" />
    <glyph glyph-name="estimated" unicode="&#x212e;" horiz-adv-x="801" 
d="M408 -10q-74 0 -139.5 28.5t-114.5 77.5t-77.5 114.5t-28.5 139.5t28.5 139.5t77.5 114.5t114.5 77.5t139.5 28.5t139.5 -28.5t114.5 -77.5t77.5 -114.5t28.5 -139.5v-15t-1 -15h-589v-176q42 -48 101.5 -76t128.5 -28q78 0 140.5 31t105.5 83l38 -32q-50 -60 -123 -96
t-161 -36zM178 370h460v189q-43 47 -102 74t-128 27t-128.5 -27.5t-101.5 -75.5v-187z" />
    <glyph glyph-name="uni2150" unicode="&#x2150;" horiz-adv-x="715" 
d="M151 700h55v-360h-85v256l-82 -44v88zM170 0h-96l409 700h96zM434 360h250v-45l-141 -315h-91l126 282h-144v78z" />
    <glyph glyph-name="uni2151" unicode="&#x2151;" horiz-adv-x="711" 
d="M151 700h55v-360h-85v256l-82 -44v88zM170 0h-96l409 700h96zM541 370q28 0 53 -9t44 -25.5t30 -40t11 -51.5q0 -27 -10 -50.5t-22 -43.5l-95 -150h-96l74 118q-54 0 -90 33.5t-36 88.5q0 28 10.5 52t29 41.5t43.5 27t54 9.5zM540 292q-21 0 -36 -15t-15 -36
q0 -22 14.5 -37t37.5 -15q22 0 37 12q6 8 11 17.5t5 22.5q0 22 -15.5 36.5t-38.5 14.5z" />
    <glyph glyph-name="uni2152" unicode="&#x2152;" horiz-adv-x="961" 
d="M150 700h55v-360h-85v256l-82 -44v88zM169 0h-96l409 700h96zM523 360h55v-360h-85v256l-82 -44v88zM788 370q36 0 62.5 -14.5t43.5 -40t25.5 -60.5t8.5 -75q0 -41 -8.5 -75.5t-25.5 -60t-43.5 -40t-62.5 -14.5t-62.5 14.5t-43.5 40t-25.5 60t-8.5 75.5q0 40 8.5 75
t25.5 60.5t43.5 40t62.5 14.5zM788 70q29 0 42 32.5t13 77.5t-13 77.5t-42 32.5t-42 -32.5t-13 -77.5t13 -77.5t42 -32.5z" />
    <glyph glyph-name="onethird" unicode="&#x2153;" horiz-adv-x="710" 
d="M147 700h55v-360h-85v256l-82 -44v88zM166 0h-96l409 700h96zM595 228q32 -12 53.5 -42t21.5 -69q0 -27 -10.5 -50t-29 -40.5t-43.5 -27t-53 -9.5q-86 0 -129 63l60 49q25 -34 65 -34q21 0 38 13.5t17 37.5q0 22 -15 37t-41 15q-21 0 -42 -8v45l60 74h-122v78h240v-45z
" />
    <glyph glyph-name="twothirds" unicode="&#x2154;" horiz-adv-x="792" 
d="M212 584q0 18 -12 32t-33 14q-18 0 -34 -12.5t-24 -41.5l-72 22q9 47 42.5 79.5t87.5 32.5q28 0 51.5 -10t41 -27t27.5 -39.5t10 -48.5q0 -36 -18.5 -65.5t-49.5 -58.5l-42 -41h110v-80h-255v45l106 104q18 18 30 31t19.5 23.5t11 20t3.5 20.5zM248 0h-96l409 700h96z
M677 228q32 -12 53.5 -42t21.5 -69q0 -27 -10.5 -50t-29 -40.5t-43.5 -27t-53 -9.5q-86 0 -129 63l60 49q25 -34 65 -34q21 0 38 13.5t17 37.5q0 22 -15 37t-41 15q-21 0 -42 -8v45l60 74h-122v78h240v-45z" />
    <glyph glyph-name="uni2155" unicode="&#x2155;" horiz-adv-x="679" 
d="M147 700h55v-360h-85v256l-82 -44v88zM166 0h-96l409 700h96zM519 240q30 0 52.5 -10.5t38 -27.5t23 -38.5t7.5 -43.5q0 -29 -10 -52.5t-27.5 -41t-42 -27t-54.5 -9.5q-38 0 -68 14t-53 44l61 48q21 -27 55 -27q23 0 38.5 14t15.5 37q0 20 -13.5 35t-38.5 15
q-11 0 -23.5 -3.5t-23.5 -12.5l-51 8l28 198h187v-75h-117l-6 -47q7 2 13 2h9z" />
    <glyph glyph-name="uni2156" unicode="&#x2156;" horiz-adv-x="761" 
d="M212 584q0 18 -12 32t-33 14q-18 0 -34 -12.5t-24 -41.5l-72 22q9 47 42.5 79.5t87.5 32.5q28 0 51.5 -10t41 -27t27.5 -39.5t10 -48.5q0 -36 -18.5 -65.5t-49.5 -58.5l-42 -41h110v-80h-255v45l106 104q18 18 30 31t19.5 23.5t11 20t3.5 20.5zM248 0h-96l409 700h96z
M601 240q30 0 52.5 -10.5t38 -27.5t23 -38.5t7.5 -43.5q0 -29 -10 -52.5t-27.5 -41t-42 -27t-54.5 -9.5q-38 0 -68 14t-53 44l61 48q21 -27 55 -27q23 0 38.5 14t15.5 37q0 20 -13.5 35t-38.5 15q-11 0 -23.5 -3.5t-23.5 -12.5l-51 8l28 198h187v-75h-117l-6 -47q7 2 13 2h9
z" />
    <glyph glyph-name="uni2157" unicode="&#x2157;" horiz-adv-x="728" 
d="M222 568q32 -12 53.5 -42t21.5 -69q0 -27 -10.5 -50t-29 -40.5t-43.5 -27t-53 -9.5q-86 0 -129 63l60 49q25 -34 65 -34q21 0 38 13.5t17 37.5q0 22 -15 37t-41 15q-21 0 -42 -8v45l60 74h-122v78h240v-45zM213 0h-96l409 700h96zM566 240q30 0 52.5 -10.5t38 -27.5
t23 -38.5t7.5 -43.5q0 -29 -10 -52.5t-27.5 -41t-42 -27t-54.5 -9.5q-38 0 -68 14t-53 44l61 48q21 -27 55 -27q23 0 38.5 14t15.5 37q0 20 -13.5 35t-38.5 15q-11 0 -23.5 -3.5t-23.5 -12.5l-51 8l28 198h187v-75h-117l-6 -47q7 2 13 2h9z" />
    <glyph glyph-name="uni2158" unicode="&#x2158;" horiz-adv-x="765" 
d="M194 340v73h-165v45l190 242h55v-217h60v-70h-60v-73h-80zM137 483h57v73zM245 0h-96l409 700h96zM598 240q30 0 52.5 -10.5t38 -27.5t23 -38.5t7.5 -43.5q0 -29 -10 -52.5t-27.5 -41t-42 -27t-54.5 -9.5q-38 0 -68 14t-53 44l61 48q21 -27 55 -27q23 0 38.5 14t15.5 37
q0 20 -13.5 35t-38.5 15q-11 0 -23.5 -3.5t-23.5 -12.5l-51 8l28 198h187v-75h-117l-6 -47q7 2 13 2h9z" />
    <glyph glyph-name="uni2159" unicode="&#x2159;" horiz-adv-x="679" 
d="M148 700h55v-360h-85v256l-82 -44v88zM167 0h-96l409 700h96zM509 -10q-28 0 -53 9t-44 25.5t-30 40t-11 51.5q0 27 10 50.5t22 43.5l95 150h96l-74 -118q54 0 90 -33.5t36 -88.5q0 -29 -10.5 -52.5t-29 -41t-43.5 -27t-54 -9.5zM510 68q21 0 36 15t15 36q0 22 -14.5 37
t-37.5 15q-22 0 -37 -12q-6 -8 -11 -17.5t-5 -22.5q0 -22 15.5 -36.5t38.5 -14.5z" />
    <glyph glyph-name="uni215A" unicode="&#x215a;" horiz-adv-x="716" 
d="M167 580q30 0 52.5 -10.5t38 -27.5t23 -38.5t7.5 -43.5q0 -29 -10 -52.5t-27.5 -41t-42 -27t-54.5 -9.5q-38 0 -68 14t-53 44l61 48q21 -27 55 -27q23 0 38.5 14t15.5 37q0 20 -13.5 35t-38.5 15q-11 0 -23.5 -3.5t-23.5 -12.5l-51 8l28 198h187v-75h-117l-6 -47
q7 2 13 2h9zM204 0h-96l409 700h96zM546 -10q-28 0 -53 9t-44 25.5t-30 40t-11 51.5q0 27 10 50.5t22 43.5l95 150h96l-74 -118q54 0 90 -33.5t36 -88.5q0 -29 -10.5 -52.5t-29 -41t-43.5 -27t-54 -9.5zM547 68q21 0 36 15t15 36q0 22 -14.5 37t-37.5 15q-22 0 -37 -12
q-6 -8 -11 -17.5t-5 -22.5q0 -22 15.5 -36.5t38.5 -14.5z" />
    <glyph glyph-name="oneeighth" unicode="&#x215b;" horiz-adv-x="699" 
d="M148 700h55v-360h-85v256l-82 -44v88zM167 0h-96l409 700h96zM617 198q22 -15 35.5 -39t13.5 -51q0 -24 -10.5 -45.5t-29 -37.5t-44 -25.5t-56.5 -9.5t-56.5 9.5t-44 25.5t-29 37.5t-10.5 45.5q0 27 13.5 51t35.5 39q-13 13 -21 30.5t-8 37.5q0 22 9 41t25 33t38 22t48 8
t48 -8t38 -22t25 -33t9 -41q0 -20 -8 -37.5t-21 -30.5zM526 293q-15 0 -25.5 -8.5t-10.5 -23.5t10.5 -24t25.5 -9t25.5 9t10.5 24t-10.5 23.5t-25.5 8.5zM526 67q26 0 41 13.5t15 33.5t-15 34t-41 14t-41 -14t-15 -34t15 -33.5t41 -13.5z" />
    <glyph glyph-name="threeeighths" unicode="&#x215c;" horiz-adv-x="746" 
d="M222 568q32 -12 53.5 -42t21.5 -69q0 -27 -10.5 -50t-29 -40.5t-43.5 -27t-53 -9.5q-86 0 -129 63l60 49q25 -34 65 -34q21 0 38 13.5t17 37.5q0 22 -15 37t-41 15q-21 0 -42 -8v45l60 74h-122v78h240v-45zM213 0h-96l409 700h96zM663 198q22 -15 35.5 -39t13.5 -51
q0 -24 -10.5 -45.5t-29 -37.5t-44 -25.5t-56.5 -9.5t-56.5 9.5t-44 25.5t-29 37.5t-10.5 45.5q0 27 13.5 51t35.5 39q-13 13 -21 30.5t-8 37.5q0 22 9 41t25 33t38 22t48 8t48 -8t38 -22t25 -33t9 -41q0 -20 -8 -37.5t-21 -30.5zM572 293q-15 0 -25.5 -8.5t-10.5 -23.5
t10.5 -24t25.5 -9t25.5 9t10.5 24t-10.5 23.5t-25.5 8.5zM572 67q26 0 41 13.5t15 33.5t-15 34t-41 14t-41 -14t-15 -34t15 -33.5t41 -13.5z" />
    <glyph glyph-name="fiveeighths" unicode="&#x215d;" horiz-adv-x="737" 
d="M167 580q30 0 52.5 -10.5t38 -27.5t23 -38.5t7.5 -43.5q0 -29 -10 -52.5t-27.5 -41t-42 -27t-54.5 -9.5q-38 0 -68 14t-53 44l61 48q21 -27 55 -27q23 0 38.5 14t15.5 37q0 20 -13.5 35t-38.5 15q-11 0 -23.5 -3.5t-23.5 -12.5l-51 8l28 198h187v-75h-117l-6 -47
q7 2 13 2h9zM204 0h-96l409 700h96zM654 198q22 -15 35.5 -39t13.5 -51q0 -24 -10.5 -45.5t-29 -37.5t-44 -25.5t-56.5 -9.5t-56.5 9.5t-44 25.5t-29 37.5t-10.5 45.5q0 27 13.5 51t35.5 39q-13 13 -21 30.5t-8 37.5q0 22 9 41t25 33t38 22t48 8t48 -8t38 -22t25 -33t9 -41
q0 -20 -8 -37.5t-21 -30.5zM563 293q-15 0 -25.5 -8.5t-10.5 -23.5t10.5 -24t25.5 -9t25.5 9t10.5 24t-10.5 23.5t-25.5 8.5zM563 67q26 0 41 13.5t15 33.5t-15 34t-41 14t-41 -14t-15 -34t15 -33.5t41 -13.5z" />
    <glyph glyph-name="seveneighths" unicode="&#x215e;" horiz-adv-x="691" 
d="M43 700h250v-45l-141 -315h-91l126 282h-144v78zM159 0h-96l409 700h96zM609 198q22 -15 35.5 -39t13.5 -51q0 -24 -10.5 -45.5t-29 -37.5t-44 -25.5t-56.5 -9.5t-56.5 9.5t-44 25.5t-29 37.5t-10.5 45.5q0 27 13.5 51t35.5 39q-13 13 -21 30.5t-8 37.5q0 22 9 41t25 33
t38 22t48 8t48 -8t38 -22t25 -33t9 -41q0 -20 -8 -37.5t-21 -30.5zM518 293q-15 0 -25.5 -8.5t-10.5 -23.5t10.5 -24t25.5 -9t25.5 9t10.5 24t-10.5 23.5t-25.5 8.5zM518 67q26 0 41 13.5t15 33.5t-15 34t-41 14t-41 -14t-15 -34t15 -33.5t41 -13.5z" />
    <glyph glyph-name="uni215F" unicode="&#x215f;" horiz-adv-x="465" 
d="M157 700h55v-360h-85v256l-82 -44v88zM176 0h-96l409 700h96z" />
    <glyph glyph-name="uni2160" unicode="&#x2160;" horiz-adv-x="294" 
d="M87 0v700h120v-700h-120z" />
    <glyph glyph-name="uni2161" unicode="&#x2161;" horiz-adv-x="588" 
d="M87 0v700h120v-700h-120zM381 0v700h120v-700h-120z" />
    <glyph glyph-name="uni2162" unicode="&#x2162;" horiz-adv-x="882" 
d="M87 0v700h120v-700h-120zM381 0v700h120v-700h-120zM675 0v700h120v-700h-120z" />
    <glyph glyph-name="uni2163" unicode="&#x2163;" horiz-adv-x="961" 
d="M87 0v700h120v-700h-120zM305 700h125l199 -499l199 499h122l-280 -700h-85z" />
    <glyph glyph-name="uni2164" unicode="&#x2164;" horiz-adv-x="667" 
d="M11 700h125l199 -499l199 499h122l-280 -700h-85z" />
    <glyph glyph-name="uni2165" unicode="&#x2165;" horiz-adv-x="961" 
d="M11 700h125l199 -499l199 499h122l-280 -700h-85zM754 0v700h120v-700h-120z" />
    <glyph glyph-name="uni2166" unicode="&#x2166;" horiz-adv-x="1255" 
d="M11 700h125l199 -499l199 499h122l-280 -700h-85zM754 0v700h120v-700h-120zM1048 0v700h120v-700h-120z" />
    <glyph glyph-name="uni2167" unicode="&#x2167;" horiz-adv-x="1549" 
d="M11 700h125l199 -499l199 499h122l-280 -700h-85zM754 0v700h120v-700h-120zM1048 0v700h120v-700h-120zM1342 0v700h120v-700h-120z" />
    <glyph glyph-name="uni2168" unicode="&#x2168;" horiz-adv-x="926" 
d="M87 0v700h120v-700h-120zM895 700l-217 -323l252 -377h-139l-183 273l-183 -273h-135l251 374l-216 326h139l148 -223l148 223h135z" />
    <glyph glyph-name="uni2169" unicode="&#x2169;" horiz-adv-x="632" 
d="M601 700l-217 -323l252 -377h-139l-183 273l-183 -273h-135l251 374l-216 326h139l148 -223l148 223h135z" />
    <glyph glyph-name="uni216A" unicode="&#x216a;" horiz-adv-x="926" 
d="M601 700l-217 -323l252 -377h-139l-183 273l-183 -273h-135l251 374l-216 326h139l148 -223l148 223h135zM719 0v700h120v-700h-120z" />
    <glyph glyph-name="uni216B" unicode="&#x216b;" horiz-adv-x="1220" 
d="M601 700l-217 -323l252 -377h-139l-183 273l-183 -273h-135l251 374l-216 326h139l148 -223l148 223h135zM719 0v700h120v-700h-120zM1013 0v700h120v-700h-120z" />
    <glyph glyph-name="uni216C" unicode="&#x216c;" horiz-adv-x="532" 
d="M87 700h120v-590h300v-110h-420v700z" />
    <glyph glyph-name="uni216D" unicode="&#x216d;" horiz-adv-x="702" 
d="M410 100q65 0 112.5 26.5t86.5 68.5l79 -70q-48 -60 -120.5 -97.5t-157.5 -37.5q-81 0 -148.5 27.5t-116 75.5t-75.5 114t-27 143t27.5 143t75.5 114t113.5 75.5t142.5 27.5q80 0 147 -31t114 -82l-75 -75q-35 35 -81 56.5t-105 21.5q-52 0 -96 -19.5t-75.5 -53
t-49.5 -79.5t-18 -98q0 -53 18 -98.5t50.5 -79t78 -53t100.5 -19.5z" />
    <glyph glyph-name="uni216E" unicode="&#x216e;" horiz-adv-x="746" 
d="M87 700h245q88 0 153 -25.5t112 -70.5q49 -48 77 -113t28 -141t-28 -141t-77 -113q-47 -45 -112 -70.5t-153 -25.5h-245v700zM322 110q69 0 117 19t80 54q30 32 46.5 74t16.5 93t-16.5 93t-46.5 74q-32 35 -80 54t-117 19h-115v-480h115z" />
    <glyph glyph-name="uni216F" unicode="&#x216f;" horiz-adv-x="854" 
d="M87 700h85l257 -375l253 375h85v-700h-117v454l-211 -310h-24l-211 309v-453h-117v700z" />
    <glyph glyph-name="uni2170" unicode="&#x2170;" horiz-adv-x="273" 
d="M79 0v480h115v-480h-115zM64 650q0 30 21 51.5t51 21.5t51.5 -21.5t21.5 -51.5t-21.5 -51t-51.5 -21t-51 21t-21 51z" />
    <glyph glyph-name="uni2171" unicode="&#x2171;" horiz-adv-x="546" 
d="M79 0v480h115v-480h-115zM64 650q0 30 21 51.5t51 21.5t51.5 -21.5t21.5 -51.5t-21.5 -51t-51.5 -21t-51 21t-21 51zM352 0v480h115v-480h-115zM337 650q0 30 21 51.5t51 21.5t51.5 -21.5t21.5 -51.5t-21.5 -51t-51.5 -21t-51 21t-21 51z" />
    <glyph glyph-name="uni2172" unicode="&#x2172;" horiz-adv-x="819" 
d="M79 0v480h115v-480h-115zM64 650q0 30 21 51.5t51 21.5t51.5 -21.5t21.5 -51.5t-21.5 -51t-51.5 -21t-51 21t-21 51zM352 0v480h115v-480h-115zM337 650q0 30 21 51.5t51 21.5t51.5 -21.5t21.5 -51.5t-21.5 -51t-51.5 -21t-51 21t-21 51zM625 0v480h115v-480h-115z
M610 650q0 30 21 51.5t51 21.5t51.5 -21.5t21.5 -51.5t-21.5 -51t-51.5 -21t-51 21t-21 51z" />
    <glyph glyph-name="uni2173" unicode="&#x2173;" horiz-adv-x="808" 
d="M79 0v480h115v-480h-115zM64 650q0 30 21 51.5t51 21.5t51.5 -21.5t21.5 -51.5t-21.5 -51t-51.5 -21t-51 21t-21 51zM288 480h121l134 -305l133 305h117l-212 -480h-81z" />
    <glyph glyph-name="uni2174" unicode="&#x2174;" horiz-adv-x="535" 
d="M15 480h121l134 -305l133 305h117l-212 -480h-81z" />
    <glyph glyph-name="uni2175" unicode="&#x2175;" horiz-adv-x="808" 
d="M15 480h121l134 -305l133 305h117l-212 -480h-81zM614 0v480h115v-480h-115zM599 650q0 30 21 51.5t51 21.5t51.5 -21.5t21.5 -51.5t-21.5 -51t-51.5 -21t-51 21t-21 51z" />
    <glyph glyph-name="uni2176" unicode="&#x2176;" horiz-adv-x="1081" 
d="M15 480h121l134 -305l133 305h117l-212 -480h-81zM614 0v480h115v-480h-115zM599 650q0 30 21 51.5t51 21.5t51.5 -21.5t21.5 -51.5t-21.5 -51t-51.5 -21t-51 21t-21 51zM887 0v480h115v-480h-115zM872 650q0 30 21 51.5t51 21.5t51.5 -21.5t21.5 -51.5t-21.5 -51
t-51.5 -21t-51 21t-21 51z" />
    <glyph glyph-name="uni2177" unicode="&#x2177;" horiz-adv-x="1354" 
d="M15 480h121l134 -305l133 305h117l-212 -480h-81zM614 0v480h115v-480h-115zM599 650q0 30 21 51.5t51 21.5t51.5 -21.5t21.5 -51.5t-21.5 -51t-51.5 -21t-51 21t-21 51zM887 0v480h115v-480h-115zM872 650q0 30 21 51.5t51 21.5t51.5 -21.5t21.5 -51.5t-21.5 -51
t-51.5 -21t-51 21t-21 51zM1160 0v480h115v-480h-115zM1145 650q0 30 21 51.5t51 21.5t51.5 -21.5t21.5 -51.5t-21.5 -51t-51.5 -21t-51 21t-21 51z" />
    <glyph glyph-name="uni2178" unicode="&#x2178;" horiz-adv-x="807" 
d="M79 0v480h115v-480h-115zM64 650q0 30 21 51.5t51 21.5t51.5 -21.5t21.5 -51.5t-21.5 -51t-51.5 -21t-51 21t-21 51zM608 251l187 -251h-137l-119 160l-120 -160h-134l187 249l-172 231h137l104 -140l105 140h134z" />
    <glyph glyph-name="uni2179" unicode="&#x2179;" horiz-adv-x="534" 
d="M335 251l187 -251h-137l-119 160l-120 -160h-134l187 249l-172 231h137l104 -140l105 140h134z" />
    <glyph glyph-name="uni217A" unicode="&#x217a;" horiz-adv-x="807" 
d="M335 251l187 -251h-137l-119 160l-120 -160h-134l187 249l-172 231h137l104 -140l105 140h134zM613 0v480h115v-480h-115zM598 650q0 30 21 51.5t51 21.5t51.5 -21.5t21.5 -51.5t-21.5 -51t-51.5 -21t-51 21t-21 51z" />
    <glyph glyph-name="uni217B" unicode="&#x217b;" horiz-adv-x="1080" 
d="M335 251l187 -251h-137l-119 160l-120 -160h-134l187 249l-172 231h137l104 -140l105 140h134zM613 0v480h115v-480h-115zM598 650q0 30 21 51.5t51 21.5t51.5 -21.5t21.5 -51.5t-21.5 -51t-51.5 -21t-51 21t-21 51zM886 0v480h115v-480h-115zM871 650q0 30 21 51.5
t51 21.5t51.5 -21.5t21.5 -51.5t-21.5 -51t-51.5 -21t-51 21t-21 51z" />
    <glyph glyph-name="uni217C" unicode="&#x217c;" horiz-adv-x="273" 
d="M79 710h115v-710h-115v710z" />
    <glyph glyph-name="uni217D" unicode="&#x217d;" horiz-adv-x="541" 
d="M297 385q-31 0 -56.5 -11.5t-43.5 -31.5t-28 -46t-10 -56q0 -29 10 -55.5t28.5 -46.5t45 -31.5t59.5 -11.5q50 0 81.5 20.5t52.5 45.5l78 -62q-35 -51 -90.5 -80t-121.5 -29q-57 0 -104 19.5t-81.5 53t-53.5 79t-19 98.5q0 52 19 98t52.5 79.5t80 53t101.5 19.5
q61 0 112.5 -25.5t89.5 -72.5l-75 -66q-24 25 -53 42t-74 17z" />
    <glyph glyph-name="uni217E" unicode="&#x217e;" horiz-adv-x="614" 
d="M295 95q39 0 70.5 15.5t54.5 44.5v170q-23 27 -54 43.5t-66 16.5q-31 0 -56.5 -11t-44 -30.5t-29 -46t-10.5 -57.5t10.5 -57.5t28.5 -46t42.5 -30.5t53.5 -11zM535 0h-108v45q-25 -22 -62 -38.5t-85 -16.5q-40 0 -77 13.5t-67 38.5q-42 35 -66.5 86.5t-24.5 111.5
t24.5 111.5t66.5 86.5q30 25 67.5 38.5t81.5 13.5q34 0 69 -11.5t66 -37.5v269h115v-710z" />
    <glyph glyph-name="uni217F" unicode="&#x217f;" horiz-adv-x="944" 
d="M759 260q0 38 -8 60t-23 36q-14 14 -33 21.5t-41 7.5q-23 0 -42 -6.5t-34.5 -16t-27.5 -21t-21 -21.5q2 -15 3.5 -31.5t1.5 -35.5v-253h-115v260q0 38 -8 60t-23 36q-14 14 -33 21.5t-41 7.5q-40 0 -71.5 -19.5t-48.5 -40.5v-325h-115v480h108v-45q25 22 61 38.5t77 16.5
q48 0 90.5 -21t70.5 -56q31 32 73 54.5t100 22.5q51 0 96.5 -20.5t74.5 -57.5q23 -28 33.5 -66t10.5 -95v-251h-115v260z" />
    <glyph glyph-name="uni2189" unicode="&#x2189;" horiz-adv-x="759" 
d="M175 710q36 0 62.5 -14.5t43.5 -40t25.5 -60.5t8.5 -75q0 -41 -8.5 -75.5t-25.5 -60t-43.5 -40t-62.5 -14.5t-62.5 14.5t-43.5 40t-25.5 60t-8.5 75.5q0 40 8.5 75t25.5 60.5t43.5 40t62.5 14.5zM175 410q29 0 42 32.5t13 77.5t-13 77.5t-42 32.5t-42 -32.5t-13 -77.5
t13 -77.5t42 -32.5zM215 0h-96l409 700h96zM644 228q32 -12 53.5 -42t21.5 -69q0 -27 -10.5 -50t-29 -40.5t-43.5 -27t-53 -9.5q-86 0 -129 63l60 49q25 -34 65 -34q21 0 38 13.5t17 37.5q0 22 -15 37t-41 15q-21 0 -42 -8v45l60 74h-122v78h240v-45z" />
    <glyph glyph-name="uni2190" unicode="&#x2190;" horiz-adv-x="968" 
d="M301 490l66 -66l-137 -137h681v-95h-680l136 -136l-66 -66l-250 250z" />
    <glyph glyph-name="arrowup" unicode="&#x2191;" horiz-adv-x="582" 
d="M541 530l-66 -66l-135 135v-679h-99v678l-134 -134l-66 66l250 250z" />
    <glyph glyph-name="uni2192" unicode="&#x2192;" horiz-adv-x="968" 
d="M917 240l-250 -250l-66 66l136 136h-680v95h681l-137 137l66 66z" />
    <glyph glyph-name="arrowdown" unicode="&#x2193;" horiz-adv-x="582" 
d="M291 -80l-250 250l66 66l134 -134v678h99v-679l135 135l66 -66z" />
    <glyph glyph-name="uni2196" unicode="&#x2196;" horiz-adv-x="829" 
d="M427 700v-93h-194l545 -545l-67 -67l-544 544v-193h-94v354h354z" />
    <glyph glyph-name="uni2197" unicode="&#x2197;" horiz-adv-x="829" 
d="M756 700v-354h-94v193l-544 -544l-67 67l545 545h-194v93h354z" />
    <glyph glyph-name="uni2198" unicode="&#x2198;" horiz-adv-x="829" 
d="M402 0v93h194l-545 545l67 67l544 -544v193h94v-354h-354z" />
    <glyph glyph-name="uni2199" unicode="&#x2199;" horiz-adv-x="829" 
d="M73 0v354h94v-193l544 544l67 -67l-545 -545h194v-93h-354z" />
    <glyph glyph-name="uni21B0" unicode="&#x21b0;" horiz-adv-x="770" 
d="M307 683l66 -66l-137 -137h451v-480h-99v385h-351l136 -136l-66 -66l-250 250z" />
    <glyph glyph-name="uni21B1" unicode="&#x21b1;" horiz-adv-x="770" 
d="M713 433l-250 -250l-66 66l136 136h-351v-385h-99v480h451l-137 137l66 66z" />
    <glyph glyph-name="uni21B2" unicode="&#x21b2;" horiz-adv-x="788" 
d="M61 47l250 250l66 -66l-136 -136h351v385h99v-480h-451l137 -137l-66 -66z" />
    <glyph glyph-name="uni21B3" unicode="&#x21b3;" horiz-adv-x="788" 
d="M477 -203l-66 66l137 137h-451v480h99v-385h351l-136 136l66 66l250 -250z" />
    <glyph glyph-name="partialdiff" unicode="&#x2202;" horiz-adv-x="589" 
d="M143 710h134l187 -271q32 -46 56.5 -99t24.5 -105q0 -51 -19 -95.5t-52 -77.5t-79 -52.5t-100 -19.5t-100 19.5t-79.5 52.5t-52 77.5t-18.5 95.5q0 53 18.5 98t50.5 77.5t75 51t93 18.5q5 0 10 -0.5t11 -1.5zM295 95q30 0 55 11.5t43 31t27.5 44.5t9.5 53q0 32 -14 67
t-41 69q-36 12 -72 12q-34 0 -60.5 -12t-45 -32.5t-28 -47t-9.5 -56.5q0 -28 9.5 -53t27.5 -44.5t43 -31t55 -11.5z" />
    <glyph glyph-name="Delta" unicode="&#x2206;" horiz-adv-x="689" 
d="M34 75l267 625h86l268 -625v-75h-621v75zM169 110h347l-173 408z" />
    <glyph glyph-name="product" unicode="&#x220f;" horiz-adv-x="784" 
d="M92 -240v940h600v-940h-120v830h-360v-830h-120z" />
    <glyph glyph-name="summation" unicode="&#x2211;" horiz-adv-x="580" 
d="M176 -124h399v-116h-560v75l266 418l-261 372v75h545v-111h-375l225 -323v-16z" />
    <glyph glyph-name="minus" unicode="&#x2212;" horiz-adv-x="572" 
d="M61 210v100h450v-100h-450z" />
    <glyph glyph-name="uni2215" unicode="&#x2215;" horiz-adv-x="472" 
d="M78 0h-96l409 700h96z" />
    <glyph glyph-name="uni2219" unicode="&#x2219;" horiz-adv-x="366" 
d="M262 239q0 -32 -23 -55t-55 -23t-55 23t-23 55t23 55t55 23t55 -23t23 -55z" />
    <glyph glyph-name="radical" unicode="&#x221a;" horiz-adv-x="621" 
d="M514 700h107l-249 -700h-80l-166 380h-105v100h171l134 -309z" />
    <glyph glyph-name="infinity" unicode="&#x221e;" horiz-adv-x="824" 
d="M240 74q-40 0 -74 15t-59.5 41.5t-40 64t-14.5 82.5t14.5 82.5t40 64t59.5 41.5t74 15q59 0 101 -31.5t71 -82.5q29 51 71 82.5t100 31.5q40 0 74.5 -15t60 -41.5t40 -64t14.5 -82.5t-14.5 -82.5t-40 -64t-60 -41.5t-74.5 -15q-58 0 -100 31.5t-71 82.5
q-29 -51 -71 -82.5t-101 -31.5zM244 174q21 0 38 9.5t30.5 24t24.5 33t20 36.5q-9 18 -20 36t-24.5 33t-30.5 24.5t-38 9.5q-42 0 -64.5 -30.5t-22.5 -72.5t22.5 -72.5t64.5 -30.5zM580 174q42 0 64.5 30.5t22.5 72.5t-22.5 72.5t-64.5 30.5q-21 0 -38 -9.5t-31 -24.5
t-25 -33t-20 -36q9 -18 20 -36.5t25 -33t31 -24t38 -9.5z" />
    <glyph glyph-name="logicaland" unicode="&#x2227;" horiz-adv-x="592" 
d="M-4 0l260 700h80l260 -700h-109l-191 513l-191 -513h-109z" />
    <glyph glyph-name="integral" unicode="&#x222b;" horiz-adv-x="514" 
d="M280 -57q-7 -54 -24.5 -89.5t-47.5 -58.5q-21 -16 -48.5 -25.5t-61.5 -9.5q-42 0 -72 15.5t-48 32.5l62 73q22 -18 51 -18q31 0 49 18q19 18 25 68l71 578q7 54 24.5 89.5t47.5 58.5q21 16 48.5 25.5t61.5 9.5q42 0 72 -15.5t48 -32.5l-62 -73q-23 18 -51 18
q-31 0 -49 -18q-19 -18 -25 -68z" />
    <glyph glyph-name="approxequal" unicode="&#x2248;" horiz-adv-x="572" 
d="M547 424q-8 -29 -21 -55.5t-32.5 -47.5t-46 -33.5t-60.5 -12.5q-36 0 -64 14t-51.5 31t-43.5 31t-40 14q-29 0 -45.5 -24.5t-25.5 -55.5l-90 31q7 28 20.5 55t33 48t46 33.5t60.5 12.5q36 0 64 -14t51.5 -31t43.5 -31t40 -14q29 0 45.5 24.5t25.5 55.5zM547 204
q-8 -29 -21 -55.5t-32.5 -47.5t-46 -33.5t-60.5 -12.5q-36 0 -64 14t-51.5 31t-43.5 31t-40 14q-29 0 -45.5 -24.5t-25.5 -55.5l-90 31q7 28 20.5 55t33 48t46 33.5t60.5 12.5q36 0 64 -14t51.5 -31t43.5 -31t40 -14q29 0 45.5 24.5t25.5 55.5z" />
    <glyph glyph-name="notequal" unicode="&#x2260;" horiz-adv-x="572" 
d="M61 407h254l63 108h113l-63 -108h83v-100h-141l-55 -94h196v-100h-254l-63 -108h-113l63 108h-83v100h141l55 94h-196v100z" />
    <glyph glyph-name="equivalence" unicode="&#x2261;" horiz-adv-x="584" 
d="M67 476h450v-96h-450v96zM67 308h450v-96h-450v96zM67 140h450v-96h-450v96z" />
    <glyph glyph-name="lessequal" unicode="&#x2264;" horiz-adv-x="572" 
d="M509 510v-102l-242 -81l242 -80v-102l-450 150v65zM59 15v100h450v-100h-450z" />
    <glyph glyph-name="greaterequal" unicode="&#x2265;" horiz-adv-x="572" 
d="M513 360v-65l-450 -150v102l242 80l-242 81v102zM63 15v100h450v-100h-450z" />
    <glyph glyph-name="uni22EE" unicode="&#x22ee;" horiz-adv-x="314" 
d="M80 67q0 32 22.5 55t54.5 23t55 -23t23 -55t-23 -54.5t-55 -22.5t-54.5 22.5t-22.5 54.5zM80 350q0 32 22.5 55t54.5 23t55 -23t23 -55t-23 -54.5t-55 -22.5t-54.5 22.5t-22.5 54.5zM80 632q0 32 22.5 55t54.5 23t55 -23t23 -55t-23 -54.5t-55 -22.5t-54.5 22.5
t-22.5 54.5z" />
    </font>
</defs>
</svg>
