<?xml version="1.0" standalone="no"?>
<!DOCTYPE svg PUBLIC "-//W3C//DTD SVG 1.1//EN" "http://www.w3.org/Graphics/SVG/1.1/DTD/svg11.dtd" >
<svg xmlns="http://www.w3.org/2000/svg" xmlns:xlink="http://www.w3.org/1999/xlink" version="1.1">
<metadata>
Created by FontForge 20190801 at Tue Jun 25 09:56:53 2024
 By www-data
(c) 2010-2020, Copyright by Lineto GmbH. All rights reserved.
</metadata>
<defs>
<font id="BrownLLSubBold" horiz-adv-x="590" >
  <font-face 
    font-family="BrownLLSubBold"
    font-weight="700"
    font-stretch="normal"
    units-per-em="1000"
    panose-1="2 11 8 4 1 1 1 1 1 4"
    ascent="800"
    descent="-200"
    x-height="485"
    cap-height="700"
    bbox="-579 -250 1457 982"
    underline-thickness="80"
    underline-position="-100"
    unicode-range="U+000D-FB02"
  />
<missing-glyph horiz-adv-x="657" 
d="M86 0v700h485v-700h-485zM176 85h305v530h-305v-530z" />
    <glyph glyph-name="f_f" unicode="ff" horiz-adv-x="868" 
d="M381 588q-11 8 -25 12.5t-29 4.5t-27 -6t-19 -15q-6 -8 -9.5 -20t-3.5 -38v-41h145v-105h-145v-380h-130v380h-115v105h115v40q0 57 15.5 95t44.5 61q47 39 113 39q37 0 68 -10.5t54 -30.5zM815 588q-11 8 -25 12.5t-29 4.5t-27 -6t-19 -15q-6 -8 -9.5 -20t-3.5 -38v-41
h145v-105h-145v-380h-130v380h-115v105h115v40q0 57 15.5 95t44.5 61q47 39 113 39q37 0 68 -10.5t54 -30.5z" />
    <glyph glyph-name="f_f_i" unicode="ffi" horiz-adv-x="1150" 
d="M381 588q-11 8 -25 12.5t-29 4.5t-27 -6t-19 -15q-6 -8 -9.5 -20t-3.5 -38v-41h145v-105h-145v-380h-130v380h-115v105h115v40q0 57 15.5 95t44.5 61q47 39 113 39q37 0 68 -10.5t54 -30.5zM815 588q-11 8 -25 12.5t-29 4.5t-27 -6t-19 -15q-6 -8 -9.5 -20t-3.5 -38v-41
h145v-105h-145v-380h-130v380h-115v105h115v40q0 57 15.5 95t44.5 61q47 39 113 39q37 0 68 -10.5t54 -30.5zM1074 0h-130v485h130v-485zM927 660q0 34 24 57t58 23t58 -23t24 -57t-24 -57t-58 -23t-58 23t-24 57z" />
    <glyph glyph-name="f_f_j" unicode="ffj" horiz-adv-x="1158" 
d="M381 588q-11 8 -25 12.5t-29 4.5t-27 -6t-19 -15q-6 -8 -9.5 -20t-3.5 -38v-41h145v-105h-145v-380h-130v380h-115v105h115v40q0 57 15.5 95t44.5 61q47 39 113 39q37 0 68 -10.5t54 -30.5zM815 588q-11 8 -25 12.5t-29 4.5t-27 -6t-19 -15q-6 -8 -9.5 -20t-3.5 -38v-41
h145v-105h-145v-380h-130v380h-115v105h115v40q0 57 15.5 95t44.5 61q47 39 113 39q37 0 68 -10.5t54 -30.5zM839 -103q11 -8 25 -12.5t29 -4.5t27 6t19 15q6 8 9.5 20t3.5 38v526h130v-525q0 -57 -15.5 -95t-44.5 -61q-47 -39 -113 -39q-37 0 -68 10.5t-54 30.5zM935 660
q0 34 24 57t58 23t58 -23t24 -57t-24 -57t-58 -23t-58 23t-24 57z" />
    <glyph glyph-name="f_f_l" unicode="ffl" horiz-adv-x="1150" 
d="M381 588q-11 8 -25 12.5t-29 4.5t-27 -6t-19 -15q-6 -8 -9.5 -20t-3.5 -38v-41h145v-105h-145v-380h-130v380h-115v105h115v40q0 57 15.5 95t44.5 61q47 39 113 39q37 0 68 -10.5t54 -30.5zM815 588q-11 8 -25 12.5t-29 4.5t-27 -6t-19 -15q-6 -8 -9.5 -20t-3.5 -38v-41
h145v-105h-145v-380h-130v380h-115v105h115v40q0 57 15.5 95t44.5 61q47 39 113 39q37 0 68 -10.5t54 -30.5zM1074 0h-130v710h130v-710z" />
    <glyph glyph-name="f_f_t" unicode="fft" horiz-adv-x="1320" 
d="M381 588q-11 8 -25 12.5t-29 4.5t-27 -6t-19 -15q-6 -8 -9.5 -20t-3.5 -38v-41h145v-105h-145v-380h-130v380h-115v105h115v40q0 57 15.5 95t44.5 61q47 39 113 39q37 0 68 -10.5t54 -30.5zM815 588q-11 8 -25 12.5t-29 4.5t-27 -6t-19 -15q-6 -8 -9.5 -20t-3.5 -38v-41
h145v-105h-145v-380h-130v380h-115v105h115v40q0 57 15.5 95t44.5 61q47 39 113 39q37 0 68 -10.5t54 -30.5zM1135 168q0 -38 13 -51q15 -15 45 -15q17 0 31.5 4.5t28.5 11.5l42 -92q-25 -17 -54.5 -26.5t-66.5 -9.5q-35 0 -70 11t-61 40q-18 21 -28 50.5t-10 74.5v214h-115
v105h115v155h130v-155h145v-105h-145v-212z" />
    <glyph glyph-name="f_i" unicode="fi" horiz-adv-x="716" 
d="M381 588q-11 8 -25 12.5t-29 4.5t-27 -6t-19 -15q-6 -8 -9.5 -20t-3.5 -38v-41h145v-105h-145v-380h-130v380h-115v105h115v40q0 57 15.5 95t44.5 61q47 39 113 39q37 0 68 -10.5t54 -30.5zM640 0h-130v485h130v-485zM493 660q0 34 24 57t58 23t58 -23t24 -57t-24 -57
t-58 -23t-58 23t-24 57z" />
    <glyph glyph-name="f_j" unicode="fj" horiz-adv-x="724" 
d="M381 588q-11 8 -25 12.5t-29 4.5t-27 -6t-19 -15q-6 -8 -9.5 -20t-3.5 -38v-41h145v-105h-145v-380h-130v380h-115v105h115v40q0 57 15.5 95t44.5 61q47 39 113 39q37 0 68 -10.5t54 -30.5zM405 -103q11 -8 25 -12.5t29 -4.5t27 6t19 15q6 8 9.5 20t3.5 38v526h130v-525
q0 -57 -15.5 -95t-44.5 -61q-47 -39 -113 -39q-37 0 -68 10.5t-54 30.5zM501 660q0 34 24 57t58 23t58 -23t24 -57t-24 -57t-58 -23t-58 23t-24 57z" />
    <glyph glyph-name="f_l" unicode="fl" horiz-adv-x="716" 
d="M381 588q-11 8 -25 12.5t-29 4.5t-27 -6t-19 -15q-6 -8 -9.5 -20t-3.5 -38v-41h145v-105h-145v-380h-130v380h-115v105h115v40q0 57 15.5 95t44.5 61q47 39 113 39q37 0 68 -10.5t54 -30.5zM640 0h-130v710h130v-710z" />
    <glyph glyph-name="f_t" unicode="ft" horiz-adv-x="886" 
d="M381 588q-11 8 -25 12.5t-29 4.5t-27 -6t-19 -15q-6 -8 -9.5 -20t-3.5 -38v-41h145v-105h-145v-380h-130v380h-115v105h115v40q0 57 15.5 95t44.5 61q47 39 113 39q37 0 68 -10.5t54 -30.5zM701 168q0 -38 13 -51q15 -15 45 -15q17 0 31.5 4.5t28.5 11.5l42 -92
q-25 -17 -54.5 -26.5t-66.5 -9.5q-35 0 -70 11t-61 40q-18 21 -28 50.5t-10 74.5v214h-115v105h115v155h130v-155h145v-105h-145v-212z" />
    <glyph glyph-name=".notdef" horiz-adv-x="657" 
d="M86 0v700h485v-700h-485zM176 85h305v530h-305v-530z" />
    <glyph glyph-name=".null" horiz-adv-x="0" 
 />
    <glyph glyph-name="nonmarkingreturn" unicode="&#xd;" horiz-adv-x="242" 
 />
    <glyph glyph-name="space" unicode=" " horiz-adv-x="242" 
 />
    <glyph glyph-name="exclam" unicode="!" horiz-adv-x="348" 
d="M216 230h-84l-23 255v215h130v-215zM89 73q0 35 25 59t60 24t60 -24t25 -59t-25 -59t-60 -24t-60 24t-25 59z" />
    <glyph glyph-name="quotedbl" unicode="&#x22;" horiz-adv-x="450" 
d="M162 410h-84l-23 290h130zM372 410h-84l-23 290h130z" />
    <glyph glyph-name="numbersign" unicode="#" horiz-adv-x="677" 
d="M270 295h106l30 110h-106zM216 515l49 185h114l-49 -185h106l49 185h114l-49 -185h91v-110h-120l-31 -110h91v-110h-120l-49 -185h-114l49 185h-106l-49 -185h-114l49 185h-91v110h120l30 110h-91v110h121z" />
    <glyph glyph-name="dollar" unicode="$" horiz-adv-x="570" 
d="M106 209q36 -30 81 -49.5t102 -19.5q51 0 78 22t27 52q0 20 -12.5 34t-33.5 24.5t-48 19.5t-56 19q-33 11 -65 25.5t-57.5 35.5t-41.5 51.5t-16 73.5q0 39 14 69t37.5 51.5t54.5 35.5t65 21v106h120v-105q42 -6 83 -23t76 -43l-64 -95q-29 20 -66 33t-82 13
q-49 0 -76 -18.5t-27 -45.5q0 -15 13 -26.5t34 -20.5t48 -18t56 -19q33 -12 65 -27.5t57.5 -38.5t41 -54.5t15.5 -75.5q0 -35 -12.5 -65.5t-35 -55.5t-55 -43t-71.5 -26v-106h-120v104q-54 8 -108.5 32.5t-97.5 66.5z" />
    <glyph glyph-name="percent" unicode="%" horiz-adv-x="899" 
d="M192 0l409 700h106l-409 -700h-106zM31 520q0 40 14 75t39.5 60.5t60.5 40t76 14.5t76 -14.5t60.5 -40t39.5 -60.5t14 -75q0 -41 -14 -75.5t-39.5 -60t-60.5 -40t-76 -14.5t-76 14.5t-60.5 40t-39.5 60t-14 75.5zM291 520q0 35 -19 57.5t-51 22.5t-51 -22.5t-19 -57.5
t19 -57.5t51 -22.5t51 22.5t19 57.5zM488 180q0 40 14 75t39.5 60.5t60.5 40t76 14.5t76 -14.5t60.5 -40t39.5 -60.5t14 -75q0 -41 -14 -75.5t-39.5 -60t-60.5 -40t-76 -14.5t-76 14.5t-60.5 40t-39.5 60t-14 75.5zM748 180q0 35 -19 57.5t-51 22.5t-51 -22.5t-19 -57.5
t19 -57.5t51 -22.5t51 22.5t19 57.5z" />
    <glyph glyph-name="ampersand" unicode="&#x26;" horiz-adv-x="696" 
d="M604 451q3 -9 6.5 -24.5t6.5 -34t5.5 -39.5t2.5 -42q0 -51 -10.5 -96.5t-32.5 -82.5l115 -132h-162l-37 42q-43 -28 -89.5 -40t-106.5 -12q-51 0 -98 16t-83 46t-57.5 72.5t-21.5 94.5q0 35 10 65t27.5 55.5t40 46.5t47.5 38q-26 34 -40.5 66.5t-14.5 67.5q0 32 13.5 60
t37 48.5t54 32t63.5 11.5q36 0 67 -12.5t53.5 -34.5t35 -52t12.5 -65q0 -52 -27.5 -89t-64.5 -66l134 -154q5 17 7.5 36t2.5 39q0 32 -4.5 61t-9.5 52zM246 334q-32 -18 -53 -47t-21 -70q0 -48 37 -80t101 -32q29 0 57.5 7t50.5 21zM320 549q0 19 -11 32.5t-30 13.5
q-17 0 -28.5 -13.5t-11.5 -32.5q0 -18 11 -36t25 -34q20 17 32.5 34t12.5 36z" />
    <glyph glyph-name="quotesingle" unicode="'" horiz-adv-x="240" 
d="M162 410h-84l-23 290h130z" />
    <glyph glyph-name="parenleft" unicode="(" horiz-adv-x="328" 
d="M166 230q0 -123 37 -226t93 -186l-95 -68q-71 99 -113 219.5t-42 260.5t42 260.5t113 219.5l95 -68q-56 -83 -93 -186t-37 -226z" />
    <glyph glyph-name="parenright" unicode=")" horiz-adv-x="328" 
d="M162 230q0 123 -37 226t-93 186l95 68q71 -99 113 -219.5t42 -260.5t-42 -260.5t-113 -219.5l-95 68q56 83 93 186t37 226z" />
    <glyph glyph-name="asterisk" unicode="*" horiz-adv-x="518" 
d="M86 334l85 117l-138 45l34 103l137 -44v145h110v-145l137 45l34 -104l-138 -45l85 -117l-88 -64l-85 117l-85 -117z" />
    <glyph glyph-name="plus" unicode="+" horiz-adv-x="580" 
d="M235 315v175h110v-175h175v-110h-175v-175h-110v175h-175v110h175z" />
    <glyph glyph-name="comma" unicode="," horiz-adv-x="332" 
d="M255 150l-130 -290h-90l75 290h145z" />
    <glyph glyph-name="hyphen" unicode="-" horiz-adv-x="440" 
d="M375 315v-110h-310v110h310z" />
    <glyph glyph-name="period" unicode="." horiz-adv-x="320" 
d="M75 73q0 35 25 59t60 24t60 -24t25 -59t-25 -59t-60 -24t-60 24t-25 59z" />
    <glyph glyph-name="slash" unicode="/" horiz-adv-x="490" 
d="M22 0l325 700h120l-325 -700h-120z" />
    <glyph glyph-name="zero" unicode="0" horiz-adv-x="632" 
d="M579 350q0 -84 -18.5 -151t-52.5 -113.5t-83 -71t-109 -24.5t-109 24.5t-83 71t-52.5 113.5t-18.5 151t18.5 151t52.5 113.5t83 71t109 24.5t109 -24.5t83 -71t52.5 -113.5t18.5 -151zM444 350q0 54 -8.5 98.5t-25 76t-40.5 48.5t-54 17t-54 -17t-40.5 -48.5t-25 -76
t-8.5 -98.5t8.5 -98.5t25 -76t40.5 -48.5t54 -17t54 17t40.5 48.5t25 76t8.5 98.5z" />
    <glyph glyph-name="one" unicode="1" horiz-adv-x="386" 
d="M32 600l170 100h95v-700h-135v544l-130 -72v128z" />
    <glyph glyph-name="two" unicode="2" 
d="M273 120h257v-120h-475v80l233 227q52 51 80 89.5t28 83.5q0 23 -8.5 43t-23.5 35t-35.5 23.5t-44.5 8.5q-48 -1 -81.5 -34.5t-45.5 -90.5l-117 30q23 97 87 156t164 59q53 0 97 -18.5t75.5 -50t49 -73.5t17.5 -88q0 -41 -12 -75.5t-33 -65.5t-48 -60t-57 -57z" />
    <glyph glyph-name="three" unicode="3" horiz-adv-x="597" 
d="M382 462q36 -11 65.5 -32t51.5 -50t34 -64.5t12 -74.5q0 -54 -19.5 -99.5t-54 -79.5t-82 -53t-103.5 -19q-80 0 -148.5 36.5t-107.5 113.5l107 58q25 -41 60 -64.5t88 -23.5q25 0 47.5 9.5t40 26.5t27.5 40.5t10 52.5q0 31 -12.5 56.5t-33.5 42.5q-33 27 -86 27
q-24 0 -45.5 -5.5t-42.5 -14.5v80l143 155h-263v120h455v-80z" />
    <glyph glyph-name="four" unicode="4" horiz-adv-x="637" 
d="M484 700v-420h115v-120h-115v-160h-132v160h-328v80l360 460h100zM352 280v175l-136 -175h136z" />
    <glyph glyph-name="five" unicode="5" horiz-adv-x="574" 
d="M132 180q28 -33 60 -51.5t75 -18.5q27 0 50 9t39.5 25.5t26 38.5t9.5 48q0 27 -10 50t-27 39.5t-39.5 25.5t-48.5 9q-32 0 -61 -10.5t-55 -27.5l-84 12l40 371h380v-120h-265l-15 -124q20 8 42 11.5t38 3.5q49 0 92.5 -16.5t76.5 -47.5t52 -75.5t19 -101.5q0 -52 -19 -96
t-53.5 -76t-81.5 -50t-103 -18q-69 0 -128.5 28t-104.5 88z" />
    <glyph glyph-name="six" unicode="6" horiz-adv-x="596" 
d="M432 700l-136 -225h24q48 0 91.5 -16t76.5 -46.5t52.5 -74t19.5 -98.5q0 -57 -21 -103t-56 -78.5t-82 -50.5t-99 -18q-54 0 -101 16.5t-81.5 47t-54.5 74.5t-20 98q0 57 30 119.5t72 131.5l136 223h149zM179 235q0 -57 34.5 -91t88.5 -34q26 0 49 9t40 26t26.5 41t9.5 54
q0 25 -9 48t-26.5 40t-42 27t-54.5 10q-19 0 -37.5 -4t-37.5 -10q-16 -23 -28.5 -53.5t-12.5 -62.5z" />
    <glyph glyph-name="seven" unicode="7" horiz-adv-x="540" 
d="M32 700h480v-80l-287 -620h-143l267 580h-317v120z" />
    <glyph glyph-name="eight" unicode="8" horiz-adv-x="594" 
d="M297 -10q-53 0 -98.5 17.5t-79.5 48t-53 71t-19 87.5q0 60 29 105.5t74 74.5q-27 25 -42.5 58t-15.5 73q0 39 15.5 72.5t43.5 58.5t65 39.5t81 14.5q43 0 80.5 -14.5t65.5 -39.5t43.5 -58.5t15.5 -72.5q0 -40 -16 -73t-43 -58q46 -29 75 -74.5t29 -105.5q0 -47 -19 -87.5
t-53 -71t-79.5 -48t-98.5 -17.5zM182 220q0 -24 9 -44t24.5 -34.5t36.5 -23t45 -8.5t45 8.5t36.5 23t24.5 34.5t9 44t-9 44t-24.5 34.5t-36.5 23t-45 8.5t-45 -8.5t-36.5 -23t-24.5 -34.5t-9 -44zM227 517q0 -32 19.5 -52t50.5 -20t50.5 20t19.5 52t-19.5 52.5t-50.5 20.5
t-50.5 -20.5t-19.5 -52.5z" />
    <glyph glyph-name="nine" unicode="9" horiz-adv-x="596" 
d="M164 0l136 225h-24q-48 0 -91.5 16t-76.5 46.5t-52.5 74t-19.5 98.5q0 57 21 103t56 78.5t82 50.5t99 18q54 0 101 -16.5t81.5 -47t54.5 -74.5t20 -98q0 -57 -30 -119.5t-72 -131.5l-136 -223h-149zM417 465q0 57 -34.5 91t-88.5 34q-26 0 -49 -9t-40 -26t-26.5 -41
t-9.5 -54q0 -26 9 -48.5t26.5 -39.5t42 -27t54.5 -10q19 0 37.5 4t37.5 10q16 23 28.5 53.5t12.5 62.5z" />
    <glyph glyph-name="colon" unicode=":" horiz-adv-x="352" 
d="M91 73q0 35 25 59t60 24t60 -24t25 -59t-25 -59t-60 -24t-60 24t-25 59zM91 412q0 35 25 59t60 24t60 -24t25 -59t-25 -59t-60 -24t-60 24t-25 59z" />
    <glyph glyph-name="semicolon" unicode=";" horiz-adv-x="358" 
d="M260 150l-130 -290h-90l75 290h145zM105 412q0 35 25 59t60 24t60 -24t25 -59t-25 -59t-60 -24t-60 24t-25 59z" />
    <glyph glyph-name="less" unicode="&#x3c;" horiz-adv-x="580" 
d="M512 144v-119l-460 200v70l460 200v-119l-266 -116z" />
    <glyph glyph-name="equal" unicode="=" horiz-adv-x="580" 
d="M520 210v-110h-460v110h460zM520 420v-110h-460v110h460z" />
    <glyph glyph-name="greater" unicode="&#x3e;" horiz-adv-x="580" 
d="M334 260l-266 116v119l460 -200v-70l-460 -200v119z" />
    <glyph glyph-name="question" unicode="?" horiz-adv-x="529" 
d="M171 73q0 35 25 59t60 24t60 -24t25 -59t-25 -59t-60 -24t-60 24t-25 59zM54 564q22 66 75 106t132 40q36 0 72 -12.5t64.5 -36t46 -57t17.5 -74.5q0 -36 -11.5 -62.5t-29 -47.5t-38 -37t-38.5 -29q-20 -15 -33 -28.5t-13 -28.5q0 -11 5 -20.5t15 -20.5l-87 -60
q-5 4 -14 13t-18 22.5t-15.5 31t-6.5 38.5q0 22 7.5 40.5t19.5 35t27.5 30.5t30.5 27q28 23 50 45.5t22 48.5q0 27 -21.5 46t-53.5 19q-34 0 -56.5 -16.5t-35.5 -46.5z" />
    <glyph glyph-name="at" unicode="@" horiz-adv-x="950" 
d="M486 583q-74 0 -133.5 -25t-103.5 -69q-45 -45 -71 -106t-26 -133q0 -69 25 -130t68.5 -106t102 -71t124.5 -26q56 0 109.5 17t94.5 44l56 -84q-51 -38 -115 -61t-138 -23q-92 0 -171.5 34.5t-138.5 94t-93 139.5t-34 172q0 94 35 175.5t96 141.5q58 57 136.5 90
t178.5 33q88 0 164 -30.5t131.5 -84.5t87 -128t31.5 -162q0 -44 -10.5 -88.5t-33 -80.5t-57.5 -58.5t-84 -22.5q-34 0 -66 14.5t-53 38.5q-11 -9 -24 -18t-30.5 -17t-40 -13t-50.5 -5q-35 0 -71.5 14.5t-67.5 42t-50.5 67.5t-19.5 91t19.5 91t50.5 67.5t67.5 42t71.5 14.5
q27 0 55 -7t54 -24v21h106v-241q0 -23 2.5 -35t7.5 -21q6 -10 16 -16.5t26 -6.5q17 0 30.5 13t22.5 34t14 48t5 55q0 65 -23 120t-64 94.5t-97 61.5t-122 22zM354 250q0 -24 8.5 -44.5t23.5 -36.5t36 -25t47 -9q29 0 53.5 11t37.5 27q-1 10 -1.5 20.5t-0.5 23.5v112
q-14 15 -37.5 25.5t-51.5 10.5q-26 0 -47 -9t-36 -25t-23.5 -36.5t-8.5 -44.5z" />
    <glyph glyph-name="A" unicode="A" horiz-adv-x="692" 
d="M6 0l290 700h100l290 -700h-143l-64 155h-270l-64 -155h-139zM259 275h171l-84 215z" />
    <glyph glyph-name="B" unicode="B" horiz-adv-x="641" 
d="M322 700q60 0 95.5 -13t61.5 -36q29 -26 47 -62t18 -79q0 -35 -14 -67t-31 -50q47 -23 76 -71.5t29 -107.5q0 -45 -17.5 -83.5t-46.5 -67.5t-72 -46t-111 -17h-273v700h238zM409 506q0 29 -20 51q-11 12 -28 18.5t-49 6.5h-93v-153h93q32 0 49 6.5t28 18.5q20 22 20 52z
M350 118q36 0 57.5 8.5t35.5 23.5q26 28 26 68q0 39 -26 67q-14 15 -35.5 23.5t-57.5 8.5h-131v-199h131z" />
    <glyph glyph-name="C" unicode="C" horiz-adv-x="711" 
d="M595 508q-37 35 -82 58.5t-104 23.5q-53 0 -95.5 -19t-73 -51.5t-47 -76.5t-16.5 -93q0 -50 16 -93.5t46.5 -76t73.5 -51.5t97 -19q62 0 108.5 23.5t91.5 71.5l87 -76q-48 -63 -122 -101t-165 -38q-81 0 -148.5 27t-116.5 75t-76 114t-27 144t27.5 144t76.5 114t116 75
t146 27q84 0 152.5 -34t116.5 -86z" />
    <glyph glyph-name="D" unicode="D" horiz-adv-x="746" 
d="M569 350q0 44 -13.5 83t-37.5 69q-29 37 -72.5 57.5t-106.5 20.5h-120v-460h120q63 0 106.5 20.5t72.5 57.5q24 30 37.5 69t13.5 83zM324 700q84 0 141 -17t100 -49q65 -48 102 -122t37 -162t-37 -162t-102 -122q-43 -32 -100 -49t-141 -17h-240v700h240z" />
    <glyph glyph-name="E" unicode="E" horiz-adv-x="559" 
d="M219 580v-145h225v-120h-225v-195h295v-120h-430v700h420v-120h-285z" />
    <glyph glyph-name="F" unicode="F" horiz-adv-x="536" 
d="M219 580v-145h225v-120h-225v-315h-135v700h420v-120h-285z" />
    <glyph glyph-name="G" unicode="G" horiz-adv-x="749" 
d="M595 508q-37 35 -82 58.5t-104 23.5q-53 0 -95.5 -19t-73 -51.5t-47 -76.5t-16.5 -93q0 -50 16 -93.5t46.5 -76t73.5 -51.5t97 -19q48 0 85 12.5t72 39.5v153h-185v115h315v-305q-48 -61 -122 -98t-165 -37q-81 0 -148.5 27t-116.5 75t-76 114t-27 144t27.5 144t76.5 114
t116 75t146 27q84 0 152.5 -34t116.5 -86z" />
    <glyph glyph-name="H" unicode="H" horiz-adv-x="773" 
d="M554 315h-335v-315h-135v700h135v-265h335v265h135v-700h-135v315z" />
    <glyph glyph-name="I" unicode="I" horiz-adv-x="303" 
d="M84 700h135v-700h-135v700z" />
    <glyph glyph-name="J" unicode="J" horiz-adv-x="497" 
d="M419 220q0 -42 -5.5 -71.5t-16.5 -52.5q-26 -51 -77 -78.5t-111 -27.5q-63 0 -115.5 31.5t-84.5 91.5l104 56q14 -22 36.5 -40.5t57.5 -18.5q39 0 61 28q8 10 12 24.5t4 42.5v495h135v-480z" />
    <glyph glyph-name="K" unicode="K" horiz-adv-x="670" 
d="M219 339v-339h-135v700h135v-280l267 280h173l-308 -322l328 -378h-171z" />
    <glyph glyph-name="L" unicode="L" horiz-adv-x="538" 
d="M84 700h135v-580h295v-120h-430v700z" />
    <glyph glyph-name="M" unicode="M" horiz-adv-x="858" 
d="M430 341l244 359h100v-700h-133v430l-199 -295h-26l-199 295v-430h-133v700h100z" />
    <glyph glyph-name="N" unicode="N" horiz-adv-x="773" 
d="M689 0h-100l-372 454v-454h-133v700h100l372 -454v454h133v-700z" />
    <glyph glyph-name="O" unicode="O" horiz-adv-x="796" 
d="M177 350q0 -50 16.5 -93.5t45.5 -76t70 -51.5t89 -19t89 19t70 51.5t45.5 76t16.5 93.5q0 49 -16.5 93t-45.5 76.5t-70 51.5t-89 19t-89 -19t-70 -51.5t-45.5 -76.5t-16.5 -93zM754 350q0 -78 -27.5 -144t-75.5 -114t-113 -75t-140 -27t-140 27t-113 75t-75.5 114
t-27.5 144t27.5 144t75.5 114t113 75t140 27t140 -27t113 -75t75.5 -114t27.5 -144z" />
    <glyph glyph-name="P" unicode="P" horiz-adv-x="609" 
d="M329 403q43 0 64.5 8.5t33.5 22.5q22 25 22 59q0 33 -22 58q-12 14 -33.5 22.5t-64.5 8.5h-110v-179h110zM219 285v-285h-135v700h262q74 0 120.5 -22t75.5 -60q42 -54 42 -125q0 -72 -42 -126q-29 -38 -75.5 -60t-120.5 -22h-127z" />
    <glyph glyph-name="Q" unicode="Q" horiz-adv-x="800" 
d="M754 350q0 -68 -20.5 -126t-57.5 -104l107 -120h-153l-39 44q-42 -26 -90.5 -40t-102.5 -14q-75 0 -140 27t-113 75t-75.5 114t-27.5 144t27.5 144t75.5 114t113 75t140 27t140 -27t113 -75t75.5 -114t27.5 -144zM177 350q0 -50 16.5 -93.5t45.5 -76t70 -51.5t89 -19
q30 0 57.5 7.5t50.5 21.5l-157 179l85 74l152 -171q16 28 24.5 61t8.5 68q0 49 -16.5 93t-45.5 76.5t-70 51.5t-89 19t-89 -19t-70 -51.5t-45.5 -76.5t-16.5 -93z" />
    <glyph glyph-name="R" unicode="R" horiz-adv-x="652" 
d="M564 507q0 -68 -37 -118.5t-104 -70.5l241 -318h-162l-232 310h-51v-310h-135v700h267q63 0 106 -21.5t69 -56.5q18 -24 28 -53.5t10 -61.5zM330 425q34 0 52 7.5t29 20.5q18 23 18 51q0 27 -18 50q-11 13 -29 20.5t-52 7.5h-111v-157h111z" />
    <glyph glyph-name="S" unicode="S" horiz-adv-x="557" 
d="M104 178q33 -29 77.5 -48.5t92.5 -19.5q20 0 39.5 5.5t34.5 17t24.5 28.5t9.5 40q0 22 -11.5 37.5t-30 28t-43 22.5t-51.5 20q-23 8 -45 17.5t-42 21.5q-42 24 -69.5 63t-27.5 99q0 48 19 85t50.5 62.5t73.5 39t88 13.5q54 0 105.5 -17.5t96.5 -52.5l-67 -95
q-28 20 -61 32.5t-70 12.5q-51 0 -75.5 -23t-24.5 -52q0 -21 12.5 -35.5t33 -26t47 -21.5t54.5 -22q18 -8 35.5 -16t34.5 -18q43 -25 73 -66.5t30 -107.5q0 -47 -18.5 -85.5t-50.5 -67t-76 -44t-96 -15.5q-146 0 -249 103z" />
    <glyph glyph-name="T" unicode="T" horiz-adv-x="551" 
d="M528 700v-120h-185v-580h-135v580h-185v120h505z" />
    <glyph glyph-name="U" unicode="U" horiz-adv-x="748" 
d="M374 110q38 0 70 14t55 39q18 20 28 47.5t10 72.5v417h135v-407q0 -69 -16.5 -118t-48.5 -85q-42 -48 -102.5 -74t-130.5 -26t-130.5 26t-102.5 74q-32 36 -48.5 85t-16.5 118v407h135v-417q0 -45 10 -72.5t28 -47.5q23 -25 55 -39t70 -14z" />
    <glyph glyph-name="V" unicode="V" horiz-adv-x="670" 
d="M10 700h140l188 -477l184 477h138l-275 -700h-100z" />
    <glyph glyph-name="W" unicode="W" horiz-adv-x="979" 
d="M7 700h139l144 -442l150 442h99l151 -444l147 444h135l-230 -700h-99l-153 453l-154 -453h-99z" />
    <glyph glyph-name="X" unicode="X" horiz-adv-x="650" 
d="M403 373l252 -373h-159l-172 259l-174 -259h-155l252 370l-222 330h158l143 -216l144 216h155z" />
    <glyph glyph-name="Y" unicode="Y" horiz-adv-x="653" 
d="M394 317v-317h-135v317l-240 383h154l155 -249l155 249h151z" />
    <glyph glyph-name="Z" unicode="Z" horiz-adv-x="594" 
d="M28 80l335 500h-305v120h485v-80l-333 -500h353v-120h-535v80z" />
    <glyph glyph-name="bracketleft" unicode="[" horiz-adv-x="390" 
d="M86 700h275v-110h-155v-720h155v-110h-275v940z" />
    <glyph glyph-name="backslash" unicode="\" horiz-adv-x="490" 
d="M143 700l325 -700h-120l-325 700h120z" />
    <glyph glyph-name="bracketright" unicode="]" horiz-adv-x="390" 
d="M304 -240h-275v110h155v720h-155v110h275v-940z" />
    <glyph glyph-name="asciicircum" unicode="^" horiz-adv-x="580" 
d="M245 700h90l185 -350h-124l-106 201l-106 -201h-124z" />
    <glyph glyph-name="underscore" unicode="_" horiz-adv-x="600" 
d="M545 0v-110h-490v110h490z" />
    <glyph glyph-name="grave" unicode="`" horiz-adv-x="340" 
d="M210 718l60 -160h-80l-120 160h140z" />
    <glyph glyph-name="a" unicode="a" horiz-adv-x="624" 
d="M548 485v-485h-120v42q-28 -23 -64.5 -37.5t-82.5 -14.5q-50 0 -93 18.5t-75.5 52.5t-51 80t-18.5 102q0 55 18.5 101.5t50.5 80t75 52t92 18.5q85 0 149 -52v42h120zM173 243q0 -30 10 -55t27.5 -42.5t41 -27.5t49.5 -10q37 0 66.5 15.5t50.5 41.5v155q-49 57 -119 57
q-26 0 -49 -10t-40 -28t-27 -42.5t-10 -53.5z" />
    <glyph glyph-name="b" unicode="b" horiz-adv-x="624" 
d="M206 710v-259q61 44 139 44q49 0 92 -18.5t75 -52t50.5 -80t18.5 -101.5q0 -56 -18.5 -102t-51 -80t-76 -52.5t-92.5 -18.5q-46 0 -82.5 14.5t-64.5 37.5v-42h-120v710h130zM451 243q0 29 -10 53.5t-27 42.5t-40 28t-49 10q-70 0 -119 -57v-155q21 -26 50.5 -41.5
t66.5 -15.5q26 0 49.5 10t41 27.5t27.5 42.5t10 55z" />
    <glyph glyph-name="c" unicode="c" horiz-adv-x="543" 
d="M517 99q-38 -53 -93 -81t-124 -28q-56 0 -103 20t-81.5 54t-54 80t-19.5 98t19.5 98t54 80.5t81.5 54.5t102 20q60 0 111.5 -24.5t91.5 -72.5l-83 -75q-24 23 -51 37.5t-62 14.5q-27 0 -51.5 -10t-42.5 -27.5t-29 -42t-11 -53.5t10 -53t27.5 -41.5t42 -27.5t54.5 -10
q42 0 73.5 18.5t49.5 39.5z" />
    <glyph glyph-name="d" unicode="d" horiz-adv-x="624" 
d="M548 0h-120v42q-28 -23 -64.5 -37.5t-82.5 -14.5q-50 0 -93 18.5t-75.5 52.5t-51 80t-18.5 102q0 55 18.5 101.5t50.5 80t75 52t92 18.5q78 0 139 -44v259h130v-710zM173 243q0 -30 10 -55t27.5 -42.5t41 -27.5t49.5 -10q37 0 66.5 15.5t50.5 41.5v155q-49 57 -119 57
q-26 0 -49 -10t-40 -28t-27 -42.5t-10 -53.5z" />
    <glyph glyph-name="e" unicode="e" horiz-adv-x="550" 
d="M496 77q-37 -42 -90.5 -64.5t-112.5 -22.5q-54 0 -99.5 18t-79 51t-52.5 79.5t-19 103.5q0 51 16 96.5t46.5 80.5t74.5 55.5t99 20.5q52 0 94.5 -20t72.5 -53.5t46 -78.5t16 -96q0 -21 -3 -37h-337q3 -26 14 -46t28.5 -34.5t40.5 -22t49 -7.5q42 0 73.5 17.5t50.5 35.5z
M378 300q-3 35 -29 61.5t-70 26.5q-45 0 -73.5 -26.5t-33.5 -61.5h206z" />
    <glyph glyph-name="f" unicode="f" horiz-adv-x="434" 
d="M381 588q-11 8 -25 12.5t-29 4.5t-27 -6t-19 -15q-6 -8 -9.5 -20t-3.5 -38v-41h145v-105h-145v-380h-130v380h-115v105h115v40q0 57 15.5 95t44.5 61q47 39 113 39q37 0 68 -10.5t54 -30.5z" />
    <glyph glyph-name="g" unicode="g" horiz-adv-x="624" 
d="M548 485v-443q0 -66 -11 -107.5t-33 -72.5q-33 -46 -89 -71.5t-126 -25.5q-36 0 -70 7.5t-64 21t-55.5 32t-43.5 39.5l78 80q10 -9 24 -20t33 -21t43.5 -17t54.5 -7q32 0 57 9.5t42 29.5q15 17 22.5 42t7.5 73q-26 -20 -60.5 -32t-76.5 -12q-50 0 -93 18.5t-75.5 52.5
t-51 80t-18.5 102q0 55 18.5 101.5t50.5 80t75 52t92 18.5q85 0 149 -52v42h120zM173 243q0 -30 10 -55t27.5 -42.5t41 -27.5t49.5 -10q37 0 66.5 15.5t50.5 41.5v155q-49 57 -119 57q-26 0 -49 -10t-40 -28t-27 -42.5t-10 -53.5z" />
    <glyph glyph-name="h" unicode="h" horiz-adv-x="624" 
d="M76 0v710h130v-260q28 21 62.5 33t72.5 12q50 0 93.5 -20t72.5 -55q24 -29 36.5 -69.5t12.5 -103.5v-247h-130v259q0 36 -7.5 56.5t-21.5 34.5q-27 27 -73 27q-21 0 -39.5 -6t-33.5 -15t-26.5 -19.5t-18.5 -19.5v-317h-130z" />
    <glyph glyph-name="i" unicode="i" horiz-adv-x="282" 
d="M206 0h-130v485h130v-485zM59 660q0 34 24 57t58 23t58 -23t24 -57t-24 -57t-58 -23t-58 23t-24 57z" />
    <glyph glyph-name="j" unicode="j" horiz-adv-x="290" 
d="M-29 -103q11 -8 25 -12.5t29 -4.5t27 6t19 15q6 8 9.5 20t3.5 38v526h130v-525q0 -57 -15.5 -95t-44.5 -61q-47 -39 -113 -39q-37 0 -68 10.5t-54 30.5zM67 660q0 34 24 57t58 23t58 -23t24 -57t-24 -57t-58 -23t-58 23t-24 57z" />
    <glyph glyph-name="k" unicode="k" horiz-adv-x="567" 
d="M332 264l234 -264h-171l-189 213v-213h-130v710h130v-404l176 179h169z" />
    <glyph glyph-name="l" unicode="l" horiz-adv-x="282" 
d="M206 0h-130v710h130v-710z" />
    <glyph glyph-name="m" unicode="m" horiz-adv-x="954" 
d="M76 0v485h120v-43q26 26 63.5 39.5t75.5 13.5q49 0 90.5 -21t69.5 -55q29 31 73.5 53.5t98.5 22.5q52 0 97 -20t74 -56q23 -29 35.5 -68.5t12.5 -93.5v-257h-130v264q0 33 -6.5 51.5t-17.5 31.5q-15 17 -34.5 23.5t-38.5 6.5q-21 0 -39.5 -6.5t-33.5 -16t-26.5 -21
t-17.5 -20.5q2 -12 3 -25.5t1 -28.5v-259h-130v264q0 33 -6.5 51.5t-17.5 31.5q-15 17 -34.5 23.5t-38.5 6.5q-21 0 -38.5 -6t-32 -15t-25 -19.5t-17.5 -19.5v-317h-130z" />
    <glyph glyph-name="n" unicode="n" horiz-adv-x="624" 
d="M76 0v485h120v-43q29 25 66.5 39t78.5 14q50 0 93.5 -20t72.5 -55q24 -29 36.5 -69.5t12.5 -103.5v-247h-130v259q0 36 -7.5 56.5t-21.5 34.5q-27 27 -73 27q-21 0 -39.5 -6t-33.5 -15t-26.5 -19.5t-18.5 -19.5v-317h-130z" />
    <glyph glyph-name="o" unicode="o" horiz-adv-x="594" 
d="M172 242q0 -27 9 -51.5t25 -43t39 -29t52 -10.5q28 0 51.5 10.5t39.5 29t25 43t9 51.5t-9 51.5t-25 43t-39.5 29.5t-51.5 11q-29 0 -52 -11t-39 -29.5t-25 -43t-9 -51.5zM42 242q0 52 19.5 98.5t53.5 80.5t80.5 54t101.5 20t101.5 -20t80.5 -54t53.5 -80.5t19.5 -98.5
q0 -53 -19.5 -98.5t-53.5 -80t-80.5 -54t-101.5 -19.5t-101.5 19.5t-80.5 54t-53.5 80t-19.5 98.5z" />
    <glyph glyph-name="p" unicode="p" horiz-adv-x="624" 
d="M196 485v-42q64 52 149 52q49 0 92 -18.5t75 -52t50.5 -80t18.5 -101.5q0 -56 -18.5 -102t-51 -80t-76 -52.5t-92.5 -18.5q-42 0 -76.5 12t-60.5 32v-259h-130v710h120zM451 243q0 29 -10 53.5t-27 42.5t-40 28t-49 10q-70 0 -119 -57v-155q21 -26 50.5 -41.5t66.5 -15.5
q26 0 49.5 10t41 27.5t27.5 42.5t10 55z" />
    <glyph glyph-name="q" unicode="q" horiz-adv-x="624" 
d="M548 485v-710h-130v259q-26 -20 -60.5 -32t-76.5 -12q-50 0 -93 18.5t-75.5 52.5t-51 80t-18.5 102q0 55 18.5 101.5t50.5 80t75 52t92 18.5q85 0 149 -52v42h120zM173 243q0 -30 10 -55t27.5 -42.5t41 -27.5t49.5 -10q37 0 66.5 15.5t50.5 41.5v155q-49 57 -119 57
q-26 0 -49 -10t-40 -28t-27 -42.5t-10 -53.5z" />
    <glyph glyph-name="r" unicode="r" horiz-adv-x="405" 
d="M381 371q-10 2 -20.5 2.5t-24.5 0.5q-36 0 -71.5 -16.5t-58.5 -52.5v-305h-130v485h125v-49q22 27 59 41.5t82 14.5q20 0 39 -4v-117z" />
    <glyph glyph-name="s" unicode="s" horiz-adv-x="459" 
d="M94 145q25 -19 60.5 -32t72.5 -13q26 0 44 11.5t18 29.5q0 12 -8 21t-21 16t-30.5 13t-36.5 13q-24 9 -49 19.5t-45 26.5t-32.5 38.5t-12.5 55.5q0 35 15.5 63t41.5 47.5t59.5 30t69.5 10.5q48 0 91.5 -15.5t70.5 -37.5l-58 -88q-20 13 -44 22t-50 9q-27 0 -46.5 -8.5
t-19.5 -27.5q0 -11 9 -18.5t24.5 -14t35 -13l40.5 -13.5q23 -9 45.5 -20.5t40.5 -28.5t29 -41t11 -58q0 -37 -16.5 -65t-43 -47.5t-60.5 -29.5t-70 -10q-52 0 -102.5 16.5t-95.5 53.5z" />
    <glyph glyph-name="t" unicode="t" horiz-adv-x="452" 
d="M267 168q0 -38 13 -51q15 -15 45 -15q17 0 31.5 4.5t28.5 11.5l42 -92q-25 -17 -54.5 -26.5t-66.5 -9.5q-35 0 -70 11t-61 40q-18 21 -28 50.5t-10 74.5v214h-115v105h115v155h130v-155h145v-105h-145v-212z" />
    <glyph glyph-name="u" unicode="u" horiz-adv-x="615" 
d="M539 485v-485h-120v43q-28 -25 -63.5 -39t-75.5 -14q-50 0 -92.5 20.5t-70.5 55.5q-23 29 -35.5 68.5t-12.5 93.5v257h130v-264q0 -33 6.5 -51.5t17.5 -31.5q15 -17 34.5 -23.5t38.5 -6.5q21 0 38.5 6t32 15t25 19.5t17.5 19.5v317h130z" />
    <glyph glyph-name="v" unicode="v" horiz-adv-x="554" 
d="M279 197l130 288h133l-220 -485h-90l-220 485h137z" />
    <glyph glyph-name="w" unicode="w" horiz-adv-x="818" 
d="M287 0h-90l-183 485h135l103 -277l112 277h90l114 -279l105 279h131l-183 -485h-90l-123 294z" />
    <glyph glyph-name="x" unicode="x" horiz-adv-x="544" 
d="M273 358l90 127h151l-166 -226l189 -259h-154l-112 158l-113 -158h-151l189 258l-166 227h154z" />
    <glyph glyph-name="y" unicode="y" horiz-adv-x="582" 
d="M109 -225l125 269l-222 441h139l150 -302l137 302h134l-329 -710h-134z" />
    <glyph glyph-name="z" unicode="z" horiz-adv-x="502" 
d="M444 405l-226 -295h246v-110h-425v80l225 295h-205v110h385v-80z" />
    <glyph glyph-name="braceleft" unicode="{" horiz-adv-x="379" 
d="M230 522q0 -37 5 -86t5 -89q0 -32 -6.5 -52.5t-16.5 -33t-23.5 -19.5t-26.5 -12q13 -5 26.5 -12t23.5 -19.5t16.5 -33t6.5 -52.5q0 -40 -5 -89t-5 -86q0 -41 27 -57q11 -6 25.5 -8.5t43.5 -2.5h19v-107q-9 -2 -19 -2.5t-25 -0.5q-42 0 -77.5 11.5t-60.5 34.5t-39 56
t-14 77t5 93.5t5 89.5q0 38 -24 53t-66 15v80q42 0 66 15t24 53q0 40 -5 89.5t-5 93.5q0 43 14 76.5t39 56.5t60.5 34.5t77.5 11.5q15 0 25 -0.5t19 -2.5v-107h-19q-29 0 -43.5 -2.5t-25.5 -8.5q-27 -16 -27 -57z" />
    <glyph glyph-name="bar" unicode="|" horiz-adv-x="292" 
d="M206 -240h-120v940h120v-940z" />
    <glyph glyph-name="braceright" unicode="}" horiz-adv-x="379" 
d="M149 522q0 41 -27 57q-11 6 -25.5 8.5t-43.5 2.5h-19v107q9 2 19 2.5t25 0.5q42 0 77.5 -11.5t60.5 -34.5t39 -56.5t14 -76.5q0 -44 -5 -93.5t-5 -89.5q0 -38 24 -53t66 -15v-80q-42 0 -66 -15t-24 -53q0 -40 5 -89.5t5 -93.5t-14 -77t-39 -56t-60.5 -34.5t-77.5 -11.5
q-15 0 -25 0.5t-19 2.5v107h19q29 0 43.5 2.5t25.5 8.5q27 16 27 57q0 37 -5 86t-5 89q0 32 6.5 52.5t16.5 33t23 19.5t27 12q-14 5 -27 12t-23 19.5t-16.5 33t-6.5 52.5q0 40 5 89t5 86z" />
    <glyph glyph-name="asciitilde" unicode="~" horiz-adv-x="580" 
d="M27 195q6 31 19.5 60.5t34.5 52t49.5 36t64.5 13.5t63.5 -13t49.5 -29t40.5 -29t36.5 -13q26 0 42.5 23t22.5 56l107 -27q-6 -31 -19.5 -60.5t-34.5 -52t-49.5 -36t-64.5 -13.5t-63.5 13t-49.5 29t-40.5 29t-36.5 13q-26 0 -42.5 -23t-22.5 -56z" />
    <glyph glyph-name="uni00A0" unicode="&#xa0;" horiz-adv-x="242" 
 />
    <glyph glyph-name="exclamdown" unicode="&#xa1;" horiz-adv-x="282" 
d="M56 412q0 35 25 59t60 24t60 -24t25 -59t-25 -59t-60 -24t-60 24t-25 59zM206 -10v-215h-130v215l23 255h84z" />
    <glyph glyph-name="cent" unicode="&#xa2;" horiz-adv-x="551" 
d="M520 289q-32 -43 -74 -70t-94 -35v-99h-120v104q-42 11 -76.5 34t-59 55t-38 71t-13.5 83q0 43 13.5 82.5t38.5 71.5t59.5 55t75.5 34v105h120v-100q90 -17 153 -92l-83 -75q-24 23 -51 37.5t-62 14.5q-27 0 -51.5 -10t-42.5 -27.5t-29 -42t-11 -53.5t10 -53t27.5 -41.5
t42 -27.5t54.5 -10q42 0 73.5 18.5t49.5 39.5z" />
    <glyph glyph-name="sterling" unicode="&#xa3;" horiz-adv-x="592" 
d="M324 590q-25 0 -46.5 -9t-37 -24.5t-24 -36.5t-8.5 -45q0 -36 13 -67.5t30 -63.5h191v-100h-154q2 -10 3.5 -19t1.5 -19q0 -24 -8.5 -46t-26.5 -40h280v-120h-480v80q18 7 37 17.5t34 25.5t24.5 34.5t9.5 43.5q0 22 -6 43h-99v100h57q-17 31 -29.5 65t-12.5 76
q0 46 18.5 87t51.5 72t79 48.5t102 17.5q46 0 83 -13.5t65.5 -37t49.5 -55.5t36 -69l-116 -45q-17 47 -46 73.5t-72 26.5z" />
    <glyph glyph-name="currency" unicode="&#xa4;" horiz-adv-x="630" 
d="M525 350q0 -29 -7 -54t-20 -48l82 -81l-81 -82l-83 82q-47 -25 -101 -25t-101 25l-83 -82l-81 82l82 81q-13 23 -20 48t-7 54q0 28 7 53.5t20 48.5l-82 81l81 82l83 -83q23 12 48 19t53 7q27 0 52.5 -7t48.5 -19l83 83l81 -82l-82 -81q13 -23 20 -48.5t7 -53.5zM405 350
q0 39 -26 65t-64 26t-64 -26t-26 -65t26 -65t64 -26t64 26t26 65z" />
    <glyph glyph-name="yen" unicode="&#xa5;" horiz-adv-x="675" 
d="M432 360l-27 -43v-17h193v-100h-193v-200h-135v200h-193v100h193v17l-28 43h-165v100h103l-150 240h154l155 -249l155 249h151l-150 -240h103v-100h-166z" />
    <glyph glyph-name="brokenbar" unicode="&#xa6;" horiz-adv-x="292" 
d="M206 -240h-120v390h120v-390zM206 310h-120v390h120v-390z" />
    <glyph glyph-name="section" unicode="&#xa7;" horiz-adv-x="579" 
d="M409 213q0 27 -15.5 44t-40 29.5t-56 22t-63.5 21.5q-7 2 -13.5 4.5t-12.5 5.5q-19 -12 -28.5 -33.5t-9.5 -44.5q0 -27 15.5 -44t40 -29.5t56 -22t63.5 -21.5q7 -2 13.5 -4.5t12.5 -5.5q19 12 28.5 33.5t9.5 44.5zM501 -38q0 -44 -18 -80t-49 -62t-73.5 -40.5
t-90.5 -14.5q-54 0 -105.5 17.5t-96.5 52.5l66 94q28 -19 61.5 -31.5t70.5 -12.5q51 0 75.5 23t24.5 55q0 16 -9 29t-24 23t-35.5 18.5t-43.5 16.5q-36 13 -74 28t-69.5 38.5t-52 58t-20.5 85.5q0 46 19 86.5t51 68.5q-14 20 -22 44t-8 54q0 43 18 79.5t49 62.5t73.5 40.5
t90.5 14.5q54 0 105.5 -17.5t96.5 -52.5l-66 -94q-28 19 -61.5 31.5t-70.5 12.5q-51 0 -75.5 -23t-24.5 -55t31.5 -50.5t76.5 -34.5q36 -13 75 -28.5t71 -38.5t53 -58t21 -87q0 -46 -19 -86.5t-51 -68.5q14 -20 22 -44t8 -54z" />
    <glyph glyph-name="dieresis" unicode="&#xa8;" horiz-adv-x="510" 
d="M70 639q0 33 23.5 55t56.5 22t56.5 -22t23.5 -55t-23.5 -55.5t-56.5 -22.5t-56.5 22.5t-23.5 55.5zM280 639q0 33 23.5 55t56.5 22t56.5 -22t23.5 -55t-23.5 -55.5t-56.5 -22.5t-56.5 22.5t-23.5 55.5z" />
    <glyph glyph-name="copyright" unicode="&#xa9;" horiz-adv-x="838" 
d="M527 429q-17 17 -42 29.5t-60 12.5q-25 0 -46.5 -9t-37.5 -25t-25.5 -38.5t-9.5 -48.5q0 -25 9.5 -47t26 -38t39 -25.5t48.5 -9.5q34 0 60.5 13.5t48.5 36.5l55 -53q-27 -34 -69.5 -55.5t-93.5 -21.5q-46 0 -84.5 15t-66.5 42t-44 63.5t-16 79.5t15.5 80t43 64t64.5 42
t80 15q49 0 89.5 -18t67.5 -50zM129 350q0 -61 22.5 -114.5t61.5 -93.5t92 -63.5t114 -23.5t114 23.5t92 63.5t61.5 93.5t22.5 114.5t-22.5 114.5t-61.5 93.5t-92 63.5t-114 23.5t-114 -23.5t-92 -63.5t-61.5 -93.5t-22.5 -114.5zM419 -25q-79 0 -147.5 29.5t-119 80.5
t-79.5 119t-29 146t29 146t79.5 119t119 80.5t147.5 29.5t147.5 -29.5t119 -80.5t79.5 -119t29 -146t-29 -146t-79.5 -119t-119 -80.5t-147.5 -29.5z" />
    <glyph glyph-name="ordfeminine" unicode="&#xaa;" horiz-adv-x="436" 
d="M368 396h-89v22q-34 -28 -85 -28q-33 0 -63 14.5t-50 37.5q-18 21 -28.5 48.5t-10.5 59.5q0 34 12 63t32 50.5t47.5 34t59.5 12.5q51 0 86 -28v22h89v-308zM278 593q-12 17 -29.5 27t-40.5 10q-35 0 -55.5 -24t-20.5 -56q0 -34 22 -57t55 -23q23 0 40.5 9.5t28.5 26.5v87
z" />
    <glyph glyph-name="guillemotleft" unicode="&#xab;" horiz-adv-x="643" 
d="M334 437l-159 -188l159 -192h-145l-158 190l160 190h143zM601 437l-159 -188l159 -192h-145l-158 190l160 190h143z" />
    <glyph glyph-name="logicalnot" unicode="&#xac;" horiz-adv-x="580" 
d="M513 100h-110v210h-350v110h460v-320z" />
    <glyph glyph-name="uni00AD" unicode="&#xad;" horiz-adv-x="440" 
d="M375 315v-110h-310v110h310z" />
    <glyph glyph-name="registered" unicode="&#xae;" horiz-adv-x="838" 
d="M368 321v-162h-87v383h146q36 0 58 -8t38 -22q38 -33 38 -86q0 -29 -13 -51.5t-36 -36.5q-5 -4 -11 -6.5t-13 -4.5l115 -168h-95l-107 162h-33zM430 392q15 0 23.5 3t13.5 10q7 9 7 21q0 13 -7 22q-5 6 -13.5 10t-23.5 4h-62v-70h62zM129 350q0 -61 22.5 -114.5
t61.5 -93.5t92 -63.5t114 -23.5t114 23.5t92 63.5t61.5 93.5t22.5 114.5t-22.5 114.5t-61.5 93.5t-92 63.5t-114 23.5t-114 -23.5t-92 -63.5t-61.5 -93.5t-22.5 -114.5zM419 -25q-79 0 -147.5 29.5t-119 80.5t-79.5 119t-29 146t29 146t79.5 119t119 80.5t147.5 29.5
t147.5 -29.5t119 -80.5t79.5 -119t29 -146t-29 -146t-79.5 -119t-119 -80.5t-147.5 -29.5z" />
    <glyph glyph-name="macron" unicode="&#xaf;" horiz-adv-x="460" 
d="M390 681v-95h-320v95h320z" />
    <glyph glyph-name="degree" unicode="&#xb0;" horiz-adv-x="422" 
d="M41 540q0 35 13.5 66t36.5 54t54 36.5t66 13.5t66 -13.5t54 -36.5t36.5 -54t13.5 -66t-13.5 -66t-36.5 -54t-54 -36.5t-66 -13.5t-66 13.5t-54 36.5t-36.5 54t-13.5 66zM141 540q0 -29 20.5 -49.5t49.5 -20.5t49.5 20.5t20.5 49.5t-20.5 49.5t-49.5 20.5t-49.5 -20.5
t-20.5 -49.5z" />
    <glyph glyph-name="plusminus" unicode="&#xb1;" horiz-adv-x="580" 
d="M60 274v110h175v126h110v-126h175v-110h-175v-126h-110v126h-175zM520 115v-105h-460v105h460z" />
    <glyph glyph-name="twosuperior" unicode="&#xb2;" horiz-adv-x="325" 
d="M150 505q26 26 35.5 43.5t9.5 35.5q0 17 -11.5 30.5t-29.5 13.5q-42 0 -51 -50l-78 20q12 56 47 84t82 28q28 0 52 -10t41.5 -27t27.5 -40t10 -49q0 -28 -14 -59t-52 -69l-34 -34h105v-82h-255v50z" />
    <glyph glyph-name="threesuperior" unicode="&#xb3;" horiz-adv-x="321" 
d="M99 550l62 68h-118v82h235v-50l-69 -76q34 -12 56.5 -42t22.5 -71q0 -26 -9 -50t-26 -42t-42 -28.5t-58 -10.5q-87 0 -132 70l66 42q9 -14 24.5 -22t35.5 -8q22 0 36.5 13.5t14.5 35.5q0 23 -15 36t-38 13q-9 0 -23 -2.5t-23 -7.5v50z" />
    <glyph glyph-name="acute" unicode="&#xb4;" horiz-adv-x="340" 
d="M270 718l-120 -160h-80l60 160h140z" />
    <glyph glyph-name="mu" unicode="&#xb5;" horiz-adv-x="665" 
d="M75 485h130v-324q14 -21 42.5 -36t60.5 -15q34 0 61 14.5t47 38.5v322h130v-333q0 -22 11 -34.5t30 -12.5q11 0 21.5 2.5t16.5 4.5l31 -100q-20 -10 -45.5 -15.5t-53.5 -5.5q-40 0 -71 16.5t-46 46.5q-23 -26 -56.5 -44.5t-75.5 -18.5q-35 0 -62 14t-41 28v-259h-130v711
z" />
    <glyph glyph-name="paragraph" unicode="&#xb6;" horiz-adv-x="724" 
d="M243 590q-41 -4 -68 -33.5t-27 -71.5t27 -71.5t68 -33.5v210zM683 700v-110h-100v-830h-120v830h-100v-830h-120v510q-45 0 -84 17t-68 46t-46 68t-17 84q0 60 30.5 109t78.5 77q24 14 55 21.5t84 7.5h407z" />
    <glyph glyph-name="periodcentered" unicode="&#xb7;" horiz-adv-x="281" 
d="M225 242q0 -17 -6.5 -32.5t-18 -26.5t-27 -17.5t-33.5 -6.5q-35 0 -59.5 24t-24.5 59q0 18 6.5 33t18 26.5t27 18t32.5 6.5q35 0 60 -24.5t25 -59.5z" />
    <glyph glyph-name="cedilla" unicode="&#xb8;" horiz-adv-x="300" 
d="M135 10h95l-30 -160h-130z" />
    <glyph glyph-name="onesuperior" unicode="&#xb9;" horiz-adv-x="270" 
d="M20 635l120 65h60v-360h-95v250l-85 -48v93z" />
    <glyph glyph-name="ordmasculine" unicode="&#xba;" horiz-adv-x="410" 
d="M278 550q0 34 -19 57t-54 23t-54 -23t-19 -57t19 -57t54 -23t54 23t19 57zM42 550q0 33 11.5 62t33 51t51.5 34.5t67 12.5t67 -12.5t51.5 -34.5t33 -51t11.5 -62t-11.5 -62t-33 -51t-51.5 -34.5t-67 -12.5t-67 12.5t-51.5 34.5t-33 51t-11.5 62z" />
    <glyph glyph-name="guillemotright" unicode="&#xbb;" horiz-adv-x="643" 
d="M309 57l159 188l-159 192h145l158 -190l-160 -190h-143zM42 57l159 188l-159 192h145l158 -190l-160 -190h-143z" />
    <glyph glyph-name="onequarter" unicode="&#xbc;" horiz-adv-x="662" 
d="M33 635l120 65h60v-360h-95v250l-85 -48v93zM68 0l409 700h106l-409 -700h-106zM567 145h61v-75h-61v-70h-85v70h-164v50l189 240h60v-215zM482 145v75l-59 -75h59z" />
    <glyph glyph-name="onehalf" unicode="&#xbd;" horiz-adv-x="695" 
d="M33 635l120 65h60v-360h-95v250l-85 -48v93zM68 0l409 700h106l-409 -700h-106zM518 165q26 26 35.5 43.5t9.5 35.5q0 17 -11.5 30.5t-29.5 13.5q-42 0 -51 -50l-78 20q12 56 47 84t82 28q28 0 52 -10t41.5 -27t27.5 -40t10 -49q0 -28 -14 -59t-52 -69l-34 -34h105v-82
h-255v50z" />
    <glyph glyph-name="threequarters" unicode="&#xbe;" horiz-adv-x="714" 
d="M110 550l62 68h-118v82h235v-50l-69 -76q34 -12 56.5 -42t22.5 -71q0 -26 -9 -50t-26 -42t-42 -28.5t-58 -10.5q-87 0 -132 70l66 42q9 -14 24.5 -22t35.5 -8q22 0 36.5 13.5t14.5 35.5q0 23 -15 36t-38 13q-9 0 -23 -2.5t-23 -7.5v50zM117 0l409 700h106l-409 -700h-106
zM616 145h61v-75h-61v-70h-85v70h-164v50l189 240h60v-215zM531 145v75l-59 -75h59z" />
    <glyph glyph-name="questiondown" unicode="&#xbf;" horiz-adv-x="467" 
d="M327 412q0 -35 -25 -59t-60 -24t-60 24t-25 59t25 59t60 24t60 -24t25 -59zM444 -89q-22 -66 -75 -106t-132 -40q-36 0 -72 12.5t-64.5 36t-46 57t-17.5 74.5q0 36 11.5 62.5t29 47.5t38 36.5t38.5 29.5q20 15 33 28.5t13 28.5q0 11 -5 20.5t-15 20.5l87 60l14 -14
t18 -22t15.5 -30.5t6.5 -38.5q0 -22 -7.5 -40.5t-19.5 -35t-27.5 -30.5t-30.5 -27q-28 -23 -50 -45t-22 -49t21.5 -46t53.5 -19q34 0 56.5 16.5t35.5 46.5z" />
    <glyph glyph-name="Agrave" unicode="&#xc0;" horiz-adv-x="692" 
d="M6 0l290 700h100l290 -700h-143l-64 155h-270l-64 -155h-139zM259 275h171l-84 215zM327 928l60 -160h-80l-120 160h140z" />
    <glyph glyph-name="Aacute" unicode="&#xc1;" horiz-adv-x="692" 
d="M6 0l290 700h100l290 -700h-143l-64 155h-270l-64 -155h-139zM259 275h171l-84 215zM506 928l-120 -160h-80l60 160h140z" />
    <glyph glyph-name="Acircumflex" unicode="&#xc2;" horiz-adv-x="692" 
d="M6 0l290 700h100l290 -700h-143l-64 155h-270l-64 -155h-139zM259 275h171l-84 215zM421 928l95 -160h-80l-90 85l-90 -85h-80l95 160h150z" />
    <glyph glyph-name="Atilde" unicode="&#xc3;" horiz-adv-x="692" 
d="M6 0l290 700h100l290 -700h-143l-64 155h-270l-64 -155h-139zM259 275h171l-84 215zM531 907q0 -28 -6.5 -52.5t-19.5 -42.5t-33 -28.5t-47 -10.5q-23 0 -42.5 8t-37.5 17t-34.5 17t-32.5 8q-18 0 -28 -14.5t-12 -35.5l-77 16q0 28 6.5 52.5t19.5 42.5t33 28.5t47 10.5
q22 0 42 -8t38 -17t34.5 -17t32.5 -8q18 0 28 14.5t12 35.5z" />
    <glyph glyph-name="Adieresis" unicode="&#xc4;" horiz-adv-x="692" 
d="M6 0l290 700h100l290 -700h-143l-64 155h-270l-64 -155h-139zM259 275h171l-84 215zM161 849q0 33 23.5 55t56.5 22t56.5 -22t23.5 -55t-23.5 -55.5t-56.5 -22.5t-56.5 22.5t-23.5 55.5zM371 849q0 33 23.5 55t56.5 22t56.5 -22t23.5 -55t-23.5 -55.5t-56.5 -22.5
t-56.5 22.5t-23.5 55.5z" />
    <glyph glyph-name="Aring" unicode="&#xc5;" horiz-adv-x="692" 
d="M6 0l290 700h100l290 -700h-143l-64 155h-270l-64 -155h-139zM259 275h171l-84 215zM236 872q0 23 8.5 43t23.5 35t35 23.5t43 8.5t43 -8.5t35 -23.5t23.5 -35t8.5 -43t-8.5 -43t-23.5 -35t-35 -23.5t-43 -8.5t-43 8.5t-35 23.5t-23.5 35t-8.5 43zM311 872
q0 -17 10.5 -27t24.5 -10t24.5 10t10.5 27t-10.5 27t-24.5 10t-24.5 -10t-10.5 -27z" />
    <glyph glyph-name="AE" unicode="&#xc6;" horiz-adv-x="964" 
d="M624 580v-145h225v-120h-225v-195h295v-120h-430v155h-256l-93 -155h-151l421 700h499v-120h-285zM489 275v306l-184 -306h184z" />
    <glyph glyph-name="Ccedilla" unicode="&#xc7;" horiz-adv-x="711" 
d="M595 508q-37 35 -82 58.5t-104 23.5q-53 0 -95.5 -19t-73 -51.5t-47 -76.5t-16.5 -93q0 -50 16 -93.5t46.5 -76t73.5 -51.5t97 -19q62 0 108.5 23.5t91.5 71.5l87 -76q-43 -56 -107 -92.5t-142 -44.5l-26 -142h-130l58 144q-69 9 -126 39.5t-97.5 77.5t-62.5 107.5
t-22 131.5q0 78 27.5 144t76.5 114t116 75t146 27q84 0 152.5 -34t116.5 -86z" />
    <glyph glyph-name="Egrave" unicode="&#xc8;" horiz-adv-x="559" 
d="M219 580v-145h225v-120h-225v-195h295v-120h-430v700h420v-120h-285zM300 928l60 -160h-80l-120 160h140z" />
    <glyph glyph-name="Eacute" unicode="&#xc9;" horiz-adv-x="559" 
d="M219 580v-145h225v-120h-225v-195h295v-120h-430v700h420v-120h-285zM438 928l-120 -160h-80l60 160h140z" />
    <glyph glyph-name="Ecircumflex" unicode="&#xca;" horiz-adv-x="559" 
d="M219 580v-145h225v-120h-225v-195h295v-120h-430v700h420v-120h-285zM374 928l95 -160h-80l-90 85l-90 -85h-80l95 160h150z" />
    <glyph glyph-name="Edieresis" unicode="&#xcb;" horiz-adv-x="559" 
d="M219 580v-145h225v-120h-225v-195h295v-120h-430v700h420v-120h-285zM110 849q0 33 23.5 55t56.5 22t56.5 -22t23.5 -55t-23.5 -55.5t-56.5 -22.5t-56.5 22.5t-23.5 55.5zM320 849q0 33 23.5 55t56.5 22t56.5 -22t23.5 -55t-23.5 -55.5t-56.5 -22.5t-56.5 22.5
t-23.5 55.5z" />
    <glyph glyph-name="Igrave" unicode="&#xcc;" horiz-adv-x="303" 
d="M84 700h135v-700h-135v700zM139 928l60 -160h-80l-120 160h140z" />
    <glyph glyph-name="Iacute" unicode="&#xcd;" horiz-adv-x="303" 
d="M84 700h135v-700h-135v700zM304 928l-120 -160h-80l60 160h140z" />
    <glyph glyph-name="Icircumflex" unicode="&#xce;" horiz-adv-x="303" 
d="M84 700h135v-700h-135v700zM226 928l95 -160h-80l-90 85l-90 -85h-80l95 160h150z" />
    <glyph glyph-name="Idieresis" unicode="&#xcf;" horiz-adv-x="303" 
d="M84 700h135v-700h-135v700zM-34 849q0 33 23.5 55t56.5 22t56.5 -22t23.5 -55t-23.5 -55.5t-56.5 -22.5t-56.5 22.5t-23.5 55.5zM176 849q0 33 23.5 55t56.5 22t56.5 -22t23.5 -55t-23.5 -55.5t-56.5 -22.5t-56.5 22.5t-23.5 55.5z" />
    <glyph glyph-name="Eth" unicode="&#xd0;" horiz-adv-x="782" 
d="M20 430h100v270h240q84 0 141 -17t100 -49q65 -48 102 -122t37 -162t-37 -162t-102 -122q-43 -32 -100 -49t-141 -17h-240v320h-100v110zM605 350q0 44 -13.5 83t-37.5 69q-29 37 -72.5 57.5t-106.5 20.5h-120v-150h200v-110h-200v-200h120q63 0 106.5 20.5t72.5 57.5
q24 30 37.5 69t13.5 83z" />
    <glyph glyph-name="Ntilde" unicode="&#xd1;" horiz-adv-x="773" 
d="M689 0h-100l-372 454v-454h-133v700h100l372 -454v454h133v-700zM571 907q0 -28 -6.5 -52.5t-19.5 -42.5t-33 -28.5t-47 -10.5q-23 0 -42.5 8t-37.5 17t-34.5 17t-32.5 8q-18 0 -28 -14.5t-12 -35.5l-77 16q0 28 6.5 52.5t19.5 42.5t33 28.5t47 10.5q22 0 42 -8t38 -17
t34.5 -17t32.5 -8q18 0 28 14.5t12 35.5z" />
    <glyph glyph-name="Ograve" unicode="&#xd2;" horiz-adv-x="796" 
d="M177 350q0 -50 16.5 -93.5t45.5 -76t70 -51.5t89 -19t89 19t70 51.5t45.5 76t16.5 93.5q0 49 -16.5 93t-45.5 76.5t-70 51.5t-89 19t-89 -19t-70 -51.5t-45.5 -76.5t-16.5 -93zM754 350q0 -78 -27.5 -144t-75.5 -114t-113 -75t-140 -27t-140 27t-113 75t-75.5 114
t-27.5 144t27.5 144t75.5 114t113 75t140 27t140 -27t113 -75t75.5 -114t27.5 -144zM398 928l60 -160h-80l-120 160h140z" />
    <glyph glyph-name="Oacute" unicode="&#xd3;" horiz-adv-x="796" 
d="M177 350q0 -50 16.5 -93.5t45.5 -76t70 -51.5t89 -19t89 19t70 51.5t45.5 76t16.5 93.5q0 49 -16.5 93t-45.5 76.5t-70 51.5t-89 19t-89 -19t-70 -51.5t-45.5 -76.5t-16.5 -93zM754 350q0 -78 -27.5 -144t-75.5 -114t-113 -75t-140 -27t-140 27t-113 75t-75.5 114
t-27.5 144t27.5 144t75.5 114t113 75t140 27t140 -27t113 -75t75.5 -114t27.5 -144zM538 928l-120 -160h-80l60 160h140z" />
    <glyph glyph-name="Ocircumflex" unicode="&#xd4;" horiz-adv-x="796" 
d="M177 350q0 -50 16.5 -93.5t45.5 -76t70 -51.5t89 -19t89 19t70 51.5t45.5 76t16.5 93.5q0 49 -16.5 93t-45.5 76.5t-70 51.5t-89 19t-89 -19t-70 -51.5t-45.5 -76.5t-16.5 -93zM754 350q0 -78 -27.5 -144t-75.5 -114t-113 -75t-140 -27t-140 27t-113 75t-75.5 114
t-27.5 144t27.5 144t75.5 114t113 75t140 27t140 -27t113 -75t75.5 -114t27.5 -144zM473 928l95 -160h-80l-90 85l-90 -85h-80l95 160h150z" />
    <glyph glyph-name="Otilde" unicode="&#xd5;" horiz-adv-x="796" 
d="M177 350q0 -50 16.5 -93.5t45.5 -76t70 -51.5t89 -19t89 19t70 51.5t45.5 76t16.5 93.5q0 49 -16.5 93t-45.5 76.5t-70 51.5t-89 19t-89 -19t-70 -51.5t-45.5 -76.5t-16.5 -93zM754 350q0 -78 -27.5 -144t-75.5 -114t-113 -75t-140 -27t-140 27t-113 75t-75.5 114
t-27.5 144t27.5 144t75.5 114t113 75t140 27t140 -27t113 -75t75.5 -114t27.5 -144zM583 907q0 -28 -6.5 -52.5t-19.5 -42.5t-33 -28.5t-47 -10.5q-23 0 -42.5 8t-37.5 17t-34.5 17t-32.5 8q-18 0 -28 -14.5t-12 -35.5l-77 16q0 28 6.5 52.5t19.5 42.5t33 28.5t47 10.5
q22 0 42 -8t38 -17t34.5 -17t32.5 -8q18 0 28 14.5t12 35.5z" />
    <glyph glyph-name="Odieresis" unicode="&#xd6;" horiz-adv-x="796" 
d="M177 350q0 -50 16.5 -93.5t45.5 -76t70 -51.5t89 -19t89 19t70 51.5t45.5 76t16.5 93.5q0 49 -16.5 93t-45.5 76.5t-70 51.5t-89 19t-89 -19t-70 -51.5t-45.5 -76.5t-16.5 -93zM754 350q0 -78 -27.5 -144t-75.5 -114t-113 -75t-140 -27t-140 27t-113 75t-75.5 114
t-27.5 144t27.5 144t75.5 114t113 75t140 27t140 -27t113 -75t75.5 -114t27.5 -144zM213 849q0 33 23.5 55t56.5 22t56.5 -22t23.5 -55t-23.5 -55.5t-56.5 -22.5t-56.5 22.5t-23.5 55.5zM423 849q0 33 23.5 55t56.5 22t56.5 -22t23.5 -55t-23.5 -55.5t-56.5 -22.5
t-56.5 22.5t-23.5 55.5z" />
    <glyph glyph-name="multiply" unicode="&#xd7;" horiz-adv-x="580" 
d="M290 338l145 145l78 -78l-145 -145l145 -145l-78 -78l-145 145l-145 -145l-78 78l145 145l-145 145l78 78z" />
    <glyph glyph-name="Oslash" unicode="&#xd8;" horiz-adv-x="805" 
d="M182 350q0 -36 8.5 -68.5t24.5 -61.5l293 342q-48 28 -105 28q-48 0 -89 -19t-70 -51.5t-45.5 -76.5t-16.5 -93zM624 350q0 70 -34 129l-292 -342q45 -27 105 -27q48 0 89 19t70 51.5t45.5 76t16.5 93.5zM47 350q0 78 27.5 144t75.5 114t113 75t140 27q105 0 188 -51
l35 41h153l-100 -117q38 -47 59 -105.5t21 -127.5q0 -78 -27.5 -144t-75.5 -114t-113 -75t-140 -27q-105 0 -188 51l-35 -41h-153l100 117q-38 47 -59 105.5t-21 127.5z" />
    <glyph glyph-name="Ugrave" unicode="&#xd9;" horiz-adv-x="748" 
d="M374 110q38 0 70 14t55 39q18 20 28 47.5t10 72.5v417h135v-407q0 -69 -16.5 -118t-48.5 -85q-42 -48 -102.5 -74t-130.5 -26t-130.5 26t-102.5 74q-32 36 -48.5 85t-16.5 118v407h135v-417q0 -45 10 -72.5t28 -47.5q23 -25 55 -39t70 -14zM374 928l60 -160h-80l-120 160
h140z" />
    <glyph glyph-name="Uacute" unicode="&#xda;" horiz-adv-x="748" 
d="M374 110q38 0 70 14t55 39q18 20 28 47.5t10 72.5v417h135v-407q0 -69 -16.5 -118t-48.5 -85q-42 -48 -102.5 -74t-130.5 -26t-130.5 26t-102.5 74q-32 36 -48.5 85t-16.5 118v407h135v-417q0 -45 10 -72.5t28 -47.5q23 -25 55 -39t70 -14zM514 928l-120 -160h-80l60 160
h140z" />
    <glyph glyph-name="Ucircumflex" unicode="&#xdb;" horiz-adv-x="748" 
d="M374 110q38 0 70 14t55 39q18 20 28 47.5t10 72.5v417h135v-407q0 -69 -16.5 -118t-48.5 -85q-42 -48 -102.5 -74t-130.5 -26t-130.5 26t-102.5 74q-32 36 -48.5 85t-16.5 118v407h135v-417q0 -45 10 -72.5t28 -47.5q23 -25 55 -39t70 -14zM449 928l95 -160h-80l-90 85
l-90 -85h-80l95 160h150z" />
    <glyph glyph-name="Udieresis" unicode="&#xdc;" horiz-adv-x="748" 
d="M374 110q38 0 70 14t55 39q18 20 28 47.5t10 72.5v417h135v-407q0 -69 -16.5 -118t-48.5 -85q-42 -48 -102.5 -74t-130.5 -26t-130.5 26t-102.5 74q-32 36 -48.5 85t-16.5 118v407h135v-417q0 -45 10 -72.5t28 -47.5q23 -25 55 -39t70 -14zM189 849q0 33 23.5 55t56.5 22
t56.5 -22t23.5 -55t-23.5 -55.5t-56.5 -22.5t-56.5 22.5t-23.5 55.5zM399 849q0 33 23.5 55t56.5 22t56.5 -22t23.5 -55t-23.5 -55.5t-56.5 -22.5t-56.5 22.5t-23.5 55.5z" />
    <glyph glyph-name="Yacute" unicode="&#xdd;" horiz-adv-x="653" 
d="M394 317v-317h-135v317l-240 383h154l155 -249l155 249h151zM466 928l-120 -160h-80l60 160h140z" />
    <glyph glyph-name="Thorn" unicode="&#xde;" horiz-adv-x="619" 
d="M219 167v-167h-135v700h135v-118h127q74 0 120.5 -22t75.5 -60q42 -54 42 -125q0 -72 -42 -126q-29 -38 -75.5 -60t-120.5 -22h-127zM329 285q43 0 64.5 8.5t33.5 22.5q22 25 22 59q0 33 -22 58q-12 14 -33.5 22.5t-64.5 8.5h-110v-179h110z" />
    <glyph glyph-name="germandbls" unicode="&#xdf;" horiz-adv-x="613" 
d="M261 434h21q44 0 67 21q11 11 18 26.5t7 34.5q0 37 -23.5 60.5t-60.5 23.5q-40 0 -64 -29q-10 -11 -15 -28t-5 -47v-496h-130v495q0 26 3 47q5 31 14.5 54t24.5 43q29 37 73 59t98 22q46 0 85 -14.5t68 -40.5t45.5 -62t16.5 -78q0 -33 -11.5 -63.5t-31.5 -53.5
q50 -28 80 -79.5t30 -111.5q0 -47 -17.5 -88.5t-48 -72.5t-71.5 -48.5t-89 -17.5q-62 0 -111 27l49 100q11 -5 26 -8.5t28 -3.5q49 0 76.5 31t27.5 78q0 26 -10.5 50t-28.5 38q-14 11 -33.5 18t-53.5 7h-54v107z" />
    <glyph glyph-name="agrave" unicode="&#xe0;" horiz-adv-x="624" 
d="M548 485v-485h-120v42q-28 -23 -64.5 -37.5t-82.5 -14.5q-50 0 -93 18.5t-75.5 52.5t-51 80t-18.5 102q0 55 18.5 101.5t50.5 80t75 52t92 18.5q85 0 149 -52v42h120zM173 243q0 -30 10 -55t27.5 -42.5t41 -27.5t49.5 -10q37 0 66.5 15.5t50.5 41.5v155q-49 57 -119 57
q-26 0 -49 -10t-40 -28t-27 -42.5t-10 -53.5zM333 718l60 -160h-80l-120 160h140z" />
    <glyph glyph-name="aacute" unicode="&#xe1;" horiz-adv-x="624" 
d="M548 485v-485h-120v42q-28 -23 -64.5 -37.5t-82.5 -14.5q-50 0 -93 18.5t-75.5 52.5t-51 80t-18.5 102q0 55 18.5 101.5t50.5 80t75 52t92 18.5q85 0 149 -52v42h120zM173 243q0 -30 10 -55t27.5 -42.5t41 -27.5t49.5 -10q37 0 66.5 15.5t50.5 41.5v155q-49 57 -119 57
q-26 0 -49 -10t-40 -28t-27 -42.5t-10 -53.5zM463 718l-120 -160h-80l60 160h140z" />
    <glyph glyph-name="acircumflex" unicode="&#xe2;" horiz-adv-x="624" 
d="M548 485v-485h-120v42q-28 -23 -64.5 -37.5t-82.5 -14.5q-50 0 -93 18.5t-75.5 52.5t-51 80t-18.5 102q0 55 18.5 101.5t50.5 80t75 52t92 18.5q85 0 149 -52v42h120zM173 243q0 -30 10 -55t27.5 -42.5t41 -27.5t49.5 -10q37 0 66.5 15.5t50.5 41.5v155q-49 57 -119 57
q-26 0 -49 -10t-40 -28t-27 -42.5t-10 -53.5zM403 718l95 -160h-80l-90 85l-90 -85h-80l95 160h150z" />
    <glyph glyph-name="atilde" unicode="&#xe3;" horiz-adv-x="624" 
d="M548 485v-485h-120v42q-28 -23 -64.5 -37.5t-82.5 -14.5q-50 0 -93 18.5t-75.5 52.5t-51 80t-18.5 102q0 55 18.5 101.5t50.5 80t75 52t92 18.5q85 0 149 -52v42h120zM173 243q0 -30 10 -55t27.5 -42.5t41 -27.5t49.5 -10q37 0 66.5 15.5t50.5 41.5v155q-49 57 -119 57
q-26 0 -49 -10t-40 -28t-27 -42.5t-10 -53.5zM513 697q0 -28 -6.5 -52.5t-19.5 -42.5t-33 -28.5t-47 -10.5q-23 0 -42.5 8t-37.5 17t-34.5 17t-32.5 8q-18 0 -28 -14.5t-12 -35.5l-77 16q0 28 6.5 52.5t19.5 42.5t33 28.5t47 10.5q22 0 42 -8t38 -17t34.5 -17t32.5 -8
q18 0 28 14.5t12 35.5z" />
    <glyph glyph-name="adieresis" unicode="&#xe4;" horiz-adv-x="624" 
d="M548 485v-485h-120v42q-28 -23 -64.5 -37.5t-82.5 -14.5q-50 0 -93 18.5t-75.5 52.5t-51 80t-18.5 102q0 55 18.5 101.5t50.5 80t75 52t92 18.5q85 0 149 -52v42h120zM173 243q0 -30 10 -55t27.5 -42.5t41 -27.5t49.5 -10q37 0 66.5 15.5t50.5 41.5v155q-49 57 -119 57
q-26 0 -49 -10t-40 -28t-27 -42.5t-10 -53.5zM143 639q0 33 23.5 55t56.5 22t56.5 -22t23.5 -55t-23.5 -55.5t-56.5 -22.5t-56.5 22.5t-23.5 55.5zM353 639q0 33 23.5 55t56.5 22t56.5 -22t23.5 -55t-23.5 -55.5t-56.5 -22.5t-56.5 22.5t-23.5 55.5z" />
    <glyph glyph-name="aring" unicode="&#xe5;" horiz-adv-x="624" 
d="M548 485v-485h-120v42q-28 -23 -64.5 -37.5t-82.5 -14.5q-50 0 -93 18.5t-75.5 52.5t-51 80t-18.5 102q0 55 18.5 101.5t50.5 80t75 52t92 18.5q85 0 149 -52v42h120zM173 243q0 -30 10 -55t27.5 -42.5t41 -27.5t49.5 -10q37 0 66.5 15.5t50.5 41.5v155q-49 57 -119 57
q-26 0 -49 -10t-40 -28t-27 -42.5t-10 -53.5zM218 662q0 23 8.5 43t23.5 35t35 23.5t43 8.5t43 -8.5t35 -23.5t23.5 -35t8.5 -43t-8.5 -43t-23.5 -35t-35 -23.5t-43 -8.5t-43 8.5t-35 23.5t-23.5 35t-8.5 43zM293 662q0 -17 10.5 -27t24.5 -10t24.5 10t10.5 27t-10.5 27
t-24.5 10t-24.5 -10t-10.5 -27z" />
    <glyph glyph-name="ae" unicode="&#xe6;" horiz-adv-x="815" 
d="M456 210q3 -51 37 -80.5t84 -29.5q31 0 59 11.5t52 37.5l73 -72q-35 -41 -83 -64t-105 -23q-51 0 -95.5 19.5t-80.5 61.5q-9 -11 -24 -24.5t-36.5 -26.5t-51 -21.5t-67.5 -8.5q-37 0 -69 12.5t-55.5 34.5t-37 51.5t-13.5 63.5q0 39 15.5 70t42 53t61 33.5t73.5 11.5
q26 0 52.5 -4t52.5 -14q0 46 -28 64.5t-67 18.5q-34 0 -66.5 -12.5t-61.5 -32.5l-54 93q38 29 88 45.5t104 16.5q45 0 84.5 -14.5t69.5 -49.5q29 30 67.5 47t83.5 17q50 0 89.5 -20t67 -54.5t42 -79.5t14.5 -94q0 -21 -3 -37h-314zM348 156q-6 21 -9 44q-16 9 -33.5 12
t-32.5 3t-32.5 -3t-32.5 -10t-25 -19t-10 -31q0 -24 19.5 -38t45.5 -14q36 0 64.5 16t45.5 40zM645 300q-3 36 -27 62t-62 26q-18 0 -34.5 -7t-29.5 -19t-21.5 -28t-10.5 -34h185z" />
    <glyph glyph-name="ccedilla" unicode="&#xe7;" horiz-adv-x="543" 
d="M247 -5q-45 9 -83 31.5t-65 55t-42 73.5t-15 87q0 52 19.5 98t54 80.5t81.5 54.5t102 20q60 0 111.5 -24.5t91.5 -72.5l-83 -75q-24 23 -51 37.5t-62 14.5q-27 0 -51.5 -10t-42.5 -27.5t-29 -42t-11 -53.5t10 -53t27.5 -41.5t42 -27.5t54.5 -10q42 0 73.5 18.5t49.5 39.5
l88 -69q-33 -45 -77 -72t-100 -34l-26 -143h-130z" />
    <glyph glyph-name="egrave" unicode="&#xe8;" horiz-adv-x="550" 
d="M496 77q-37 -42 -90.5 -64.5t-112.5 -22.5q-54 0 -99.5 18t-79 51t-52.5 79.5t-19 103.5q0 51 16 96.5t46.5 80.5t74.5 55.5t99 20.5q52 0 94.5 -20t72.5 -53.5t46 -78.5t16 -96q0 -21 -3 -37h-337q3 -26 14 -46t28.5 -34.5t40.5 -22t49 -7.5q42 0 73.5 17.5t50.5 35.5z
M378 300q-3 35 -29 61.5t-70 26.5q-45 0 -73.5 -26.5t-33.5 -61.5h206zM291 718l60 -160h-80l-120 160h140z" />
    <glyph glyph-name="eacute" unicode="&#xe9;" horiz-adv-x="550" 
d="M496 77q-37 -42 -90.5 -64.5t-112.5 -22.5q-54 0 -99.5 18t-79 51t-52.5 79.5t-19 103.5q0 51 16 96.5t46.5 80.5t74.5 55.5t99 20.5q52 0 94.5 -20t72.5 -53.5t46 -78.5t16 -96q0 -21 -3 -37h-337q3 -26 14 -46t28.5 -34.5t40.5 -22t49 -7.5q42 0 73.5 17.5t50.5 35.5z
M378 300q-3 35 -29 61.5t-70 26.5q-45 0 -73.5 -26.5t-33.5 -61.5h206zM416 718l-120 -160h-80l60 160h140z" />
    <glyph glyph-name="ecircumflex" unicode="&#xea;" horiz-adv-x="550" 
d="M496 77q-37 -42 -90.5 -64.5t-112.5 -22.5q-54 0 -99.5 18t-79 51t-52.5 79.5t-19 103.5q0 51 16 96.5t46.5 80.5t74.5 55.5t99 20.5q52 0 94.5 -20t72.5 -53.5t46 -78.5t16 -96q0 -21 -3 -37h-337q3 -26 14 -46t28.5 -34.5t40.5 -22t49 -7.5q42 0 73.5 17.5t50.5 35.5z
M378 300q-3 35 -29 61.5t-70 26.5q-45 0 -73.5 -26.5t-33.5 -61.5h206zM354 718l95 -160h-80l-90 85l-90 -85h-80l95 160h150z" />
    <glyph glyph-name="edieresis" unicode="&#xeb;" horiz-adv-x="550" 
d="M496 77q-37 -42 -90.5 -64.5t-112.5 -22.5q-54 0 -99.5 18t-79 51t-52.5 79.5t-19 103.5q0 51 16 96.5t46.5 80.5t74.5 55.5t99 20.5q52 0 94.5 -20t72.5 -53.5t46 -78.5t16 -96q0 -21 -3 -37h-337q3 -26 14 -46t28.5 -34.5t40.5 -22t49 -7.5q42 0 73.5 17.5t50.5 35.5z
M378 300q-3 35 -29 61.5t-70 26.5q-45 0 -73.5 -26.5t-33.5 -61.5h206zM100 639q0 33 23.5 55t56.5 22t56.5 -22t23.5 -55t-23.5 -55.5t-56.5 -22.5t-56.5 22.5t-23.5 55.5zM310 639q0 33 23.5 55t56.5 22t56.5 -22t23.5 -55t-23.5 -55.5t-56.5 -22.5t-56.5 22.5t-23.5 55.5
z" />
    <glyph glyph-name="igrave" unicode="&#xec;" horiz-adv-x="282" 
d="M206 0h-130v485h130v-485zM126 718l60 -160h-80l-120 160h140z" />
    <glyph glyph-name="iacute" unicode="&#xed;" horiz-adv-x="282" 
d="M206 0h-130v485h130v-485zM296 718l-120 -160h-80l60 160h140z" />
    <glyph glyph-name="icircumflex" unicode="&#xee;" horiz-adv-x="282" 
d="M206 0h-130v485h130v-485zM216 718l95 -160h-80l-90 85l-90 -85h-80l95 160h150z" />
    <glyph glyph-name="idieresis" unicode="&#xef;" horiz-adv-x="282" 
d="M206 0h-130v485h130v-485zM-44 639q0 33 23.5 55t56.5 22t56.5 -22t23.5 -55t-23.5 -55.5t-56.5 -22.5t-56.5 22.5t-23.5 55.5zM166 639q0 33 23.5 55t56.5 22t56.5 -22t23.5 -55t-23.5 -55.5t-56.5 -22.5t-56.5 22.5t-23.5 55.5z" />
    <glyph glyph-name="eth" unicode="&#xf0;" horiz-adv-x="595" 
d="M553 242q0 -53 -19.5 -98.5t-53.5 -80t-80.5 -54t-101.5 -19.5t-101.5 19.5t-80.5 54t-53.5 80t-19.5 98.5q0 52 18 97t49.5 78t74 51.5t90.5 18.5q9 0 14 -1l-49 67l-128 -68v108l72 39l-56 78h151l13 -19l102 55v-110l-45 -24l115 -159q16 -22 32 -47t28.5 -52
t20.5 -55t8 -57zM306 377q-32 0 -56.5 -11t-41.5 -29.5t-26 -43t-9 -51.5t9 -51.5t25 -43t39 -29t52 -10.5q28 0 51.5 10.5t39.5 29t25 43t9 51.5q0 34 -14.5 65t-39.5 61q-14 4 -31 6.5t-32 2.5z" />
    <glyph glyph-name="ntilde" unicode="&#xf1;" horiz-adv-x="624" 
d="M76 0v485h120v-43q29 25 66.5 39t78.5 14q50 0 93.5 -20t72.5 -55q24 -29 36.5 -69.5t12.5 -103.5v-247h-130v259q0 36 -7.5 56.5t-21.5 34.5q-27 27 -73 27q-21 0 -39.5 -6t-33.5 -15t-26.5 -19.5t-18.5 -19.5v-317h-130zM525 697q0 -28 -6.5 -52.5t-19.5 -42.5
t-33 -28.5t-47 -10.5q-23 0 -42.5 8t-37.5 17t-34.5 17t-32.5 8q-18 0 -28 -14.5t-12 -35.5l-77 16q0 28 6.5 52.5t19.5 42.5t33 28.5t47 10.5q22 0 42 -8t38 -17t34.5 -17t32.5 -8q18 0 28 14.5t12 35.5z" />
    <glyph glyph-name="ograve" unicode="&#xf2;" horiz-adv-x="594" 
d="M172 242q0 -27 9 -51.5t25 -43t39 -29t52 -10.5q28 0 51.5 10.5t39.5 29t25 43t9 51.5t-9 51.5t-25 43t-39.5 29.5t-51.5 11q-29 0 -52 -11t-39 -29.5t-25 -43t-9 -51.5zM42 242q0 52 19.5 98.5t53.5 80.5t80.5 54t101.5 20t101.5 -20t80.5 -54t53.5 -80.5t19.5 -98.5
q0 -53 -19.5 -98.5t-53.5 -80t-80.5 -54t-101.5 -19.5t-101.5 19.5t-80.5 54t-53.5 80t-19.5 98.5zM302 718l60 -160h-80l-120 160h140z" />
    <glyph glyph-name="oacute" unicode="&#xf3;" horiz-adv-x="594" 
d="M172 242q0 -27 9 -51.5t25 -43t39 -29t52 -10.5q28 0 51.5 10.5t39.5 29t25 43t9 51.5t-9 51.5t-25 43t-39.5 29.5t-51.5 11q-29 0 -52 -11t-39 -29.5t-25 -43t-9 -51.5zM42 242q0 52 19.5 98.5t53.5 80.5t80.5 54t101.5 20t101.5 -20t80.5 -54t53.5 -80.5t19.5 -98.5
q0 -53 -19.5 -98.5t-53.5 -80t-80.5 -54t-101.5 -19.5t-101.5 19.5t-80.5 54t-53.5 80t-19.5 98.5zM432 718l-120 -160h-80l60 160h140z" />
    <glyph glyph-name="ocircumflex" unicode="&#xf4;" horiz-adv-x="594" 
d="M172 242q0 -27 9 -51.5t25 -43t39 -29t52 -10.5q28 0 51.5 10.5t39.5 29t25 43t9 51.5t-9 51.5t-25 43t-39.5 29.5t-51.5 11q-29 0 -52 -11t-39 -29.5t-25 -43t-9 -51.5zM42 242q0 52 19.5 98.5t53.5 80.5t80.5 54t101.5 20t101.5 -20t80.5 -54t53.5 -80.5t19.5 -98.5
q0 -53 -19.5 -98.5t-53.5 -80t-80.5 -54t-101.5 -19.5t-101.5 19.5t-80.5 54t-53.5 80t-19.5 98.5zM372 718l95 -160h-80l-90 85l-90 -85h-80l95 160h150z" />
    <glyph glyph-name="otilde" unicode="&#xf5;" horiz-adv-x="594" 
d="M172 242q0 -27 9 -51.5t25 -43t39 -29t52 -10.5q28 0 51.5 10.5t39.5 29t25 43t9 51.5t-9 51.5t-25 43t-39.5 29.5t-51.5 11q-29 0 -52 -11t-39 -29.5t-25 -43t-9 -51.5zM42 242q0 52 19.5 98.5t53.5 80.5t80.5 54t101.5 20t101.5 -20t80.5 -54t53.5 -80.5t19.5 -98.5
q0 -53 -19.5 -98.5t-53.5 -80t-80.5 -54t-101.5 -19.5t-101.5 19.5t-80.5 54t-53.5 80t-19.5 98.5zM482 697q0 -28 -6.5 -52.5t-19.5 -42.5t-33 -28.5t-47 -10.5q-23 0 -42.5 8t-37.5 17t-34.5 17t-32.5 8q-18 0 -28 -14.5t-12 -35.5l-77 16q0 28 6.5 52.5t19.5 42.5
t33 28.5t47 10.5q22 0 42 -8t38 -17t34.5 -17t32.5 -8q18 0 28 14.5t12 35.5z" />
    <glyph glyph-name="odieresis" unicode="&#xf6;" horiz-adv-x="594" 
d="M172 242q0 -27 9 -51.5t25 -43t39 -29t52 -10.5q28 0 51.5 10.5t39.5 29t25 43t9 51.5t-9 51.5t-25 43t-39.5 29.5t-51.5 11q-29 0 -52 -11t-39 -29.5t-25 -43t-9 -51.5zM42 242q0 52 19.5 98.5t53.5 80.5t80.5 54t101.5 20t101.5 -20t80.5 -54t53.5 -80.5t19.5 -98.5
q0 -53 -19.5 -98.5t-53.5 -80t-80.5 -54t-101.5 -19.5t-101.5 19.5t-80.5 54t-53.5 80t-19.5 98.5zM112 639q0 33 23.5 55t56.5 22t56.5 -22t23.5 -55t-23.5 -55.5t-56.5 -22.5t-56.5 22.5t-23.5 55.5zM322 639q0 33 23.5 55t56.5 22t56.5 -22t23.5 -55t-23.5 -55.5
t-56.5 -22.5t-56.5 22.5t-23.5 55.5z" />
    <glyph glyph-name="divide" unicode="&#xf7;" horiz-adv-x="580" 
d="M520 315v-110h-460v110h460zM215 437q0 31 22 52t53 21t53 -21t22 -52t-22 -52t-53 -21t-53 21t-22 52zM215 83q0 31 22 52t53 21t53 -21t22 -52t-22 -52t-53 -21t-53 21t-22 52z" />
    <glyph glyph-name="oslash" unicode="&#xf8;" horiz-adv-x="610" 
d="M560 243q0 -53 -19.5 -99t-53.5 -80t-80.5 -54t-101.5 -20q-35 0 -66.5 8.5t-58.5 23.5l-19 -22h-134l76 87q-25 32 -39 71.5t-14 84.5q0 52 19.5 98t53.5 80.5t80.5 54t101.5 19.5q35 0 66.5 -8.5t58.5 -23.5l19 22h134l-76 -87q25 -32 39 -71t14 -84zM175 242
q0 -34 11 -59l166 190q-21 9 -47 9q-30 0 -54 -11t-41 -30.5t-26 -45t-9 -53.5zM435 243q0 34 -11 59l-166 -190q21 -9 47 -9q30 0 54 11t41 30.5t26 44.5t9 54z" />
    <glyph glyph-name="ugrave" unicode="&#xf9;" horiz-adv-x="615" 
d="M539 485v-485h-120v43q-28 -25 -63.5 -39t-75.5 -14q-50 0 -92.5 20.5t-70.5 55.5q-23 29 -35.5 68.5t-12.5 93.5v257h130v-264q0 -33 6.5 -51.5t17.5 -31.5q15 -17 34.5 -23.5t38.5 -6.5q21 0 38.5 6t32 15t25 19.5t17.5 19.5v317h130zM304 718l60 -160h-80l-120 160
h140z" />
    <glyph glyph-name="uacute" unicode="&#xfa;" horiz-adv-x="615" 
d="M539 485v-485h-120v43q-28 -25 -63.5 -39t-75.5 -14q-50 0 -92.5 20.5t-70.5 55.5q-23 29 -35.5 68.5t-12.5 93.5v257h130v-264q0 -33 6.5 -51.5t17.5 -31.5q15 -17 34.5 -23.5t38.5 -6.5q21 0 38.5 6t32 15t25 19.5t17.5 19.5v317h130zM444 718l-120 -160h-80l60 160
h140z" />
    <glyph glyph-name="ucircumflex" unicode="&#xfb;" horiz-adv-x="615" 
d="M539 485v-485h-120v43q-28 -25 -63.5 -39t-75.5 -14q-50 0 -92.5 20.5t-70.5 55.5q-23 29 -35.5 68.5t-12.5 93.5v257h130v-264q0 -33 6.5 -51.5t17.5 -31.5q15 -17 34.5 -23.5t38.5 -6.5q21 0 38.5 6t32 15t25 19.5t17.5 19.5v317h130zM379 718l95 -160h-80l-90 85
l-90 -85h-80l95 160h150z" />
    <glyph glyph-name="udieresis" unicode="&#xfc;" horiz-adv-x="615" 
d="M539 485v-485h-120v43q-28 -25 -63.5 -39t-75.5 -14q-50 0 -92.5 20.5t-70.5 55.5q-23 29 -35.5 68.5t-12.5 93.5v257h130v-264q0 -33 6.5 -51.5t17.5 -31.5q15 -17 34.5 -23.5t38.5 -6.5q21 0 38.5 6t32 15t25 19.5t17.5 19.5v317h130zM119 639q0 33 23.5 55t56.5 22
t56.5 -22t23.5 -55t-23.5 -55.5t-56.5 -22.5t-56.5 22.5t-23.5 55.5zM329 639q0 33 23.5 55t56.5 22t56.5 -22t23.5 -55t-23.5 -55.5t-56.5 -22.5t-56.5 22.5t-23.5 55.5z" />
    <glyph glyph-name="yacute" unicode="&#xfd;" horiz-adv-x="582" 
d="M109 -225l125 269l-222 441h139l150 -302l137 302h134l-329 -710h-134zM450 718l-120 -160h-80l60 160h140z" />
    <glyph glyph-name="thorn" unicode="&#xfe;" horiz-adv-x="624" 
d="M206 710v-259q61 44 139 44q49 0 92 -18.5t75 -52t50.5 -80t18.5 -101.5q0 -56 -18.5 -102t-51 -80t-76 -52.5t-92.5 -18.5q-42 0 -76.5 12t-60.5 32v-259h-130v935h130zM451 243q0 29 -10 53.5t-27 42.5t-40 28t-49 10q-70 0 -119 -57v-155q21 -26 50.5 -41.5
t66.5 -15.5q26 0 49.5 10t41 27.5t27.5 42.5t10 55z" />
    <glyph glyph-name="ydieresis" unicode="&#xff;" horiz-adv-x="582" 
d="M109 -225l125 269l-222 441h139l150 -302l137 302h134l-329 -710h-134zM116 639q0 33 23.5 55t56.5 22t56.5 -22t23.5 -55t-23.5 -55.5t-56.5 -22.5t-56.5 22.5t-23.5 55.5zM326 639q0 33 23.5 55t56.5 22t56.5 -22t23.5 -55t-23.5 -55.5t-56.5 -22.5t-56.5 22.5
t-23.5 55.5z" />
    <glyph glyph-name="OE" unicode="&#x152;" horiz-adv-x="1094" 
d="M398 110q48 0 89 19t70 51.5t45.5 76t16.5 93.5q0 49 -16.5 93t-45.5 76.5t-70 51.5t-89 19t-89 -19t-70 -51.5t-45.5 -76.5t-16.5 -93q0 -50 16.5 -93.5t45.5 -76t70 -51.5t89 -19zM394 710q66 0 126 -25t99 -70v85h420v-120h-285v-145h225v-120h-225v-195h295v-120
h-430v85q-39 -45 -99 -70t-126 -25q-75 0 -139 27t-111.5 75t-74.5 114t-27 144t27 144t74.5 114t111.5 75t139 27z" />
    <glyph glyph-name="oe" unicode="&#x153;" horiz-adv-x="918" 
d="M172 242q0 -27 9 -51.5t25 -43t39 -29t52 -10.5q28 0 51.5 10.5t39.5 29t25 43t9 51.5t-9 51.5t-25 43t-39.5 29.5t-51.5 11q-29 0 -52 -11t-39 -29.5t-25 -43t-9 -51.5zM42 242q0 52 19.5 98.5t53.5 80.5t80.5 54t101.5 20q57 0 102.5 -21.5t77.5 -56.5q29 35 71 56.5
t99 21.5q52 0 94.5 -20t72.5 -53.5t46 -78.5t16 -96q0 -21 -3 -37h-337q3 -26 14 -47t28.5 -36t40.5 -23t49 -8q42 0 73 18.5t48 37.5l75 -75q-37 -42 -90.5 -64.5t-112.5 -22.5q-118 0 -184 78q-32 -37 -77.5 -57.5t-102.5 -20.5q-55 0 -101.5 19.5t-80.5 54t-53.5 80
t-19.5 98.5zM746 300q-3 36 -29 63t-70 27q-45 0 -73.5 -26.5t-33.5 -63.5h206z" />
    <glyph glyph-name="Ydieresis" unicode="&#x178;" horiz-adv-x="653" 
d="M394 317v-317h-135v317l-240 383h154l155 -249l155 249h151zM142 849q0 33 23.5 55t56.5 22t56.5 -22t23.5 -55t-23.5 -55.5t-56.5 -22.5t-56.5 22.5t-23.5 55.5zM352 849q0 33 23.5 55t56.5 22t56.5 -22t23.5 -55t-23.5 -55.5t-56.5 -22.5t-56.5 22.5t-23.5 55.5z" />
    <glyph glyph-name="circumflex" unicode="&#x2c6;" horiz-adv-x="480" 
d="M315 718l95 -160h-80l-90 85l-90 -85h-80l95 160h150z" />
    <glyph glyph-name="tilde" unicode="&#x2dc;" horiz-adv-x="510" 
d="M440 697q0 -28 -6.5 -52.5t-19.5 -42.5t-33 -28.5t-47 -10.5q-23 0 -42.5 8t-37.5 17t-34.5 17t-32.5 8q-18 0 -28 -14.5t-12 -35.5l-77 16q0 28 6.5 52.5t19.5 42.5t33 28.5t47 10.5q22 0 42 -8t38 -17t34.5 -17t32.5 -8q18 0 28 14.5t12 35.5z" />
    <glyph glyph-name="uni2000" unicode="&#x2000;" horiz-adv-x="540" 
 />
    <glyph glyph-name="uni2001" unicode="&#x2001;" horiz-adv-x="1080" 
 />
    <glyph glyph-name="uni2002" unicode="&#x2002;" horiz-adv-x="540" 
 />
    <glyph glyph-name="uni2003" unicode="&#x2003;" horiz-adv-x="1080" 
 />
    <glyph glyph-name="uni2004" unicode="&#x2004;" horiz-adv-x="360" 
 />
    <glyph glyph-name="uni2005" unicode="&#x2005;" horiz-adv-x="270" 
 />
    <glyph glyph-name="uni2006" unicode="&#x2006;" horiz-adv-x="180" 
 />
    <glyph glyph-name="uni2007" unicode="&#x2007;" horiz-adv-x="632" 
 />
    <glyph glyph-name="uni2008" unicode="&#x2008;" horiz-adv-x="320" 
 />
    <glyph glyph-name="uni2009" unicode="&#x2009;" horiz-adv-x="135" 
 />
    <glyph glyph-name="uni200A" unicode="&#x200a;" horiz-adv-x="45" 
 />
    <glyph glyph-name="figuredash" unicode="&#x2012;" 
d="M540 375v-110h-490v110h490z" />
    <glyph glyph-name="endash" unicode="&#x2013;" horiz-adv-x="620" 
d="M555 315v-110h-490v110h490z" />
    <glyph glyph-name="emdash" unicode="&#x2014;" horiz-adv-x="920" 
d="M855 315v-110h-790v110h790z" />
    <glyph glyph-name="quoteleft" unicode="&#x2018;" horiz-adv-x="287" 
d="M35 410l130 290h90l-75 -290h-145z" />
    <glyph glyph-name="quoteright" unicode="&#x2019;" horiz-adv-x="281" 
d="M265 700l-130 -290h-90l75 290h145z" />
    <glyph glyph-name="quotesinglbase" unicode="&#x201a;" horiz-adv-x="332" 
d="M255 150l-130 -290h-90l75 290h145z" />
    <glyph glyph-name="quotedblleft" unicode="&#x201c;" horiz-adv-x="527" 
d="M275 410l130 290h90l-75 -290h-145zM35 410l130 290h90l-75 -290h-145z" />
    <glyph glyph-name="quotedblright" unicode="&#x201d;" horiz-adv-x="521" 
d="M265 700l-130 -290h-90l75 290h145zM505 700l-130 -290h-90l75 290h145z" />
    <glyph glyph-name="quotedblbase" unicode="&#x201e;" horiz-adv-x="572" 
d="M255 150l-130 -290h-90l75 290h145zM495 150l-130 -290h-90l75 290h145z" />
    <glyph glyph-name="bullet" unicode="&#x2022;" horiz-adv-x="635" 
d="M65 242q0 52 19.5 98.5t54 80.5t80 54t98.5 20q52 0 98.5 -20t80.5 -54t54 -80.5t20 -98.5q0 -53 -20 -98.5t-54 -80t-80.5 -54t-98.5 -19.5q-53 0 -98.5 19.5t-80 54t-54 80t-19.5 98.5z" />
    <glyph glyph-name="ellipsis" unicode="&#x2026;" horiz-adv-x="930" 
d="M75 73q0 35 25 59t60 24t60 -24t25 -59t-25 -59t-60 -24t-60 24t-25 59zM380 73q0 35 25 59t60 24t60 -24t25 -59t-25 -59t-60 -24t-60 24t-25 59zM685 73q0 35 25 59t60 24t60 -24t25 -59t-25 -59t-60 -24t-60 24t-25 59z" />
    <glyph glyph-name="guilsinglleft" unicode="&#x2039;" horiz-adv-x="376" 
d="M334 437l-159 -188l159 -192h-145l-158 190l160 190h143z" />
    <glyph glyph-name="guilsinglright" unicode="&#x203a;" horiz-adv-x="376" 
d="M42 57l159 188l-159 192h145l158 -190l-160 -190h-143z" />
    <glyph glyph-name="Euro" unicode="&#x20ac;" horiz-adv-x="694" 
d="M441 710q65 0 123 -24t93 -66l-75 -82q-20 19 -53.5 35.5t-85.5 16.5q-60 0 -99.5 -31.5t-61.5 -78.5h250l-36 -100h-240q-1 -8 -1 -15v-15v-15t1 -15h219l-36 -100h-157q22 -48 61.5 -79t99.5 -31q29 0 51 5.5t39.5 13.5t30 18t23.5 19l75 -81q-15 -20 -38.5 -37.5
t-52.5 -30t-62 -20t-68 -7.5q-50 0 -97.5 14.5t-87.5 43t-70.5 71.5t-46.5 101h-97v100h81q-1 8 -1 15v15v15t1 15h-81v100h97q16 57 46.5 100.5t70.5 72t87.5 43t97.5 14.5z" />
    <glyph glyph-name="trademark" unicode="&#x2122;" horiz-adv-x="848" 
d="M320 700v-80h-100v-303h-87v303h-100v80h287zM709 700h64v-383h-89v208l-106 -156h-14l-106 156v-208h-89v383h63l140 -206z" />
    <glyph glyph-name="uni25FC" unicode="&#x25fc;" horiz-adv-x="585" 
d="M50 0v485h485v-485h-485z" />
    <glyph glyph-name="fi" unicode="&#xfb01;" horiz-adv-x="716" 
d="M381 588q-11 8 -25 12.5t-29 4.5t-27 -6t-19 -15q-6 -8 -9.5 -20t-3.5 -38v-41h145v-105h-145v-380h-130v380h-115v105h115v40q0 57 15.5 95t44.5 61q47 39 113 39q37 0 68 -10.5t54 -30.5zM640 0h-130v485h130v-485zM493 660q0 34 24 57t58 23t58 -23t24 -57t-24 -57
t-58 -23t-58 23t-24 57z" />
    <glyph glyph-name="fl" unicode="&#xfb02;" horiz-adv-x="716" 
d="M381 588q-11 8 -25 12.5t-29 4.5t-27 -6t-19 -15q-6 -8 -9.5 -20t-3.5 -38v-41h145v-105h-145v-380h-130v380h-115v105h115v40q0 57 15.5 95t44.5 61q47 39 113 39q37 0 68 -10.5t54 -30.5zM640 0h-130v710h130v-710z" />
    <glyph glyph-name="dotlessi" horiz-adv-x="282" 
d="M206 0h-130v485h130v-485z" />
    <glyph glyph-name="longs" horiz-adv-x="302" 
d="M319 588q-11 8 -25 12.5t-29 4.5t-27 -6t-19 -15q-6 -8 -9.5 -20t-3.5 -38v-526h-130v525q0 57 15.5 95t44.5 61q47 39 113 39q37 0 68 -10.5t54 -30.5z" />
    <glyph glyph-name="uni0300" horiz-adv-x="1" 
d="M-307 718l60 -160h-80l-120 160h140z" />
    <glyph glyph-name="uni0301" horiz-adv-x="1" 
d="M-137 718l-120 -160h-80l60 160h140z" />
    <glyph glyph-name="uni0302" horiz-adv-x="1" 
d="M-217 718l95 -160h-80l-90 85l-90 -85h-80l95 160h150z" />
    <glyph glyph-name="uni0303" horiz-adv-x="1" 
d="M-107 697q0 -28 -6.5 -52.5t-19.5 -42.5t-33 -28.5t-47 -10.5q-23 0 -42.5 8t-37.5 17t-34.5 17t-32.5 8q-18 0 -28 -14.5t-12 -35.5l-77 16q0 28 6.5 52.5t19.5 42.5t33 28.5t47 10.5q22 0 42 -8t38 -17t34.5 -17t32.5 -8q18 0 28 14.5t12 35.5z" />
    <glyph glyph-name="uni0307" horiz-adv-x="1" 
d="M-221 638q0 34 24 57t58 23t58 -23t24 -57t-24 -57t-58 -23t-58 23t-24 57z" />
    <glyph glyph-name="uni0308" horiz-adv-x="1" 
d="M-439 639q0 33 23.5 55t56.5 22t56.5 -22t23.5 -55t-23.5 -55.5t-56.5 -22.5t-56.5 22.5t-23.5 55.5zM-229 639q0 33 23.5 55t56.5 22t56.5 -22t23.5 -55t-23.5 -55.5t-56.5 -22.5t-56.5 22.5t-23.5 55.5z" />
    <glyph glyph-name="uni030A" horiz-adv-x="1" 
d="M-289 662q0 23 8.5 43t23.5 35t35 23.5t43 8.5t43 -8.5t35 -23.5t23.5 -35t8.5 -43t-8.5 -43t-23.5 -35t-35 -23.5t-43 -8.5t-43 8.5t-35 23.5t-23.5 35t-8.5 43zM-214 662q0 -17 10.5 -27t24.5 -10t24.5 10t10.5 27t-10.5 27t-24.5 10t-24.5 -10t-10.5 -27z" />
    <glyph glyph-name="uni03BC" horiz-adv-x="665" 
d="M75 485h130v-324q14 -21 42.5 -36t60.5 -15q34 0 61 14.5t47 38.5v322h130v-333q0 -22 11 -34.5t30 -12.5q11 0 21.5 2.5t16.5 4.5l31 -100q-20 -10 -45.5 -15.5t-53.5 -5.5q-40 0 -71 16.5t-46 46.5q-23 -26 -56.5 -44.5t-75.5 -18.5q-35 0 -62 14t-41 28v-259h-130v711
z" />
    <glyph glyph-name="fraction" horiz-adv-x="189" 
d="M-165 0l409 700h106l-409 -700h-106z" />
    <glyph glyph-name="uni2070" horiz-adv-x="347" 
d="M314 520q0 -38 -7.5 -72t-24 -60.5t-43 -42t-65.5 -15.5t-66 15.5t-43.5 42t-23.5 60.5t-7 72q0 37 7 71.5t23.5 61t43.5 42t66 15.5t65.5 -15.5t43 -42t24 -61t7.5 -71.5zM129 520q0 -21 2 -41t7 -35.5t13.5 -24.5t22.5 -9q13 0 22 9t14 24.5t7 35.5t2 41t-2 41t-7 35.5
t-14 24.5t-22 9q-14 0 -22.5 -9t-13.5 -24.5t-7 -35.5t-2 -41z" />
    <glyph glyph-name="uni2074" horiz-adv-x="355" 
d="M269 485h61v-75h-61v-70h-85v70h-164v50l189 240h60v-215zM184 485v75l-59 -75h59z" />
    <glyph glyph-name="uni2075" horiz-adv-x="310" 
d="M45 502l19 198h191v-80h-114l-4 -42q8 2 14.5 2.5t9.5 0.5q31 0 53.5 -11t37 -28.5t21.5 -39.5t7 -44q0 -27 -10.5 -50.5t-28.5 -40.5t-43 -27t-55 -10q-35 0 -66 12.5t-57 39.5l58 55q9 -10 24 -17.5t35 -7.5t35 13.5t15 36.5q0 21 -14 34.5t-36 13.5q-23 0 -40 -15z
" />
    <glyph glyph-name="uni2076" horiz-adv-x="333" 
d="M184 582q26 -1 49 -10t40 -25.5t27 -38.5t10 -49t-11 -50.5t-29.5 -41t-44 -27.5t-55.5 -10q-27 0 -52 8.5t-44.5 25t-31.5 40t-12 53.5q0 32 12.5 58.5t23.5 44.5l86 140h105zM218 459q0 20 -12.5 33.5t-34.5 13.5t-36 -12q-13 -15 -13 -35t13.5 -33.5t35.5 -13.5
q20 0 33.5 13.5t13.5 33.5z" />
    <glyph glyph-name="uni2077" horiz-adv-x="296" 
d="M277 700v-50l-139 -310h-98l126 278h-139v82h250z" />
    <glyph glyph-name="uni2078" horiz-adv-x="342" 
d="M171 330q-31 0 -57 9t-44.5 25t-28.5 37.5t-10 45.5q0 26 13 49.5t36 37.5q-15 14 -24 32t-9 39q0 22 9.5 41t26.5 33t39.5 22.5t48.5 8.5t48.5 -8.5t39.5 -22.5t26.5 -33t9.5 -41q0 -21 -9 -39t-24 -32q23 -14 36 -37.5t13 -49.5q0 -24 -10 -45.5t-28.5 -37.5t-44.5 -25
t-57 -9zM171 562q13 0 22.5 9t9.5 25t-9.5 25t-22.5 9t-22.5 -9t-9.5 -25t9.5 -25t22.5 -9zM121 456q0 -20 13.5 -33t36.5 -13t36.5 13t13.5 33t-13.5 33.5t-36.5 13.5t-36.5 -13.5t-13.5 -33.5z" />
    <glyph glyph-name="uni2079" horiz-adv-x="333" 
d="M149 458q-26 1 -49 10t-40 25.5t-27 38.5t-10 49t11 50.5t29.5 41t44 27.5t55.5 10q27 0 52 -8.5t44.5 -25t31.5 -40t12 -53.5q0 -32 -12.5 -58.5t-23.5 -44.5l-86 -140h-105zM115 581q0 -20 12.5 -33.5t34.5 -13.5t36 12q13 15 13 35t-13.5 33.5t-35.5 13.5
q-20 0 -33.5 -13.5t-13.5 -33.5z" />
    <glyph glyph-name="uni2080" horiz-adv-x="347" 
d="M314 180q0 -38 -7.5 -72t-24 -60.5t-43 -42t-65.5 -15.5t-66 15.5t-43.5 42t-23.5 60.5t-7 72q0 37 7 71.5t23.5 61t43.5 42t66 15.5t65.5 -15.5t43 -42t24 -61t7.5 -71.5zM129 180q0 -21 2 -41t7 -35.5t13.5 -24.5t22.5 -9q13 0 22 9t14 24.5t7 35.5t2 41t-2 41t-7 35.5
t-14 24.5t-22 9q-14 0 -22.5 -9t-13.5 -24.5t-7 -35.5t-2 -41z" />
    <glyph glyph-name="uni2081" horiz-adv-x="270" 
d="M25 291l120 65h60v-360h-95v250l-85 -48v93z" />
    <glyph glyph-name="uni2082" horiz-adv-x="325" 
d="M150 165q26 26 35.5 43.5t9.5 35.5q0 17 -11.5 30.5t-29.5 13.5q-42 0 -51 -50l-78 20q12 56 47 84t82 28q28 0 52 -10t41.5 -27t27.5 -40t10 -49q0 -28 -14 -59t-52 -69l-34 -34h105v-82h-255v50z" />
    <glyph glyph-name="uni2083" horiz-adv-x="321" 
d="M99 210l62 68h-118v82h235v-50l-69 -76q34 -12 56.5 -42t22.5 -71q0 -26 -9 -50t-26 -42t-42 -28.5t-58 -10.5q-87 0 -132 70l66 42q9 -14 24.5 -22t35.5 -8q22 0 36.5 13.5t14.5 35.5q0 23 -15 36t-38 13q-9 0 -23 -2.5t-23 -7.5v50z" />
    <glyph glyph-name="uni2084" horiz-adv-x="355" 
d="M269 145h61v-75h-61v-70h-85v70h-164v50l189 240h60v-215zM184 145v75l-59 -75h59z" />
    <glyph glyph-name="uni2085" horiz-adv-x="310" 
d="M45 162l19 198h191v-80h-114l-4 -42q8 2 14.5 2.5t9.5 0.5q31 0 53.5 -11t37 -28.5t21.5 -39.5t7 -44q0 -27 -10.5 -50.5t-28.5 -40.5t-43 -27t-55 -10q-35 0 -66 12.5t-57 39.5l58 55q9 -10 24 -17.5t35 -7.5t35 13.5t15 36.5q0 21 -14 34.5t-36 13.5q-23 0 -40 -15z
" />
    <glyph glyph-name="uni2086" horiz-adv-x="333" 
d="M184 242q26 -1 49 -10t40 -25.5t27 -38.5t10 -49t-11 -50.5t-29.5 -41t-44 -27.5t-55.5 -10q-27 0 -52 8.5t-44.5 25t-31.5 40t-12 53.5q0 32 12.5 58.5t23.5 44.5l86 140h105zM218 119q0 20 -12.5 33.5t-34.5 13.5t-36 -12q-13 -15 -13 -35t13.5 -33.5t35.5 -13.5
q20 0 33.5 13.5t13.5 33.5z" />
    <glyph glyph-name="uni2087" horiz-adv-x="296" 
d="M276 360v-50l-139 -310h-98l126 278h-139v82h250z" />
    <glyph glyph-name="uni2088" horiz-adv-x="342" 
d="M171 -10q-31 0 -57 9t-44.5 25t-28.5 37.5t-10 45.5q0 26 13 49.5t36 37.5q-15 14 -24 32t-9 39q0 22 9.5 41t26.5 33t39.5 22.5t48.5 8.5t48.5 -8.5t39.5 -22.5t26.5 -33t9.5 -41q0 -21 -9 -39t-24 -32q23 -14 36 -37.5t13 -49.5q0 -24 -10 -45.5t-28.5 -37.5t-44.5 -25
t-57 -9zM171 222q13 0 22.5 9t9.5 25t-9.5 25t-22.5 9t-22.5 -9t-9.5 -25t9.5 -25t22.5 -9zM121 116q0 -20 13.5 -33t36.5 -13t36.5 13t13.5 33t-13.5 33.5t-36.5 13.5t-36.5 -13.5t-13.5 -33.5z" />
    <glyph glyph-name="uni2089" horiz-adv-x="333" 
d="M149 118q-26 1 -49 10t-40 25.5t-27 38.5t-10 49t11 50.5t29.5 41t44 27.5t55.5 10q27 0 52 -8.5t44.5 -25t31.5 -40t12 -53.5q0 -32 -12.5 -58.5t-23.5 -44.5l-86 -140h-105zM115 241q0 -20 12.5 -33.5t34.5 -13.5t36 12q13 15 13 35t-13.5 33.5t-35.5 13.5
q-20 0 -33.5 -13.5t-13.5 -33.5z" />
    <glyph glyph-name="uni2780" horiz-adv-x="900" 
d="M160 350q0 -61 22.5 -114.5t61.5 -93.5t92 -63.5t114 -23.5t114 23.5t92 63.5t61.5 93.5t22.5 114.5t-22.5 114.5t-61.5 93.5t-92 63.5t-114 23.5t-114 -23.5t-92 -63.5t-61.5 -93.5t-22.5 -114.5zM450 -25q-79 0 -147.5 29.5t-119 80.5t-79.5 119t-29 146t29 146
t79.5 119t119 80.5t147.5 29.5t147.5 -29.5t119 -80.5t79.5 -119t29 -146t-29 -146t-79.5 -119t-119 -80.5t-147.5 -29.5zM329 473l120 65h60v-360h-95v250l-85 -48v93z" />
    <glyph glyph-name="uni2781" horiz-adv-x="900" 
d="M160 350q0 -61 22.5 -114.5t61.5 -93.5t92 -63.5t114 -23.5t114 23.5t92 63.5t61.5 93.5t22.5 114.5t-22.5 114.5t-61.5 93.5t-92 63.5t-114 23.5t-114 -23.5t-92 -63.5t-61.5 -93.5t-22.5 -114.5zM450 -25q-79 0 -147.5 29.5t-119 80.5t-79.5 119t-29 146t29 146
t79.5 119t119 80.5t147.5 29.5t147.5 -29.5t119 -80.5t79.5 -119t29 -146t-29 -146t-79.5 -119t-119 -80.5t-147.5 -29.5zM441 346q26 26 35.5 43.5t9.5 35.5q0 17 -11.5 30.5t-29.5 13.5q-42 0 -51 -50l-78 20q12 56 47 84t82 28q28 0 52 -10t41.5 -27t27.5 -40t10 -49
q0 -28 -14 -59t-52 -69l-34 -34h105v-82h-255v50z" />
    <glyph glyph-name="uni2782" horiz-adv-x="900" 
d="M160 350q0 -61 22.5 -114.5t61.5 -93.5t92 -63.5t114 -23.5t114 23.5t92 63.5t61.5 93.5t22.5 114.5t-22.5 114.5t-61.5 93.5t-92 63.5t-114 23.5t-114 -23.5t-92 -63.5t-61.5 -93.5t-22.5 -114.5zM450 -25q-79 0 -147.5 29.5t-119 80.5t-79.5 119t-29 146t29 146
t79.5 119t119 80.5t147.5 29.5t147.5 -29.5t119 -80.5t79.5 -119t29 -146t-29 -146t-79.5 -119t-119 -80.5t-147.5 -29.5zM396 379l62 68h-118v82h235v-50l-69 -76q34 -12 56.5 -42t22.5 -71q0 -26 -9 -50t-26 -42t-42 -28.5t-58 -10.5q-87 0 -132 70l66 42q9 -14 24.5 -22
t35.5 -8q22 0 36.5 13.5t14.5 35.5q0 23 -15 36t-38 13q-9 0 -23 -2.5t-23 -7.5v50z" />
    <glyph glyph-name="uni2783" horiz-adv-x="900" 
d="M160 350q0 -61 22.5 -114.5t61.5 -93.5t92 -63.5t114 -23.5t114 23.5t92 63.5t61.5 93.5t22.5 114.5t-22.5 114.5t-61.5 93.5t-92 63.5t-114 23.5t-114 -23.5t-92 -63.5t-61.5 -93.5t-22.5 -114.5zM450 -25q-79 0 -147.5 29.5t-119 80.5t-79.5 119t-29 146t29 146
t79.5 119t119 80.5t147.5 29.5t147.5 -29.5t119 -80.5t79.5 -119t29 -146t-29 -146t-79.5 -119t-119 -80.5t-147.5 -29.5zM520 329h61v-75h-61v-70h-85v70h-164v50l189 240h60v-215zM435 329v75l-59 -75h59z" />
    <glyph glyph-name="uni2784" horiz-adv-x="900" 
d="M160 350q0 -61 22.5 -114.5t61.5 -93.5t92 -63.5t114 -23.5t114 23.5t92 63.5t61.5 93.5t22.5 114.5t-22.5 114.5t-61.5 93.5t-92 63.5t-114 23.5t-114 -23.5t-92 -63.5t-61.5 -93.5t-22.5 -114.5zM450 -25q-79 0 -147.5 29.5t-119 80.5t-79.5 119t-29 146t29 146
t79.5 119t119 80.5t147.5 29.5t147.5 -29.5t119 -80.5t79.5 -119t29 -146t-29 -146t-79.5 -119t-119 -80.5t-147.5 -29.5zM347 332l19 198h191v-80h-114l-4 -42q8 2 14.5 2.5t9.5 0.5q31 0 53.5 -11t37 -28.5t21.5 -39.5t7 -44q0 -27 -10.5 -50.5t-28.5 -40.5t-43 -27
t-55 -10q-35 0 -66 12.5t-57 39.5l58 55q9 -10 24 -17.5t35 -7.5t35 13.5t15 36.5q0 21 -14 34.5t-36 13.5q-23 0 -40 -15z" />
    <glyph glyph-name="uni2785" horiz-adv-x="900" 
d="M160 350q0 -61 22.5 -114.5t61.5 -93.5t92 -63.5t114 -23.5t114 23.5t92 63.5t61.5 93.5t22.5 114.5t-22.5 114.5t-61.5 93.5t-92 63.5t-114 23.5t-114 -23.5t-92 -63.5t-61.5 -93.5t-22.5 -114.5zM450 -25q-79 0 -147.5 29.5t-119 80.5t-79.5 119t-29 146t29 146
t79.5 119t119 80.5t147.5 29.5t147.5 -29.5t119 -80.5t79.5 -119t29 -146t-29 -146t-79.5 -119t-119 -80.5t-147.5 -29.5zM461 417q26 -1 49 -10t40 -25.5t27 -38.5t10 -49t-11 -50.5t-29.5 -41t-44 -27.5t-55.5 -10q-27 0 -52 8.5t-44.5 25t-31.5 40t-12 53.5
q0 32 12.5 58.5t23.5 44.5l86 140h105zM495 294q0 20 -12.5 33.5t-34.5 13.5t-36 -12q-13 -15 -13 -35t13.5 -33.5t35.5 -13.5q20 0 33.5 13.5t13.5 33.5z" />
    <glyph glyph-name="uni2786" horiz-adv-x="900" 
d="M160 350q0 -61 22.5 -114.5t61.5 -93.5t92 -63.5t114 -23.5t114 23.5t92 63.5t61.5 93.5t22.5 114.5t-22.5 114.5t-61.5 93.5t-92 63.5t-114 23.5t-114 -23.5t-92 -63.5t-61.5 -93.5t-22.5 -114.5zM450 -25q-79 0 -147.5 29.5t-119 80.5t-79.5 119t-29 146t29 146
t79.5 119t119 80.5t147.5 29.5t147.5 -29.5t119 -80.5t79.5 -119t29 -146t-29 -146t-79.5 -119t-119 -80.5t-147.5 -29.5zM591 527v-50l-139 -310h-98l126 278h-139v82h250z" />
    <glyph glyph-name="uni2787" horiz-adv-x="900" 
d="M160 350q0 -61 22.5 -114.5t61.5 -93.5t92 -63.5t114 -23.5t114 23.5t92 63.5t61.5 93.5t22.5 114.5t-22.5 114.5t-61.5 93.5t-92 63.5t-114 23.5t-114 -23.5t-92 -63.5t-61.5 -93.5t-22.5 -114.5zM450 -25q-79 0 -147.5 29.5t-119 80.5t-79.5 119t-29 146t29 146
t79.5 119t119 80.5t147.5 29.5t147.5 -29.5t119 -80.5t79.5 -119t29 -146t-29 -146t-79.5 -119t-119 -80.5t-147.5 -29.5zM450 167q-31 0 -57 9t-44.5 25t-28.5 37.5t-10 45.5q0 26 13 49.5t36 37.5q-15 14 -24 32t-9 39q0 22 9.5 41t26.5 33t39.5 22.5t48.5 8.5t48.5 -8.5
t39.5 -22.5t26.5 -33t9.5 -41q0 -21 -9 -39t-24 -32q23 -14 36 -37.5t13 -49.5q0 -24 -10 -45.5t-28.5 -37.5t-44.5 -25t-57 -9zM450 399q13 0 22.5 9t9.5 25t-9.5 25t-22.5 9t-22.5 -9t-9.5 -25t9.5 -25t22.5 -9zM400 293q0 -20 13.5 -33t36.5 -13t36.5 13t13.5 33
t-13.5 33.5t-36.5 13.5t-36.5 -13.5t-13.5 -33.5z" />
    <glyph glyph-name="uni2788" horiz-adv-x="900" 
d="M160 350q0 -61 22.5 -114.5t61.5 -93.5t92 -63.5t114 -23.5t114 23.5t92 63.5t61.5 93.5t22.5 114.5t-22.5 114.5t-61.5 93.5t-92 63.5t-114 23.5t-114 -23.5t-92 -63.5t-61.5 -93.5t-22.5 -114.5zM450 -25q-79 0 -147.5 29.5t-119 80.5t-79.5 119t-29 146t29 146
t79.5 119t119 80.5t147.5 29.5t147.5 -29.5t119 -80.5t79.5 -119t29 -146t-29 -146t-79.5 -119t-119 -80.5t-147.5 -29.5zM445 286q-26 1 -49 10t-40 25.5t-27 38.5t-10 49t11 50.5t29.5 41t44 27.5t55.5 10q27 0 52 -8.5t44.5 -25t31.5 -40t12 -53.5q0 -32 -12.5 -58.5
t-23.5 -44.5l-86 -140h-105zM411 409q0 -20 12.5 -33.5t34.5 -13.5t36 12q13 15 13 35t-13.5 33.5t-35.5 13.5q-20 0 -33.5 -13.5t-13.5 -33.5z" />
    <glyph glyph-name="uni278A" horiz-adv-x="900" 
d="M331 384l85 48v-252h91v356h-57l-119 -64v-88zM450 -25q-79 0 -147.5 29.5t-119 80.5t-79.5 119t-29 146t29 146t79.5 119t119 80.5t147.5 29.5t147.5 -29.5t119 -80.5t79.5 -119t29 -146t-29 -146t-79.5 -119t-119 -80.5t-147.5 -29.5z" />
    <glyph glyph-name="uni278B" horiz-adv-x="900" 
d="M330 231v-46h247v74h-111l42 42q38 38 51 68.5t13 55.5q0 24 -9.5 46.5t-26 39t-39 26.5t-48.5 10q-48 0 -82 -27.5t-47 -81.5q17 -5 35 -10t35 -10q5 26 18.5 40.5t36.5 14.5q20 0 32.5 -14t12.5 -34q0 -19 -10.5 -37t-34.5 -42zM450 -25q-79 0 -147.5 29.5t-119 80.5
t-79.5 119t-29 146t29 146t79.5 119t119 80.5t147.5 29.5t147.5 -29.5t119 -80.5t79.5 -119t29 -146t-29 -146t-79.5 -119t-119 -80.5t-147.5 -29.5z" />
    <glyph glyph-name="uni278C" horiz-adv-x="900" 
d="M400 336q9 4 21 5.5t20 1.5q26 0 41 -14.5t15 -37.5q0 -26 -15.5 -39.5t-38.5 -13.5q-19 0 -33 8t-25 22l-62 -40q45 -65 127 -65q31 0 55.5 10.5t41 28t25.5 40.5t9 48q0 40 -22.5 70.5t-57.5 41.5l70 77v46h-227v-74h122l-66 -72v-43zM450 -25q-79 0 -147.5 29.5
t-119 80.5t-79.5 119t-29 146t29 146t79.5 119t119 80.5t147.5 29.5t147.5 -29.5t119 -80.5t79.5 -119t29 -146t-29 -146t-79.5 -119t-119 -80.5t-147.5 -29.5z" />
    <glyph glyph-name="uni278D" horiz-adv-x="900" 
d="M518 542h-57l-188 -239v-47h164v-70h81v70h61v71h-61v215zM373 327l64 82v-82h-64zM450 -25q-79 0 -147.5 29.5t-119 80.5t-79.5 119t-29 146t29 146t79.5 119t119 80.5t147.5 29.5t147.5 -29.5t119 -80.5t79.5 -119t29 -146t-29 -146t-79.5 -119t-119 -80.5
t-147.5 -29.5z" />
    <glyph glyph-name="uni278E" horiz-adv-x="900" 
d="M398 327q8 7 19 11t22 4q23 0 37.5 -13.5t14.5 -36.5q0 -24 -15 -38t-37 -14q-20 0 -35.5 7.5t-23.5 15.5l-54 -51q20 -23 49.5 -36.5t69.5 -13.5q30 0 55 10t42.5 27t27.5 40t10 49q0 22 -7 43.5t-21.5 39t-37 28t-52.5 10.5q-10 0 -25 -3l4 46h114v76h-187l-19 -194z
M450 -25q-79 0 -147.5 29.5t-119 80.5t-79.5 119t-29 146t29 146t79.5 119t119 80.5t147.5 29.5t147.5 -29.5t119 -80.5t79.5 -119t29 -146t-29 -146t-79.5 -119t-119 -80.5t-147.5 -29.5z" />
    <glyph glyph-name="uni278F" horiz-adv-x="900" 
d="M530 533h-99l-86 -140q-11 -18 -23.5 -44.5t-12.5 -56.5q0 -29 12 -52t31.5 -39.5t44 -25t50.5 -8.5q29 0 54 10t44 27.5t29.5 40.5t10.5 49t-10 48t-27 38t-40.5 25t-50.5 10zM497 294q0 -21 -14 -35t-35 -14q-23 0 -37 13.5t-14 35.5q0 11 4.5 20.5t9.5 16.5
q6 5 16 8.5t21 3.5q23 0 36 -14t13 -35zM450 -25q-79 0 -147.5 29.5t-119 80.5t-79.5 119t-29 146t29 146t79.5 119t119 80.5t147.5 29.5t147.5 -29.5t119 -80.5t79.5 -119t29 -146t-29 -146t-79.5 -119t-119 -80.5t-147.5 -29.5z" />
    <glyph glyph-name="uni2790" horiz-adv-x="900" 
d="M343 525v-78h139l-126 -278h95q16 38 33.5 76.5t34.5 76.5t35 77.5t35 77.5v48h-246zM450 -25q-79 0 -147.5 29.5t-119 80.5t-79.5 119t-29 146t29 146t79.5 119t119 80.5t147.5 29.5t147.5 -29.5t119 -80.5t79.5 -119t29 -146t-29 -146t-79.5 -119t-119 -80.5
t-147.5 -29.5z" />
    <glyph glyph-name="uni2791" horiz-adv-x="900" 
d="M450 169q30 0 55.5 9t44 25t28.5 36.5t10 44.5q0 25 -13.5 49t-37.5 38q35 32 35 71q0 21 -9.5 39.5t-26 33t-39 22.5t-47.5 8t-47.5 -8t-39 -22.5t-26 -33t-9.5 -39.5q0 -20 9 -38t26 -33q-24 -14 -37.5 -38t-13.5 -49q0 -24 10 -44.5t28.5 -36.5t44 -25t55.5 -9z
M450 397q-14 0 -24 9.5t-10 26.5t10 26.5t24 9.5t24 -9.5t10 -26.5t-10 -26.5t-24 -9.5zM398 293q0 21 14 35t38 14t38 -14t14 -35t-14 -34.5t-38 -13.5t-38 13.5t-14 34.5zM450 -25q-79 0 -147.5 29.5t-119 80.5t-79.5 119t-29 146t29 146t79.5 119t119 80.5t147.5 29.5
t147.5 -29.5t119 -80.5t79.5 -119t29 -146t-29 -146t-79.5 -119t-119 -80.5t-147.5 -29.5z" />
    <glyph glyph-name="uni2792" horiz-adv-x="900" 
d="M450 -25q-79 0 -147.5 29.5t-119 80.5t-79.5 119t-29 146t29 146t79.5 119t119 80.5t147.5 29.5t147.5 -29.5t119 -80.5t79.5 -119t29 -146t-29 -146t-79.5 -119t-119 -80.5t-147.5 -29.5zM376 170h99l86 140q11 18 23.5 44.5t12.5 56.5q0 29 -12 52t-31.5 39.5t-44 25
t-50.5 8.5q-29 0 -54 -10t-44 -27.5t-29.5 -40.5t-10.5 -49q0 -54 36 -87.5t92 -33.5zM409 409q0 21 14 35t35 14q23 0 37 -13.5t14 -35.5q0 -11 -4.5 -20.5t-9.5 -16.5q-6 -5 -16 -8.5t-21 -3.5q-23 0 -36 14t-13 35z" />
    <glyph glyph-name="i.latn_TRK" horiz-adv-x="282" 
d="M206 0h-130v485h130v-485zM59 660q0 34 24 57t58 23t58 -23t24 -57t-24 -57t-58 -23t-58 23t-24 57z" />
    <glyph glyph-name="Ldot.latn_CAT" horiz-adv-x="545" 
d="M84 700h135v-580h295v-120h-430v700zM334 356q0 34 24 57t58 23t58 -23t24 -57t-24 -57t-58 -23t-58 23t-24 57z" />
    <glyph glyph-name="ldot.latn_CAT" horiz-adv-x="404" 
d="M206 0h-130v710h130v-710zM257 331q0 34 24 57t58 23t58 -23t24 -57t-24 -57t-58 -23t-58 23t-24 57z" />
    <glyph glyph-name="percent.afrc" 
d="M70 312v81h450v-81h-450zM435 80q0 -38 -7.5 -72t-24 -60.5t-43 -42t-65.5 -15.5t-66 15.5t-43.5 42t-23.5 60.5t-7 72q0 37 7 71.5t23.5 61t43.5 42t66 15.5t65.5 -15.5t43 -42t24 -61t7.5 -71.5zM250 80q0 -21 2 -41t7 -35.5t13.5 -24.5t22.5 -9q13 0 22 9t14 24.5
t7 35.5t2 41t-2 41t-7 35.5t-14 24.5t-22 9q-14 0 -22.5 -9t-13.5 -24.5t-7 -35.5t-2 -41zM435 625q0 -38 -7.5 -72t-24 -60.5t-43 -42t-65.5 -15.5t-66 15.5t-43.5 42t-23.5 60.5t-7 72q0 37 7 71.5t23.5 61t43.5 42t66 15.5t65.5 -15.5t43 -42t24 -61t7.5 -71.5zM250 625
q0 -21 2 -41t7 -35.5t13.5 -24.5t22.5 -9q13 0 22 9t14 24.5t7 35.5t2 41t-2 41t-7 35.5t-14 24.5t-22 9q-14 0 -22.5 -9t-13.5 -24.5t-7 -35.5t-2 -41z" />
    <glyph glyph-name="onequarter.afrc" 
d="M72 312v81h450v-81h-450zM172 740l120 65h60v-360h-95v250l-85 -48v93zM381 45h61v-75h-61v-70h-85v70h-164v50l189 240h60v-215zM296 45v75l-59 -75h59z" />
    <glyph glyph-name="onehalf.afrc" 
d="M71 312v81h450v-81h-450zM171 740l120 65h60v-360h-95v250l-85 -48v93zM286 65q26 26 35.5 43.5t9.5 35.5q0 17 -11.5 30.5t-29.5 13.5q-42 0 -51 -50l-78 20q12 56 47 84t82 28q28 0 52 -10t41.5 -27t27.5 -40t10 -49q0 -28 -14 -59t-52 -69l-34 -34h105v-82h-255v50z
" />
    <glyph glyph-name="threequarters.afrc" 
d="M70 312v81h450v-81h-450zM379 45h61v-75h-61v-70h-85v70h-164v50l189 240h60v-215zM294 45v75l-59 -75h59zM236 655l62 68h-118v82h235v-50l-69 -76q34 -12 56.5 -42t22.5 -71q0 -26 -9 -50t-26 -42t-42 -28.5t-58 -10.5q-87 0 -132 70l66 42q9 -14 24.5 -22t35.5 -8
q22 0 36.5 13.5t14.5 35.5q0 23 -15 36t-38 13q-9 0 -23 -2.5t-23 -7.5v50z" />
    <glyph glyph-name="fraction.afrc" 
d="M73 312v81h450v-81h-450z" />
    <glyph glyph-name="uni2150.afrc" 
d="M73 312v81h450v-81h-450zM173 740l120 65h60v-360h-95v250l-85 -48v93zM423 260v-50l-139 -310h-98l126 278h-139v82h250z" />
    <glyph glyph-name="uni2151.afrc" 
d="M72 312v81h450v-81h-450zM172 740l120 65h60v-360h-95v250l-85 -48v93zM283 18q-26 1 -49 10t-40 25.5t-27 38.5t-10 49t11 50.5t29.5 41t44 27.5t55.5 10q27 0 52 -8.5t44.5 -25t31.5 -40t12 -53.5q0 -32 -12.5 -58.5t-23.5 -44.5l-86 -140h-105zM249 141
q0 -20 12.5 -33.5t34.5 -13.5t36 12q13 15 13 35t-13.5 33.5t-35.5 13.5q-20 0 -33.5 -13.5t-13.5 -33.5z" />
    <glyph glyph-name="uni2152.afrc" 
d="M64 312v81h450v-81h-450zM164 740l120 65h60v-360h-95v250l-85 -48v93zM34 195l120 65h60v-360h-95v250l-85 -48v93zM554 80q0 -38 -7.5 -72t-24 -60.5t-43 -42t-65.5 -15.5t-66 15.5t-43.5 42t-23.5 60.5t-7 72q0 37 7 71.5t23.5 61t43.5 42t66 15.5t65.5 -15.5t43 -42
t24 -61t7.5 -71.5zM369 80q0 -21 2 -41t7 -35.5t13.5 -24.5t22.5 -9q13 0 22 9t14 24.5t7 35.5t2 41t-2 41t-7 35.5t-14 24.5t-22 9q-14 0 -22.5 -9t-13.5 -24.5t-7 -35.5t-2 -41z" />
    <glyph glyph-name="onethird.afrc" 
d="M72 312v81h450v-81h-450zM172 740l120 65h60v-360h-95v250l-85 -48v93zM238 110l62 68h-118v82h235v-50l-69 -76q34 -12 56.5 -42t22.5 -71q0 -26 -9 -50t-26 -42t-42 -28.5t-58 -10.5q-87 0 -132 70l66 42q9 -14 24.5 -22t35.5 -8q22 0 36.5 13.5t14.5 35.5q0 23 -15 36
t-38 13q-9 0 -23 -2.5t-23 -7.5v50z" />
    <glyph glyph-name="twothirds.afrc" 
d="M69 312v81h450v-81h-450zM284 610q26 26 35.5 43.5t9.5 35.5q0 17 -11.5 30.5t-29.5 13.5q-42 0 -51 -50l-78 20q12 56 47 84t82 28q28 0 52 -10t41.5 -27t27.5 -40t10 -49q0 -28 -14 -59t-52 -69l-34 -34h105v-82h-255v50zM235 110l62 68h-118v82h235v-50l-69 -76
q34 -12 56.5 -42t22.5 -71q0 -26 -9 -50t-26 -42t-42 -28.5t-58 -10.5q-87 0 -132 70l66 42q9 -14 24.5 -22t35.5 -8q22 0 36.5 13.5t14.5 35.5q0 23 -15 36t-38 13q-9 0 -23 -2.5t-23 -7.5v50z" />
    <glyph glyph-name="uni2155.afrc" 
d="M71 312v81h450v-81h-450zM171 740l120 65h60v-360h-95v250l-85 -48v93zM196 62l19 198h191v-80h-114l-4 -42q8 2 14.5 2.5t9.5 0.5q31 0 53.5 -11t37 -28.5t21.5 -39.5t7 -44q0 -27 -10.5 -50.5t-28.5 -40.5t-43 -27t-55 -10q-35 0 -66 12.5t-57 39.5l58 55
q9 -10 24 -17.5t35 -7.5t35 13.5t15 36.5q0 21 -14 34.5t-36 13.5q-23 0 -40 -15z" />
    <glyph glyph-name="uni2156.afrc" 
d="M69 312v81h450v-81h-450zM194 62l19 198h191v-80h-114l-4 -42q8 2 14.5 2.5t9.5 0.5q31 0 53.5 -11t37 -28.5t21.5 -39.5t7 -44q0 -27 -10.5 -50.5t-28.5 -40.5t-43 -27t-55 -10q-35 0 -66 12.5t-57 39.5l58 55q9 -10 24 -17.5t35 -7.5t35 13.5t15 36.5q0 21 -14 34.5
t-36 13.5q-23 0 -40 -15zM284 610q26 26 35.5 43.5t9.5 35.5q0 17 -11.5 30.5t-29.5 13.5q-42 0 -51 -50l-78 20q12 56 47 84t82 28q28 0 52 -10t41.5 -27t27.5 -40t10 -49q0 -28 -14 -59t-52 -69l-34 -34h105v-82h-255v50z" />
    <glyph glyph-name="uni2157.afrc" 
d="M69 312v81h450v-81h-450zM194 62l19 198h191v-80h-114l-4 -42q8 2 14.5 2.5t9.5 0.5q31 0 53.5 -11t37 -28.5t21.5 -39.5t7 -44q0 -27 -10.5 -50.5t-28.5 -40.5t-43 -27t-55 -10q-35 0 -66 12.5t-57 39.5l58 55q9 -10 24 -17.5t35 -7.5t35 13.5t15 36.5q0 21 -14 34.5
t-36 13.5q-23 0 -40 -15zM235 655l62 68h-118v82h235v-50l-69 -76q34 -12 56.5 -42t22.5 -71q0 -26 -9 -50t-26 -42t-42 -28.5t-58 -10.5q-87 0 -132 70l66 42q9 -14 24.5 -22t35.5 -8q22 0 36.5 13.5t14.5 35.5q0 23 -15 36t-38 13q-9 0 -23 -2.5t-23 -7.5v50z" />
    <glyph glyph-name="uni2158.afrc" 
d="M69 312v81h450v-81h-450zM378 590h61v-75h-61v-70h-85v70h-164v50l189 240h60v-215zM293 590v75l-59 -75h59zM194 62l19 198h191v-80h-114l-4 -42q8 2 14.5 2.5t9.5 0.5q31 0 53.5 -11t37 -28.5t21.5 -39.5t7 -44q0 -27 -10.5 -50.5t-28.5 -40.5t-43 -27t-55 -10
q-35 0 -66 12.5t-57 39.5l58 55q9 -10 24 -17.5t35 -7.5t35 13.5t15 36.5q0 21 -14 34.5t-36 13.5q-23 0 -40 -15z" />
    <glyph glyph-name="uni2159.afrc" 
d="M71 312v81h450v-81h-450zM171 740l120 65h60v-360h-95v250l-85 -48v93zM315 142q26 -1 49 -10t40 -25.5t27 -38.5t10 -49t-11 -50.5t-29.5 -41t-44 -27.5t-55.5 -10q-27 0 -52 8.5t-44.5 25t-31.5 40t-12 53.5q0 32 12.5 58.5t23.5 44.5l86 140h105zM349 19
q0 20 -12.5 33.5t-34.5 13.5t-36 -12q-13 -15 -13 -35t13.5 -33.5t35.5 -13.5q20 0 33.5 13.5t13.5 33.5z" />
    <glyph glyph-name="uni215A.afrc" 
d="M67 312v81h450v-81h-450zM192 607l19 198h191v-80h-114l-4 -42q8 2 14.5 2.5t9.5 0.5q31 0 53.5 -11t37 -28.5t21.5 -39.5t7 -44q0 -27 -10.5 -50.5t-28.5 -40.5t-43 -27t-55 -10q-35 0 -66 12.5t-57 39.5l58 55q9 -10 24 -17.5t35 -7.5t35 13.5t15 36.5q0 21 -14 34.5
t-36 13.5q-23 0 -40 -15zM311 142q26 -1 49 -10t40 -25.5t27 -38.5t10 -49t-11 -50.5t-29.5 -41t-44 -27.5t-55.5 -10q-27 0 -52 8.5t-44.5 25t-31.5 40t-12 53.5q0 32 12.5 58.5t23.5 44.5l86 140h105zM345 19q0 20 -12.5 33.5t-34.5 13.5t-36 -12q-13 -15 -13 -35
t13.5 -33.5t35.5 -13.5q20 0 33.5 13.5t13.5 33.5z" />
    <glyph glyph-name="oneeighth.afrc" 
d="M72 312v81h450v-81h-450zM172 740l120 65h60v-360h-95v250l-85 -48v93zM297 -110q-31 0 -57 9t-44.5 25t-28.5 37.5t-10 45.5q0 26 13 49.5t36 37.5q-15 14 -24 32t-9 39q0 22 9.5 41t26.5 33t39.5 22.5t48.5 8.5t48.5 -8.5t39.5 -22.5t26.5 -33t9.5 -41q0 -21 -9 -39
t-24 -32q23 -14 36 -37.5t13 -49.5q0 -24 -10 -45.5t-28.5 -37.5t-44.5 -25t-57 -9zM297 122q13 0 22.5 9t9.5 25t-9.5 25t-22.5 9t-22.5 -9t-9.5 -25t9.5 -25t22.5 -9zM247 16q0 -20 13.5 -33t36.5 -13t36.5 13t13.5 33t-13.5 33.5t-36.5 13.5t-36.5 -13.5t-13.5 -33.5z
" />
    <glyph glyph-name="threeeighths.afrc" 
d="M69 312v81h450v-81h-450zM294 -110q-31 0 -57 9t-44.5 25t-28.5 37.5t-10 45.5q0 26 13 49.5t36 37.5q-15 14 -24 32t-9 39q0 22 9.5 41t26.5 33t39.5 22.5t48.5 8.5t48.5 -8.5t39.5 -22.5t26.5 -33t9.5 -41q0 -21 -9 -39t-24 -32q23 -14 36 -37.5t13 -49.5
q0 -24 -10 -45.5t-28.5 -37.5t-44.5 -25t-57 -9zM294 122q13 0 22.5 9t9.5 25t-9.5 25t-22.5 9t-22.5 -9t-9.5 -25t9.5 -25t22.5 -9zM244 16q0 -20 13.5 -33t36.5 -13t36.5 13t13.5 33t-13.5 33.5t-36.5 13.5t-36.5 -13.5t-13.5 -33.5zM235 655l62 68h-118v82h235v-50
l-69 -76q34 -12 56.5 -42t22.5 -71q0 -26 -9 -50t-26 -42t-42 -28.5t-58 -10.5q-87 0 -132 70l66 42q9 -14 24.5 -22t35.5 -8q22 0 36.5 13.5t14.5 35.5q0 23 -15 36t-38 13q-9 0 -23 -2.5t-23 -7.5v50z" />
    <glyph glyph-name="fiveeighths.afrc" 
d="M66 312v81h450v-81h-450zM191 607l19 198h191v-80h-114l-4 -42q8 2 14.5 2.5t9.5 0.5q31 0 53.5 -11t37 -28.5t21.5 -39.5t7 -44q0 -27 -10.5 -50.5t-28.5 -40.5t-43 -27t-55 -10q-35 0 -66 12.5t-57 39.5l58 55q9 -10 24 -17.5t35 -7.5t35 13.5t15 36.5q0 21 -14 34.5
t-36 13.5q-23 0 -40 -15zM291 -110q-31 0 -57 9t-44.5 25t-28.5 37.5t-10 45.5q0 26 13 49.5t36 37.5q-15 14 -24 32t-9 39q0 22 9.5 41t26.5 33t39.5 22.5t48.5 8.5t48.5 -8.5t39.5 -22.5t26.5 -33t9.5 -41q0 -21 -9 -39t-24 -32q23 -14 36 -37.5t13 -49.5q0 -24 -10 -45.5
t-28.5 -37.5t-44.5 -25t-57 -9zM291 122q13 0 22.5 9t9.5 25t-9.5 25t-22.5 9t-22.5 -9t-9.5 -25t9.5 -25t22.5 -9zM241 16q0 -20 13.5 -33t36.5 -13t36.5 13t13.5 33t-13.5 33.5t-36.5 13.5t-36.5 -13.5t-13.5 -33.5z" />
    <glyph glyph-name="seveneighths.afrc" 
d="M69 312v81h450v-81h-450zM294 -110q-31 0 -57 9t-44.5 25t-28.5 37.5t-10 45.5q0 26 13 49.5t36 37.5q-15 14 -24 32t-9 39q0 22 9.5 41t26.5 33t39.5 22.5t48.5 8.5t48.5 -8.5t39.5 -22.5t26.5 -33t9.5 -41q0 -21 -9 -39t-24 -32q23 -14 36 -37.5t13 -49.5
q0 -24 -10 -45.5t-28.5 -37.5t-44.5 -25t-57 -9zM294 122q13 0 22.5 9t9.5 25t-9.5 25t-22.5 9t-22.5 -9t-9.5 -25t9.5 -25t22.5 -9zM244 16q0 -20 13.5 -33t36.5 -13t36.5 13t13.5 33t-13.5 33.5t-36.5 13.5t-36.5 -13.5t-13.5 -33.5zM439 805v-50l-139 -310h-98l126 278
h-139v82h250z" />
    <glyph glyph-name="uni2189.afrc" 
d="M437 625q0 -38 -7.5 -72t-24 -60.5t-43 -42t-65.5 -15.5t-66 15.5t-43.5 42t-23.5 60.5t-7 72q0 37 7 71.5t23.5 61t43.5 42t66 15.5t65.5 -15.5t43 -42t24 -61t7.5 -71.5zM252 625q0 -21 2 -41t7 -35.5t13.5 -24.5t22.5 -9q13 0 22 9t14 24.5t7 35.5t2 41t-2 41t-7 35.5
t-14 24.5t-22 9q-14 0 -22.5 -9t-13.5 -24.5t-7 -35.5t-2 -41zM72 312v81h450v-81h-450zM238 110l62 68h-118v82h235v-50l-69 -76q34 -12 56.5 -42t22.5 -71q0 -26 -9 -50t-26 -42t-42 -28.5t-58 -10.5q-87 0 -132 70l66 42q9 -14 24.5 -22t35.5 -8q22 0 36.5 13.5
t14.5 35.5q0 23 -15 36t-38 13q-9 0 -23 -2.5t-23 -7.5v50z" />
    <glyph glyph-name="zero.numr" horiz-adv-x="347" 
d="M314 520q0 -38 -7.5 -72t-24 -60.5t-43 -42t-65.5 -15.5t-66 15.5t-43.5 42t-23.5 60.5t-7 72q0 37 7 71.5t23.5 61t43.5 42t66 15.5t65.5 -15.5t43 -42t24 -61t7.5 -71.5zM129 520q0 -21 2 -41t7 -35.5t13.5 -24.5t22.5 -9q13 0 22 9t14 24.5t7 35.5t2 41t-2 41t-7 35.5
t-14 24.5t-22 9q-14 0 -22.5 -9t-13.5 -24.5t-7 -35.5t-2 -41z" />
    <glyph glyph-name="one.numr" horiz-adv-x="270" 
d="M25 635l120 65h60v-360h-95v250l-85 -48v93z" />
    <glyph glyph-name="two.numr" horiz-adv-x="325" 
d="M150 505q26 26 35.5 43.5t9.5 35.5q0 17 -11.5 30.5t-29.5 13.5q-42 0 -51 -50l-78 20q12 56 47 84t82 28q28 0 52 -10t41.5 -27t27.5 -40t10 -49q0 -28 -14 -59t-52 -69l-34 -34h105v-82h-255v50z" />
    <glyph glyph-name="three.numr" horiz-adv-x="321" 
d="M99 550l62 68h-118v82h235v-50l-69 -76q34 -12 56.5 -42t22.5 -71q0 -26 -9 -50t-26 -42t-42 -28.5t-58 -10.5q-87 0 -132 70l66 42q9 -14 24.5 -22t35.5 -8q22 0 36.5 13.5t14.5 35.5q0 23 -15 36t-38 13q-9 0 -23 -2.5t-23 -7.5v50z" />
    <glyph glyph-name="four.numr" horiz-adv-x="355" 
d="M269 485h61v-75h-61v-70h-85v70h-164v50l189 240h60v-215zM184 485v75l-59 -75h59z" />
    <glyph glyph-name="five.numr" horiz-adv-x="310" 
d="M45 502l19 198h191v-80h-114l-4 -42q8 2 14.5 2.5t9.5 0.5q31 0 53.5 -11t37 -28.5t21.5 -39.5t7 -44q0 -27 -10.5 -50.5t-28.5 -40.5t-43 -27t-55 -10q-35 0 -66 12.5t-57 39.5l58 55q9 -10 24 -17.5t35 -7.5t35 13.5t15 36.5q0 21 -14 34.5t-36 13.5q-23 0 -40 -15z
" />
    <glyph glyph-name="six.numr" horiz-adv-x="333" 
d="M184 582q26 -1 49 -10t40 -25.5t27 -38.5t10 -49t-11 -50.5t-29.5 -41t-44 -27.5t-55.5 -10q-27 0 -52 8.5t-44.5 25t-31.5 40t-12 53.5q0 32 12.5 58.5t23.5 44.5l86 140h105zM218 459q0 20 -12.5 33.5t-34.5 13.5t-36 -12q-13 -15 -13 -35t13.5 -33.5t35.5 -13.5
q20 0 33.5 13.5t13.5 33.5z" />
    <glyph glyph-name="seven.numr" horiz-adv-x="296" 
d="M277 700v-50l-139 -310h-98l126 278h-139v82h250z" />
    <glyph glyph-name="eight.numr" horiz-adv-x="342" 
d="M171 330q-31 0 -57 9t-44.5 25t-28.5 37.5t-10 45.5q0 26 13 49.5t36 37.5q-15 14 -24 32t-9 39q0 22 9.5 41t26.5 33t39.5 22.5t48.5 8.5t48.5 -8.5t39.5 -22.5t26.5 -33t9.5 -41q0 -21 -9 -39t-24 -32q23 -14 36 -37.5t13 -49.5q0 -24 -10 -45.5t-28.5 -37.5t-44.5 -25
t-57 -9zM171 562q13 0 22.5 9t9.5 25t-9.5 25t-22.5 9t-22.5 -9t-9.5 -25t9.5 -25t22.5 -9zM121 456q0 -20 13.5 -33t36.5 -13t36.5 13t13.5 33t-13.5 33.5t-36.5 13.5t-36.5 -13.5t-13.5 -33.5z" />
    <glyph glyph-name="nine.numr" horiz-adv-x="333" 
d="M149 458q-26 1 -49 10t-40 25.5t-27 38.5t-10 49t11 50.5t29.5 41t44 27.5t55.5 10q27 0 52 -8.5t44.5 -25t31.5 -40t12 -53.5q0 -32 -12.5 -58.5t-23.5 -44.5l-86 -140h-105zM115 581q0 -20 12.5 -33.5t34.5 -13.5t36 12q13 15 13 35t-13.5 33.5t-35.5 13.5
q-20 0 -33.5 -13.5t-13.5 -33.5z" />
    <glyph glyph-name="zero.dnom" horiz-adv-x="347" 
d="M314 180q0 -38 -7.5 -72t-24 -60.5t-43 -42t-65.5 -15.5t-66 15.5t-43.5 42t-23.5 60.5t-7 72q0 37 7 71.5t23.5 61t43.5 42t66 15.5t65.5 -15.5t43 -42t24 -61t7.5 -71.5zM129 180q0 -21 2 -41t7 -35.5t13.5 -24.5t22.5 -9q13 0 22 9t14 24.5t7 35.5t2 41t-2 41t-7 35.5
t-14 24.5t-22 9q-14 0 -22.5 -9t-13.5 -24.5t-7 -35.5t-2 -41z" />
    <glyph glyph-name="one.dnom" horiz-adv-x="270" 
d="M25 295l120 65h60v-360h-95v250l-85 -48v93z" />
    <glyph glyph-name="two.dnom" horiz-adv-x="325" 
d="M150 165q26 26 35.5 43.5t9.5 35.5q0 17 -11.5 30.5t-29.5 13.5q-42 0 -51 -50l-78 20q12 56 47 84t82 28q28 0 52 -10t41.5 -27t27.5 -40t10 -49q0 -28 -14 -59t-52 -69l-34 -34h105v-82h-255v50z" />
    <glyph glyph-name="three.dnom" horiz-adv-x="321" 
d="M99 210l62 68h-118v82h235v-50l-69 -76q34 -12 56.5 -42t22.5 -71q0 -26 -9 -50t-26 -42t-42 -28.5t-58 -10.5q-87 0 -132 70l66 42q9 -14 24.5 -22t35.5 -8q22 0 36.5 13.5t14.5 35.5q0 23 -15 36t-38 13q-9 0 -23 -2.5t-23 -7.5v50z" />
    <glyph glyph-name="four.dnom" horiz-adv-x="355" 
d="M269 145h61v-75h-61v-70h-85v70h-164v50l189 240h60v-215zM184 145v75l-59 -75h59z" />
    <glyph glyph-name="five.dnom" horiz-adv-x="310" 
d="M45 162l19 198h191v-80h-114l-4 -42q8 2 14.5 2.5t9.5 0.5q31 0 53.5 -11t37 -28.5t21.5 -39.5t7 -44q0 -27 -10.5 -50.5t-28.5 -40.5t-43 -27t-55 -10q-35 0 -66 12.5t-57 39.5l58 55q9 -10 24 -17.5t35 -7.5t35 13.5t15 36.5q0 21 -14 34.5t-36 13.5q-23 0 -40 -15z
" />
    <glyph glyph-name="six.dnom" horiz-adv-x="333" 
d="M184 242q26 -1 49 -10t40 -25.5t27 -38.5t10 -49t-11 -50.5t-29.5 -41t-44 -27.5t-55.5 -10q-27 0 -52 8.5t-44.5 25t-31.5 40t-12 53.5q0 32 12.5 58.5t23.5 44.5l86 140h105zM218 119q0 20 -12.5 33.5t-34.5 13.5t-36 -12q-13 -15 -13 -35t13.5 -33.5t35.5 -13.5
q20 0 33.5 13.5t13.5 33.5z" />
    <glyph glyph-name="seven.dnom" horiz-adv-x="296" 
d="M276 360v-50l-139 -310h-98l126 278h-139v82h250z" />
    <glyph glyph-name="eight.dnom" horiz-adv-x="342" 
d="M171 -10q-31 0 -57 9t-44.5 25t-28.5 37.5t-10 45.5q0 26 13 49.5t36 37.5q-15 14 -24 32t-9 39q0 22 9.5 41t26.5 33t39.5 22.5t48.5 8.5t48.5 -8.5t39.5 -22.5t26.5 -33t9.5 -41q0 -21 -9 -39t-24 -32q23 -14 36 -37.5t13 -49.5q0 -24 -10 -45.5t-28.5 -37.5t-44.5 -25
t-57 -9zM171 222q13 0 22.5 9t9.5 25t-9.5 25t-22.5 9t-22.5 -9t-9.5 -25t9.5 -25t22.5 -9zM121 116q0 -20 13.5 -33t36.5 -13t36.5 13t13.5 33t-13.5 33.5t-36.5 13.5t-36.5 -13.5t-13.5 -33.5z" />
    <glyph glyph-name="nine.dnom" horiz-adv-x="333" 
d="M149 118q-26 1 -49 10t-40 25.5t-27 38.5t-10 49t11 50.5t29.5 41t44 27.5t55.5 10q27 0 52 -8.5t44.5 -25t31.5 -40t12 -53.5q0 -32 -12.5 -58.5t-23.5 -44.5l-86 -140h-105zM115 241q0 -20 12.5 -33.5t34.5 -13.5t36 12q13 15 13 35t-13.5 33.5t-35.5 13.5
q-20 0 -33.5 -13.5t-13.5 -33.5z" />
    <glyph glyph-name="space.frac" horiz-adv-x="48" 
 />
    <glyph glyph-name="dollar.osf" horiz-adv-x="489" 
d="M445 155q0 -32 -10.5 -58t-29 -45.5t-42.5 -33t-51 -20.5v-103h-119v99q-43 6 -83 23.5t-75 46.5l63 85q30 -20 64 -34.5t79 -14.5q31 0 52.5 11.5t21.5 38.5q0 13 -9 22t-24 16t-34.5 13.5l-40.5 13.5q-26 9 -52.5 20t-47.5 28.5t-34 42t-13 59.5q0 30 10.5 54.5
t28.5 44t42.5 33t51.5 20.5v103h119v-101q36 -8 67 -21.5t51 -28.5l-58 -88q-22 15 -51 24.5t-61 9.5q-29 0 -49.5 -11t-20.5 -31q0 -12 9 -21t24 -16t35 -13t41 -13q26 -9 52 -20.5t47 -29t34 -43t13 -62.5z" />
    <glyph glyph-name="zero.osf" horiz-adv-x="632" 
d="M181 257q0 -32 9.5 -59.5t27 -48t42.5 -32.5t56 -12t56 12t42.5 32.5t27 48t9.5 59.5q0 31 -9.5 59t-27 49t-42.5 33t-56 12t-56 -12t-42.5 -33t-27 -49t-9.5 -59zM581 257q0 -56 -19 -104.5t-54 -84.5t-83.5 -57t-108.5 -21t-108.5 21t-83.5 57t-54 84.5t-19 104.5
q0 55 19 104t54 85.5t83.5 57.5t108.5 21t108.5 -21t83.5 -57.5t54 -85.5t19 -104z" />
    <glyph glyph-name="one.osf" horiz-adv-x="376" 
d="M41 420l160 95h90v-515h-130v368l-120 -71v123z" />
    <glyph glyph-name="two.osf" horiz-adv-x="535" 
d="M461 342q0 -62 -30.5 -108t-89.5 -88l-50 -36h190v-110h-420v80l177 127q45 32 71.5 63t26.5 69q0 32 -21.5 54t-57.5 22q-34 0 -61.5 -27.5t-35.5 -87.5l-114 21q11 93 66.5 148.5t149.5 55.5q42 0 78.5 -14.5t63 -39.5t42 -58.5t15.5 -70.5z" />
    <glyph glyph-name="three.osf" horiz-adv-x="566" 
d="M349 280q75 -24 120.5 -83t45.5 -142q0 -53 -19.5 -98t-54 -77.5t-82 -51t-104.5 -18.5q-29 0 -60 6.5t-61 21t-56.5 37t-47.5 54.5l92 71q24 -34 57.5 -54.5t75.5 -20.5q57 0 93.5 36.5t36.5 93.5t-36.5 93.5t-93.5 36.5q-28 0 -51 -5.5t-44 -14.5v75l150 160h-250v115
h435v-80z" />
    <glyph glyph-name="four.osf" horiz-adv-x="625" 
d="M35 80l350 435h90v-405h115v-110h-115v-180h-130v180h-310v80zM345 110v181l-146 -181h146z" />
    <glyph glyph-name="five.osf" horiz-adv-x="559" 
d="M68 149l39 366h371v-115h-260l-13 -127q37 15 81 15q46 0 88 -16t74 -47t51 -75t19 -100q0 -53 -19.5 -97t-54 -76t-81.5 -49.5t-102 -17.5q-30 0 -61.5 6.5t-61.5 21t-57 37t-48 54.5l92 71q24 -34 58 -54.5t78 -20.5q27 0 50.5 9.5t40.5 27t26.5 40.5t9.5 50
q0 55 -35 90.5t-92 35.5q-60 0 -112 -41z" />
    <glyph glyph-name="six.osf" horiz-adv-x="602" 
d="M49 228q0 34 8.5 65t22.5 61t33.5 60t42.5 63l154 223h148l-153 -222q6 1 11.5 1.5t10.5 0.5q49 0 92 -16.5t75 -48t51 -76t19 -101.5q0 -54 -20 -99.5t-54.5 -78.5t-81.5 -51.5t-101 -18.5q-57 0 -104.5 18t-81.5 49.5t-53 75t-19 95.5zM179 238q0 -29 9.5 -53t26.5 -42
t40.5 -28t51.5 -10t51 10t40 28t26.5 42t9.5 53q0 28 -9.5 52.5t-27 42t-41.5 27.5t-53 10q-23 0 -42.5 -3.5t-39.5 -11.5q-16 -24 -29 -53.5t-13 -63.5z" />
    <glyph glyph-name="seven.osf" horiz-adv-x="542" 
d="M33 515h480v-80l-310 -615h-139l292 577h-323v118z" />
    <glyph glyph-name="eight.osf" horiz-adv-x="602" 
d="M181 219q0 -24 9 -45t25.5 -36.5t38 -24t47.5 -8.5q25 0 47 8.5t38.5 24t25.5 36.5t9 45t-9 45t-25.5 36.5t-38.5 24t-47 8.5q-26 0 -47.5 -8.5t-38 -24t-25.5 -36.5t-9 -45zM226 518q0 -33 21 -54t54 -21t54 21t21 54q0 34 -21 55.5t-54 21.5t-54 -21.5t-21 -55.5z
M301 -10q-53 0 -98.5 17t-79.5 46.5t-53 69.5t-19 86q0 69 31 113t77 72q-26 21 -44.5 52t-18.5 76q0 39 15.5 73.5t43.5 60t65 40t81 14.5q43 0 80.5 -14.5t65.5 -40t43.5 -60t15.5 -73.5q0 -45 -18.5 -76t-44.5 -52q46 -28 77 -72t31 -113q0 -46 -19 -86t-53 -69.5
t-79.5 -46.5t-98.5 -17z" />
    <glyph glyph-name="nine.osf" horiz-adv-x="591" 
d="M548 287q0 -34 -8.5 -65t-23.5 -61t-35 -60t-43 -63l-153 -218h-150l155 217q-8 -2 -13 -2h-7q-49 0 -92 16.5t-75.5 48t-51 76t-18.5 101.5q0 54 20 99.5t54.5 78.5t81.5 51.5t101 18.5q57 0 104.5 -18t81.5 -49.5t53 -75t19 -95.5zM418 277q0 28 -9.5 52.5t-26.5 42.5
t-40.5 28t-51.5 10t-51 -10t-40 -28t-26.5 -42.5t-9.5 -52.5q0 -29 9.5 -53t26.5 -41.5t41.5 -27.5t53.5 -10q23 0 42.5 3.5t39.5 11.5q16 24 29 53.5t13 63.5z" />
    <glyph glyph-name="cent.osf" horiz-adv-x="459" 
d="M338 379q-17 17 -36.5 26.5t-44.5 9.5q-38 0 -65.5 -26t-27.5 -67q0 -40 25.5 -66t67.5 -26q33 0 53.5 11.5t33.5 26.5l80 -63q-46 -61 -116 -79v-101h-117v103q-33 9 -60 27.5t-46.5 44t-30 56.5t-10.5 66q0 34 10.5 65.5t30 57t46.5 44.5t60 28v103h117v-103
q60 -17 106 -70z" />
    <glyph glyph-name="sterling.osf" horiz-adv-x="527" 
d="M244 170q0 -14 -6 -32.5t-20 -32.5h260v-105h-430v80q38 7 64 23t26 54q0 3 -0.5 6.5t-0.5 6.5h-79v80h50q-13 23 -20 48.5t-7 54.5q0 39 16.5 70.5t44 54t64 35t75.5 12.5t72 -12.5t58.5 -34t42.5 -49.5t24 -59l-104 -34q-10 32 -30.5 55.5t-60.5 23.5q-35 0 -57.5 -23
t-22.5 -55q0 -28 6.5 -48.5t12.5 -38.5h151v-80h-129z" />
    <glyph glyph-name="yen.osf" horiz-adv-x="592" 
d="M356 110v-110h-120v110h-150v80h150v35h-150v80h86l-146 210h151l120 -179l121 179h148l-146 -210h86v-80h-150v-35h150v-80h-150z" />
    <glyph glyph-name="uni2007.osf" horiz-adv-x="632" 
 />
    <glyph glyph-name="Euro.osf" horiz-adv-x="573" 
d="M237 160q18 -35 49 -52.5t71 -17.5q35 0 63.5 16.5t47.5 33.5l69 -65q-33 -41 -80.5 -63t-104.5 -22q-83 0 -146.5 44.5t-89.5 125.5h-69v80h55v35h-55v80h69q26 81 89 126t147 45q55 0 101 -20.5t79 -59.5l-67 -67q-20 16 -46 31.5t-62 15.5q-40 0 -71 -18t-49 -53h179
l-39 -80h-160v-35h143l-39 -80h-84z" />
    <glyph glyph-name="quotedbl.tf" 
d="M232 410h-84l-23 290h130zM442 410h-84l-23 290h130z" />
    <glyph glyph-name="numbersign.tf" 
d="M226 295h106l30 110h-106zM172 515l49 185h114l-49 -185h106l49 185h114l-49 -185h81v-110h-110l-31 -110h81v-110h-110l-49 -185h-114l49 185h-106l-49 -185h-114l49 185h-81v110h110l30 110h-81v110h111z" />
    <glyph glyph-name="dollar.tf" 
d="M116 209q36 -30 81 -49.5t102 -19.5q51 0 78 22t27 52q0 20 -12.5 34t-33.5 24.5t-48 19.5t-56 19q-33 11 -65 25.5t-57.5 35.5t-41.5 51.5t-16 73.5q0 39 14 69t37.5 51.5t54.5 35.5t65 21v106h120v-105q42 -6 83 -23t76 -43l-64 -95q-29 20 -66 33t-82 13
q-49 0 -76 -18.5t-27 -45.5q0 -15 13 -26.5t34 -20.5t48 -18t56 -19q33 -12 65 -27.5t57.5 -38.5t41 -54.5t15.5 -75.5q0 -35 -12.5 -65.5t-35 -55.5t-55 -43t-71.5 -26v-106h-120v104q-54 8 -108.5 32.5t-97.5 66.5z" />
    <glyph glyph-name="quotesingle.tf" 
d="M337 410h-84l-23 290h130z" />
    <glyph glyph-name="plus.tf" 
d="M240 315v175h110v-175h175v-110h-175v-175h-110v175h-175v110h175z" />
    <glyph glyph-name="zero.tf" 
d="M558 350q0 -84 -18.5 -151t-52.5 -113.5t-83 -71t-109 -24.5t-109 24.5t-83 71t-52.5 113.5t-18.5 151t18.5 151t52.5 113.5t83 71t109 24.5t109 -24.5t83 -71t52.5 -113.5t18.5 -151zM423 350q0 54 -8.5 98.5t-25 76t-40.5 48.5t-54 17t-54 -17t-40.5 -48.5t-25 -76
t-8.5 -98.5t8.5 -98.5t25 -76t40.5 -48.5t54 -17t54 17t40.5 48.5t25 76t8.5 98.5z" />
    <glyph glyph-name="one.tf" 
d="M102 588l190 112h95v-580h165v-120h-490v120h190v424l-150 -84v128z" />
    <glyph glyph-name="two.tf" 
d="M272 120h257v-120h-475v80l233 227q52 51 80 89.5t28 83.5q0 23 -8.5 43t-23.5 35t-35.5 23.5t-44.5 8.5q-48 -1 -81.5 -34.5t-45.5 -90.5l-117 30q23 97 87 156t164 59q53 0 97 -18.5t75.5 -50t49 -73.5t17.5 -88q0 -41 -12 -75.5t-33 -65.5t-48 -60t-57 -57z" />
    <glyph glyph-name="three.tf" 
d="M377 462q36 -11 65.5 -32t51.5 -50t34 -64.5t12 -74.5q0 -54 -19.5 -99.5t-54 -79.5t-82 -53t-103.5 -19q-80 0 -148.5 36.5t-107.5 113.5l107 58q25 -41 60 -64.5t88 -23.5q25 0 47.5 9.5t40 26.5t27.5 40.5t10 52.5q0 31 -12.5 56.5t-33.5 42.5q-33 27 -86 27
q-24 0 -45.5 -5.5t-42.5 -14.5v80l143 155h-263v120h455v-80z" />
    <glyph glyph-name="four.tf" 
d="M458 700v-420h115v-120h-115v-160h-132v160h-328v80l360 460h100zM326 280v175l-136 -175h136z" />
    <glyph glyph-name="five.tf" 
d="M139 180q28 -33 60 -51.5t75 -18.5q27 0 50 9t39.5 25.5t26 38.5t9.5 48q0 27 -10 50t-27 39.5t-39.5 25.5t-48.5 9q-32 0 -61 -10.5t-55 -27.5l-84 12l40 371h380v-120h-265l-15 -124q20 8 42 11.5t38 3.5q49 0 92.5 -16.5t76.5 -47.5t52 -75.5t19 -101.5q0 -52 -19 -96
t-53.5 -76t-81.5 -50t-103 -18q-69 0 -128.5 28t-104.5 88z" />
    <glyph glyph-name="six.tf" 
d="M428 700l-136 -225h24q48 0 91.5 -16t76.5 -46.5t52.5 -74t19.5 -98.5q0 -57 -21 -103t-56 -78.5t-82 -50.5t-99 -18q-54 0 -101 16.5t-81.5 47t-54.5 74.5t-20 98q0 57 30 119.5t72 131.5l136 223h149zM175 235q0 -57 34.5 -91t88.5 -34q26 0 49 9t40 26t26.5 41t9.5 54
q0 25 -9 48t-26.5 40t-42 27t-54.5 10q-19 0 -37.5 -4t-37.5 -10q-16 -23 -28.5 -53.5t-12.5 -62.5z" />
    <glyph glyph-name="seven.tf" 
d="M61 700h480v-80l-287 -620h-143l267 580h-317v120z" />
    <glyph glyph-name="eight.tf" 
d="M295 -10q-53 0 -98.5 17.5t-79.5 48t-53 71t-19 87.5q0 60 29 105.5t74 74.5q-27 25 -42.5 58t-15.5 73q0 39 15.5 72.5t43.5 58.5t65 39.5t81 14.5q43 0 80.5 -14.5t65.5 -39.5t43.5 -58.5t15.5 -72.5q0 -40 -16 -73t-43 -58q46 -29 75 -74.5t29 -105.5q0 -47 -19 -87.5
t-53 -71t-79.5 -48t-98.5 -17.5zM180 220q0 -24 9 -44t24.5 -34.5t36.5 -23t45 -8.5t45 8.5t36.5 23t24.5 34.5t9 44t-9 44t-24.5 34.5t-36.5 23t-45 8.5t-45 -8.5t-36.5 -23t-24.5 -34.5t-9 -44zM225 517q0 -32 19.5 -52t50.5 -20t50.5 20t19.5 52t-19.5 52.5t-50.5 20.5
t-50.5 -20.5t-19.5 -52.5z" />
    <glyph glyph-name="nine.tf" 
d="M162 0l136 225h-24q-48 0 -91.5 16t-76.5 46.5t-52.5 74t-19.5 98.5q0 57 21 103t56 78.5t82 50.5t99 18q54 0 101 -16.5t81.5 -47t54.5 -74.5t20 -98q0 -57 -30 -119.5t-72 -131.5l-136 -223h-149zM415 465q0 57 -34.5 91t-88.5 34q-26 0 -49 -9t-40 -26t-26.5 -41
t-9.5 -54q0 -26 9 -48.5t26.5 -39.5t42 -27t54.5 -10q19 0 37.5 4t37.5 10q16 23 28.5 53.5t12.5 62.5z" />
    <glyph glyph-name="less.tf" 
d="M511 144v-119l-460 200v70l460 200v-119l-266 -116z" />
    <glyph glyph-name="equal.tf" 
d="M525 210v-110h-460v110h460zM525 420v-110h-460v110h460z" />
    <glyph glyph-name="greater.tf" 
d="M346 260l-266 116v119l460 -200v-70l-460 -200v119z" />
    <glyph glyph-name="asciicircum.tf" 
d="M250 700h90l185 -350h-124l-106 201l-106 -201h-124z" />
    <glyph glyph-name="asciitilde.tf" 
d="M32 195q6 31 19.5 60.5t34.5 52t49.5 36t64.5 13.5t63.5 -13t49.5 -29t40.5 -29t36.5 -13q26 0 42.5 23t22.5 56l107 -27q-6 -31 -19.5 -60.5t-34.5 -52t-49.5 -36t-64.5 -13.5t-63.5 13t-49.5 29t-40.5 29t-36.5 13q-26 0 -42.5 -23t-22.5 -56z" />
    <glyph glyph-name="cent.tf" 
d="M539 289q-32 -43 -74 -70t-94 -35v-99h-120v104q-42 11 -76.5 34t-59 55t-38 71t-13.5 83q0 43 13.5 82.5t38.5 71.5t59.5 55t75.5 34v105h120v-100q90 -17 153 -92l-83 -75q-24 23 -51 37.5t-62 14.5q-27 0 -51.5 -10t-42.5 -27.5t-29 -42t-11 -53.5t10 -53t27.5 -41.5
t42 -27.5t54.5 -10q42 0 73.5 18.5t49.5 39.5z" />
    <glyph glyph-name="sterling.tf" 
d="M323 590q-25 0 -46.5 -9t-37 -24.5t-24 -36.5t-8.5 -45q0 -36 13 -67.5t30 -63.5h191v-100h-154q2 -10 3.5 -19t1.5 -19q0 -24 -8.5 -46t-26.5 -40h280v-120h-480v80q18 7 37 17.5t34 25.5t24.5 34.5t9.5 43.5q0 22 -6 43h-99v100h57q-17 31 -29.5 65t-12.5 76
q0 46 18.5 87t51.5 72t79 48.5t102 17.5q46 0 83 -13.5t65.5 -37t49.5 -55.5t36 -69l-116 -45q-17 47 -46 73.5t-72 26.5z" />
    <glyph glyph-name="currency.tf" 
d="M505 350q0 -29 -7 -54t-20 -48l82 -81l-81 -82l-83 82q-47 -25 -101 -25t-101 25l-83 -82l-81 82l82 81q-13 23 -20 48t-7 54q0 28 7 53.5t20 48.5l-82 81l81 82l83 -83q23 12 48 19t53 7q27 0 52.5 -7t48.5 -19l83 83l81 -82l-82 -81q13 -23 20 -48.5t7 -53.5zM385 350
q0 39 -26 65t-64 26t-64 -26t-26 -65t26 -65t64 -26t64 26t26 65z" />
    <glyph glyph-name="yen.tf" 
d="M389 360l-27 -43v-17h193v-100h-193v-200h-135v200h-193v100h193v17l-28 43h-165v100h103l-150 240h154l155 -249l155 249h151l-150 -240h103v-100h-166z" />
    <glyph glyph-name="section.tf" 
d="M414 213q0 27 -15.5 44t-40 29.5t-56 22t-63.5 21.5q-7 2 -13.5 4.5t-12.5 5.5q-19 -12 -28.5 -33.5t-9.5 -44.5q0 -27 15.5 -44t40 -29.5t56 -22t63.5 -21.5q7 -2 13.5 -4.5t12.5 -5.5q19 12 28.5 33.5t9.5 44.5zM506 -38q0 -44 -18 -80t-49 -62t-73.5 -40.5
t-90.5 -14.5q-54 0 -105.5 17.5t-96.5 52.5l66 94q28 -19 61.5 -31.5t70.5 -12.5q51 0 75.5 23t24.5 55q0 16 -9 29t-24 23t-35.5 18.5t-43.5 16.5q-36 13 -74 28t-69.5 38.5t-52 58t-20.5 85.5q0 46 19 86.5t51 68.5q-14 20 -22 44t-8 54q0 43 18 79.5t49 62.5t73.5 40.5
t90.5 14.5q54 0 105.5 -17.5t96.5 -52.5l-66 -94q-28 19 -61.5 31.5t-70.5 12.5q-51 0 -75.5 -23t-24.5 -55t31.5 -50.5t76.5 -34.5q36 -13 75 -28.5t71 -38.5t53 -58t21 -87q0 -46 -19 -86.5t-51 -68.5q14 -20 22 -44t8 -54z" />
    <glyph glyph-name="logicalnot.tf" 
d="M511 100h-110v210h-350v110h460v-320z" />
    <glyph glyph-name="degree.tf" 
d="M125 540q0 35 13.5 66t36.5 54t54 36.5t66 13.5t66 -13.5t54 -36.5t36.5 -54t13.5 -66t-13.5 -66t-36.5 -54t-54 -36.5t-66 -13.5t-66 13.5t-54 36.5t-36.5 54t-13.5 66zM225 540q0 -29 20.5 -49.5t49.5 -20.5t49.5 20.5t20.5 49.5t-20.5 49.5t-49.5 20.5t-49.5 -20.5
t-20.5 -49.5z" />
    <glyph glyph-name="plusminus.tf" 
d="M65 274v110h175v126h110v-126h175v-110h-175v-126h-110v126h-175zM525 115v-105h-460v105h460z" />
    <glyph glyph-name="mu.tf" 
d="M36 485h130v-324q14 -21 42.5 -36t60.5 -15q34 0 61 14.5t47 38.5v322h130v-333q0 -22 11 -34.5t30 -12.5q11 0 21.5 2.5t16.5 4.5l31 -100q-20 -10 -45.5 -15.5t-53.5 -5.5q-40 0 -71 16.5t-46 46.5q-23 -26 -56.5 -44.5t-75.5 -18.5q-35 0 -62 14t-41 28v-259h-130v711
z" />
    <glyph glyph-name="multiply.tf" 
d="M295 338l145 145l78 -78l-145 -145l145 -145l-78 -78l-145 145l-145 -145l-78 78l145 145l-145 145l78 78z" />
    <glyph glyph-name="divide.tf" 
d="M525 315v-110h-460v110h460zM220 437q0 31 22 52t53 21t53 -21t22 -52t-22 -52t-53 -21t-53 21t-22 52zM220 83q0 31 22 52t53 21t53 -21t22 -52t-22 -52t-53 -21t-53 21t-22 52z" />
    <glyph glyph-name="uni2007.tf" 
 />
    <glyph glyph-name="Euro.tf" 
d="M384 110q27 0 48.5 5.5t38 13.5t29 18t23.5 19l75 -81q-15 -21 -38.5 -38t-52 -30t-60.5 -20t-65 -7q-42 0 -87 11.5t-85.5 38.5t-72.5 71t-49 109h-85v100h71q-1 8 -1 15v15v15t1 15h-71v100h85q17 65 49 109t72.5 71t85.5 38.5t87 11.5q61 0 118.5 -24t92.5 -66
l-75 -82q-20 19 -53 35.5t-81 16.5q-22 0 -45 -5.5t-44 -18.5t-38.5 -34t-29.5 -52h245l-36 -100h-228q-1 -6 -1.5 -14t-0.5 -16v-15.5t1 -14.5h208l-36 -100h-153q12 -31 30 -52t39 -34t44 -18.5t45 -5.5z" />
    <glyph glyph-name="dollar.tosf" 
d="M496 155q0 -32 -10.5 -58t-29 -45.5t-42.5 -33t-51 -20.5v-103h-119v99q-43 6 -83 23.5t-75 46.5l63 85q30 -20 64 -34.5t79 -14.5q31 0 52.5 11.5t21.5 38.5q0 13 -9 22t-24 16t-34.5 13.5l-40.5 13.5q-26 9 -52.5 20t-47.5 28.5t-34 42t-13 59.5q0 30 10.5 54.5
t28.5 44t42.5 33t51.5 20.5v103h119v-101q36 -8 67 -21.5t51 -28.5l-58 -88q-22 15 -51 24.5t-61 9.5q-29 0 -49.5 -11t-20.5 -31q0 -12 9 -21t24 -16t35 -13t41 -13q26 -9 52 -20.5t47 -29t34 -43t13 -62.5z" />
    <glyph glyph-name="zero.tosf" 
d="M160 257q0 -32 9.5 -59.5t27 -48t42.5 -32.5t56 -12t56 12t42.5 32.5t27 48t9.5 59.5q0 31 -9.5 59t-27 49t-42.5 33t-56 12t-56 -12t-42.5 -33t-27 -49t-9.5 -59zM560 257q0 -56 -19 -104.5t-54 -84.5t-83.5 -57t-108.5 -21t-108.5 21t-83.5 57t-54 84.5t-19 104.5
q0 55 19 104t54 85.5t83.5 57.5t108.5 21t108.5 -21t83.5 -57.5t54 -85.5t19 -104z" />
    <glyph glyph-name="one.tosf" 
d="M123 414l170 101h90v-400h140v-115h-445v115h177v255l-132 -79v123z" />
    <glyph glyph-name="two.tosf" 
d="M489 342q0 -62 -30.5 -108t-89.5 -88l-50 -36h190v-110h-420v80l177 127q45 32 71.5 63t26.5 69q0 32 -21.5 54t-57.5 22q-34 0 -61.5 -27.5t-35.5 -87.5l-114 21q11 93 66.5 148.5t149.5 55.5q42 0 78.5 -14.5t63 -39.5t42 -58.5t15.5 -70.5z" />
    <glyph glyph-name="three.tosf" 
d="M361 280q75 -24 120.5 -83t45.5 -142q0 -53 -19.5 -98t-54 -77.5t-82 -51t-104.5 -18.5q-29 0 -60 6.5t-61 21t-56.5 37t-47.5 54.5l92 71q24 -34 57.5 -54.5t75.5 -20.5q57 0 93.5 36.5t36.5 93.5t-36.5 93.5t-93.5 36.5q-28 0 -51 -5.5t-44 -14.5v75l150 160h-250v115
h435v-80z" />
    <glyph glyph-name="four.tosf" 
d="M18 80l350 435h90v-405h115v-110h-115v-180h-130v180h-310v80zM328 110v181l-146 -181h146z" />
    <glyph glyph-name="five.tosf" 
d="M83 149l39 366h371v-115h-260l-13 -127q37 15 81 15q46 0 88 -16t74 -47t51 -75t19 -100q0 -53 -19.5 -97t-54 -76t-81.5 -49.5t-102 -17.5q-30 0 -61.5 6.5t-61.5 21t-57 37t-48 54.5l92 71q24 -34 58 -54.5t78 -20.5q27 0 50.5 9.5t40.5 27t26.5 40.5t9.5 50
q0 55 -35 90.5t-92 35.5q-60 0 -112 -41z" />
    <glyph glyph-name="six.tosf" 
d="M43 228q0 34 8.5 65t22.5 61t33.5 60t42.5 63l154 223h148l-153 -222q6 1 11.5 1.5t10.5 0.5q49 0 92 -16.5t75 -48t51 -76t19 -101.5q0 -54 -20 -99.5t-54.5 -78.5t-81.5 -51.5t-101 -18.5q-57 0 -104.5 18t-81.5 49.5t-53 75t-19 95.5zM173 238q0 -29 9.5 -53t26.5 -42
t40.5 -28t51.5 -10t51 10t40 28t26.5 42t9.5 53q0 28 -9.5 52.5t-27 42t-41.5 27.5t-53 10q-23 0 -42.5 -3.5t-39.5 -11.5q-16 -24 -29 -53.5t-13 -63.5z" />
    <glyph glyph-name="seven.tosf" 
d="M57 515h480v-80l-310 -615h-139l292 577h-323v118z" />
    <glyph glyph-name="eight.tosf" 
d="M175 219q0 -24 9 -45t25.5 -36.5t38 -24t47.5 -8.5q25 0 47 8.5t38.5 24t25.5 36.5t9 45t-9 45t-25.5 36.5t-38.5 24t-47 8.5q-26 0 -47.5 -8.5t-38 -24t-25.5 -36.5t-9 -45zM220 518q0 -33 21 -54t54 -21t54 21t21 54q0 34 -21 55.5t-54 21.5t-54 -21.5t-21 -55.5z
M295 -10q-53 0 -98.5 17t-79.5 46.5t-53 69.5t-19 86q0 69 31 113t77 72q-26 21 -44.5 52t-18.5 76q0 39 15.5 73.5t43.5 60t65 40t81 14.5q43 0 80.5 -14.5t65.5 -40t43.5 -60t15.5 -73.5q0 -45 -18.5 -76t-44.5 -52q46 -28 77 -72t31 -113q0 -46 -19 -86t-53 -69.5
t-79.5 -46.5t-98.5 -17z" />
    <glyph glyph-name="nine.tosf" 
d="M548 287q0 -34 -8.5 -65t-23.5 -61t-35 -60t-43 -63l-153 -218h-150l155 217q-8 -2 -13 -2h-7q-49 0 -92 16.5t-75.5 48t-51 76t-18.5 101.5q0 54 20 99.5t54.5 78.5t81.5 51.5t101 18.5q57 0 104.5 -18t81.5 -49.5t53 -75t19 -95.5zM418 277q0 28 -9.5 52.5t-26.5 42.5
t-40.5 28t-51.5 10t-51 -10t-40 -28t-26.5 -42.5t-9.5 -52.5q0 -29 9.5 -53t26.5 -41.5t41.5 -27.5t53.5 -10q23 0 42.5 3.5t39.5 11.5q16 24 29 53.5t13 63.5z" />
    <glyph glyph-name="cent.tosf" 
d="M403 379q-17 17 -36.5 26.5t-44.5 9.5q-38 0 -65.5 -26t-27.5 -67q0 -40 25.5 -66t67.5 -26q33 0 53.5 11.5t33.5 26.5l80 -63q-46 -61 -116 -79v-101h-117v103q-33 9 -60 27.5t-46.5 44t-30 56.5t-10.5 66q0 34 10.5 65.5t30 57t46.5 44.5t60 28v103h117v-103
q60 -17 106 -70z" />
    <glyph glyph-name="sterling.tosf" 
d="M275 170q0 -14 -6 -32.5t-20 -32.5h260v-105h-430v80q38 7 64 23t26 54q0 3 -0.5 6.5t-0.5 6.5h-79v80h50q-13 23 -20 48.5t-7 54.5q0 39 16.5 70.5t44 54t64 35t75.5 12.5t72 -12.5t58.5 -34t42.5 -49.5t24 -59l-104 -34q-10 32 -30.5 55.5t-60.5 23.5q-35 0 -57.5 -23
t-22.5 -55q0 -28 6.5 -48.5t12.5 -38.5h151v-80h-129z" />
    <glyph glyph-name="yen.tosf" 
d="M355 110v-110h-120v110h-150v80h150v35h-150v80h86l-146 210h151l120 -179l121 179h148l-146 -210h86v-80h-150v-35h150v-80h-150z" />
    <glyph glyph-name="uni2007.tosf" 
 />
    <glyph glyph-name="Euro.tosf" 
d="M246 160q18 -35 49 -52.5t71 -17.5q35 0 63.5 16.5t47.5 33.5l69 -65q-33 -41 -80.5 -63t-104.5 -22q-83 0 -146.5 44.5t-89.5 125.5h-69v80h55v35h-55v80h69q26 81 89 126t147 45q55 0 101 -20.5t79 -59.5l-67 -67q-20 16 -46 31.5t-62 15.5q-40 0 -71 -18t-49 -53h179
l-39 -80h-160v-35h143l-39 -80h-84z" />
    <glyph glyph-name="parenleft.case" horiz-adv-x="331" 
d="M167 350q0 -123 37 -226t93 -186l-95 -68q-71 99 -113 219.5t-42 260.5t42 260.5t113 219.5l95 -68q-56 -83 -93 -186t-37 -226z" />
    <glyph glyph-name="parenright.case" horiz-adv-x="331" 
d="M164 350q0 123 -37 226t-93 186l95 68q71 -99 113 -219.5t42 -260.5t-42 -260.5t-113 -219.5l-95 68q56 83 93 186t37 226z" />
    <glyph glyph-name="hyphen.case" horiz-adv-x="444" 
d="M377 430v-110h-310v110h310z" />
    <glyph glyph-name="at.case" horiz-adv-x="937" 
d="M489 683q-74 0 -133.5 -25t-103.5 -69q-45 -45 -71 -106t-26 -133q0 -69 25 -130t68.5 -106t102 -71t124.5 -26q56 0 109.5 17t94.5 44l56 -84q-51 -38 -115 -61t-138 -23q-92 0 -171.5 34.5t-138.5 94t-93 139.5t-34 172q0 94 35 175.5t96 141.5q58 57 136.5 90
t178.5 33q88 0 164 -30.5t131.5 -84.5t87 -128t31.5 -162q0 -44 -10.5 -88.5t-33 -80.5t-57.5 -58.5t-84 -22.5q-34 0 -66 14.5t-53 38.5q-11 -9 -24 -18t-30.5 -17t-40 -13t-50.5 -5q-35 0 -71.5 14.5t-67.5 42t-50.5 67.5t-19.5 91t19.5 91t50.5 67.5t67.5 42t71.5 14.5
q27 0 55 -7t54 -24v21h106v-241q0 -23 2.5 -35t7.5 -21q6 -10 16 -16.5t26 -6.5q17 0 30.5 13t22.5 34t14 48t5 55q0 65 -23 120t-64 94.5t-97 61.5t-122 22zM357 350q0 -24 8.5 -44.5t23.5 -36.5t36 -25t47 -9q29 0 53.5 11t37.5 27q-1 10 -1.5 20.5t-0.5 23.5v112
q-14 15 -37.5 25.5t-51.5 10.5q-26 0 -47 -9t-36 -25t-23.5 -36.5t-8.5 -44.5z" />
    <glyph glyph-name="bracketleft.case" horiz-adv-x="394" 
d="M88 820h275v-110h-155v-720h155v-110h-275v940z" />
    <glyph glyph-name="bracketright.case" horiz-adv-x="394" 
d="M306 -120h-275v110h155v720h-155v110h275v-940z" />
    <glyph glyph-name="braceleft.case" horiz-adv-x="386" 
d="M231 642q0 -37 5 -86t5 -89q0 -32 -6.5 -52.5t-16.5 -33t-23.5 -19.5t-26.5 -12q13 -5 26.5 -12t23.5 -19.5t16.5 -33t6.5 -52.5q0 -40 -5 -89t-5 -86q0 -41 27 -57q11 -6 25.5 -8.5t43.5 -2.5h19v-107q-9 -2 -19 -2.5t-25 -0.5q-42 0 -77.5 11.5t-60.5 34.5t-39 56
t-14 77t5 93.5t5 89.5q0 38 -24 53t-66 15v80q42 0 66 15t24 53q0 40 -5 89.5t-5 93.5q0 43 14 76.5t39 56.5t60.5 34.5t77.5 11.5q15 0 25 -0.5t19 -2.5v-107h-19q-29 0 -43.5 -2.5t-25.5 -8.5q-27 -16 -27 -57z" />
    <glyph glyph-name="bar.case" horiz-adv-x="296" 
d="M208 -120h-120v940h120v-940z" />
    <glyph glyph-name="braceright.case" horiz-adv-x="386" 
d="M155 642q0 41 -27 57q-11 6 -25.5 8.5t-43.5 2.5h-19v107q9 2 19 2.5t25 0.5q42 0 77.5 -11.5t60.5 -34.5t39 -56.5t14 -76.5q0 -44 -5 -93.5t-5 -89.5q0 -38 24 -53t66 -15v-80q-42 0 -66 -15t-24 -53q0 -40 5 -89.5t5 -93.5t-14 -77t-39 -56t-60.5 -34.5t-77.5 -11.5
q-15 0 -25 0.5t-19 2.5v107h19q29 0 43.5 2.5t25.5 8.5q27 16 27 57q0 37 -5 86t-5 89q0 32 6.5 52.5t16.5 33t23 19.5t27 12q-14 5 -27 12t-23 19.5t-16.5 33t-6.5 52.5q0 40 5 89t5 86z" />
    <glyph glyph-name="exclamdown.case" horiz-adv-x="282" 
d="M56 627q0 35 25 59t60 24t60 -24t25 -59t-25 -59t-60 -24t-60 24t-25 59zM206 205v-215h-130v215l23 255h84z" />
    <glyph glyph-name="guillemotleft.case" horiz-adv-x="648" 
d="M336 527l-159 -188l159 -192h-145l-158 190l160 190h143zM603 527l-159 -188l159 -192h-145l-158 190l160 190h143z" />
    <glyph glyph-name="uni00AD.case" horiz-adv-x="444" 
d="M377 430v-110h-310v110h310z" />
    <glyph glyph-name="periodcentered.case" horiz-adv-x="286" 
d="M227 342q0 -17 -6.5 -32.5t-18 -26.5t-27 -17.5t-33.5 -6.5q-35 0 -59.5 24t-24.5 59q0 18 6.5 33t18 26.5t27 18t32.5 6.5q35 0 60 -24.5t25 -59.5z" />
    <glyph glyph-name="guillemotright.case" horiz-adv-x="648" 
d="M312 147l159 188l-159 192h145l158 -190l-160 -190h-143zM45 147l159 188l-159 192h145l158 -190l-160 -190h-143z" />
    <glyph glyph-name="questiondown.case" horiz-adv-x="467" 
d="M327 632q0 -35 -25 -59t-60 -24t-60 24t-25 59t25 59t60 24t60 -24t25 -59zM444 131q-22 -66 -75 -106t-132 -40q-36 0 -72 12.5t-64.5 36t-46 57t-17.5 74.5q0 36 11.5 62.5t29 47.5t38 36.5t38.5 29.5q20 15 33 28.5t13 28.5q0 11 -5 20.5t-15 20.5l87 60l14 -14
t18 -22t15.5 -30.5t6.5 -38.5q0 -22 -7.5 -40.5t-19.5 -35t-27.5 -30.5t-30.5 -27q-28 -23 -50 -45t-22 -49t21.5 -46t53.5 -19q34 0 56.5 16.5t35.5 46.5z" />
    <glyph glyph-name="uni0300.case" horiz-adv-x="1" 
d="M-409 928l60 -160h-80l-120 160h140z" />
    <glyph glyph-name="uni0301.case" horiz-adv-x="1" 
d="M-239 928l-120 -160h-80l60 160h140z" />
    <glyph glyph-name="uni0302.case" horiz-adv-x="1" 
d="M-319 928l95 -160h-80l-90 85l-90 -85h-80l95 160h150z" />
    <glyph glyph-name="uni0303.case" horiz-adv-x="1" 
d="M-209 907q0 -28 -6.5 -52.5t-19.5 -42.5t-33 -28.5t-47 -10.5q-23 0 -42.5 8t-37.5 17t-34.5 17t-32.5 8q-18 0 -28 -14.5t-12 -35.5l-77 16q0 28 6.5 52.5t19.5 42.5t33 28.5t47 10.5q22 0 42 -8t38 -17t34.5 -17t32.5 -8q18 0 28 14.5t12 35.5z" />
    <glyph glyph-name="uni0307.case" horiz-adv-x="1" 
d="M-236 848q0 34 24 57t58 23t58 -23t24 -57t-24 -57t-58 -23t-58 23t-24 57z" />
    <glyph glyph-name="uni0308.case" horiz-adv-x="1" 
d="M-439 849q0 33 23.5 55t56.5 22t56.5 -22t23.5 -55t-23.5 -55.5t-56.5 -22.5t-56.5 22.5t-23.5 55.5zM-229 849q0 33 23.5 55t56.5 22t56.5 -22t23.5 -55t-23.5 -55.5t-56.5 -22.5t-56.5 22.5t-23.5 55.5z" />
    <glyph glyph-name="uni030A.case" horiz-adv-x="1" 
d="M-289 872q0 23 8.5 43t23.5 35t35 23.5t43 8.5t43 -8.5t35 -23.5t23.5 -35t8.5 -43t-8.5 -43t-23.5 -35t-35 -23.5t-43 -8.5t-43 8.5t-35 23.5t-23.5 35t-8.5 43zM-214 872q0 -17 10.5 -27t24.5 -10t24.5 10t10.5 27t-10.5 27t-24.5 10t-24.5 -10t-10.5 -27z" />
    <glyph glyph-name="endash.case" horiz-adv-x="624" 
d="M557 430v-110h-490v110h490z" />
    <glyph glyph-name="emdash.case" horiz-adv-x="924" 
d="M857 430v-110h-790v110h790z" />
    <glyph glyph-name="bullet.case" horiz-adv-x="647" 
d="M71 350q0 52 19.5 98.5t54 80.5t80 54t98.5 20q52 0 98.5 -20t80.5 -54t54 -80.5t20 -98.5q0 -53 -20 -98.5t-54 -80t-80.5 -54t-98.5 -19.5q-53 0 -98.5 19.5t-80 54t-54 80t-19.5 98.5z" />
    <glyph glyph-name="guilsinglleft.case" horiz-adv-x="381" 
d="M336 527l-159 -188l159 -192h-145l-158 190l160 190h143z" />
    <glyph glyph-name="guilsinglright.case" horiz-adv-x="381" 
d="M45 147l159 188l-159 192h145l158 -190l-160 -190h-143z" />
    <glyph glyph-name="zero.zero" horiz-adv-x="632" 
d="M579 350q0 -84 -18.5 -151t-52.5 -113.5t-83 -71t-109 -24.5t-109 24.5t-83 71t-52.5 113.5t-18.5 151t18.5 151t52.5 113.5t83 71t109 24.5t109 -24.5t83 -71t52.5 -113.5t18.5 -151zM183 350q0 -60 11 -110l193 325q-32 30 -71 30q-32 0 -56.5 -17.5t-41.5 -49.5
t-26 -77.5t-9 -100.5zM449 350q0 60 -11 110l-193 -325q32 -30 71 -30q31 0 56 17.5t42 49.5t26 77t9 101z" />
    <glyph glyph-name="uni2070.zero" horiz-adv-x="347" 
d="M314 520q0 -38 -7.5 -72t-24 -60.5t-43 -42t-65.5 -15.5t-66 15.5t-43.5 42t-23.5 60.5t-7 72q0 37 7 71.5t23.5 61t43.5 42t66 15.5t65.5 -15.5t43 -42t24 -61t7.5 -71.5zM224 520v10t-1 10l-75 -125q12 -10 26 -10q15 0 24.5 9.5t15.5 25.5t8 36.5t2 43.5zM124 520v-10
t1 -10l75 125q-12 10 -26 10q-15 0 -24.5 -9.5t-15.5 -25.5t-8 -37t-2 -43z" />
    <glyph glyph-name="uni2080.zero" horiz-adv-x="347" 
d="M314 180q0 -38 -7.5 -72t-24 -60.5t-43 -42t-65.5 -15.5t-66 15.5t-43.5 42t-23.5 60.5t-7 72q0 37 7 71.5t23.5 61t43.5 42t66 15.5t65.5 -15.5t43 -42t24 -61t7.5 -71.5zM224 180v10t-1 10l-75 -125q12 -10 26 -10q15 0 24.5 9.5t15.5 25.5t8 36.5t2 43.5zM124 180v-10
t1 -10l75 125q-12 10 -26 10q-15 0 -24.5 -9.5t-15.5 -25.5t-8 -37t-2 -43z" />
    <glyph glyph-name="percent.afrc.zero" 
d="M70 312v81h450v-81h-450zM435 625q0 -38 -7.5 -72t-24 -60.5t-43 -42t-65.5 -15.5t-66 15.5t-43.5 42t-23.5 60.5t-7 72q0 37 7 71.5t23.5 61t43.5 42t66 15.5t65.5 -15.5t43 -42t24 -61t7.5 -71.5zM345 625v10t-1 10l-75 -125q12 -10 26 -10q15 0 24.5 9.5t15.5 25.5
t8 36.5t2 43.5zM245 625v-10t1 -10l75 125q-12 10 -26 10q-15 0 -24.5 -9.5t-15.5 -25.5t-8 -37t-2 -43zM435 80q0 -38 -7.5 -72t-24 -60.5t-43 -42t-65.5 -15.5t-66 15.5t-43.5 42t-23.5 60.5t-7 72q0 37 7 71.5t23.5 61t43.5 42t66 15.5t65.5 -15.5t43 -42t24 -61
t7.5 -71.5zM345 80v10t-1 10l-75 -125q12 -10 26 -10q15 0 24.5 9.5t15.5 25.5t8 36.5t2 43.5zM245 80v-10t1 -10l75 125q-12 10 -26 10q-15 0 -24.5 -9.5t-15.5 -25.5t-8 -37t-2 -43z" />
    <glyph glyph-name="uni2152.afrc.zero" 
d="M64 312v81h450v-81h-450zM164 740l120 65h60v-360h-95v250l-85 -48v93zM34 195l120 65h60v-360h-95v250l-85 -48v93zM554 80q0 -38 -7.5 -72t-24 -60.5t-43 -42t-65.5 -15.5t-66 15.5t-43.5 42t-23.5 60.5t-7 72q0 37 7 71.5t23.5 61t43.5 42t66 15.5t65.5 -15.5t43 -42
t24 -61t7.5 -71.5zM464 80v10t-1 10l-75 -125q12 -10 26 -10q15 0 24.5 9.5t15.5 25.5t8 36.5t2 43.5zM364 80v-10t1 -10l75 125q-12 10 -26 10q-15 0 -24.5 -9.5t-15.5 -25.5t-8 -37t-2 -43z" />
    <glyph glyph-name="uni2189.afrc.zero" 
d="M437 625q0 -38 -7.5 -72t-24 -60.5t-43 -42t-65.5 -15.5t-66 15.5t-43.5 42t-23.5 60.5t-7 72q0 37 7 71.5t23.5 61t43.5 42t66 15.5t65.5 -15.5t43 -42t24 -61t7.5 -71.5zM347 625v10t-1 10l-75 -125q12 -10 26 -10q15 0 24.5 9.5t15.5 25.5t8 36.5t2 43.5zM247 625v-10
t1 -10l75 125q-12 10 -26 10q-15 0 -24.5 -9.5t-15.5 -25.5t-8 -37t-2 -43zM72 312v81h450v-81h-450zM238 110l62 68h-118v82h235v-50l-69 -76q34 -12 56.5 -42t22.5 -71q0 -26 -9 -50t-26 -42t-42 -28.5t-58 -10.5q-87 0 -132 70l66 42q9 -14 24.5 -22t35.5 -8
q22 0 36.5 13.5t14.5 35.5q0 23 -15 36t-38 13q-9 0 -23 -2.5t-23 -7.5v50z" />
    <glyph glyph-name="zero.numr.zero" horiz-adv-x="347" 
d="M314 520q0 -38 -7.5 -72t-24 -60.5t-43 -42t-65.5 -15.5t-66 15.5t-43.5 42t-23.5 60.5t-7 72q0 37 7 71.5t23.5 61t43.5 42t66 15.5t65.5 -15.5t43 -42t24 -61t7.5 -71.5zM224 520v10t-1 10l-75 -125q12 -10 26 -10q15 0 24.5 9.5t15.5 25.5t8 36.5t2 43.5zM124 520v-10
t1 -10l75 125q-12 10 -26 10q-15 0 -24.5 -9.5t-15.5 -25.5t-8 -37t-2 -43z" />
    <glyph glyph-name="zero.dnom.zero" horiz-adv-x="347" 
d="M314 180q0 -38 -7.5 -72t-24 -60.5t-43 -42t-65.5 -15.5t-66 15.5t-43.5 42t-23.5 60.5t-7 72q0 37 7 71.5t23.5 61t43.5 42t66 15.5t65.5 -15.5t43 -42t24 -61t7.5 -71.5zM224 180v10t-1 10l-75 -125q12 -10 26 -10q15 0 24.5 9.5t15.5 25.5t8 36.5t2 43.5zM124 180v-10
t1 -10l75 125q-12 10 -26 10q-15 0 -24.5 -9.5t-15.5 -25.5t-8 -37t-2 -43z" />
    <glyph glyph-name="zero.osf.zero" horiz-adv-x="632" 
d="M581 257q0 -56 -19 -104.5t-54 -84.5t-83.5 -57t-108.5 -21t-108.5 21t-83.5 57t-54 84.5t-19 104.5q0 55 19 104t54 85.5t83.5 57.5t108.5 21t108.5 -21t83.5 -57.5t54 -85.5t19 -104zM456 257q0 35 -13 69l-186 -213q28 -13 59 -13q32 0 58 12.5t44 33.5t28 49.5
t10 61.5zM176 257q0 -39 12 -69l187 214q-14 6 -28 9.5t-31 3.5q-32 0 -58 -12.5t-44 -34t-28 -50t-10 -61.5z" />
    <glyph glyph-name="zero.tf.zero" 
d="M559 350q0 -84 -18.5 -151t-52.5 -113.5t-83 -71t-109 -24.5t-109 24.5t-83 71t-52.5 113.5t-18.5 151t18.5 151t52.5 113.5t83 71t109 24.5t109 -24.5t83 -71t52.5 -113.5t18.5 -151zM163 350q0 -60 11 -110l193 325q-32 30 -71 30q-32 0 -56.5 -17.5t-41.5 -49.5
t-26 -77.5t-9 -100.5zM429 350q0 60 -11 110l-193 -325q32 -30 71 -30q31 0 56 17.5t42 49.5t26 77t9 101z" />
    <glyph glyph-name="zero.tosf.zero" 
d="M561 257q0 -56 -19 -104.5t-54 -84.5t-83.5 -57t-108.5 -21t-108.5 21t-83.5 57t-54 84.5t-19 104.5q0 55 19 104t54 85.5t83.5 57.5t108.5 21t108.5 -21t83.5 -57.5t54 -85.5t19 -104zM436 257q0 35 -13 69l-186 -213q28 -13 59 -13q32 0 58 12.5t44 33.5t28 49.5
t10 61.5zM156 257q0 -39 12 -69l187 214q-14 6 -28 9.5t-31 3.5q-32 0 -58 -12.5t-44 -34t-28 -50t-10 -61.5z" />
    <glyph glyph-name="a.ss01" horiz-adv-x="538" 
d="M338 200q-16 9 -32.5 12t-32.5 3q-15 0 -32.5 -3t-32.5 -10t-25 -19t-10 -31q0 -24 19.5 -38t45.5 -14q27 0 53 12t47 38v50zM245 385q-34 0 -66.5 -12.5t-61.5 -32.5l-54 93q38 29 88 45.5t104 16.5q51 0 95.5 -17.5t74.5 -55.5q21 -26 32 -60.5t11 -91.5v-270h-120v40
q-13 -17 -46 -33.5t-84 -16.5q-37 0 -69 12.5t-55.5 34.5t-37 51.5t-13.5 63.5q0 39 15.5 70t42 53t61 33.5t73.5 11.5q26 0 52.5 -4t52.5 -14q0 46 -28 64.5t-67 18.5z" />
    <glyph glyph-name="agrave.ss01" horiz-adv-x="538" 
d="M338 200q-16 9 -32.5 12t-32.5 3q-15 0 -32.5 -3t-32.5 -10t-25 -19t-10 -31q0 -24 19.5 -38t45.5 -14q27 0 53 12t47 38v50zM245 385q-34 0 -66.5 -12.5t-61.5 -32.5l-54 93q38 29 88 45.5t104 16.5q51 0 95.5 -17.5t74.5 -55.5q21 -26 32 -60.5t11 -91.5v-270h-120v40
q-13 -17 -46 -33.5t-84 -16.5q-37 0 -69 12.5t-55.5 34.5t-37 51.5t-13.5 63.5q0 39 15.5 70t42 53t61 33.5t73.5 11.5q26 0 52.5 -4t52.5 -14q0 46 -28 64.5t-67 18.5zM285 718l60 -160h-80l-120 160h140z" />
    <glyph glyph-name="aacute.ss01" horiz-adv-x="538" 
d="M338 200q-16 9 -32.5 12t-32.5 3q-15 0 -32.5 -3t-32.5 -10t-25 -19t-10 -31q0 -24 19.5 -38t45.5 -14q27 0 53 12t47 38v50zM245 385q-34 0 -66.5 -12.5t-61.5 -32.5l-54 93q38 29 88 45.5t104 16.5q51 0 95.5 -17.5t74.5 -55.5q21 -26 32 -60.5t11 -91.5v-270h-120v40
q-13 -17 -46 -33.5t-84 -16.5q-37 0 -69 12.5t-55.5 34.5t-37 51.5t-13.5 63.5q0 39 15.5 70t42 53t61 33.5t73.5 11.5q26 0 52.5 -4t52.5 -14q0 46 -28 64.5t-67 18.5zM415 718l-120 -160h-80l60 160h140z" />
    <glyph glyph-name="acircumflex.ss01" horiz-adv-x="538" 
d="M338 200q-16 9 -32.5 12t-32.5 3q-15 0 -32.5 -3t-32.5 -10t-25 -19t-10 -31q0 -24 19.5 -38t45.5 -14q27 0 53 12t47 38v50zM245 385q-34 0 -66.5 -12.5t-61.5 -32.5l-54 93q38 29 88 45.5t104 16.5q51 0 95.5 -17.5t74.5 -55.5q21 -26 32 -60.5t11 -91.5v-270h-120v40
q-13 -17 -46 -33.5t-84 -16.5q-37 0 -69 12.5t-55.5 34.5t-37 51.5t-13.5 63.5q0 39 15.5 70t42 53t61 33.5t73.5 11.5q26 0 52.5 -4t52.5 -14q0 46 -28 64.5t-67 18.5zM335 718l95 -160h-80l-90 85l-90 -85h-80l95 160h150z" />
    <glyph glyph-name="atilde.ss01" horiz-adv-x="538" 
d="M338 200q-16 9 -32.5 12t-32.5 3q-15 0 -32.5 -3t-32.5 -10t-25 -19t-10 -31q0 -24 19.5 -38t45.5 -14q27 0 53 12t47 38v50zM245 385q-34 0 -66.5 -12.5t-61.5 -32.5l-54 93q38 29 88 45.5t104 16.5q51 0 95.5 -17.5t74.5 -55.5q21 -26 32 -60.5t11 -91.5v-270h-120v40
q-13 -17 -46 -33.5t-84 -16.5q-37 0 -69 12.5t-55.5 34.5t-37 51.5t-13.5 63.5q0 39 15.5 70t42 53t61 33.5t73.5 11.5q26 0 52.5 -4t52.5 -14q0 46 -28 64.5t-67 18.5zM465 697q0 -28 -6.5 -52.5t-19.5 -42.5t-33 -28.5t-47 -10.5q-23 0 -42.5 8t-37.5 17t-34.5 17t-32.5 8
q-18 0 -28 -14.5t-12 -35.5l-77 16q0 28 6.5 52.5t19.5 42.5t33 28.5t47 10.5q22 0 42 -8t38 -17t34.5 -17t32.5 -8q18 0 28 14.5t12 35.5z" />
    <glyph glyph-name="adieresis.ss01" horiz-adv-x="538" 
d="M338 200q-16 9 -32.5 12t-32.5 3q-15 0 -32.5 -3t-32.5 -10t-25 -19t-10 -31q0 -24 19.5 -38t45.5 -14q27 0 53 12t47 38v50zM245 385q-34 0 -66.5 -12.5t-61.5 -32.5l-54 93q38 29 88 45.5t104 16.5q51 0 95.5 -17.5t74.5 -55.5q21 -26 32 -60.5t11 -91.5v-270h-120v40
q-13 -17 -46 -33.5t-84 -16.5q-37 0 -69 12.5t-55.5 34.5t-37 51.5t-13.5 63.5q0 39 15.5 70t42 53t61 33.5t73.5 11.5q26 0 52.5 -4t52.5 -14q0 46 -28 64.5t-67 18.5zM95 639q0 33 23.5 55t56.5 22t56.5 -22t23.5 -55t-23.5 -55.5t-56.5 -22.5t-56.5 22.5t-23.5 55.5z
M305 639q0 33 23.5 55t56.5 22t56.5 -22t23.5 -55t-23.5 -55.5t-56.5 -22.5t-56.5 22.5t-23.5 55.5z" />
    <glyph glyph-name="aring.ss01" horiz-adv-x="538" 
d="M338 200q-16 9 -32.5 12t-32.5 3q-15 0 -32.5 -3t-32.5 -10t-25 -19t-10 -31q0 -24 19.5 -38t45.5 -14q27 0 53 12t47 38v50zM245 385q-34 0 -66.5 -12.5t-61.5 -32.5l-54 93q38 29 88 45.5t104 16.5q51 0 95.5 -17.5t74.5 -55.5q21 -26 32 -60.5t11 -91.5v-270h-120v40
q-13 -17 -46 -33.5t-84 -16.5q-37 0 -69 12.5t-55.5 34.5t-37 51.5t-13.5 63.5q0 39 15.5 70t42 53t61 33.5t73.5 11.5q26 0 52.5 -4t52.5 -14q0 46 -28 64.5t-67 18.5zM170 662q0 23 8.5 43t23.5 35t35 23.5t43 8.5t43 -8.5t35 -23.5t23.5 -35t8.5 -43t-8.5 -43t-23.5 -35
t-35 -23.5t-43 -8.5t-43 8.5t-35 23.5t-23.5 35t-8.5 43zM245 662q0 -17 10.5 -27t24.5 -10t24.5 10t10.5 27t-10.5 27t-24.5 10t-24.5 -10t-10.5 -27z" />
    <glyph glyph-name="ae.ss01" horiz-adv-x="815" 
d="M456 210q3 -51 37 -80.5t84 -29.5q31 0 59 11.5t52 37.5l73 -72q-35 -41 -83 -64t-105 -23q-51 0 -95.5 19.5t-80.5 61.5q-9 -11 -24 -24.5t-36.5 -26.5t-51 -21.5t-67.5 -8.5q-37 0 -69 12.5t-55.5 34.5t-37 51.5t-13.5 63.5q0 39 15.5 70t42 53t61 33.5t73.5 11.5
q26 0 52.5 -4t52.5 -14q0 46 -28 64.5t-67 18.5q-34 0 -66.5 -12.5t-61.5 -32.5l-54 93q38 29 88 45.5t104 16.5q45 0 84.5 -14.5t69.5 -49.5q29 30 67.5 47t83.5 17q50 0 89.5 -20t67 -54.5t42 -79.5t14.5 -94q0 -21 -3 -37h-314zM348 156q-6 21 -9 44q-16 9 -33.5 12
t-32.5 3t-32.5 -3t-32.5 -10t-25 -19t-10 -31q0 -24 19.5 -38t45.5 -14q36 0 64.5 16t45.5 40zM645 300q-3 36 -27 62t-62 26q-18 0 -34.5 -7t-29.5 -19t-21.5 -28t-10.5 -34h185z" />
    <glyph glyph-name="one.ss02" horiz-adv-x="556" 
d="M82 588l190 112h95v-580h165v-120h-490v120h190v424l-150 -84v128z" />
    <glyph glyph-name="one.osf.ss02" horiz-adv-x="524" 
d="M90 414l170 101h90v-400h140v-115h-445v115h177v255l-132 -79v123z" />
    <glyph glyph-name="one.ss03" horiz-adv-x="309" 
d="M220 710v-710h-135v630z" />
    <glyph glyph-name="onesuperior.ss03" horiz-adv-x="195" 
d="M143 710v-370h-95v315z" />
    <glyph glyph-name="onequarter.ss03" horiz-adv-x="627" 
d="M178 710v-370h-95v315zM33 0l409 700h106l-409 -700h-106zM532 145h61v-75h-61v-70h-85v70h-164v50l189 240h60v-215zM447 145v75l-59 -75h59z" />
    <glyph glyph-name="onehalf.ss03" horiz-adv-x="660" 
d="M178 710v-370h-95v315zM33 0l409 700h106l-409 -700h-106zM483 165q26 26 35.5 43.5t9.5 35.5q0 17 -11.5 30.5t-29.5 13.5q-42 0 -51 -50l-78 20q12 56 47 84t82 28q28 0 52 -10t41.5 -27t27.5 -40t10 -49q0 -28 -14 -59t-52 -69l-34 -34h105v-82h-255v50z" />
    <glyph glyph-name="uni2081.ss03" horiz-adv-x="195" 
d="M143 370v-370h-95v315z" />
    <glyph glyph-name="uni2780.ss03" horiz-adv-x="900" 
d="M160 350q0 -61 22.5 -114.5t61.5 -93.5t92 -63.5t114 -23.5t114 23.5t92 63.5t61.5 93.5t22.5 114.5t-22.5 114.5t-61.5 93.5t-92 63.5t-114 23.5t-114 -23.5t-92 -63.5t-61.5 -93.5t-22.5 -114.5zM450 -25q-79 0 -147.5 29.5t-119 80.5t-79.5 119t-29 146t29 146
t79.5 119t119 80.5t147.5 29.5t147.5 -29.5t119 -80.5t79.5 -119t29 -146t-29 -146t-79.5 -119t-119 -80.5t-147.5 -29.5zM498 548v-370h-95v315z" />
    <glyph glyph-name="uni278A.ss03" horiz-adv-x="900" 
d="M450 -25q-79 0 -147.5 29.5t-119 80.5t-79.5 119t-29 146t29 146t79.5 119t119 80.5t147.5 29.5t147.5 -29.5t119 -80.5t79.5 -119t29 -146t-29 -146t-79.5 -119t-119 -80.5t-147.5 -29.5zM405 493v-313h91v365z" />
    <glyph glyph-name="onequarter.afrc.ss03" 
d="M71 312v81h450v-81h-450zM344 815v-370h-95v315zM380 45h61v-75h-61v-70h-85v70h-164v50l189 240h60v-215zM295 45v75l-59 -75h59z" />
    <glyph glyph-name="onehalf.afrc.ss03" 
d="M70 312v81h450v-81h-450zM343 815v-370h-95v315zM285 65q26 26 35.5 43.5t9.5 35.5q0 17 -11.5 30.5t-29.5 13.5q-42 0 -51 -50l-78 20q12 56 47 84t82 28q28 0 52 -10t41.5 -27t27.5 -40t10 -49q0 -28 -14 -59t-52 -69l-34 -34h105v-82h-255v50z" />
    <glyph glyph-name="uni2150.afrc.ss03" 
d="M71 312v81h450v-81h-450zM344 815v-370h-95v315zM421 260v-50l-139 -310h-98l126 278h-139v82h250z" />
    <glyph glyph-name="uni2151.afrc.ss03" 
d="M70 312v81h450v-81h-450zM343 815v-370h-95v315zM281 18q-26 1 -49 10t-40 25.5t-27 38.5t-10 49t11 50.5t29.5 41t44 27.5t55.5 10q27 0 52 -8.5t44.5 -25t31.5 -40t12 -53.5q0 -32 -12.5 -58.5t-23.5 -44.5l-86 -140h-105zM247 141q0 -20 12.5 -33.5t34.5 -13.5t36 12
q13 15 13 35t-13.5 33.5t-35.5 13.5q-20 0 -33.5 -13.5t-13.5 -33.5z" />
    <glyph glyph-name="uni2152.afrc.ss03" 
d="M66 312v81h450v-81h-450zM521 80q0 -38 -7.5 -72t-24 -60.5t-43 -42t-65.5 -15.5t-66 15.5t-43.5 42t-23.5 60.5t-7 72q0 37 7 71.5t23.5 61t43.5 42t66 15.5t65.5 -15.5t43 -42t24 -61t7.5 -71.5zM336 80q0 -21 2 -41t7 -35.5t13.5 -24.5t22.5 -9q13 0 22 9t14 24.5
t7 35.5t2 41t-2 41t-7 35.5t-14 24.5t-22 9q-14 0 -22.5 -9t-13.5 -24.5t-7 -35.5t-2 -41zM339 815v-370h-95v315zM181 270v-370h-95v315z" />
    <glyph glyph-name="onethird.afrc.ss03" 
d="M70 312v81h450v-81h-450zM343 815v-370h-95v315zM236 110l62 68h-118v82h235v-50l-69 -76q34 -12 56.5 -42t22.5 -71q0 -26 -9 -50t-26 -42t-42 -28.5t-58 -10.5q-87 0 -132 70l66 42q9 -14 24.5 -22t35.5 -8q22 0 36.5 13.5t14.5 35.5q0 23 -15 36t-38 13q-9 0 -23 -2.5
t-23 -7.5v50z" />
    <glyph glyph-name="uni2155.afrc.ss03" 
d="M69 312v81h450v-81h-450zM342 815v-370h-95v315zM194 62l19 198h191v-80h-114l-4 -42q8 2 14.5 2.5t9.5 0.5q31 0 53.5 -11t37 -28.5t21.5 -39.5t7 -44q0 -27 -10.5 -50.5t-28.5 -40.5t-43 -27t-55 -10q-35 0 -66 12.5t-57 39.5l58 55q9 -10 24 -17.5t35 -7.5t35 13.5
t15 36.5q0 21 -14 34.5t-36 13.5q-23 0 -40 -15z" />
    <glyph glyph-name="uni2159.afrc.ss03" 
d="M70 312v81h450v-81h-450zM343 815v-370h-95v315zM314 142q26 -1 49 -10t40 -25.5t27 -38.5t10 -49t-11 -50.5t-29.5 -41t-44 -27.5t-55.5 -10q-27 0 -52 8.5t-44.5 25t-31.5 40t-12 53.5q0 32 12.5 58.5t23.5 44.5l86 140h105zM348 19q0 20 -12.5 33.5t-34.5 13.5
t-36 -12q-13 -15 -13 -35t13.5 -33.5t35.5 -13.5q20 0 33.5 13.5t13.5 33.5z" />
    <glyph glyph-name="oneeighth.afrc.ss03" 
d="M70 312v81h450v-81h-450zM343 815v-370h-95v315zM295 -110q-31 0 -57 9t-44.5 25t-28.5 37.5t-10 45.5q0 26 13 49.5t36 37.5q-15 14 -24 32t-9 39q0 22 9.5 41t26.5 33t39.5 22.5t48.5 8.5t48.5 -8.5t39.5 -22.5t26.5 -33t9.5 -41q0 -21 -9 -39t-24 -32q23 -14 36 -37.5
t13 -49.5q0 -24 -10 -45.5t-28.5 -37.5t-44.5 -25t-57 -9zM295 122q13 0 22.5 9t9.5 25t-9.5 25t-22.5 9t-22.5 -9t-9.5 -25t9.5 -25t22.5 -9zM245 16q0 -20 13.5 -33t36.5 -13t36.5 13t13.5 33t-13.5 33.5t-36.5 13.5t-36.5 -13.5t-13.5 -33.5z" />
    <glyph glyph-name="one.numr.ss03" horiz-adv-x="195" 
d="M143 710v-370h-95v315z" />
    <glyph glyph-name="one.dnom.ss03" horiz-adv-x="195" 
d="M143 370v-370h-95v315z" />
    <glyph glyph-name="one.osf.ss03" horiz-adv-x="284" 
d="M205 0h-130v420l130 75v-495z" />
    <glyph glyph-name="uni2152.afrc.zero.ss03" 
d="M66 312v81h450v-81h-450zM339 815v-370h-95v315zM181 270v-370h-95v315zM521 80q0 -38 -7.5 -72t-24 -60.5t-43 -42t-65.5 -15.5t-66 15.5t-43.5 42t-23.5 60.5t-7 72q0 37 7 71.5t23.5 61t43.5 42t66 15.5t65.5 -15.5t43 -42t24 -61t7.5 -71.5zM431 80v10t-1 10
l-75 -125q12 -10 26 -10q15 0 24.5 9.5t15.5 25.5t8 36.5t2 43.5zM331 80v-10t1 -10l75 125q-12 10 -26 10q-15 0 -24.5 -9.5t-15.5 -25.5t-8 -37t-2 -43z" />
    <glyph glyph-name="two.ss04" horiz-adv-x="588" 
d="M400 475q0 50 -31.5 82.5t-81.5 32.5q-51 0 -83 -32.5t-32 -82.5q0 -31 11 -60l-114 -50q-12 24 -18.5 52.5t-6.5 57.5q0 50 19 93t52.5 74.5t78.5 49.5t97 18q51 0 95.5 -18.5t77 -50.5t51.5 -74.5t19 -91.5q0 -39 -12 -73t-33 -64.5t-48 -59t-57 -56.5l-107 -102h257
v-120h-475v80l233 227q26 25 46 46.5t34 41t21 39t7 41.5z" />
    <glyph glyph-name="twosuperior.ss04" horiz-adv-x="332" 
d="M44 527q-13 26 -13 58q0 27 10 49.5t28 39.5t42 26.5t52 9.5q27 0 50 -10t40.5 -27t27.5 -39.5t10 -48.5q0 -29 -14 -60t-52 -69l-34 -34h105v-82h-255v50l115 115q26 26 35.5 43.5t9.5 36.5q0 20 -12 31.5t-31 11.5q-18 0 -30.5 -11.5t-12.5 -31.5q0 -5 1.5 -12t3.5 -13
z" />
    <glyph glyph-name="onehalf.ss04" horiz-adv-x="695" 
d="M33 635l120 65h60v-360h-95v250l-85 -48v93zM68 0l409 700h106l-409 -700h-106zM406 187q-13 26 -13 58q0 27 10 49.5t28 39.5t42 26.5t52 9.5q27 0 50 -10t40.5 -27t27.5 -39.5t10 -48.5q0 -29 -14 -60t-52 -69l-34 -34h105v-82h-255v50l115 115q26 26 35.5 43.5
t9.5 36.5q0 20 -12 31.5t-31 11.5q-18 0 -30.5 -11.5t-12.5 -31.5q0 -5 1.5 -12t3.5 -13z" />
    <glyph glyph-name="uni2082.ss04" horiz-adv-x="332" 
d="M44 187q-13 26 -13 58q0 27 10 49.5t28 39.5t42 26.5t52 9.5q27 0 50 -10t40.5 -27t27.5 -39.5t10 -48.5q0 -29 -14 -60t-52 -69l-34 -34h105v-82h-255v50l115 115q26 26 35.5 43.5t9.5 36.5q0 20 -12 31.5t-31 11.5q-18 0 -30.5 -11.5t-12.5 -31.5q0 -5 1.5 -12t3.5 -13
z" />
    <glyph glyph-name="uni2781.ss04" horiz-adv-x="900" 
d="M160 350q0 -61 22.5 -114.5t61.5 -93.5t92 -63.5t114 -23.5t114 23.5t92 63.5t61.5 93.5t22.5 114.5t-22.5 114.5t-61.5 93.5t-92 63.5t-114 23.5t-114 -23.5t-92 -63.5t-61.5 -93.5t-22.5 -114.5zM450 -25q-79 0 -147.5 29.5t-119 80.5t-79.5 119t-29 146t29 146
t79.5 119t119 80.5t147.5 29.5t147.5 -29.5t119 -80.5t79.5 -119t29 -146t-29 -146t-79.5 -119t-119 -80.5t-147.5 -29.5zM329 368q-13 26 -13 58q0 27 10 49.5t28 39.5t42 26.5t52 9.5q27 0 50 -10t40.5 -27t27.5 -39.5t10 -48.5q0 -29 -14 -60t-52 -69l-34 -34h105v-82
h-255v50l115 115q26 26 35.5 43.5t9.5 36.5q0 20 -12 31.5t-31 11.5q-18 0 -30.5 -11.5t-12.5 -31.5q0 -5 1.5 -12t3.5 -13z" />
    <glyph glyph-name="uni278B.ss04" horiz-adv-x="900" 
d="M403 402q-5 13 -5 24q0 22 14 33.5t31 11.5q20 0 32.5 -12.5t12.5 -32.5q0 -18 -9.5 -36t-35.5 -44l-115 -115v-48h251v78h-107l38 38q38 38 51 69t13 58q0 25 -10 47.5t-27 39t-40 26.5t-49 10q-27 0 -50.5 -9.5t-41.5 -26t-28 -39t-10 -48.5q0 -31 11 -56zM450 -25
q-79 0 -147.5 29.5t-119 80.5t-79.5 119t-29 146t29 146t79.5 119t119 80.5t147.5 29.5t147.5 -29.5t119 -80.5t79.5 -119t29 -146t-29 -146t-79.5 -119t-119 -80.5t-147.5 -29.5z" />
    <glyph glyph-name="onehalf.afrc.ss04" 
d="M72 312v81h450v-81h-450zM172 740l120 65h60v-360h-95v250l-85 -48v93zM175 87q-13 26 -13 58q0 27 10 49.5t28 39.5t42 26.5t52 9.5q27 0 50 -10t40.5 -27t27.5 -39.5t10 -48.5q0 -29 -14 -60t-52 -69l-34 -34h105v-82h-255v50l115 115q26 26 35.5 43.5t9.5 36.5
q0 20 -12 31.5t-31 11.5q-18 0 -30.5 -11.5t-12.5 -31.5q0 -5 1.5 -12t3.5 -13z" />
    <glyph glyph-name="twothirds.afrc.ss04" 
d="M70 312v81h450v-81h-450zM173 632q-13 26 -13 58q0 27 10 49.5t28 39.5t42 26.5t52 9.5q27 0 50 -10t40.5 -27t27.5 -39.5t10 -48.5q0 -29 -14 -60t-52 -69l-34 -34h105v-82h-255v50l115 115q26 26 35.5 43.5t9.5 36.5q0 20 -12 31.5t-31 11.5q-18 0 -30.5 -11.5
t-12.5 -31.5q0 -5 1.5 -12t3.5 -13zM236 110l62 68h-118v82h235v-50l-69 -76q34 -12 56.5 -42t22.5 -71q0 -26 -9 -50t-26 -42t-42 -28.5t-58 -10.5q-87 0 -132 70l66 42q9 -14 24.5 -22t35.5 -8q22 0 36.5 13.5t14.5 35.5q0 23 -15 36t-38 13q-9 0 -23 -2.5t-23 -7.5v50z
" />
    <glyph glyph-name="uni2156.afrc.ss04" 
d="M69 312v81h450v-81h-450zM172 632q-13 26 -13 58q0 27 10 49.5t28 39.5t42 26.5t52 9.5q27 0 50 -10t40.5 -27t27.5 -39.5t10 -48.5q0 -29 -14 -60t-52 -69l-34 -34h105v-82h-255v50l115 115q26 26 35.5 43.5t9.5 36.5q0 20 -12 31.5t-31 11.5q-18 0 -30.5 -11.5
t-12.5 -31.5q0 -5 1.5 -12t3.5 -13zM194 62l19 198h191v-80h-114l-4 -42q8 2 14.5 2.5t9.5 0.5q31 0 53.5 -11t37 -28.5t21.5 -39.5t7 -44q0 -27 -10.5 -50.5t-28.5 -40.5t-43 -27t-55 -10q-35 0 -66 12.5t-57 39.5l58 55q9 -10 24 -17.5t35 -7.5t35 13.5t15 36.5
q0 21 -14 34.5t-36 13.5q-23 0 -40 -15z" />
    <glyph glyph-name="two.numr.ss04" horiz-adv-x="332" 
d="M44 527q-13 26 -13 58q0 27 10 49.5t28 39.5t42 26.5t52 9.5q27 0 50 -10t40.5 -27t27.5 -39.5t10 -48.5q0 -29 -14 -60t-52 -69l-34 -34h105v-82h-255v50l115 115q26 26 35.5 43.5t9.5 36.5q0 20 -12 31.5t-31 11.5q-18 0 -30.5 -11.5t-12.5 -31.5q0 -5 1.5 -12t3.5 -13
z" />
    <glyph glyph-name="two.dnom.ss04" horiz-adv-x="332" 
d="M44 187q-13 26 -13 58q0 27 10 49.5t28 39.5t42 26.5t52 9.5q27 0 50 -10t40.5 -27t27.5 -39.5t10 -48.5q0 -29 -14 -60t-52 -69l-34 -34h105v-82h-255v50l115 115q26 26 35.5 43.5t9.5 36.5q0 20 -12 31.5t-31 11.5q-18 0 -30.5 -11.5t-12.5 -31.5q0 -5 1.5 -12t3.5 -13
z" />
    <glyph glyph-name="two.osf.ss04" horiz-adv-x="524" 
d="M334 335q-1 35 -22.5 57.5t-58.5 22.5t-59.5 -22.5t-22.5 -59.5q0 -12 4 -28t12 -30l-105 -50q-16 23 -24.5 50.5t-8.5 57.5q0 40 15 75t42 61t65 41t83 15t83 -15t65 -40.5t42 -60.5t15 -74q0 -57 -30.5 -102t-89.5 -87l-50 -36h190v-110h-420v80l177 127
q45 32 71.5 62.5t26.5 65.5z" />
    <glyph glyph-name="two.tf.ss04" 
d="M401 475q0 50 -31.5 82.5t-81.5 32.5q-51 0 -83 -32.5t-32 -82.5q0 -31 11 -60l-114 -50q-12 24 -18.5 52.5t-6.5 57.5q0 50 19 93t52.5 74.5t78.5 49.5t97 18q51 0 95.5 -18.5t77 -50.5t51.5 -74.5t19 -91.5q0 -39 -12 -73t-33 -64.5t-48 -59t-57 -56.5l-107 -102h257
v-120h-475v80l233 227q26 25 46 46.5t34 41t21 39t7 41.5z" />
    <glyph glyph-name="two.tosf.ss04" 
d="M367 335q-1 35 -22.5 57.5t-58.5 22.5t-59.5 -22.5t-22.5 -59.5q0 -12 4 -28t12 -30l-105 -50q-16 23 -24.5 50.5t-8.5 57.5q0 40 15 75t42 61t65 41t83 15t83 -15t65 -40.5t42 -60.5t15 -74q0 -57 -30.5 -102t-89.5 -87l-50 -36h190v-110h-420v80l177 127
q45 32 71.5 62.5t26.5 65.5z" />
    <glyph glyph-name="onehalf.ss03.ss04" horiz-adv-x="660" 
d="M178 710v-370h-95v315zM33 0l409 700h106l-409 -700h-106zM371 187q-13 26 -13 58q0 27 10 49.5t28 39.5t42 26.5t52 9.5q27 0 50 -10t40.5 -27t27.5 -39.5t10 -48.5q0 -29 -14 -60t-52 -69l-34 -34h105v-82h-255v50l115 115q26 26 35.5 43.5t9.5 36.5q0 20 -12 31.5
t-31 11.5q-18 0 -30.5 -11.5t-12.5 -31.5q0 -5 1.5 -12t3.5 -13z" />
    <glyph glyph-name="onehalf.afrc.ss03.ss04" 
d="M70 312v81h450v-81h-450zM343 815v-370h-95v315zM173 87q-13 26 -13 58q0 27 10 49.5t28 39.5t42 26.5t52 9.5q27 0 50 -10t40.5 -27t27.5 -39.5t10 -48.5q0 -29 -14 -60t-52 -69l-34 -34h105v-82h-255v50l115 115q26 26 35.5 43.5t9.5 36.5q0 20 -12 31.5t-31 11.5
q-18 0 -30.5 -11.5t-12.5 -31.5q0 -5 1.5 -12t3.5 -13z" />
    <glyph glyph-name="three.ss05" horiz-adv-x="550" 
d="M479 517q0 -43 -18.5 -77t-51.5 -60q42 -23 68.5 -68t26.5 -103q0 -45 -17.5 -85t-49 -69.5t-75 -47t-95.5 -17.5q-88 0 -151.5 40.5t-96.5 119.5l109 48q20 -40 51.5 -64t82.5 -24q46 0 77 29.5t31 73.5q0 29 -13.5 52.5t-36.5 37.5q-13 8 -31 11.5t-50 3.5h-35v115h35
q34 0 51.5 5.5t28.5 14.5q26 21 26 58q0 32 -22.5 55.5t-60.5 23.5q-66 0 -100 -60l-108 50q32 63 87 96.5t126 33.5q45 0 84 -15.5t67.5 -42t44.5 -61.5t16 -74z" />
    <glyph glyph-name="threesuperior.ss05" horiz-adv-x="328" 
d="M39 645q14 24 45.5 44.5t82.5 20.5q25 0 47.5 -8t39 -21.5t26 -31.5t9.5 -39q0 -23 -10 -43t-30 -35q23 -14 34 -37.5t11 -49.5q0 -21 -9 -42t-26 -37t-41.5 -26t-56.5 -10q-45 0 -83.5 21.5t-58.5 63.5l69 31q8 -14 25 -25t43 -11q20 0 35 12t15 30q0 17 -12 29t-41 12
h-29v74h37q14 0 21 3.5t11 7.5q8 8 8 19q0 17 -13.5 25t-29.5 8q-15 0 -31.5 -8t-25.5 -20z" />
    <glyph glyph-name="threequarters.ss05" horiz-adv-x="722" 
d="M50 645q14 24 45.5 44.5t82.5 20.5q25 0 47.5 -8t39 -21.5t26 -31.5t9.5 -39q0 -23 -10 -43t-30 -35q23 -14 34 -37.5t11 -49.5q0 -21 -9 -42t-26 -37t-41.5 -26t-56.5 -10q-45 0 -83.5 21.5t-58.5 63.5l69 31q8 -14 25 -25t43 -11q20 0 35 12t15 30q0 17 -12 29t-41 12
h-29v74h37q14 0 21 3.5t11 7.5q8 8 8 19q0 17 -13.5 25t-29.5 8q-15 0 -31.5 -8t-25.5 -20zM125 0l409 700h106l-409 -700h-106zM624 145h61v-75h-61v-70h-85v70h-164v50l189 240h60v-215zM539 145v75l-59 -75h59z" />
    <glyph glyph-name="uni2083.ss05" horiz-adv-x="328" 
d="M39 305q14 24 45.5 44.5t82.5 20.5q25 0 47.5 -8t39 -21.5t26 -31.5t9.5 -39q0 -23 -10 -43t-30 -35q23 -14 34 -37.5t11 -49.5q0 -21 -9 -42t-26 -37t-41.5 -26t-56.5 -10q-45 0 -83.5 21.5t-58.5 63.5l69 31q8 -14 25 -25t43 -11q20 0 35 12t15 30q0 17 -12 29t-41 12
h-29v74h37q14 0 21 3.5t11 7.5q8 8 8 19q0 17 -13.5 25t-29.5 8q-15 0 -31.5 -8t-25.5 -20z" />
    <glyph glyph-name="uni2782.ss05" horiz-adv-x="900" 
d="M160 350q0 -61 22.5 -114.5t61.5 -93.5t92 -63.5t114 -23.5t114 23.5t92 63.5t61.5 93.5t22.5 114.5t-22.5 114.5t-61.5 93.5t-92 63.5t-114 23.5t-114 -23.5t-92 -63.5t-61.5 -93.5t-22.5 -114.5zM450 -25q-79 0 -147.5 29.5t-119 80.5t-79.5 119t-29 146t29 146
t79.5 119t119 80.5t147.5 29.5t147.5 -29.5t119 -80.5t79.5 -119t29 -146t-29 -146t-79.5 -119t-119 -80.5t-147.5 -29.5zM328 479q14 24 45.5 44.5t82.5 20.5q25 0 47.5 -8t39 -21.5t26 -31.5t9.5 -39q0 -23 -10 -43t-30 -35q23 -14 34 -37.5t11 -49.5q0 -21 -9 -42
t-26 -37t-41.5 -26t-56.5 -10q-45 0 -83.5 21.5t-58.5 63.5l69 31q8 -14 25 -25t43 -11q20 0 35 12t15 30q0 17 -12 29t-41 12h-29v74h37q14 0 21 3.5t11 7.5q8 8 8 19q0 17 -13.5 25t-29.5 8q-15 0 -31.5 -8t-25.5 -20z" />
    <glyph glyph-name="uni278C.ss05" horiz-adv-x="900" 
d="M389 439q11 11 27 19t31 8q18 0 31.5 -9t13.5 -26q0 -11 -9 -20q-4 -4 -11.5 -8t-21.5 -4h-35v-70h27q14 0 24 -2.5t18 -10.5q13 -13 13 -30q0 -19 -14.5 -31.5t-37.5 -12.5q-26 0 -43.5 10.5t-25.5 24.5l-65 -29q20 -41 57.5 -61.5t81.5 -20.5q31 0 55.5 10t41.5 25.5
t25.5 36t8.5 41.5q0 26 -12 49t-35 38q21 16 31.5 36t10.5 42q0 20 -9.5 38t-26 31.5t-38 21t-46.5 7.5q-49 0 -80 -19.5t-45 -42.5zM450 -25q-79 0 -147.5 29.5t-119 80.5t-79.5 119t-29 146t29 146t79.5 119t119 80.5t147.5 29.5t147.5 -29.5t119 -80.5t79.5 -119t29 -146
t-29 -146t-79.5 -119t-119 -80.5t-147.5 -29.5z" />
    <glyph glyph-name="threequarters.afrc.ss05" 
d="M70 312v81h450v-81h-450zM379 45h61v-75h-61v-70h-85v70h-164v50l189 240h60v-215zM294 45v75l-59 -75h59zM180 750q14 24 45.5 44.5t82.5 20.5q25 0 47.5 -8t39 -21.5t26 -31.5t9.5 -39q0 -23 -10 -43t-30 -35q23 -14 34 -37.5t11 -49.5q0 -21 -9 -42t-26 -37t-41.5 -26
t-56.5 -10q-45 0 -83.5 21.5t-58.5 63.5l69 31q8 -14 25 -25t43 -11q20 0 35 12t15 30q0 17 -12 29t-41 12h-29v74h37q14 0 21 3.5t11 7.5q8 8 8 19q0 17 -13.5 25t-29.5 8q-15 0 -31.5 -8t-25.5 -20z" />
    <glyph glyph-name="onethird.afrc.ss05" 
d="M72 312v81h450v-81h-450zM172 740l120 65h60v-360h-95v250l-85 -48v93zM177 205q14 24 45.5 44.5t82.5 20.5q25 0 47.5 -8t39 -21.5t26 -31.5t9.5 -39q0 -23 -10 -43t-30 -35q23 -14 34 -37.5t11 -49.5q0 -21 -9 -42t-26 -37t-41.5 -26t-56.5 -10q-45 0 -83.5 21.5
t-58.5 63.5l69 31q8 -14 25 -25t43 -11q20 0 35 12t15 30q0 17 -12 29t-41 12h-29v74h37q14 0 21 3.5t11 7.5q8 8 8 19q0 17 -13.5 25t-29.5 8q-15 0 -31.5 -8t-25.5 -20z" />
    <glyph glyph-name="twothirds.afrc.ss05" 
d="M69 312v81h450v-81h-450zM284 610q26 26 35.5 43.5t9.5 35.5q0 17 -11.5 30.5t-29.5 13.5q-42 0 -51 -50l-78 20q12 56 47 84t82 28q28 0 52 -10t41.5 -27t27.5 -40t10 -49q0 -28 -14 -59t-52 -69l-34 -34h105v-82h-255v50zM174 205q14 24 45.5 44.5t82.5 20.5
q25 0 47.5 -8t39 -21.5t26 -31.5t9.5 -39q0 -23 -10 -43t-30 -35q23 -14 34 -37.5t11 -49.5q0 -21 -9 -42t-26 -37t-41.5 -26t-56.5 -10q-45 0 -83.5 21.5t-58.5 63.5l69 31q8 -14 25 -25t43 -11q20 0 35 12t15 30q0 17 -12 29t-41 12h-29v74h37q14 0 21 3.5t11 7.5
q8 8 8 19q0 17 -13.5 25t-29.5 8q-15 0 -31.5 -8t-25.5 -20z" />
    <glyph glyph-name="uni2157.afrc.ss05" 
d="M68 312v81h450v-81h-450zM193 62l19 198h191v-80h-114l-4 -42q8 2 14.5 2.5t9.5 0.5q31 0 53.5 -11t37 -28.5t21.5 -39.5t7 -44q0 -27 -10.5 -50.5t-28.5 -40.5t-43 -27t-55 -10q-35 0 -66 12.5t-57 39.5l58 55q9 -10 24 -17.5t35 -7.5t35 13.5t15 36.5q0 21 -14 34.5
t-36 13.5q-23 0 -40 -15zM178 750q14 24 45.5 44.5t82.5 20.5q25 0 47.5 -8t39 -21.5t26 -31.5t9.5 -39q0 -23 -10 -43t-30 -35q23 -14 34 -37.5t11 -49.5q0 -21 -9 -42t-26 -37t-41.5 -26t-56.5 -10q-45 0 -83.5 21.5t-58.5 63.5l69 31q8 -14 25 -25t43 -11q20 0 35 12
t15 30q0 17 -12 29t-41 12h-29v74h37q14 0 21 3.5t11 7.5q8 8 8 19q0 17 -13.5 25t-29.5 8q-15 0 -31.5 -8t-25.5 -20z" />
    <glyph glyph-name="threeeighths.afrc.ss05" 
d="M68 312v81h450v-81h-450zM293 -110q-31 0 -57 9t-44.5 25t-28.5 37.5t-10 45.5q0 26 13 49.5t36 37.5q-15 14 -24 32t-9 39q0 22 9.5 41t26.5 33t39.5 22.5t48.5 8.5t48.5 -8.5t39.5 -22.5t26.5 -33t9.5 -41q0 -21 -9 -39t-24 -32q23 -14 36 -37.5t13 -49.5
q0 -24 -10 -45.5t-28.5 -37.5t-44.5 -25t-57 -9zM293 122q13 0 22.5 9t9.5 25t-9.5 25t-22.5 9t-22.5 -9t-9.5 -25t9.5 -25t22.5 -9zM243 16q0 -20 13.5 -33t36.5 -13t36.5 13t13.5 33t-13.5 33.5t-36.5 13.5t-36.5 -13.5t-13.5 -33.5zM178 750q14 24 45.5 44.5t82.5 20.5
q25 0 47.5 -8t39 -21.5t26 -31.5t9.5 -39q0 -23 -10 -43t-30 -35q23 -14 34 -37.5t11 -49.5q0 -21 -9 -42t-26 -37t-41.5 -26t-56.5 -10q-45 0 -83.5 21.5t-58.5 63.5l69 31q8 -14 25 -25t43 -11q20 0 35 12t15 30q0 17 -12 29t-41 12h-29v74h37q14 0 21 3.5t11 7.5
q8 8 8 19q0 17 -13.5 25t-29.5 8q-15 0 -31.5 -8t-25.5 -20z" />
    <glyph glyph-name="uni2189.afrc.ss05" 
d="M437 625q0 -38 -7.5 -72t-24 -60.5t-43 -42t-65.5 -15.5t-66 15.5t-43.5 42t-23.5 60.5t-7 72q0 37 7 71.5t23.5 61t43.5 42t66 15.5t65.5 -15.5t43 -42t24 -61t7.5 -71.5zM252 625q0 -21 2 -41t7 -35.5t13.5 -24.5t22.5 -9q13 0 22 9t14 24.5t7 35.5t2 41t-2 41t-7 35.5
t-14 24.5t-22 9q-14 0 -22.5 -9t-13.5 -24.5t-7 -35.5t-2 -41zM72 312v81h450v-81h-450zM177 205q14 24 45.5 44.5t82.5 20.5q25 0 47.5 -8t39 -21.5t26 -31.5t9.5 -39q0 -23 -10 -43t-30 -35q23 -14 34 -37.5t11 -49.5q0 -21 -9 -42t-26 -37t-41.5 -26t-56.5 -10
q-45 0 -83.5 21.5t-58.5 63.5l69 31q8 -14 25 -25t43 -11q20 0 35 12t15 30q0 17 -12 29t-41 12h-29v74h37q14 0 21 3.5t11 7.5q8 8 8 19q0 17 -13.5 25t-29.5 8q-15 0 -31.5 -8t-25.5 -20z" />
    <glyph glyph-name="three.numr.ss05" horiz-adv-x="328" 
d="M39 645q14 24 45.5 44.5t82.5 20.5q25 0 47.5 -8t39 -21.5t26 -31.5t9.5 -39q0 -23 -10 -43t-30 -35q23 -14 34 -37.5t11 -49.5q0 -21 -9 -42t-26 -37t-41.5 -26t-56.5 -10q-45 0 -83.5 21.5t-58.5 63.5l69 31q8 -14 25 -25t43 -11q20 0 35 12t15 30q0 17 -12 29t-41 12
h-29v74h37q14 0 21 3.5t11 7.5q8 8 8 19q0 17 -13.5 25t-29.5 8q-15 0 -31.5 -8t-25.5 -20z" />
    <glyph glyph-name="three.dnom.ss05" horiz-adv-x="328" 
d="M39 305q14 24 45.5 44.5t82.5 20.5q25 0 47.5 -8t39 -21.5t26 -31.5t9.5 -39q0 -23 -10 -43t-30 -35q23 -14 34 -37.5t11 -49.5q0 -21 -9 -42t-26 -37t-41.5 -26t-56.5 -10q-45 0 -83.5 21.5t-58.5 63.5l69 31q8 -14 25 -25t43 -11q20 0 35 12t15 30q0 17 -12 29t-41 12
h-29v74h37q14 0 21 3.5t11 7.5q8 8 8 19q0 17 -13.5 25t-29.5 8q-15 0 -31.5 -8t-25.5 -20z" />
    <glyph glyph-name="three.osf.ss05" horiz-adv-x="534" 
d="M48 395q32 63 86 96.5t124 33.5q45 0 83.5 -15.5t66.5 -42t44 -61t16 -73.5q0 -43 -18.5 -77t-50.5 -59q41 -23 67.5 -67.5t26.5 -101.5q0 -45 -17.5 -84.5t-48.5 -69.5t-74 -47t-95 -17q-88 0 -150 40.5t-95 118.5l104 47q20 -41 52.5 -66t84.5 -25q23 0 43 8.5
t34.5 22.5t23 33.5t8.5 41.5q0 29 -13.5 53.5t-37.5 38.5q-14 8 -32 11.5t-50 3.5h-32v110h31q35 0 53 5.5t30 15.5q26 22 26 60q0 34 -23.5 57.5t-62.5 23.5q-66 0 -102 -62z" />
    <glyph glyph-name="three.tf.ss05" 
d="M499 517q0 -43 -18.5 -77t-51.5 -60q42 -23 68.5 -68t26.5 -103q0 -45 -17.5 -85t-49 -69.5t-75 -47t-95.5 -17.5q-88 0 -151.5 40.5t-96.5 119.5l109 48q20 -40 51.5 -64t82.5 -24q46 0 77 29.5t31 73.5q0 29 -13.5 52.5t-36.5 37.5q-13 8 -31 11.5t-50 3.5h-35v115h35
q34 0 51.5 5.5t28.5 14.5q26 21 26 58q0 32 -22.5 55.5t-60.5 23.5q-66 0 -100 -60l-108 50q32 63 87 96.5t126 33.5q45 0 84 -15.5t67.5 -42t44.5 -61.5t16 -74z" />
    <glyph glyph-name="three.tosf.ss05" 
d="M76 395q32 63 86 96.5t124 33.5q45 0 83.5 -15.5t66.5 -42t44 -61t16 -73.5q0 -43 -18.5 -77t-50.5 -59q41 -23 67.5 -67.5t26.5 -101.5q0 -45 -17.5 -84.5t-48.5 -69.5t-74 -47t-95 -17q-88 0 -150 40.5t-95 118.5l104 47q20 -41 52.5 -66t84.5 -25q23 0 43 8.5
t34.5 22.5t23 33.5t8.5 41.5q0 29 -13.5 53.5t-37.5 38.5q-14 8 -32 11.5t-50 3.5h-32v110h31q35 0 53 5.5t30 15.5q26 22 26 60q0 34 -23.5 57.5t-62.5 23.5q-66 0 -102 -62z" />
    <glyph glyph-name="uni2189.afrc.zero.ss05" 
d="M437 624q0 -38 -7.5 -72t-24 -60.5t-43 -42t-65.5 -15.5t-66 15.5t-43.5 42t-23.5 60.5t-7 72q0 37 7 71.5t23.5 61t43.5 42t66 15.5t65.5 -15.5t43 -42t24 -61t7.5 -71.5zM347 624v10t-1 10l-75 -125q12 -10 26 -10q15 0 24.5 9.5t15.5 25.5t8 36.5t2 43.5zM247 624v-10
t1 -10l75 125q-12 10 -26 10q-15 0 -24.5 -9.5t-15.5 -25.5t-8 -37t-2 -43zM72 312v81h450v-81h-450zM177 205q14 24 45.5 44.5t82.5 20.5q25 0 47.5 -8t39 -21.5t26 -31.5t9.5 -39q0 -23 -10 -43t-30 -35q23 -14 34 -37.5t11 -49.5q0 -21 -9 -42t-26 -37t-41.5 -26
t-56.5 -10q-45 0 -83.5 21.5t-58.5 63.5l69 31q8 -14 25 -25t43 -11q20 0 35 12t15 30q0 17 -12 29t-41 12h-29v74h37q14 0 21 3.5t11 7.5q8 8 8 19q0 17 -13.5 25t-29.5 8q-15 0 -31.5 -8t-25.5 -20z" />
    <glyph glyph-name="onethird.afrc.ss03.ss05" 
d="M70 312v81h450v-81h-450zM343 815v-370h-95v315zM175 205q14 24 45.5 44.5t82.5 20.5q25 0 47.5 -8t39 -21.5t26 -31.5t9.5 -39q0 -23 -10 -43t-30 -35q23 -14 34 -37.5t11 -49.5q0 -21 -9 -42t-26 -37t-41.5 -26t-56.5 -10q-45 0 -83.5 21.5t-58.5 63.5l69 31
q8 -14 25 -25t43 -11q20 0 35 12t15 30q0 17 -12 29t-41 12h-29v74h37q14 0 21 3.5t11 7.5q8 8 8 19q0 17 -13.5 25t-29.5 8q-15 0 -31.5 -8t-25.5 -20z" />
    <glyph glyph-name="twothirds.afrc.ss04.ss05" 
d="M69 312v81h450v-81h-450zM172 632q-13 26 -13 58q0 27 10 49.5t28 39.5t42 26.5t52 9.5q27 0 50 -10t40.5 -27t27.5 -39.5t10 -48.5q0 -29 -14 -60t-52 -69l-34 -34h105v-82h-255v50l115 115q26 26 35.5 43.5t9.5 36.5q0 20 -12 31.5t-31 11.5q-18 0 -30.5 -11.5
t-12.5 -31.5q0 -5 1.5 -12t3.5 -13zM174 205q14 24 45.5 44.5t82.5 20.5q25 0 47.5 -8t39 -21.5t26 -31.5t9.5 -39q0 -23 -10 -43t-30 -35q23 -14 34 -37.5t11 -49.5q0 -21 -9 -42t-26 -37t-41.5 -26t-56.5 -10q-45 0 -83.5 21.5t-58.5 63.5l69 31q8 -14 25 -25t43 -11
q20 0 35 12t15 30q0 17 -12 29t-41 12h-29v74h37q14 0 21 3.5t11 7.5q8 8 8 19q0 17 -13.5 25t-29.5 8q-15 0 -31.5 -8t-25.5 -20z" />
    <glyph glyph-name="endash.ss06" horiz-adv-x="1220" 
d="M1155 315v-110h-1090v110h1090z" />
    <glyph glyph-name="emdash.ss06" horiz-adv-x="1520" 
d="M1455 315v-110h-1390v110h1390z" />
    <glyph glyph-name="endash.case.ss06" horiz-adv-x="1224" 
d="M1157 430v-110h-1090v110h1090z" />
    <glyph glyph-name="emdash.case.ss06" horiz-adv-x="1524" 
d="M1457 430v-110h-1390v110h1390z" />
    <glyph glyph-name="asterisk.ss07" horiz-adv-x="516" 
d="M173 700l85 -117l85 117l88 -64l-85 -117l138 -45l-34 -104l-137 45v-145h-110v145l-137 -44l-34 103l138 45l-85 117z" />
    <glyph glyph-name="asterisk.ss08" horiz-adv-x="526" 
d="M263 370l-62 -108l-96 55l63 108h-125v110h125l-63 108l96 55l62 -107l62 107l96 -55l-62 -108h124v-110h-124l62 -108l-96 -55z" />
    <glyph glyph-name="asterisk.ss09" horiz-adv-x="524" 
d="M372 480l108 -62l-55 -96l-108 63v-125h-110v125l-108 -63l-55 96l107 62l-107 62l55 96l108 -62v124h110v-124l108 62l55 -96z" />
    <glyph glyph-name="bullet.ss10" horiz-adv-x="445" 
d="M65 242q0 33 12.5 61.5t33.5 50t49.5 34t61.5 12.5t61.5 -12.5t50 -34t34 -50t12.5 -61.5t-12.5 -61.5t-34 -49.5t-50 -33.5t-61.5 -12.5t-61.5 12.5t-49.5 33.5t-33.5 49.5t-12.5 61.5z" />
    <glyph glyph-name="bullet.case.ss10" horiz-adv-x="442" 
d="M65 350q0 33 12.5 61.5t33.5 50t49.5 34t61.5 12.5t61.5 -12.5t50 -34t34 -50t12.5 -61.5t-12.5 -61.5t-34 -49.5t-50 -33.5t-61.5 -12.5t-61.5 12.5t-49.5 33.5t-33.5 49.5t-12.5 61.5z" />
    <glyph glyph-name="orn001" horiz-adv-x="770" 
d="M590 445h-145v145h-120v-145h-145v-120h145v-145h120v145h145v120zM385 -10q-51 18 -95.5 42t-82 59.5t-68 84t-54.5 115.5q-11 31 -18 66t-10.5 70.5t-5 70t-1.5 63.5q0 35 0.5 53.5t2.5 38.5q79 29 158 43t174 14t174 -14t158 -43q2 -20 2.5 -38.5t0.5 -53.5
q0 -29 -1.5 -63.5t-5 -70t-10.5 -70.5t-18 -66q-24 -67 -54.5 -115.5t-68 -84t-82 -59.5t-95.5 -42z" />
    <glyph glyph-name="orn002" horiz-adv-x="780" 
d="M350 648q-75 -5 -132 -38t-100 -90h232v128zM662 520q-43 57 -100 90t-132 38v-128h232zM398 51q-21 -9 -36.5 -19.5t-28 -20t-24 -15.5t-24.5 -6q-9 0 -17 6t-8 17q0 8 6 14t15 6q11 0 15.5 -5.5t12.5 -5.5q9 0 12.5 11t3.5 25v167l25 11v259h-260q-20 0 -30 7t-10 16
q0 15 13 15q8 0 12.5 -5.5t16.5 -7.5q19 42 49.5 77t69.5 60t84.5 39t94.5 14t94.5 -14t84 -39t69 -60t50.5 -77q12 2 16.5 7.5t12.5 5.5q13 0 13 -15q0 -9 -10 -16t-30 -7h-260v-430z" />
    </font>
</defs>
</svg>
